<svg xmlns="http://www.w3.org/2000/svg" xmlns:xlink="http://www.w3.org/1999/xlink" width="103" height="103" viewBox="0 0 103 103">
  <defs>
    <filter id="Elipse_4909" x="0" y="0" width="103" height="103" filterUnits="userSpaceOnUse">
      <feOffset dy="3" input="SourceAlpha"/>
      <feGaussianBlur stdDeviation="3" result="blur"/>
      <feFlood flood-opacity="0.161"/>
      <feComposite operator="in" in2="blur"/>
      <feComposite in="SourceGraphic"/>
    </filter>
  </defs>
  <g id="Grupo_1004857" data-name="Grupo 1004857" transform="translate(-591 -1903)">
    <g transform="matrix(1, 0, 0, 1, 591, 1903)" filter="url(#Elipse_4909)">
      <circle id="Elipse_4909-2" data-name="Elipse 4909" cx="42.5" cy="42.5" r="42.5" transform="translate(9 6)" fill="#ffd3c3"/>
    </g>
    <path id="Trazado_630847" data-name="Trazado 630847" d="M273.382,7.8l-1.68-.1h-.791a.494.494,0,0,0-.494.494V13.98h3.459l-.1-5.782C273.777,7.925,273.655,7.8,273.382,7.8Z" transform="translate(373.749 1922.199)" fill="#8aaadc"/>
    <path id="Trazado_630848" data-name="Trazado 630848" d="M285.591,8.2v5.782h-1.68V8.2a.494.494,0,0,0-.494-.494h1.68A.494.494,0,0,1,285.591,8.2Z" transform="translate(362.034 1922.197)" fill="#7398d4"/>
    <path id="Trazado_630849" data-name="Trazado 630849" d="M212.965,7.8l-1.676-.1h-.795A.494.494,0,0,0,210,8.2V13.98h3.459l-.1-5.782C213.36,7.925,213.238,7.8,212.965,7.8Z" transform="translate(428.195 1922.199)" fill="#e94444"/>
    <path id="Trazado_630850" data-name="Trazado 630850" d="M225.174,8.2v5.782h-1.68V8.2A.494.494,0,0,0,223,7.706h1.68A.494.494,0,0,1,225.174,8.2Z" transform="translate(416.48 1922.197)" fill="#d83131"/>
    <path id="Trazado_630851" data-name="Trazado 630851" d="M192.259,249.16a5.182,5.182,0,1,1-5.182-5.182,5.182,5.182,0,0,1,5.182,5.182Z" transform="translate(453.523 1709.277)" fill="#8aaadc"/>
    <path id="Trazado_630852" data-name="Trazado 630852" d="M238.435,255.282l-.343-.053-.561-.247a.987.987,0,0,1-.515-1.28,30.96,30.96,0,0,0,2.684-12.147,19.272,19.272,0,0,0-2.963-10.158l2.413-1.576a22.2,22.2,0,0,1,3.417,11.7,33.893,33.893,0,0,1-2.92,13.343A.843.843,0,0,1,238.435,255.282Z" transform="translate(404.101 1722.035)" fill="#e94444"/>
    <path id="Trazado_630853" data-name="Trazado 630853" d="M252.1,254.866a.987.987,0,0,1-1.31.519l-.343-.151a.973.973,0,0,0,.269-.368,33.9,33.9,0,0,0,2.921-13.343,22.189,22.189,0,0,0-3.036-11.067l1-.63a22.191,22.191,0,0,1,3.417,11.7A33.9,33.9,0,0,1,252.1,254.866Z" transform="translate(391.743 1722.03)" fill="#d83131"/>
    <path id="Trazado_630854" data-name="Trazado 630854" d="M48.577,58.806c-4.456,6.066-10.62,9.783-17.554,12.96q-1.072.491-2.164.964a10.6,10.6,0,0,0-4.652,4.009c-4.4,7.008-10.335,10.791-18.071,11.627A5.537,5.537,0,0,1,4.2,88.333a5.567,5.567,0,0,1-4.2-5.4V69.261A14.045,14.045,0,0,1,14.045,55.216h18l14.824.1a2.145,2.145,0,0,1,1.709,3.491Z" transform="translate(617.44 1879.383)" fill="#f47c7c"/>
    <path id="Trazado_630855" data-name="Trazado 630855" d="M316.084,58.806c-4.456,6.066-10.718,9.882-17.653,13.059-2.407-4.91-2.414-10.377,1.021-16.648h14.824A2.251,2.251,0,0,1,316.084,58.806Z" transform="translate(350.033 1879.383)" fill="#e94444"/>
    <path id="Trazado_630856" data-name="Trazado 630856" d="M68.839,211.886q.236.587.52,1.164-1.072.491-2.164.964a10.135,10.135,0,0,0-4.553,3.91c-4.4,7.008-10.434,10.889-18.169,11.725a5.487,5.487,0,0,1-1.932-.131c7.242-1.06,12.934-4.9,17.137-11.594a10.135,10.135,0,0,1,4.553-3.91q1.091-.473,2.164-.964Q67.632,212.482,68.839,211.886Z" transform="translate(579.104 1738.197)" fill="#ee6161"/>
    <path id="Trazado_630857" data-name="Trazado 630857" d="M326.812,58.806c-4.456,6.066-10.718,9.882-17.653,13.059q-.283-.577-.52-1.164c5.954-2.952,11.282-6.551,15.207-11.895a2.251,2.251,0,0,0-1.808-3.59H325A2.251,2.251,0,0,1,326.812,58.806Z" transform="translate(339.304 1879.383)" fill="#d83131"/>
    <g id="Grupo_1004557" data-name="Grupo 1004557" transform="translate(622.535 1958.543)">
      <path id="Trazado_630858" data-name="Trazado 630858" d="M52.3,334.789a.741.741,0,1,1,.741-.741A.741.741,0,0,1,52.3,334.789Z" transform="translate(-51.555 -329.766)" fill="#e94444"/>
      <path id="Trazado_630859" data-name="Trazado 630859" d="M84.777,318.089a.741.741,0,1,1,.741-.741A.741.741,0,0,1,84.777,318.089Z" transform="translate(-80.826 -314.717)" fill="#e94444"/>
      <path id="Trazado_630860" data-name="Trazado 630860" d="M52.3,298.964a.741.741,0,1,1,.741-.741A.741.741,0,0,1,52.3,298.964Z" transform="translate(-51.555 -297.482)" fill="#e94444"/>
    </g>
  </g>
</svg>
