<svg xmlns="http://www.w3.org/2000/svg" xmlns:xlink="http://www.w3.org/1999/xlink" width="154" height="154" viewBox="0 0 154 154">
  <defs>
    <linearGradient id="linear-gradient" x1="0.5" x2="0.5" y2="1" gradientUnits="objectBoundingBox">
      <stop offset="0" stop-color="#fff"/>
      <stop offset="1" stop-color="#e9e9e9"/>
    </linearGradient>
    <filter id="Elipse_7658" x="0" y="0" width="154" height="154" filterUnits="userSpaceOnUse">
      <feOffset dy="3" input="SourceAlpha"/>
      <feGaussianBlur stdDeviation="3" result="blur"/>
      <feFlood flood-opacity="0.161"/>
      <feComposite operator="in" in2="blur"/>
      <feComposite in="SourceGraphic"/>
    </filter>
  </defs>
  <g id="Grupo_1004865" data-name="Grupo 1004865" transform="translate(-276 -5397.259)">
    <g transform="matrix(1, 0, 0, 1, 276, 5397.26)" filter="url(#Elipse_7658)">
      <circle id="Elipse_7658-2" data-name="Elipse 7658" cx="68" cy="68" r="68" transform="translate(9 6)" fill="url(#linear-gradient)"/>
    </g>
    <g id="descargar" transform="translate(298.667 5421.926)">
      <path id="Trazado_630927" data-name="Trazado 630927" d="M94.934,37.336a14.011,14.011,0,0,0-6.551-3.894,20.934,20.934,0,0,0-5.22-11.486,21.773,21.773,0,0,0-10.8-6.536,17.959,17.959,0,0,0-35.484-.47,21.718,21.718,0,0,0-12.3,6.092,20.869,20.869,0,0,0-6.028,11.912H13.98a13.7,13.7,0,1,0,0,27.386H84.686a13.854,13.854,0,0,0,13.98-13.693,13.491,13.491,0,0,0-3.731-9.311Z" transform="translate(0 0)" fill="#ffbca4"/>
      <path id="Trazado_630928" data-name="Trazado 630928" d="M317.869,37.336a14.011,14.011,0,0,0-6.551-3.894,20.934,20.934,0,0,0-5.22-11.486,21.773,21.773,0,0,0-10.8-6.536A17.794,17.794,0,0,0,277.518,0c-.461,0-.916.021-1.368.055V60.224s23.586.116,25.183.116h6.287A13.854,13.854,0,0,0,321.6,46.647a13.491,13.491,0,0,0-3.731-9.311Z" transform="translate(-222.934 0)" fill="#ffa686"/>
      <path id="Trazado_630929" data-name="Trazado 630929" d="M189.335,171.333h-32.2a8.423,8.423,0,0,0-8.468,8.357v41.826a8.423,8.423,0,0,0,8.468,8.357h31.785l8.878-23.74V179.69A8.422,8.422,0,0,0,189.335,171.333Z" transform="translate(-120.022 -138.316)" fill="#e7f0ef"/>
      <path id="Trazado_630930" data-name="Trazado 630930" d="M292.248,171.333h-16.1v58.539h15.688l8.878-23.74V179.69a8.423,8.423,0,0,0-8.468-8.357Z" transform="translate(-222.934 -138.316)" fill="#d6dbda"/>
      <path id="Trazado_630931" data-name="Trazado 630931" d="M346.545,354.411a2.891,2.891,0,0,0-2.621-1.671h-1.017V339.808a2.891,2.891,0,0,0-2.891-2.891H333.7a9.151,9.151,0,0,0-9.2,9.077v6.746h-1.017a2.891,2.891,0,0,0-2.211,4.753l10.22,12.136a2.891,2.891,0,0,0,4.422,0l10.22-12.136A2.891,2.891,0,0,0,346.545,354.411Z" transform="translate(-258.812 -271.991)" fill="#90cc1c"/>
      <path id="Trazado_630932" data-name="Trazado 630932" d="M233.085,318.3H213.673a2.891,2.891,0,0,1,0-5.781h19.412a2.891,2.891,0,0,1,0,5.781Z" transform="translate(-170.163 -252.293)" fill="#787780"/>
      <path id="Trazado_630933" data-name="Trazado 630933" d="M233.085,259.5H213.673a2.891,2.891,0,0,1,0-5.781h19.412a2.891,2.891,0,0,1,0,5.781Z" transform="translate(-170.163 -204.824)" fill="#787780"/>
      <path id="Trazado_630934" data-name="Trazado 630934" d="M285.856,312.517H276.15V318.3h9.706a2.891,2.891,0,1,0,0-5.781Z" transform="translate(-222.934 -252.293)" fill="#57555c"/>
      <path id="Trazado_630935" data-name="Trazado 630935" d="M288.747,256.608a2.891,2.891,0,0,0-2.891-2.891H276.15V259.5h9.706A2.891,2.891,0,0,0,288.747,256.608Z" transform="translate(-222.934 -204.824)" fill="#57555c"/>
      <path id="Trazado_630936" data-name="Trazado 630936" d="M401.47,354.411a2.891,2.891,0,0,0-2.621-1.671h-1.017V339.808a2.891,2.891,0,0,0-2.891-2.891h-6.312v33.74a2.89,2.89,0,0,0,2.211-1.029l10.22-12.136A2.89,2.89,0,0,0,401.47,354.411Z" transform="translate(-313.738 -271.991)" fill="#adce32"/>
    </g>
  </g>
</svg>
