<svg xmlns="http://www.w3.org/2000/svg" xmlns:xlink="http://www.w3.org/1999/xlink" width="154" height="154" viewBox="0 0 154 154">
  <defs>
    <linearGradient id="linear-gradient" x1="0.5" x2="0.5" y2="1" gradientUnits="objectBoundingBox">
      <stop offset="0" stop-color="#fff"/>
      <stop offset="1" stop-color="#e9e9e9"/>
    </linearGradient>
    <filter id="Elipse_7691" x="0" y="0" width="154" height="154" filterUnits="userSpaceOnUse">
      <feOffset dy="3" input="SourceAlpha"/>
      <feGaussianBlur stdDeviation="3" result="blur"/>
      <feFlood flood-opacity="0.161"/>
      <feComposite operator="in" in2="blur"/>
      <feComposite in="SourceGraphic"/>
    </filter>
  </defs>
  <g id="Grupo_1004863" data-name="Grupo 1004863" transform="translate(-276 -4772.259)">
    <g transform="matrix(1, 0, 0, 1, 276, 4772.26)" filter="url(#Elipse_7691)">
      <circle id="Elipse_7691-2" data-name="Elipse 7691" cx="68" cy="68" r="68" transform="translate(9 6)" fill="url(#linear-gradient)"/>
    </g>
    <g id="bacterias_1_" data-name="bacterias (1)" transform="translate(296.847 4781.52)">
      <path id="Trazado_632483" data-name="Trazado 632483" d="M105.141,11a53.59,53.59,0,0,0-39.3,17.09l21.127,87.239A53.746,53.746,0,1,0,105.141,11Z" transform="translate(-51.4)" fill="#fed402"/>
      <path id="Trazado_632484" data-name="Trazado 632484" d="M55.871,89.627a42.522,42.522,0,0,0-16.932,3.494,53.9,53.9,0,0,0-3.481,5.037,3.881,3.881,0,0,0,3.433,4.8l4.382,5.413a8.358,8.358,0,0,0,2.69,5.212,7.543,7.543,0,0,0,5.665,1.534l3.385,5.353c-.473,1.107-2.877,7.278-.324,12.908,1.615,3.561,4.884,6.133,9.72,7.647a5.832,5.832,0,0,0-.536,4.216,5.247,5.247,0,0,0,3.177,3.141l.435.958a6.669,6.669,0,0,0,.014,5.241c.817,1.637,2.492,2.771,4.981,3.374-.379.924-1.167,3.347-.077,5.429.861,1.643,2.681,2.669,5.411,3.052a1.371,1.371,0,0,1,1.2.853,2.37,2.37,0,0,1,.15.756,42.668,42.668,0,0,0-23.3-78.416Z" transform="translate(-27.614 -61.382)" fill="#3c58a0"/>
      <path id="Trazado_632485" data-name="Trazado 632485" d="M51.863,194.719a1.742,1.742,0,0,0-1.615-1.733c-8.538-1.2-4.917-8.387-4.917-8.387-8.19-1.741-5.1-8.386-5.1-8.386l-.548-1.206c-5.557-2.34-2.4-7.3-2.4-7.3-16.624-4.925-9.51-20.387-9.51-20.387l-3.587-5.671c-7.622.768-8.208-6.531-8.208-6.531l-4.517-5.58c-4.735-.965-3.141-5.14-3-5.48a53.755,53.755,0,0,0,22.638,77.688A42.432,42.432,0,0,0,51.863,194.719Z" transform="translate(0 -88.26)" fill="#1c2e7a"/>
      <path id="Trazado_632486" data-name="Trazado 632486" d="M148.654,437.63a2.338,2.338,0,0,0-3.235-.682,40.171,40.171,0,0,1-21.992,6.518c-.507,0-1.012-.013-1.515-.031a53.478,53.478,0,0,0,8.827,4.114,44.749,44.749,0,0,0,17.232-6.683A2.338,2.338,0,0,0,148.654,437.63Z" transform="translate(-95.171 -332.221)" fill="#4fabf7"/>
      <g id="Grupo_1004814" data-name="Grupo 1004814" transform="translate(49.186 39.886)">
        <g id="Grupo_1004813" data-name="Grupo 1004813">
          <path id="Trazado_632487" data-name="Trazado 632487" d="M226.577,211.835a2.338,2.338,0,0,1-1.279-4.3,40.337,40.337,0,0,0,7.862-60.93,2.338,2.338,0,1,1,3.46-3.145,45.014,45.014,0,0,1-8.769,67.992A2.328,2.328,0,0,1,226.577,211.835Z" transform="translate(-224.237 -142.698)" fill="#2ed1e2"/>
        </g>
      </g>
      <path id="Trazado_632488" data-name="Trazado 632488" d="M58.387,78.969a45.031,45.031,0,0,0-13.814,2.18A53.957,53.957,0,0,0,38.6,88.835a40.451,40.451,0,0,1,19.789-5.19,2.338,2.338,0,1,0,0-4.676Z" transform="translate(-30.132 -53.062)" fill="#2ed1e2"/>
      <g id="Grupo_1004816" data-name="Grupo 1004816" transform="translate(25.918 25.907)">
        <g id="Grupo_1004815" data-name="Grupo 1004815">
          <path id="Trazado_632489" data-name="Trazado 632489" d="M152.082,97.624a2.332,2.332,0,0,1-1.731-.766A40.426,40.426,0,0,0,120.5,83.645a2.338,2.338,0,0,1,0-4.676,45.11,45.11,0,0,1,33.314,14.744,2.338,2.338,0,0,1-1.729,3.91Z" transform="translate(-118.159 -78.969)" fill="#9bd8f9"/>
        </g>
      </g>
      <g id="Grupo_1004817" data-name="Grupo 1004817" transform="translate(0.333 70.921)">
        <circle id="Elipse_7682" data-name="Elipse 7682" cx="4.246" cy="4.246" r="4.246" transform="translate(0 8.296) rotate(-77.589)" fill="#2ed1e2"/>
      </g>
      <g id="Grupo_1004818" data-name="Grupo 1004818" transform="translate(5.745 84.042)">
        <ellipse id="Elipse_7683" data-name="Elipse 7683" cx="4.246" cy="7.669" rx="4.246" ry="7.669" transform="translate(0 3.889) rotate(-27.257)" fill="#46cc8d"/>
      </g>
      <g id="Grupo_1004819" data-name="Grupo 1004819" transform="translate(35.413 38.856)">
        <circle id="Elipse_7684" data-name="Elipse 7684" cx="5.934" cy="5.934" r="5.934" transform="translate(0 8.391) rotate(-45)" fill="#fdb441"/>
      </g>
      <path id="Trazado_632490" data-name="Trazado 632490" d="M67.355,158.623a8.358,8.358,0,0,0,2.69,5.212,7.543,7.543,0,0,0,5.665,1.534l.67,1.059c.09,0,.18-.007.27-.007a6.21,6.21,0,0,0,0-12.421,18.421,18.421,0,0,0-10.428,3.223Z" transform="translate(-51.696 -111.635)" fill="#97da7b"/>
      <path id="Trazado_632491" data-name="Trazado 632491" d="M35.505,189.56a6.21,6.21,0,0,0,6.21-6.21,6.114,6.114,0,0,1,6.107-6.107l.113,0-.882-1.4c-7.622.768-8.208-6.531-8.208-6.531l-1.175-1.451a18.523,18.523,0,0,0-8.376,15.487,6.211,6.211,0,0,0,6.21,6.21Z" transform="translate(-22.869 -122.456)" fill="#46cc8d"/>
      <path id="Trazado_632492" data-name="Trazado 632492" d="M188.224,247.032a9.323,9.323,0,1,0-18.576,1.616,9.179,9.179,0,0,1-4.593,8.756,5.745,5.745,0,0,0-.462,4.066,5.247,5.247,0,0,0,3.178,3.141l.435.958a6.669,6.669,0,0,0,.014,5.241c.817,1.637,2.492,2.771,4.981,3.374l-.005.013A27.857,27.857,0,0,0,188.224,247.032Z" transform="translate(-128.333 -177.612)" fill="#fe76a8"/>
      <path id="Trazado_632493" data-name="Trazado 632493" d="M121.639,343.141a27.658,27.658,0,0,0,10.739-3.2c-8.189-1.741-5.1-8.385-5.1-8.385l-.548-1.206c-5.557-2.34-2.4-7.3-2.4-7.3h0a9.109,9.109,0,0,1-4.306,1.519,9.323,9.323,0,0,0,1.617,18.577Z" transform="translate(-87.048 -243.6)" fill="#fe3d97"/>
      <g id="Grupo_1004821" data-name="Grupo 1004821" transform="translate(15.474 66.938)">
        <g id="Grupo_1004820" data-name="Grupo 1004820">
          <path id="Trazado_632494" data-name="Trazado 632494" d="M72.595,281.059a1.871,1.871,0,0,1-1.791-1.333,6.088,6.088,0,0,1,.7-5.039,5.438,5.438,0,0,1,4.669-1.993,2.737,2.737,0,0,0,2.78-1.424,1.975,1.975,0,0,0-.279-2.052,1.87,1.87,0,1,1,2.645-2.645,5.662,5.662,0,0,1,1.09,6.128c-.968,2.338-3.3,3.733-6.236,3.733-.488,0-1.354.063-1.668.485a2.466,2.466,0,0,0-.123,1.731,1.873,1.873,0,0,1-1.792,2.409Z" transform="translate(-70.547 -266.025)" fill="#fe76a8"/>
        </g>
      </g>
      <g id="Grupo_1004822" data-name="Grupo 1004822" transform="translate(11.305 65.233)">
        <path id="Trazado_632495" data-name="Trazado 632495" d="M53.407,264.694a1.871,1.871,0,0,1-1.87-1.87v-2.7a1.87,1.87,0,0,1,3.741,0v2.7A1.871,1.871,0,0,1,53.407,264.694Z" transform="translate(-51.537 -258.253)" fill="#d1f19e"/>
      </g>
      <g id="Grupo_1004823" data-name="Grupo 1004823" transform="translate(16.685 60.838)">
        <path id="Trazado_632496" data-name="Trazado 632496" d="M80.444,242.594a1.871,1.871,0,0,1-.464-.059l-2.5-.639a1.87,1.87,0,1,1,.925-3.624l2.5.639a1.871,1.871,0,0,1-.461,3.683Z" transform="translate(-76.068 -238.214)" fill="#d1f19e"/>
      </g>
      <g id="Grupo_1004824" data-name="Grupo 1004824" transform="translate(23.313 53.098)">
        <path id="Trazado_632497" data-name="Trazado 632497" d="M109.743,209.181a1.869,1.869,0,0,1-1.583-.871l-1.587-2.51a1.87,1.87,0,0,1,3.162-2l1.587,2.51a1.871,1.871,0,0,1-1.579,2.87Z" transform="translate(-106.284 -202.93)" fill="#d1f19e"/>
      </g>
      <g id="Grupo_1004825" data-name="Grupo 1004825" transform="translate(29.162 47.976)">
        <path id="Trazado_632498" data-name="Trazado 632498" d="M137.5,184.262a1.868,1.868,0,0,1-.621-.106l-2.676-.941a1.87,1.87,0,0,1,1.241-3.529l2.676.941a1.871,1.871,0,0,1-.621,3.635Z" transform="translate(-132.95 -179.579)" fill="#d1f19e"/>
      </g>
      <g id="Grupo_1004826" data-name="Grupo 1004826" transform="translate(27.498 40.495)">
        <path id="Trazado_632499" data-name="Trazado 632499" d="M127.233,151.057a1.87,1.87,0,0,1-1.34-3.175l1.8-1.844a1.87,1.87,0,1,1,2.68,2.61l-1.8,1.844A1.864,1.864,0,0,1,127.233,151.057Z" transform="translate(-125.363 -145.473)" fill="#d1f19e"/>
      </g>
      <g id="Grupo_1004827" data-name="Grupo 1004827" transform="translate(19.413 38.016)">
        <path id="Trazado_632500" data-name="Trazado 632500" d="M90.373,140.757a1.87,1.87,0,0,1-1.87-1.87v-2.845a1.87,1.87,0,1,1,3.741,0v2.845A1.871,1.871,0,0,1,90.373,140.757Z" transform="translate(-88.503 -134.171)" fill="#d1f19e"/>
      </g>
      <g id="Grupo_1004828" data-name="Grupo 1004828" transform="translate(10.766 40.861)">
        <path id="Trazado_632501" data-name="Trazado 632501" d="M53.117,153.555a1.866,1.866,0,0,1-1.455-.694L49.5,150.188a1.87,1.87,0,1,1,2.907-2.353l2.163,2.673a1.87,1.87,0,0,1-1.453,3.047Z" transform="translate(-49.082 -147.141)" fill="#d1f19e"/>
      </g>
      <g id="Grupo_1004829" data-name="Grupo 1004829" transform="translate(4.555 47.144)">
        <path id="Trazado_632502" data-name="Trazado 632502" d="M25.8,181.068a1.861,1.861,0,0,1-.818-.189l-3.16-1.539a1.87,1.87,0,0,1,1.638-3.363l3.16,1.539a1.871,1.871,0,0,1-.82,3.552Z" transform="translate(-20.768 -175.788)" fill="#d1f19e"/>
      </g>
      <g id="Grupo_1004830" data-name="Grupo 1004830" transform="translate(1.992 54.626)">
        <path id="Trazado_632503" data-name="Trazado 632503" d="M13.878,214.384a1.875,1.875,0,0,1-.465-.059l-2.925-.748a1.87,1.87,0,0,1,.927-3.624l2.925.748a1.871,1.871,0,0,1-.462,3.683Z" transform="translate(-9.081 -209.894)" fill="#d1f19e"/>
      </g>
      <g id="Grupo_1004831" data-name="Grupo 1004831" transform="translate(2.696 62.275)">
        <path id="Trazado_632504" data-name="Trazado 632504" d="M14.162,249.567a1.871,1.871,0,0,1-.667-3.618l2.779-1.06a1.87,1.87,0,1,1,1.333,3.495l-2.779,1.06a1.856,1.856,0,0,1-.666.124Z" transform="translate(-12.291 -244.766)" fill="#d1f19e"/>
      </g>
      <circle id="Elipse_7685" data-name="Elipse 7685" cx="4.667" cy="4.667" r="4.667" transform="translate(44.82 67.611) rotate(-19.45)" fill="#fea3c6"/>
      <circle id="Elipse_7686" data-name="Elipse 7686" cx="2.334" cy="2.334" r="2.334" transform="translate(46.109 81.356)" fill="#fea3c6"/>
      <circle id="Elipse_7687" data-name="Elipse 7687" cx="2.334" cy="2.334" r="2.334" transform="translate(42.996 44.505)" fill="#fed402"/>
      <circle id="Elipse_7688" data-name="Elipse 7688" cx="3.743" cy="3.743" r="3.743" transform="matrix(0.161, -0.987, 0.987, 0.161, 32.987, 91.83)" fill="#fea3c6"/>
      <path id="Trazado_632505" data-name="Trazado 632505" d="M165.813,11.393A54.286,54.286,0,0,0,159.294,11a53.5,53.5,0,0,0-24.083,5.69,40.984,40.984,0,0,0,14.39,5.644C160.089,24.369,164.219,16.751,165.813,11.393Z" transform="translate(-105.553 0)" fill="#fef056"/>
      <path id="Trazado_632506" data-name="Trazado 632506" d="M333.262,305.275c-7.676-2.063-20.264-3.578-24.235,6.986a71.51,71.51,0,0,1-15.035,23.607,10.668,10.668,0,0,0-3.051,7.746,9.252,9.252,0,0,0,.4,2.413A53.806,53.806,0,0,0,333.262,305.275Z" transform="translate(-227.119 -228.571)" fill="#fef056"/>
      <g id="Grupo_1004838" data-name="Grupo 1004838" transform="translate(56.545 13.559)">
        <path id="Trazado_632507" data-name="Trazado 632507" d="M341.684,51.962c-5.462-3.126-7.327-9.778-7.565-10.715a9.584,9.584,0,0,0,.138-9.155,6.589,6.589,0,0,1,.891-7.337,27.912,27.912,0,0,0-27.294,3.474,7.073,7.073,0,0,0,.109,4.1c.721,1.962,2.5,3.38,5.283,4.215l11.822,15.007.033.035c.1.088,9.621,8.846,9.664,19.034a4.981,4.981,0,0,0-.166,3.853,5.272,5.272,0,0,0,1.051,1.669,27.9,27.9,0,0,0,16.671-23.051C348.258,54.055,344.685,53.679,341.684,51.962Z" transform="translate(-296.677 -22.672)" fill="#f3eae6"/>
        <path id="Trazado_632508" data-name="Trazado 632508" d="M426.057,31.675a6.874,6.874,0,0,0-.879,7.576,9.2,9.2,0,0,1-.19,8.976s3.516,15.684,18.48,12.185a27.861,27.861,0,0,0-17.411-28.737Z" transform="translate(-387.852 -29.7)" fill="#f9f3f1"/>
        <path id="Trazado_632509" data-name="Trazado 632509" d="M286.4,70.2,274.519,55.125c-5.816-1.706-5.96-5.58-5.2-8.329A27.885,27.885,0,0,0,297.033,94.85a4.662,4.662,0,0,1-.877-5.332C296.155,79.055,286.4,70.2,286.4,70.2Z" transform="translate(-257.783 -41.504)" fill="#efe2dd"/>
        <g id="Grupo_1004832" data-name="Grupo 1004832" transform="translate(15.413 7.749)">
          <path id="Trazado_632510" data-name="Trazado 632510" d="M330.025,98.262a1.977,1.977,0,0,1-1.977-1.977c0-9.981,5.937-15.118,11.175-19.65,5.044-4.364,9.808-8.486,9.808-16.66a1.977,1.977,0,0,1,3.955,0c0,9.981-5.937,15.118-11.175,19.65C336.767,83.989,332,88.111,332,96.284A1.978,1.978,0,0,1,330.025,98.262Z" transform="translate(-328.048 -57.997)" fill="#fe76a8"/>
        </g>
        <g id="Grupo_1004833" data-name="Grupo 1004833" transform="translate(15.96 11.151)">
          <path id="Trazado_632511" data-name="Trazado 632511" d="M352.409,77.463H332.522a1.977,1.977,0,1,1,0-3.955h19.887a1.977,1.977,0,0,1,0,3.955Z" transform="translate(-330.545 -73.508)" fill="#fea3c6"/>
        </g>
        <g id="Grupo_1004834" data-name="Grupo 1004834" transform="translate(15.96 40.656)">
          <path id="Trazado_632512" data-name="Trazado 632512" d="M352.409,211.976H332.522a1.977,1.977,0,1,1,0-3.955h19.887a1.977,1.977,0,0,1,0,3.955Z" transform="translate(-330.545 -208.021)" fill="#4fabf7"/>
        </g>
        <g id="Grupo_1004835" data-name="Grupo 1004835" transform="translate(19.312 33.28)">
          <path id="Trazado_632513" data-name="Trazado 632513" d="M361.25,178.348H347.8a1.977,1.977,0,0,1,0-3.955H361.25a1.977,1.977,0,1,1,0,3.955Z" transform="translate(-345.826 -174.393)" fill="#fea3c6"/>
        </g>
        <g id="Grupo_1004836" data-name="Grupo 1004836" transform="translate(19.312 18.527)">
          <path id="Trazado_632514" data-name="Trazado 632514" d="M361.25,111.091H347.8a1.977,1.977,0,0,1,0-3.955H361.25a1.977,1.977,0,1,1,0,3.955Z" transform="translate(-345.826 -107.136)" fill="#4fabf7"/>
        </g>
        <g id="Grupo_1004837" data-name="Grupo 1004837" transform="translate(15.413 7.749)">
          <path id="Trazado_632515" data-name="Trazado 632515" d="M351.008,98.262a1.978,1.978,0,0,1-1.977-1.977c0-8.174-4.764-12.3-9.808-16.66-5.238-4.532-11.175-9.669-11.175-19.65a1.977,1.977,0,1,1,3.955,0c0,8.174,4.764,12.3,9.808,16.66,5.238,4.532,11.175,9.669,11.175,19.65A1.978,1.978,0,0,1,351.008,98.262Z" transform="translate(-328.048 -57.997)" fill="#2ed1e2"/>
        </g>
      </g>
    </g>
  </g>
</svg>
