<svg id="Grupo_1004538" data-name="Grupo 1004538" xmlns="http://www.w3.org/2000/svg" xmlns:xlink="http://www.w3.org/1999/xlink" width="317" height="275.768" viewBox="0 0 317 275.768">
  <defs>
    <clipPath id="clip-path">
      <rect id="Rectángulo_347436" data-name="Rectángulo 347436" width="317" height="275.768" fill="none"/>
    </clipPath>
    <clipPath id="clip-path-2">
      <path id="Trazado_630685" data-name="Trazado 630685" d="M69.176,143.993C57,165.577,72.852,182.659,58.611,202.116,43.23,223.132,16.368,214.236,6.96,229.974,2.34,237.7.014,247.076,0,257.361v.173c.028,23.552,12.158,51.849,36.606,76.095A26.788,26.788,0,0,0,55.475,341.4H250.209a54.365,54.365,0,0,0,45.221-24.21,130.555,130.555,0,0,0,16.7-35.241c3.879-12.99,8.267-28.45.842-40.934-6.728-11.312-16.429-8.868-28.633-17.908-28.725-21.279-14.733-64.268-35.042-73.033-8.486-3.662-16.7,1.372-25.4,6.407s-17.881,10.071-28.3,6.4c-18.262-6.428-13.3-29.458-32.562-42.639-8.174-5.593-18.879-8.16-30.219-8.16-24.757,0-52.542,12.231-63.64,31.9" transform="translate(0 -112.089)" fill="#ffbca4"/>
    </clipPath>
    <clipPath id="clip-path-4">
      <rect id="Rectángulo_347416" data-name="Rectángulo 347416" width="12.789" height="48.43" fill="none"/>
    </clipPath>
    <clipPath id="clip-path-5">
      <path id="Trazado_630688" data-name="Trazado 630688" d="M508,507.824c-.75,2.487-1.467,5.128-2.123,7.925H501.4c-3.7-11.479-8.516-31.518-3.739-48.43a35.568,35.568,0,0,1,9.833,19.189,82.13,82.13,0,0,1,.5,21.316" transform="translate(-495.668 -467.319)" fill="none"/>
    </clipPath>
    <linearGradient id="linear-gradient" x1="-3.683" y1="2.09" x2="-3.675" y2="2.09" gradientUnits="objectBoundingBox">
      <stop offset="0" stop-color="#fff"/>
      <stop offset="1" stop-color="#cddbc1"/>
    </linearGradient>
    <clipPath id="clip-path-6">
      <rect id="Rectángulo_347418" data-name="Rectángulo 347418" width="25.159" height="26.526" fill="none"/>
    </clipPath>
    <clipPath id="clip-path-7">
      <path id="Trazado_630692" data-name="Trazado 630692" d="M514.584,602.271,512.2,625.166a2.815,2.815,0,0,1-2.513,2.779H491.505a2.4,2.4,0,0,1-2.058-1.346,27.747,27.747,0,0,0,25.133-25.18,3.761,3.761,0,0,1,0,.853" transform="translate(-489.447 -601.418)" fill="none"/>
    </clipPath>
    <linearGradient id="linear-gradient-2" x1="-5.499" y1="0.866" x2="-5.487" y2="0.866" gradientUnits="objectBoundingBox">
      <stop offset="0" stop-color="#fff"/>
      <stop offset="1" stop-color="#ffa887"/>
    </linearGradient>
    <clipPath id="clip-path-8">
      <rect id="Rectángulo_347420" data-name="Rectángulo 347420" width="109.466" height="67.876" fill="none"/>
    </clipPath>
    <clipPath id="clip-path-9">
      <path id="Trazado_630705" data-name="Trazado 630705" d="M276.812,387.524a35.082,35.082,0,0,1-5.39,13.533c-.922,1.359-1.612,2.135-3.216,4.554-.214.592-.922,3.7-1.719,7.08s-1.694,7.028-2.277,8.688c-1.308,3.726-4,5.69-8.546,9.014-13.581,9.923-31.162,11.741-33.156,11.925-16.415,1.535-41.02,3.362-51.153-11.9-4.828-7.273-5.176-17.38-1.685-26.02,3.414,17.489,9.043,22.877,13.782,24.382,3.918,1.245,6.657-.347,15.725.559a51.541,51.541,0,0,1,5.736.874c4.753,1.017,8.149,2.005,8.733,2.182,5.976,1.811,27.169.431,42.185-15.08a50.8,50.8,0,0,0,13.709-41.88l5.66,1.445q.8,5.32,1.613,10.643" transform="translate(-167.346 -375.436)" fill="none"/>
    </clipPath>
    <linearGradient id="linear-gradient-3" x1="-0.459" y1="1.3" x2="-0.456" y2="1.3" gradientUnits="objectBoundingBox">
      <stop offset="0" stop-color="#fff"/>
      <stop offset="1" stop-color="#eccd8d"/>
    </linearGradient>
    <clipPath id="clip-path-10">
      <rect id="Rectángulo_347422" data-name="Rectángulo 347422" width="17.865" height="11.96" fill="none"/>
    </clipPath>
    <clipPath id="clip-path-11">
      <path id="Trazado_630719" data-name="Trazado 630719" d="M407.435,353.072a14.567,14.567,0,0,1-2.925,3.671,20.5,20.5,0,0,1-7.393,4.429c-3.954,1.385-6.252,1.214-7.547.725,2.625-2.221,5.849-5.1,9.889-8.713l4.262-1.647,3.22-1.243Z" transform="translate(-389.57 -350.293)" fill="none"/>
    </clipPath>
    <linearGradient id="linear-gradient-4" x1="-7.559" y1="7.407" x2="-7.539" y2="7.407" xlink:href="#linear-gradient-3"/>
    <clipPath id="clip-path-12">
      <rect id="Rectángulo_347424" data-name="Rectángulo 347424" width="14.175" height="63.468" fill="none"/>
    </clipPath>
    <clipPath id="clip-path-13">
      <path id="Trazado_630748" data-name="Trazado 630748" d="M232.722,202.326s-.553.043-1.428.116L218.58,175.572q.547-18.3,1.094-36.6c1.522,8.645,4.52,23.615,8.28,31.968,5.506,12.23,4.768,31.385,4.768,31.385" transform="translate(-218.58 -138.973)" fill="none"/>
    </clipPath>
    <linearGradient id="linear-gradient-5" x1="-2.043" y1="3.403" x2="-2.032" y2="3.403" gradientUnits="objectBoundingBox">
      <stop offset="0" stop-color="#fff"/>
      <stop offset="1" stop-color="#ff8c61"/>
    </linearGradient>
    <clipPath id="clip-path-14">
      <rect id="Rectángulo_347426" data-name="Rectángulo 347426" width="35.41" height="61.792" fill="none"/>
    </clipPath>
    <clipPath id="clip-path-15">
      <path id="Trazado_630757" data-name="Trazado 630757" d="M143.434,175.014c-.24-.116-9.726-4.8-14.224-2.479-2.933,1.514-7.517,3.559-9.267,9.614H109.716a493.261,493.261,0,0,1-1.363-58.807c.034-1,.077-1.994.12-2.985a32.513,32.513,0,0,1,5.9,15.382c1.617,11.921-2.054,11.552,7.577,19.682,9.55,8.07,21.3,19.417,21.484,19.592" transform="translate(-108.023 -120.358)" fill="none"/>
    </clipPath>
    <linearGradient id="linear-gradient-6" x1="-0.372" y1="3.612" x2="-0.366" y2="3.612" xlink:href="#linear-gradient-5"/>
    <clipPath id="clip-path-16">
      <rect id="Rectángulo_347428" data-name="Rectángulo 347428" width="24.448" height="145.978" fill="none"/>
    </clipPath>
    <clipPath id="clip-path-17">
      <path id="Trazado_630759" data-name="Trazado 630759" d="M98.286,366.777a47.725,47.725,0,0,0,8.976,4.376,6.419,6.419,0,0,1-4.994,2.072l-11.1-.448a6.4,6.4,0,0,1-6.158-6.312,19.473,19.473,0,0,1,.6-4.869c.046-.174.075-.29.112-.431,1.363-5.168,3.481-17.837,6.925-44.638A328.385,328.385,0,0,1,93.951,277.5q.535-20.881,1.077-41.761c2.466-3.1,4.538-5.964,6.254-8.487l8.172,7.878a40.33,40.33,0,0,0-7.936,13.332,30.339,30.339,0,0,0,.174,21.708,37.977,37.977,0,0,1,2.151,8.073c2.785,17.762-5.085,38.26-5.557,49.246-.543,12.7-5.068,35.744,0,39.287" transform="translate(-85.007 -227.253)" fill="none"/>
    </clipPath>
    <linearGradient id="linear-gradient-7" x1="-0.059" y1="1.262" x2="-0.054" y2="1.262" gradientUnits="objectBoundingBox">
      <stop offset="0" stop-color="#fff"/>
      <stop offset="1" stop-color="#e3a4c8"/>
    </linearGradient>
    <clipPath id="clip-path-18">
      <rect id="Rectángulo_347430" data-name="Rectángulo 347430" width="30.461" height="44.72" fill="none"/>
    </clipPath>
    <clipPath id="clip-path-19">
      <path id="Trazado_630804" data-name="Trazado 630804" d="M644.02,363.443c-.1,1.252-.2,2.478-.278,3.68-2.613-2.442-5.444-5.986-5.971-10.582-.551-4.811,1.8-7.511.1-9.418-1.923-2.158-5.733.395-13.245-1.513-2.488-.632-3.732-.948-4.8-1.773-6.7-5.172-3.426-21.434-3.426-21.434l26.938,7.182s.477.584,1.189,1.442a60.708,60.708,0,0,1,1.38,8.844c.609,7.584-.7,9.383-1.886,23.572" transform="translate(-615.599 -322.403)" fill="none"/>
    </clipPath>
    <linearGradient id="linear-gradient-8" x1="-5.471" y1="2.778" x2="-5.462" y2="2.778" xlink:href="#linear-gradient"/>
    <clipPath id="clip-path-20">
      <rect id="Rectángulo_347432" data-name="Rectángulo 347432" width="10.087" height="23.386" fill="none"/>
    </clipPath>
    <clipPath id="clip-path-21">
      <path id="Trazado_630810" data-name="Trazado 630810" d="M597.286,181.713q-.41,3.649-.816,7.3-.9,8.044-1.794,16.084l-.153-.025q-3.661-1.424-7.323-2.843c.141-6.5,1.638-11.641,3.439-14.02a33.563,33.563,0,0,1,3.716-4.009c.122-.106.9-.77,1.879-1.6.912-.771,1.053-.887,1.053-.887" transform="translate(-587.199 -181.713)" fill="none"/>
    </clipPath>
    <linearGradient id="linear-gradient-9" x1="-24.125" y1="8.572" x2="-24.084" y2="8.572" xlink:href="#linear-gradient"/>
    <clipPath id="clip-path-22">
      <rect id="Rectángulo_347434" data-name="Rectángulo 347434" width="13.619" height="66.117" fill="none"/>
    </clipPath>
    <clipPath id="clip-path-23">
      <path id="Trazado_630812" data-name="Trazado 630812" d="M670.28,277.959c-3.431.029-8.392.058-13.2.091-.294-4.6.539-11.115,1.72-20.336.721-5.611.974-5.168,1.281-8.923.845-10.369-1.049-14.314-.431-22.1a44.394,44.394,0,0,1,3.879-14.762q1.915,4.32,3.759,8.276c-1.069,4.264-1.977,6.9-1.977,6.9-1.276,3.7-2.387,6.113-2.23,9.706.133,3.058,1.156,5.031,2.08,7.24a83.537,83.537,0,0,1,5.222,21.882,58.8,58.8,0,0,1-.108,12.018" transform="translate(-657.026 -211.933)" fill="none"/>
    </clipPath>
    <linearGradient id="linear-gradient-10" x1="-4.747" y1="3.093" x2="-4.739" y2="3.093" xlink:href="#linear-gradient"/>
  </defs>
  <g id="Grupo_1004537" data-name="Grupo 1004537" clip-path="url(#clip-path)">
    <g id="Grupo_1004484" data-name="Grupo 1004484" transform="translate(0 46.452)">
      <g id="Grupo_1004483" data-name="Grupo 1004483" clip-path="url(#clip-path-2)">
        <path id="Trazado_630828" data-name="Trazado 630828" d="M0,0H320.4V229.317H0Z" transform="translate(0 -0.001)" fill="#ffbca4"/>
      </g>
    </g>
    <g id="Grupo_1004536" data-name="Grupo 1004536">
      <g id="Grupo_1004535" data-name="Grupo 1004535" clip-path="url(#clip-path)">
        <path id="Trazado_630686" data-name="Trazado 630686" d="M530.786,409.331a126.52,126.52,0,0,1-4.318,14.426H520.5s2.466,2.093,4.492,3.85c-3.394,8.487-6.942,14.861-9.138,19.221a122.466,122.466,0,0,0-7.862,19.789q-1.125,3.736-2.122,7.928-.9,3.78-1.633,7.949c-.609-1.554-1.662-4.322-2.835-7.949-3.7-11.48-8.516-31.521-3.738-48.429a38.032,38.032,0,0,1,7.493-14.439c7.095-8.4,21.509-17.373,25.752-14,1.8,1.438,1.471,4.89-.124,11.649" transform="translate(-290.251 -232.446)" fill="#adce32"/>
        <path id="Trazado_630687" data-name="Trazado 630687" d="M511.619,473.665a.218.218,0,0,1-.04,0,.214.214,0,0,1-.171-.25c.021-.114,2.175-11.5,3.366-16.063,2.182-8.367,7.086-16.473,14.574-24.092a.215.215,0,1,1,.306.3c-7.435,7.566-12.3,15.607-14.466,23.9-1.187,4.549-3.337,15.92-3.359,16.034a.214.214,0,0,1-.21.174" transform="translate(-299.467 -253.667)" fill="#fff"/>
        <g id="Grupo_1004489" data-name="Grupo 1004489" transform="translate(205.416 193.668)" style="mix-blend-mode: multiply;isolation: isolate">
          <g id="Grupo_1004488" data-name="Grupo 1004488">
            <g id="Grupo_1004487" data-name="Grupo 1004487" clip-path="url(#clip-path-4)">
              <g id="Grupo_1004486" data-name="Grupo 1004486" transform="translate(0 0)">
                <g id="Grupo_1004485" data-name="Grupo 1004485" clip-path="url(#clip-path-5)">
                  <rect id="Rectángulo_347415" data-name="Rectángulo 347415" width="50.351" height="36.391" transform="translate(-22.52 38.238) rotate(-62.695)" fill="url(#linear-gradient)"/>
                </g>
              </g>
            </g>
          </g>
        </g>
        <path id="Trazado_630689" data-name="Trazado 630689" d="M485.686,524.755c-4.7-7.6-8.748-14.633-12.022-20.812l1.84-3.137-3.137.651c-4.625-8.976-7.447-15.926-8.081-19.9-.273-1.741-.9-5.45,1.227-8.562a8.749,8.749,0,0,1,6.739-3.867c5.47,0,9.3,7.646,11.194,11.409,7.53,15.01,4.878,33.253,2.242,44.223" transform="translate(-271.699 -274.707)" fill="#0b481e"/>
        <path id="Trazado_630690" data-name="Trazado 630690" d="M494.773,529.439a.214.214,0,0,1-.21-.176,136.4,136.4,0,0,0-11.9-36.015.215.215,0,1,1,.385-.19,136.841,136.841,0,0,1,11.941,36.128.215.215,0,0,1-.172.25.254.254,0,0,1-.039,0" transform="translate(-282.621 -288.653)" fill="#fff"/>
        <path id="Trazado_630691" data-name="Trazado 630691" d="M510.536,598.369l-2.388,22.894a2.815,2.815,0,0,1-2.513,2.779H487.458A2.4,2.4,0,0,1,485.4,622.7a3.592,3.592,0,0,1-.455-1.432l-2.388-22.894c-.2-1.913.982-3.615,2.513-3.615h22.955a2.818,2.818,0,0,1,2.508,2.762,3.808,3.808,0,0,1,0,.853" transform="translate(-282.561 -348.274)" fill="#ffa887"/>
        <g id="Grupo_1004494" data-name="Grupo 1004494" transform="translate(202.838 249.242)" style="mix-blend-mode: multiply;isolation: isolate">
          <g id="Grupo_1004493" data-name="Grupo 1004493">
            <g id="Grupo_1004492" data-name="Grupo 1004492" clip-path="url(#clip-path-6)">
              <g id="Grupo_1004491" data-name="Grupo 1004491" transform="translate(0 0)">
                <g id="Grupo_1004490" data-name="Grupo 1004490" clip-path="url(#clip-path-7)">
                  <rect id="Rectángulo_347417" data-name="Rectángulo 347417" width="35.91" height="36.222" transform="matrix(0.813, -0.583, 0.583, 0.813, -12.562, 9.006)" fill="url(#linear-gradient-2)"/>
                </g>
              </g>
            </g>
          </g>
        </g>
        <path id="Trazado_630693" data-name="Trazado 630693" d="M432.628,330.207a10.838,10.838,0,0,0,.694-7.513,11.253,11.253,0,0,0-8.855-7.631c6.948-.215,12.7,3.5,14.173,8.587a11.427,11.427,0,0,1-.874,7.917,3.074,3.074,0,0,1-3.874.915,3.007,3.007,0,0,1-1.265-2.274" transform="translate(-248.558 -184.488)" fill="#4d3744"/>
        <path id="Trazado_630694" data-name="Trazado 630694" d="M236.156,454.5c6.143,1.532,9.918,10.3,9.392,17.216-.534,7.029-5.775,11.8-11.284,22.245-.722,1.368-2.47,3.626-3.141,6.953-.056.277-.114.605-.581,3.839-.43,2.976-.645,4.463-.7,4.886-.63,5.046.484,10.126,2.3,18.4.029.133.131.6.239,1.085.215.972.622,2.8,1.39,6.244h-4.537a2.356,2.356,0,0,0-.234-1.852c-.5-.7-1.318-.564-2.007-1.221a3.322,3.322,0,0,1-.785-2.356c-.081-1.727-1.322-18.109-5.331-26.471a9.1,9.1,0,0,1-1.1-5.286,8.748,8.748,0,0,1,2.149-4.455c4.861-5.987-5.212-22.233.091-32.168,2.691-5.042,9.247-8.276,14.133-7.058" transform="translate(-128.661 -265.991)" fill="#d6a16b"/>
        <path id="Trazado_630695" data-name="Trazado 630695" d="M242.207,649.988h4.537a6.778,6.778,0,0,1,3.227,3.179,6.616,6.616,0,0,1,.612,3.219h-4.653l-1.193-1.512v1.512H242.9a8.4,8.4,0,0,1-.7-6.4" transform="translate(-141.633 -380.618)" fill="#4d3744"/>
        <path id="Trazado_630696" data-name="Trazado 630696" d="M383.418,649.988h4.537a6.776,6.776,0,0,1,3.227,3.179,6.611,6.611,0,0,1,.612,3.219H387.14l-1.193-1.512v1.512h-1.831a8.4,8.4,0,0,1-.7-6.4" transform="translate(-224.322 -380.618)" fill="#4d3744"/>
        <path id="Trazado_630697" data-name="Trazado 630697" d="M378.105,454.05c3.044,1.908,1.978,9,.777,16.983-.311,2.068-2.7,17.3-2.7,20.261,0,1.107.028,2.218.028,2.218a62.185,62.185,0,0,1-.028,7.2c-.6,13.8-3.79,18.76-2.094,26.871,0,0,.094.45,1.629,7.328h-4.537a9.538,9.538,0,0,0-1.724-2.026c-.622-.55-.937-.675-1.221-1.134a3.472,3.472,0,0,1-.174-2.617c.111-.477.014-4.586-.181-12.8a23.193,23.193,0,0,0-.153-2.455,36.651,36.651,0,0,0-.851-4.621c-1.731-6.881-1.92-6.979-2.035-8.367a18,18,0,0,1,.523-5.758c2.241-10.688-6.662-24.448-1.4-34.025,3.194-5.809,11.022-9.008,14.133-7.058" transform="translate(-212.142 -265.546)" fill="#d6a16b"/>
        <path id="Trazado_630698" data-name="Trazado 630698" d="M175.656,378.759a5.881,5.881,0,0,1-2.794,2.3c-2.948,1.062-6.032-1.079-7.783-2.3-7.282-5.056-10.115-16.2-10.877-19.557a7.507,7.507,0,0,0-2.494,4.39,2.569,2.569,0,0,1-1.01,1.98,1.965,1.965,0,0,1-1.285.315,1.694,1.694,0,0,1-.388-.1c.277,1.807.588,3.555-.133,3.991a9.933,9.933,0,0,0,1.619,4.79,2.8,2.8,0,0,0,.9,2,12.147,12.147,0,0,0,2.3,1.9c1.87,1.734,6.172,5.232,11.874,5.688a10.67,10.67,0,0,0,4.933-.6,10.464,10.464,0,0,0,5.145-4.789" transform="translate(-87.188 -210.34)" fill="#ecbe82"/>
        <path id="Trazado_630699" data-name="Trazado 630699" d="M234.981,506.163a13.553,13.553,0,1,0-20.459,11.66l-.13.333a6.482,6.482,0,0,1-1.68,2.566,1.488,1.488,0,1,0,2.375,1.651,1.465,1.465,0,0,0,.1-.539,8.57,8.57,0,0,1,.489-3.176l.074-.189a13.472,13.472,0,0,0,4.295,1.177,6.027,6.027,0,0,1-.613,2.4,1.488,1.488,0,1,0,2.813.676,1.46,1.46,0,0,0-.1-.539,9.55,9.55,0,0,1-.657-2.469,13.527,13.527,0,0,0,4.66-.844,6.387,6.387,0,0,1-.093,2.943,1.488,1.488,0,1,0,2.889.149,1.467,1.467,0,0,0-.2-.511,8.568,8.568,0,0,1-1.26-2.956l-.035-.189a13.55,13.55,0,0,0,7.533-12.143" transform="translate(-121.727 -288.461)" fill="#de8a8a"/>
        <path id="Trazado_630700" data-name="Trazado 630700" d="M276.812,372.8a35.085,35.085,0,0,1-5.39,13.533c-.922,1.359-1.613,2.136-3.216,4.554-.214.592-.922,3.7-1.719,7.08s-1.694,7.028-2.277,8.688c-1.308,3.726-4,5.69-8.546,9.014-13.581,9.923-31.162,11.741-33.156,11.925-16.415,1.535-41.02,3.362-51.153-11.9-4.828-7.273-5.176-17.38-1.685-26.02a29.134,29.134,0,0,1,8.216-11.484c6.179-5.158,14.142-6.578,16.466-6.921.184-.026.326-.043.412-.056,11.329-1.527,16.933,3.019,25.827,2.873,6.552-.107,5.21-2.607,17.8-4.79,9.64-1.672,9,.039,12.911-1.6,1.913-.8,4.421-2.646,8.139-5.8h0c2.624-2.221,5.849-5.1,9.888-8.713.167-.146.334-.3.5-.446q1.782-1.222,3.572-2.444c.064.416.124.828.189,1.244q.392,2.6.789,5.206.405,2.708.819,5.416.8,5.32,1.613,10.643" transform="translate(-97.994 -205.123)" fill="#ecbe82"/>
        <path id="Trazado_630701" data-name="Trazado 630701" d="M244.909,432.106h-.01l-8.559-.388a.214.214,0,0,1-.2-.223.217.217,0,0,1,.224-.2l8.56.388a.214.214,0,0,1-.01.429" transform="translate(-138.275 -252.552)" fill="#4d3744"/>
        <path id="Trazado_630702" data-name="Trazado 630702" d="M278.763,451.315a.214.214,0,0,1-.032-.426l9.782-1.467a.211.211,0,0,1,.244.18.214.214,0,0,1-.18.244l-9.782,1.468-.032,0" transform="translate(-163.112 -263.169)" fill="#4d3744"/>
        <path id="Trazado_630703" data-name="Trazado 630703" d="M312.323,421.449h-6.266a.214.214,0,0,1,0-.429h6.266a.214.214,0,0,1,0,.429" transform="translate(-179.094 -246.539)" fill="#4d3744"/>
        <path id="Trazado_630704" data-name="Trazado 630704" d="M316.013,456.188a.211.211,0,0,1-.155-.067.214.214,0,0,1,.007-.3l2.14-2.039a.214.214,0,0,1,.3.311l-2.14,2.039a.214.214,0,0,1-.148.059" transform="translate(-184.924 -265.688)" fill="#4d3744"/>
        <g id="Grupo_1004499" data-name="Grupo 1004499" transform="translate(69.352 155.59)" style="mix-blend-mode: multiply;isolation: isolate">
          <g id="Grupo_1004498" data-name="Grupo 1004498">
            <g id="Grupo_1004497" data-name="Grupo 1004497" clip-path="url(#clip-path-8)">
              <g id="Grupo_1004496" data-name="Grupo 1004496" transform="translate(0 0)">
                <g id="Grupo_1004495" data-name="Grupo 1004495" clip-path="url(#clip-path-9)">
                  <rect id="Rectángulo_347419" data-name="Rectángulo 347419" width="128.808" height="106.308" transform="matrix(0.928, -0.371, 0.371, 0.928, -25.389, 9.689)" fill="url(#linear-gradient-3)"/>
                </g>
              </g>
            </g>
          </g>
        </g>
        <path id="Trazado_630706" data-name="Trazado 630706" d="M346.512,454.248c4.732,1.881,6.82,10.422,5.5,16.809-1.308,6.306-7.415,17.6-7.414,20.435,0,1.031.028,2.218.028,2.218a62.183,62.183,0,0,1-.028,7.2c-.6,13.8-3.79,18.76-2.094,26.871,0,0,.094.45,1.629,7.328H339.59a2.356,2.356,0,0,0-.234-1.852c-.5-.7-1.318-.564-2.007-1.221a3.321,3.321,0,0,1-.785-2.356c-.195-3.876-.232-11.2-.275-13.154a23.909,23.909,0,0,0-.153-2.455,36.647,36.647,0,0,0-.851-4.621c-1.731-6.882-1.92-6.979-2.035-8.367a18,18,0,0,1,.523-5.758c2.241-10.688-6.661-24.448-1.4-34.025,2.91-5.293,9.881-8.748,14.133-7.058" transform="translate(-193.641 -265.744)" fill="#ecbe82"/>
        <path id="Trazado_630707" data-name="Trazado 630707" d="M358.944,523.82l-.031,0a.214.214,0,0,1-.181-.243c.017-.121,1.766-12.1,1.846-13.013.082-.936.225-12.319.222-12.968,0-.28.587-1.98,2.144-6.408,2.155-6.127,5.412-15.386,5.661-17.764.38-3.627-1.2-8.859-1.216-8.911a.215.215,0,1,1,.41-.126c.066.218,1.621,5.367,1.232,9.081-.255,2.429-3.392,11.349-5.683,17.862-1.08,3.071-2.1,5.972-2.12,6.267,0,.646-.141,12.062-.223,13-.081.926-1.777,12.543-1.85,13.037a.214.214,0,0,1-.212.184" transform="translate(-210.063 -271.844)" fill="#4d3744"/>
        <path id="Trazado_630708" data-name="Trazado 630708" d="M333.345,509.543a.214.214,0,0,1-.211-.181c-.015-.094-.033-.259-.058-.487a34.221,34.221,0,0,0-1.616-7.6,23.641,23.641,0,0,1-1.254-7.091c-.008-.218-.016-.424-.027-.472a.219.219,0,0,1,.151-.261.212.212,0,0,1,.26.139,2.921,2.921,0,0,1,.044.578,23.225,23.225,0,0,0,1.231,6.966,34.628,34.628,0,0,1,1.637,7.7c.024.218.04.376.054.465a.215.215,0,0,1-.178.246l-.034,0" transform="translate(-193.342 -288.949)" fill="#4d3744"/>
        <path id="Trazado_630709" data-name="Trazado 630709" d="M390.768,406.011c-.236.373-.463.725-.69,1.055-.163.24-.317.459-.472.673a1.667,1.667,0,0,1,.086.952,1.329,1.329,0,0,1-.767-.017c-2.376-.523-8.7-4.426-13-10.746-3.1-4.554-4.545-9.335-4.228-10.416a.4.4,0,0,1,.051-.12.626.626,0,0,1,.159-.009q.785-.489,1.7-1.158c-1.162-.566-2.174-.733-2.869-.227a2.572,2.572,0,0,0-.742,2.414c.232,3.027,2.689,7.8,4.511,10.48,4,5.879,9.944,10.1,13.374,11.23a6.1,6.1,0,0,0,1.227.283,3.731,3.731,0,0,0,.373.017,1.933,1.933,0,0,0,1.407-.493c.785-.75.583-2.2-.12-3.919" transform="translate(-216.65 -225.855)" fill="#5e4453"/>
        <path id="Trazado_630710" data-name="Trazado 630710" d="M417.836,438.977a1.949,1.949,0,1,1-1.949-1.949,1.949,1.949,0,0,1,1.949,1.949" transform="translate(-242.392 -255.913)" fill="#5e4453"/>
        <path id="Trazado_630711" data-name="Trazado 630711" d="M417.8,460.619a.858.858,0,0,1-.857-.857v-18.29a.858.858,0,1,1,1.715,0v18.29a.858.858,0,0,1-.858.857" transform="translate(-244.15 -258.013)" fill="#5e4453"/>
        <path id="Trazado_630712" data-name="Trazado 630712" d="M331.771,358.7a.856.856,0,0,0-1.038.627c-5.584,22.611-16.257,38.088-25.946,37.621-4.828-.229-8.763-4.529-11.635-7.67-7.263-7.94-10.993-17.749-12.875-33.86a194.606,194.606,0,0,1-.632-34.95c.536-10.036.859-16.094-3.147-18.131-1.563-.8-3.485-.787-5.786.014v1.844c2.085-.833,3.775-.956,5.008-.329,3.011,1.532,2.71,7.17,2.211,16.511a196.1,196.1,0,0,0,.641,35.241c1.409,12.066,4,24.635,13.313,34.818,3.074,3.361,7.284,7.964,12.82,8.226.169.008.337.012.506.012,10.533,0,21.406-15.523,27.187-38.935a.858.858,0,0,0-.627-1.038" transform="translate(-158.523 -176.694)" fill="#5e4453"/>
        <path id="Trazado_630713" data-name="Trazado 630713" d="M427.441,347.81c2.658,1.374,2.814,2.834,6.035,6.789,5.974,7.337,12.26,10.7,12.918,15.275a4.945,4.945,0,0,1-.6,3.576,4.457,4.457,0,0,1-2.21,1.629c-.757.241-.9.029-1.978.349a7.963,7.963,0,0,1-1.8.568,3.614,3.614,0,0,1-1.626-.386c-1.494-.58-2.279-1.622-4.325-2.53-5.16-2.289-8.148.835-13.886-.5a16.642,16.642,0,0,1-8.259-5q-.808-6.96-1.617-13.92a13.1,13.1,0,0,1,17.35-5.846" transform="translate(-240.14 -202.919)" fill="#ecbe82"/>
        <path id="Trazado_630714" data-name="Trazado 630714" d="M488.967,395.925c.261-.508,2.463-.52,3.375.9.468.731.624,1.882.2,2.14-.82.5-3.955-2.31-3.579-3.044" transform="translate(-286.309 -231.661)" fill="#4d3744"/>
        <path id="Trazado_630715" data-name="Trazado 630715" d="M469.9,407.656a4.714,4.714,0,0,1-2.726-.746,3.36,3.36,0,0,1-.751-.708,4.769,4.769,0,0,0-.986-.925,6.972,6.972,0,0,0-2.089-1.015,15.753,15.753,0,0,1-1.749-.7,14.7,14.7,0,0,1-2.741-1.706.214.214,0,0,1,.265-.337,14.291,14.291,0,0,0,2.66,1.656,15.411,15.411,0,0,0,1.706.678,7.4,7.4,0,0,1,2.2,1.074,5.189,5.189,0,0,1,1.063,1,2.97,2.97,0,0,0,.665.63c1.183.811,2.949.888,5.246.229a.214.214,0,1,1,.118.412,10.557,10.557,0,0,1-2.881.459" transform="translate(-268.647 -235.094)" fill="#4d3744"/>
        <path id="Trazado_630716" data-name="Trazado 630716" d="M469.593,367.7a.214.214,0,0,1-.152-.063l-8.039-8.093-4.717-6.157a.215.215,0,0,1,.341-.26l4.7,6.136,8.021,8.073a.214.214,0,0,1-.152.366" transform="translate(-267.398 -206.732)" fill="#4d3744"/>
        <path id="Trazado_630717" data-name="Trazado 630717" d="M424.9,402.588a12.383,12.383,0,0,1-4.371-.756c-.177-.069-1.841-.776-6.971-4.646a.214.214,0,0,1,.258-.343c5.167,3.9,6.8,4.561,6.866,4.588a12.914,12.914,0,0,0,6.4.568.215.215,0,1,1,.06.425,15.885,15.885,0,0,1-2.246.165" transform="translate(-242.122 -232.357)" fill="#4d3744"/>
        <path id="Trazado_630718" data-name="Trazado 630718" d="M447.089,374.355a1,1,0,1,1-.968-1.254,1.139,1.139,0,0,1,.968,1.254" transform="translate(-260.671 -218.479)" fill="#4d3744"/>
        <g id="Grupo_1004504" data-name="Grupo 1004504" transform="translate(161.447 145.17)" style="mix-blend-mode: multiply;isolation: isolate">
          <g id="Grupo_1004503" data-name="Grupo 1004503">
            <g id="Grupo_1004502" data-name="Grupo 1004502" clip-path="url(#clip-path-10)">
              <g id="Grupo_1004501" data-name="Grupo 1004501" transform="translate(0 0)">
                <g id="Grupo_1004500" data-name="Grupo 1004500" clip-path="url(#clip-path-11)">
                  <rect id="Rectángulo_347421" data-name="Rectángulo 347421" width="21.142" height="18.022" transform="translate(-4.229 1.692) rotate(-21.801)" fill="url(#linear-gradient-4)"/>
                </g>
              </g>
            </g>
          </g>
        </g>
        <path id="Trazado_630720" data-name="Trazado 630720" d="M391.711,347.418a51.232,51.232,0,0,0-7.6,2.45,61.4,61.4,0,0,0-6.045,2.785c.665.619,5.846,5.28,13.145,4.188a16.038,16.038,0,0,0,12.535-10.392,42.476,42.476,0,0,0-12.034.969" transform="translate(-221.386 -202.827)" fill="#ecbe82"/>
        <path id="Trazado_630721" data-name="Trazado 630721" d="M389.142,365.76q-.854,0-1.749-.078a16.948,16.948,0,0,1-9.775-4.349.214.214,0,0,1,.288-.317,16.511,16.511,0,0,0,9.523,4.24,13.944,13.944,0,0,0,9.912-2.459,11.947,11.947,0,0,0,1.9-1.8.215.215,0,1,1,.327.278,12.392,12.392,0,0,1-1.973,1.862,13.692,13.692,0,0,1-8.456,2.622" transform="translate(-221.083 -211.348)" fill="#4d3744"/>
        <path id="Trazado_630722" data-name="Trazado 630722" d="M415.354,331.763a10.834,10.834,0,0,0-1.9-7.3,11.252,11.252,0,0,0-10.919-4.173c6.463-2.56,13.136-1.016,16.246,3.266a11.428,11.428,0,0,1,1.866,7.743,3.074,3.074,0,0,1-3.333,2.175,3.005,3.005,0,0,1-1.962-1.709" transform="translate(-235.717 -186.825)" fill="#4d3744"/>
        <path id="Trazado_630723" data-name="Trazado 630723" d="M351.7,649.988h4.537a6.776,6.776,0,0,1,3.227,3.179,6.615,6.615,0,0,1,.612,3.219h-4.653l-1.193-1.512v1.512h-1.831a8.4,8.4,0,0,1-.7-6.4" transform="translate(-205.747 -380.618)" fill="#4d3744"/>
        <path id="Trazado_630724" data-name="Trazado 630724" d="M192.949,454.5c6.143,1.532,9.918,10.3,9.392,17.216-.534,7.029-5.775,11.8-11.284,22.245-.721,1.368-2.47,3.626-3.141,6.953-.056.277-.114.605-.581,3.839-.43,2.976-.645,4.463-.7,4.886-.63,5.046.484,10.126,2.3,18.4.029.133.131.6.239,1.085.215.972.622,2.8,1.39,6.244h-4.537a2.354,2.354,0,0,0-.234-1.852c-.5-.7-1.318-.564-2.007-1.221a3.321,3.321,0,0,1-.785-2.356c-.081-1.727-1.322-18.109-5.331-26.471a9.1,9.1,0,0,1-1.1-5.286,8.748,8.748,0,0,1,2.149-4.455c4.861-5.987-5.212-22.233.091-32.168,2.691-5.042,9.247-8.276,14.133-7.058" transform="translate(-103.36 -265.991)" fill="#ecbe82"/>
        <path id="Trazado_630725" data-name="Trazado 630725" d="M206.608,502.034a.209.209,0,0,1-.11-.031.214.214,0,0,1-.074-.294c2.048-3.425,4.081-6.952,6.044-10.482,5.9-10.605,7.112-13.932,7.217-16.1a8.958,8.958,0,0,0-.024-1.04,21.377,21.377,0,0,0-1.6-7.175,19.49,19.49,0,0,0-2.958-4.8.215.215,0,1,1,.329-.275,19.922,19.922,0,0,1,3.022,4.909,21.821,21.821,0,0,1,1.629,7.315,9.119,9.119,0,0,1,.025,1.09c-.108,2.226-1.332,5.6-7.271,16.283-1.965,3.534-4,7.065-6.05,10.494a.215.215,0,0,1-.184.1" transform="translate(-120.86 -270.397)" fill="#4d3744"/>
        <path id="Trazado_630726" data-name="Trazado 630726" d="M199,649.988h4.537a6.776,6.776,0,0,1,3.227,3.179,6.612,6.612,0,0,1,.612,3.219h-4.653l-1.194-1.512v1.512H199.7a8.4,8.4,0,0,1-.7-6.4" transform="translate(-116.332 -380.618)" fill="#4d3744"/>
        <path id="Trazado_630727" data-name="Trazado 630727" d="M157.927,72.149c-.467,9.4-8.337,22.135-21.394,22.145-12.564.01-22.443-11.772-21.394-22.145a19.082,19.082,0,0,1,9.855-14.216c3.362-1.8,6.316-1.955,10.071-2.153,5.61-.295,14.71-.773,19.669,5.154,3.54,4.231,3.269,9.694,3.193,11.214" transform="translate(-67.378 -32.574)" fill="#eab570"/>
        <path id="Trazado_630728" data-name="Trazado 630728" d="M117.259,69.131a.211.211,0,0,1-.074-.014.207.207,0,0,1-.119-.268,19.4,19.4,0,0,1,7.354-9.31,18.668,18.668,0,0,1,5.871-2.552.207.207,0,0,1,.1.4,18.244,18.244,0,0,0-5.741,2.5,18.981,18.981,0,0,0-7.2,9.113.207.207,0,0,1-.194.133" transform="translate(-68.543 -33.367)" fill="#733f2b"/>
        <path id="Trazado_630729" data-name="Trazado 630729" d="M161.372,83.814c-.286,5.76-5.109,13.564-13.11,13.571-7.7.005-13.753-7.214-13.11-13.571a11.694,11.694,0,0,1,6.039-8.712,13.323,13.323,0,0,1,6.172-1.319c3.437-.181,9.014-.474,12.053,3.158a9.958,9.958,0,0,1,1.957,6.872" transform="translate(-79.114 -43.151)" fill="#ba8641"/>
        <path id="Trazado_630730" data-name="Trazado 630730" d="M194.055,84.356a.207.207,0,0,1-.2-.177,8.16,8.16,0,0,0-2.649-4.93.207.207,0,1,1,.276-.309,8.574,8.574,0,0,1,2.782,5.179.207.207,0,0,1-.175.235l-.03,0" transform="translate(-111.923 -46.195)" fill="#733f2b"/>
        <path id="Trazado_630731" data-name="Trazado 630731" d="M153.6,80.224l8.183-.892,5.741,2.68q.118,2.733.237,5.465l-15.4-2.881Z" transform="translate(-89.221 -46.455)" fill="#bd6342"/>
        <path id="Trazado_630732" data-name="Trazado 630732" d="M133.04,73.6c.362,9.063,8.013,15.819,16.054,15.308,6.88-.433,12.939-6.115,13.956-13.676a12.48,12.48,0,0,1-6.487-2.448,11.316,11.316,0,0,1-1.293-1.162c.126-4.573.253-9.158.378-13.729h0q-2.314-.162-4.709-.387-3.773-.355-7.327-.826c.106.489.245,1.2.363,2.065a30.336,30.336,0,0,1,.123,6.448c-.063,1.01-.174,2.24-.373,3.646a2.45,2.45,0,0,1-1.894,2.049c-1.313.288-2.7.644-4.149,1.08-1.683.51-3.233,1.067-4.642,1.631" transform="translate(-77.905 -33.189)" fill="#ffccbc"/>
        <path id="Trazado_630733" data-name="Trazado 630733" d="M182.861,93.731l-1.029,7.148,1.791-2.145Z" transform="translate(-106.477 -54.887)" fill="#bd6342"/>
        <path id="Trazado_630734" data-name="Trazado 630734" d="M164.341,94.308l-.27,6.668-2.442-1.7Z" transform="translate(-94.646 -55.225)" fill="#bd6342"/>
        <path id="Trazado_630735" data-name="Trazado 630735" d="M164.3,59.078c-.2,2.411-.479,5.818,1.34,8.908a8.426,8.426,0,0,0,4.469,3.944,7.541,7.541,0,0,0,3.383.315q.173-6.293.348-12.6l-9.388-1.9c-.044.3-.106.765-.153,1.333" transform="translate(-96.123 -33.814)" fill="#ffab91"/>
        <path id="Trazado_630736" data-name="Trazado 630736" d="M157.75,20.79c0-.015,0-.021,0-.031-.275-2.69-1.084-10.481,3.1-13.768,4.341-3.414,12.95-1.1,14.759,2.969.676,1.521.536,3.59.339,6.512-.066.976-.171,1.856-.286,2.622-.185,1.465-.445,3.232-.815,5.228-.839,4.526-1.482,6.108-1.874,6.852-.048.091-.085.154-.147.265A38.377,38.377,0,0,1,170.559,35a2.545,2.545,0,0,1-2.944.9l-5.829-2.131a1.424,1.424,0,0,1-.755-.644q-1.329-2.383-2.8-4.813-.433-.714-.868-1.416c-.017-.054-.026-.081-.032-.108-.448-1.722.738-2.847.417-5.993" transform="translate(-92.07 -3.127)" fill="#ffccbc"/>
        <path id="Trazado_630737" data-name="Trazado 630737" d="M184.136,60.929a1.919,1.919,0,0,0-1.051-.715,1.367,1.367,0,0,0-.909.2,2.257,2.257,0,0,0-.745-.465c-1.561-.582-3.2.9-3.308,1a9.116,9.116,0,0,0,3.342.743.946.946,0,0,0,.547-.216,1.446,1.446,0,0,0,.393.39,2.05,2.05,0,0,0,2.275-.235,4.174,4.174,0,0,0-.545-.7" transform="translate(-104.305 -35.026)" fill="#4d3744"/>
        <path id="Trazado_630738" data-name="Trazado 630738" d="M180.753,43.09c-.054.432-.368.748-.7.706a.715.715,0,0,1-.5-.858c.054-.431.368-.748.7-.705a.715.715,0,0,1,.505.857" transform="translate(-105.133 -24.728)" fill="#4d3744"/>
        <path id="Trazado_630739" data-name="Trazado 630739" d="M195.282,44.2c-.054.432-.368.748-.7.706a.715.715,0,0,1-.5-.858c.054-.431.368-.748.7-.705a.716.716,0,0,1,.505.857" transform="translate(-113.641 -25.378)" fill="#4d3744"/>
        <path id="Trazado_630740" data-name="Trazado 630740" d="M188.319,52.094a.207.207,0,0,1-.068-.39l1.081-.548-.98-3.959a.207.207,0,1,1,.4-.1l1.02,4.119a.208.208,0,0,1-.107.235l-1.228.622a.205.205,0,0,1-.119.021" transform="translate(-110.169 -27.486)" fill="#9e6352"/>
        <path id="Trazado_630741" data-name="Trazado 630741" d="M182.78,67.686l-.049-.007a3.014,3.014,0,0,1-1.867-1.075.207.207,0,0,1,.322-.261,2.6,2.6,0,0,0,1.6.926,2.507,2.507,0,0,0,1.329-.177.207.207,0,1,1,.161.382,2.928,2.928,0,0,1-1.5.212" transform="translate(-105.883 -38.804)" fill="#9e6352"/>
        <path id="Trazado_630742" data-name="Trazado 630742" d="M179.616,35.971a.426.426,0,0,1-.554.239,4.388,4.388,0,0,0-3.205,0,.427.427,0,0,1-.392-.751,3.6,3.6,0,0,1,2.3-.624,3.537,3.537,0,0,1,1.709.613.425.425,0,0,1,.153.509Z" transform="translate(-102.641 -20.39)" fill="#4d3744"/>
        <path id="Trazado_630743" data-name="Trazado 630743" d="M192.646,37.86l0,.014a.513.513,0,0,0,.639.361,2.269,2.269,0,0,1,1.744.216.522.522,0,0,0,.678-.135.434.434,0,0,0-.13-.621,3.091,3.091,0,0,0-2.622-.349.44.44,0,0,0-.312.513" transform="translate(-112.803 -21.784)" fill="#4d3744"/>
        <path id="Trazado_630744" data-name="Trazado 630744" d="M152.054,25.18c-.01-.739-.047-1.334-.077-1.724a14.608,14.608,0,0,1,.114-3.821,1.808,1.808,0,0,1,.24-.434,2.126,2.126,0,0,0,.167-.33c.138-.324,1.031-.652,1.458-1a2.277,2.277,0,0,0,.665-1.354c.6-2.395-.956-5.989-.02-6.926,1.107-1.108,4.746,2.526,10.389,2.744a14.514,14.514,0,0,0,4.879-.666,8.945,8.945,0,0,0-.416-6.1c-2.775-5.809-13.283-7.4-18.434-3.2a10.238,10.238,0,0,0-2.748,3.84,16.356,16.356,0,0,0,1.2,16.183,14.384,14.384,0,0,0,2.588,2.789" transform="translate(-85.891 0)" fill="#4d3744"/>
        <path id="Trazado_630745" data-name="Trazado 630745" d="M153.576,37.84a3.907,3.907,0,0,0-.869-1.57c-.579-.592-1.711-1.309-2.6-.963-1.206.467-1.3,2.608-1.107,3.777a4.6,4.6,0,0,0,2.511,3.419,1.979,1.979,0,0,0,1.385.1,1.548,1.548,0,0,0,.362-.189l.449,2.431,1.18-2.559a40.679,40.679,0,0,0-1.307-4.443" transform="translate(-87.202 -20.622)" fill="#ffccbc"/>
        <path id="Trazado_630746" data-name="Trazado 630746" d="M245.175,182.294l-11.544,5.725-2.337-4.936L218.58,156.213q.546-18.3,1.093-36.6.206-6.85.412-13.7a8.8,8.8,0,0,1,4.833,2.131,8.7,8.7,0,0,1,2.427,4.305c2.14,8.263,10.2,46.2,17.83,69.943" transform="translate(-127.995 -62.021)" fill="#ff8c61"/>
        <path id="Trazado_630747" data-name="Trazado 630747" d="M230.577,129.529a.207.207,0,0,1-.2-.151,109.178,109.178,0,0,1-3.317-14.211,19.114,19.114,0,0,0-1.051-4.387,9.008,9.008,0,0,0-1.555-3.116c-1.15-1.337-2.647-1.9-5.126-2.824-.786-.295-1.593-.557-2.4-.781a.207.207,0,0,1,.111-.4c.818.228,1.637.494,2.434.792,2.542.951,4.075,1.525,5.3,2.942a9.42,9.42,0,0,1,1.63,3.242,19.476,19.476,0,0,1,1.071,4.455,108.765,108.765,0,0,0,3.308,14.176.208.208,0,0,1-.143.256.222.222,0,0,1-.056.007" transform="translate(-126.94 -60.696)" fill="#733f2b"/>
        <g id="Grupo_1004509" data-name="Grupo 1004509" transform="translate(90.585 57.594)" style="mix-blend-mode: multiply;isolation: isolate">
          <g id="Grupo_1004508" data-name="Grupo 1004508">
            <g id="Grupo_1004507" data-name="Grupo 1004507" clip-path="url(#clip-path-12)">
              <g id="Grupo_1004506" data-name="Grupo 1004506" transform="translate(0 0)">
                <g id="Grupo_1004505" data-name="Grupo 1004505" clip-path="url(#clip-path-13)">
                  <rect id="Rectángulo_347423" data-name="Rectángulo 347423" width="38.543" height="64.227" transform="translate(-22.867 9.731) rotate(-23.051)" fill="url(#linear-gradient-5)"/>
                </g>
              </g>
            </g>
          </g>
        </g>
        <path id="Trazado_630749" data-name="Trazado 630749" d="M173.789,400.351a3.8,3.8,0,0,0,2.423,3.779q.507.2,1.036.377a32.23,32.23,0,0,0,15.06,1.295,4.488,4.488,0,0,0,3.78-3.585,18.243,18.243,0,0,0,.424-2.853c-.047-.338-.119-.764-.119-.764-.01-.064-.019-.11-.023-.138-1.3-7.632,1.456-37.735.615-55.374-.075-1.558-.857-7.2-2.42-18.492-2.287-16.508-4.445-30.044-5.994-39.348l-19.328-3.3-7.051,16.468a31.817,31.817,0,0,0,.484,12.575c1.068,4.3,2.622,6.464,4.213,10.169a47.372,47.372,0,0,1,3.678,17.487c2.918,37.225,3.634,54.9,3.222,61.7" transform="translate(-94.736 -165.104)" fill="#5e4453"/>
        <path id="Trazado_630750" data-name="Trazado 630750" d="M120.36,606.74c-1.586-1.618-8.159-3.787-14.727-4.484a3.106,3.106,0,0,1-2.8-3.078l.841-12.766h.56a2.191,2.191,0,0,0,2.191-2.191V578.26a2.191,2.191,0,0,0-2.191-2.191H88.85a2.191,2.191,0,0,0-2.191,2.191v5.961a2.191,2.191,0,0,0,2.191,2.191h.685l-.994,15.539a13.2,13.2,0,0,0-1.7,4.687,6.867,6.867,0,0,0,.292,4.378,5.551,5.551,0,0,0,1.824,2.085h31.79a1.237,1.237,0,0,0,1.2-.948,7.155,7.155,0,0,0,.248-1.949,6.1,6.1,0,0,0-1.834-3.465" transform="translate(-50.723 -337.332)" fill="#4d3744"/>
        <path id="Trazado_630751" data-name="Trazado 630751" d="M231.192,606.74c-1.586-1.618-8.159-3.787-14.727-4.484a3.106,3.106,0,0,1-2.8-3.078V586.411h.56a2.19,2.19,0,0,0,2.191-2.191V578.26a2.191,2.191,0,0,0-2.191-2.191H198.687a2.191,2.191,0,0,0-2.191,2.191v5.961a2.191,2.191,0,0,0,2.191,2.191h.685v15.539a13.2,13.2,0,0,0-1.7,4.687,6.87,6.87,0,0,0,.292,4.378,5.551,5.551,0,0,0,1.824,2.085h31.79a1.237,1.237,0,0,0,1.2-.948,7.154,7.154,0,0,0,.248-1.949,6.1,6.1,0,0,0-1.834-3.465" transform="translate(-115.063 -337.332)" fill="#4d3744"/>
        <path id="Trazado_630752" data-name="Trazado 630752" d="M124.283,279.622l-3.009,29.623-3.92,38.583c-6.187,30.589-8.119,42.885-8.268,47.012,0,.017,0,0,0,.025-.033.9-.1,1.7-.182,2.42a6.4,6.4,0,0,1-6.631,5.64l-11.1-.448a6.4,6.4,0,0,1-6.158-6.312,19.473,19.473,0,0,1,.6-4.869c.046-.174.075-.29.112-.431,1.363-5.168,3.481-17.837,6.925-44.638A328.385,328.385,0,0,1,93.951,307.2c.995-9.8,2.557-18.761,2.661-19.333.7-4,1.4-7.368,1.944-9.9.986.062,1.977.124,2.963.191q11.388.727,22.764,1.459" transform="translate(-49.778 -162.774)" fill="#5e4453"/>
        <path id="Trazado_630753" data-name="Trazado 630753" d="M157.09,173.773a96.52,96.52,0,0,1-46.766-1.685q-.328-3.37-.609-6.788a493.261,493.261,0,0,1-1.364-58.807c.034-1,.077-1.994.12-2.984q.154-3.776.373-7.492c1.681-.729,11.432-3.387,11.69-3.422,1.977-.274,3.821-.622,5.527-1.012a11.493,11.493,0,0,0,5.875,6.6c.909.4,4.211,1.848,7.041.249a5.825,5.825,0,0,0,2.851-3.576,4.906,4.906,0,0,0,.086-1.63q4.529,1.254,9.322,2.86,2.1.707,4.108,1.441c.334,3.495.716,8.679.751,14.987.056,11.6-1.09,14.863-.146,23.255.883,7.817,2.324,8.165,3.194,15.012a55.807,55.807,0,0,1-2.054,23" transform="translate(-63.255 -53.629)" fill="#ff8c61"/>
        <path id="Trazado_630754" data-name="Trazado 630754" d="M225.124,179.124a.207.207,0,0,1-.2-.17l-2.506-13.8.051-16.519a.207.207,0,0,1,.207-.207h0a.207.207,0,0,1,.206.208l-.055,16.481,2.5,13.763a.208.208,0,0,1-.167.241.225.225,0,0,1-.037,0" transform="translate(-130.24 -86.916)" fill="#733f2b"/>
        <path id="Trazado_630755" data-name="Trazado 630755" d="M173.542,125.318h0a.208.208,0,0,1-.2-.211l.307-15.211a.207.207,0,1,1,.414.008l-.307,15.211a.207.207,0,0,1-.207.2" transform="translate(-101.501 -64.233)" fill="#733f2b"/>
        <path id="Trazado_630756" data-name="Trazado 630756" d="M175.543,170.169a.207.207,0,0,1-.207-.207V159.2a.207.207,0,1,1,.414,0v10.763a.207.207,0,0,1-.207.207" transform="translate(-102.673 -93.101)" fill="#733f2b"/>
        <g id="Grupo_1004514" data-name="Grupo 1004514" transform="translate(44.767 49.879)" style="mix-blend-mode: multiply;isolation: isolate">
          <g id="Grupo_1004513" data-name="Grupo 1004513">
            <g id="Grupo_1004512" data-name="Grupo 1004512" clip-path="url(#clip-path-14)">
              <g id="Grupo_1004511" data-name="Grupo 1004511" transform="translate(0 0)">
                <g id="Grupo_1004510" data-name="Grupo 1004510" clip-path="url(#clip-path-15)">
                  <rect id="Rectángulo_347425" data-name="Rectángulo 347425" width="71.418" height="62.667" transform="matrix(0.518, -0.855, 0.855, 0.518, -27.809, 45.202)" fill="url(#linear-gradient-6)"/>
                </g>
              </g>
            </g>
          </g>
        </g>
        <path id="Trazado_630758" data-name="Trazado 630758" d="M160.675,251.776l-26.763-2q-8.715-.653-17.431-1.3-4.948-.373-9.892-.742.535-20.881,1.078-41.761c2.466-3.1,4.538-5.964,6.254-8.487,1.21-1.778,2.246-3.39,3.112-4.8a51.787,51.787,0,0,0,4.443-8.533,46.772,46.772,0,0,0,2.192-7.141l23.7-.6,11.873,25.325q.715,25.021,1.434,50.037" transform="translate(-62.416 -103.303)" fill="#5e4453"/>
        <g id="Grupo_1004519" data-name="Grupo 1004519" transform="translate(35.229 94.179)" style="mix-blend-mode: multiply;isolation: isolate">
          <g id="Grupo_1004518" data-name="Grupo 1004518">
            <g id="Grupo_1004517" data-name="Grupo 1004517" clip-path="url(#clip-path-16)">
              <g id="Grupo_1004516" data-name="Grupo 1004516" transform="translate(0 0)">
                <g id="Grupo_1004515" data-name="Grupo 1004515" clip-path="url(#clip-path-17)">
                  <rect id="Rectángulo_347427" data-name="Rectángulo 347427" width="84.875" height="142.38" transform="translate(-56.704 26.996) rotate(-25.463)" fill="url(#linear-gradient-7)"/>
                </g>
              </g>
            </g>
          </g>
        </g>
        <path id="Trazado_630760" data-name="Trazado 630760" d="M167.28,252.563H139.287a3.07,3.07,0,0,1-2.951-3.915l4.178-14.568a3.069,3.069,0,0,1,2.95-2.223H163.1a3.07,3.07,0,0,1,2.951,2.223l4.177,14.568a3.069,3.069,0,0,1-2.95,3.915" transform="translate(-79.765 -135.769)" fill="#4d3744"/>
        <path id="Trazado_630761" data-name="Trazado 630761" d="M196.274,97.868q.165,17.648.331,35.295l3.358.175q.132-17.4.264-34.8a.849.849,0,0,0-.608-.821l-2.254-.668a.85.85,0,0,0-1.091.823" transform="translate(-114.933 -56.807)" fill="#5e4453"/>
        <path id="Trazado_630762" data-name="Trazado 630762" d="M142.154,92.739l3.78,35.017-4.028.092-4-34.566a1.1,1.1,0,0,1,.932-1.211l2.073-.3a1.1,1.1,0,0,1,1.247.968" transform="translate(-80.748 -53.732)" fill="#5e4453"/>
        <path id="Trazado_630763" data-name="Trazado 630763" d="M152.852,181.862a1.1,1.1,0,1,1-1.1-1.1,1.1,1.1,0,0,1,1.1,1.1" transform="translate(-88.224 -105.853)" fill="#fff"/>
        <path id="Trazado_630764" data-name="Trazado 630764" d="M200.592,179.935a1.1,1.1,0,1,1-1.1-1.1,1.1,1.1,0,0,1,1.1,1.1" transform="translate(-116.179 -104.725)" fill="#fff"/>
        <path id="Trazado_630765" data-name="Trazado 630765" d="M161.9,95.353a.214.214,0,1,0-.428-.009c-.137,6.616-3.15,12.3-7.328,13.819a8.075,8.075,0,0,1-2.65.463l-.018-.011a.214.214,0,0,0-.216,0c-.005,0-.007.009-.012.012h0a.223.223,0,0,0-.052-.02c-.007,0-.014,0-.021,0h-.029a.219.219,0,0,0-.073.018,12.839,12.839,0,0,1-5.734-1.689c-4.763-2.624-8.252-7.6-9.572-13.654a.214.214,0,1,0-.419.091c1.346,6.174,4.913,11.255,9.784,13.939a13.6,13.6,0,0,0,5.334,1.7c-1,.687-2.922,2.189-3.062,3.615a1.609,1.609,0,0,0,.574,1.4,1.3,1.3,0,0,0,.863.4.957.957,0,0,0,.33-.06,2.145,2.145,0,0,0,1.006-1.095l-.6,3.468a.214.214,0,0,0,.174.248.225.225,0,0,0,.037,0,.214.214,0,0,0,.211-.178l1.117-6.492c.049-.237.09-.453.124-.649.021.111.037.225.066.334a4.615,4.615,0,0,0,.2.573l1.507,5.983a.215.215,0,0,0,.208.162.208.208,0,0,0,.052-.007.215.215,0,0,0,.156-.26l-1.167-4.632a3.975,3.975,0,0,0,2.553,1.517h0a1.687,1.687,0,0,0,.8-.2,1.431,1.431,0,0,0,.564-.628c.108-.276.324-.837-4.025-3.483a8.221,8.221,0,0,0,2.135-.458c4.341-1.579,7.47-7.423,7.61-14.213m-12.877,19.606a.737.737,0,0,1-.757-.25,1.187,1.187,0,0,1-.436-1.038c.129-1.314,2.153-2.814,3.034-3.408l-.153.889c-.316,1.538-.894,3.518-1.689,3.808m6.758-1.609a1.029,1.029,0,0,1-.385.416,1.26,1.26,0,0,1-.578.142h0a4.013,4.013,0,0,1-2.9-2.469l-.314-1.248c4.177,2.509,4.19,3.1,4.178,3.159" transform="translate(-79.253 -55.11)" fill="#fff"/>
        <path id="Trazado_630766" data-name="Trazado 630766" d="M267.256,291.84a8.771,8.771,0,0,1,2.522,3.617,3.919,3.919,0,0,1,.377,1.434,21.806,21.806,0,0,1-.326,4.119c-.29,1.023-1.2,1.667-2.42,2.5-.622.424-.775.4-1.528.943-1.162.833-1.3,1.243-1.987,1.63a4.153,4.153,0,0,1-2.751.382,7.279,7.279,0,0,1-.128-3.643,6.84,6.84,0,0,1,.331-1.044l-.426-.494a.271.271,0,0,0-.475.2c.082,1.148.184,3.119-.066,3.405a2.089,2.089,0,0,1-.815.56s-1.783-3.566-1.783-4.331.815-6.878.815-6.878Z" transform="translate(-150.95 -170.895)" fill="#ffccbc"/>
        <path id="Trazado_630767" data-name="Trazado 630767" d="M275.06,319.619a.207.207,0,0,1-.206-.186,3.146,3.146,0,0,1,.276-1.774,6.563,6.563,0,0,1,.978-1.3.207.207,0,0,1,.3.289,6.261,6.261,0,0,0-.906,1.2,2.735,2.735,0,0,0-.233,1.542.207.207,0,0,1-.184.228h-.022" transform="translate(-160.934 -185.216)" fill="#9e6352"/>
        <path id="Trazado_630768" data-name="Trazado 630768" d="M281.676,314.826a.227.227,0,0,1-.037,0,.207.207,0,0,1-.167-.241,13.768,13.768,0,0,1,.412-1.668c.125-.4.27-.794.431-1.181a.207.207,0,0,1,.383.16c-.157.375-.3.76-.418,1.146a13.518,13.518,0,0,0-.4,1.618.207.207,0,0,1-.2.17" transform="translate(-164.821 -182.468)" fill="#9e6352"/>
        <path id="Trazado_630769" data-name="Trazado 630769" d="M260.142,314.373a.854.854,0,0,0-.256-.074,2.792,2.792,0,0,0-1.992.673,5.047,5.047,0,0,0-1.506,3.689,112.624,112.624,0,0,0,.46,12.155.858.858,0,0,0,.853.783c.025,0,.05,0,.075,0a.858.858,0,0,0,.78-.928,113.623,113.623,0,0,1-.458-11.892c.183-2.75,1.455-2.781,1.615-2.77a1.016,1.016,0,0,0,.463-.087,1.295,1.295,0,0,0,.32-1,.667.667,0,0,0-.356-.549" transform="translate(-150.101 -184.041)" fill="#5e4453"/>
        <path id="Trazado_630770" data-name="Trazado 630770" d="M247.025,278.935l11.74-5.51a1.456,1.456,0,0,1,2.024.939l1.534,5.7a1.455,1.455,0,0,1-.8,1.7l-10.95,5.054a1.455,1.455,0,0,1-1.94-.731l-2.324-5.24a1.456,1.456,0,0,1,.712-1.908" transform="translate(-144.162 -160.03)" fill="#ff9d78"/>
        <path id="Trazado_630771" data-name="Trazado 630771" d="M168.571,231.725l7.348,2.684,3.663,2.718a.163.163,0,0,1-.061.29,4.048,4.048,0,0,1-2-.037,3.942,3.942,0,0,1-1.138-.528l-.917.248a.293.293,0,0,0-.094.518c2.3,1.69,3.862,1.84,4.909,1.6a10.167,10.167,0,0,1,2.612-.523,7.409,7.409,0,0,1,2.572.4c-.717.681-1.518,1.385-2.412,2.09a34.845,34.845,0,0,1-3.191,2.241,2.259,2.259,0,0,1-1.627.3c-.407-.079-.885-.187-1.41-.334-2.731-.763-3.764-1.749-6.068-2.492a15.607,15.607,0,0,0-6.216-.635l-1.15-2.18Z" transform="translate(-95.681 -135.693)" fill="#ffccbc"/>
        <path id="Trazado_630772" data-name="Trazado 630772" d="M90.209,102.278A41.172,41.172,0,0,1,94.04,116.6c.379,5.077-.384,10.293-1.91,20.726-.331,2.261-.628,4.113-.828,5.32l23.977,12.291-2.437,11.068-32.918-8.232a4.867,4.867,0,0,1-3.686-4.625,196.862,196.862,0,0,1,1.819-30.924c.547-3.949,1.731-10.117,2.422-13.607a4.959,4.959,0,0,1,3.017-3.641l6.714-2.7" transform="translate(-44.62 -59.892)" fill="#ff8c61"/>
        <path id="Trazado_630773" data-name="Trazado 630773" d="M97.648,211.118a.214.214,0,0,1-.051-.006l-17.76-4.465a4.26,4.26,0,0,1-3.225-4.136V185.76a.207.207,0,1,1,.414,0v16.75a3.846,3.846,0,0,0,2.912,3.734L97.7,210.709a.207.207,0,0,1-.051.408" transform="translate(-44.863 -108.655)" fill="#733f2b"/>
        <path id="Trazado_630774" data-name="Trazado 630774" d="M122.814,182.119a.209.209,0,0,1-.094-.023l-10.464-5.364a.207.207,0,0,1-.111-.214l2.329-16.172a.207.207,0,0,1,.411.059l-2.308,16.025,10.333,5.3a.207.207,0,0,1-.095.392" transform="translate(-65.668 -93.792)" fill="#733f2b"/>
        <path id="Trazado_630775" data-name="Trazado 630775" d="M83.3,114.026a.2.2,0,0,1-.058-.008.207.207,0,0,1-.141-.257l2.213-7.675a4.143,4.143,0,0,1,2.513-2.719l8.115-3.047a.207.207,0,0,1,.146.388l-8.115,3.046a3.728,3.728,0,0,0-2.261,2.446L83.5,113.876a.207.207,0,0,1-.2.15" transform="translate(-48.659 -58.738)" fill="#733f2b"/>
        <path id="Trazado_630776" data-name="Trazado 630776" d="M160.4,239.636l-5.616-1.813a1.642,1.642,0,0,1-1.058-2.067L157.13,225.2a1.642,1.642,0,0,1,2.067-1.058l5.616,1.812a1.642,1.642,0,0,1,1.058,2.067l-3.406,10.553a1.642,1.642,0,0,1-2.067,1.058" transform="translate(-89.971 -131.207)" fill="#ff9d78"/>
        <path id="Trazado_630777" data-name="Trazado 630777" d="M152.283,81.485a9.692,9.692,0,0,0,3.42,4.32,9.054,9.054,0,0,0,1.9.995l-2.4,6.583a14.992,14.992,0,0,1-5.084-7.563l2.166-4.334" transform="translate(-87.905 -47.716)" fill="#f27f55"/>
        <path id="Trazado_630778" data-name="Trazado 630778" d="M156.565,103.486a.208.208,0,0,1-.129-.045,15.206,15.206,0,0,1-3.966-4.751.207.207,0,1,1,.366-.2,14.771,14.771,0,0,0,3.608,4.418l.963-3.787a.207.207,0,0,1,.4.1l-1.043,4.1a.206.206,0,0,1-.134.145.214.214,0,0,1-.066.011" transform="translate(-89.269 -57.612)" fill="#733f2b"/>
        <path id="Trazado_630779" data-name="Trazado 630779" d="M186.232,85.8a3.8,3.8,0,0,1-.7,2.215,3.706,3.706,0,0,1-1.216,1.073q.021,3.6.043,7.191a10.918,10.918,0,0,0,2.813-3.4,10.774,10.774,0,0,0,.943-2.51l-1.88-4.564" transform="translate(-107.93 -50.241)" fill="#f27f55"/>
        <path id="Trazado_630780" data-name="Trazado 630780" d="M184.064,106.4a.207.207,0,0,1-.207-.2l-.042-3.253a.207.207,0,0,1,.2-.21h0a.208.208,0,0,1,.207.2l.035,2.738c.43-.465.854-.94,1.264-1.418q.451-.525.872-1.041a.207.207,0,0,1,.322.262q-.425.52-.879,1.05c-.526.612-1.074,1.22-1.628,1.808a.208.208,0,0,1-.151.065" transform="translate(-107.638 -60.158)" fill="#733f2b"/>
        <path id="Trazado_630781" data-name="Trazado 630781" d="M603.285,590.383c-.194-4.78-.425-23.411-.485-31.327h-7.406q.63,9.448,1.4,19.109.416,5.238.864,10.408a6.324,6.324,0,0,1-2,5.295l-.023.02-7.46,6.508a11.438,11.438,0,0,0,9.516-1.685,15.017,15.017,0,0,0,5.6-8.327" transform="translate(-344.417 -327.37)" fill="#ffccbc"/>
        <path id="Trazado_630782" data-name="Trazado 630782" d="M578.708,645.2a4.3,4.3,0,0,1,.518-.829,4.778,4.778,0,0,1,2.829-1.562,7.088,7.088,0,0,1,2.058-.223,11.763,11.763,0,0,0,2.122.074c1.126-.063,5.079-.283,7.187-2.956,1.2-1.521.764-2.538,2.484-4.588a11.016,11.016,0,0,1,1.763-1.682c.517,1.854.857,3.431,1.083,4.624a16.7,16.7,0,0,1,.408,3.339c0,.708-.066,1.349-.193,2.6-.113,1.115-.231,2.039-.321,2.693h-2.293l-1.286-1.355-1.518,1.355-13.991-.083a.98.98,0,0,1-.848-1.409" transform="translate(-338.82 -370.924)" fill="#4d3744"/>
        <path id="Trazado_630783" data-name="Trazado 630783" d="M633.655,110.771c-.014-.011-.029-.019-.043-.03-1.735-2.227-4.241-2.069-4.485-4.032-.3-2.409,3.459-2.814,5.878-7.669,2.552-5.123,1.547-11.062,1.353-12.128-.113-.62-.237-1.122-.324-1.45a6.656,6.656,0,0,1-3.722-1.383c-1.248-1.009-1.985-2.317-4.1-3.608,0,0-.232-.124-.467-.236-2.748-1.3-7.732-.305-9.494.091l-2.86-.47a18.7,18.7,0,0,0-5.537,11.188,5.428,5.428,0,0,0-1.142,2.523,7.711,7.711,0,0,0,.167,2.583,5.191,5.191,0,0,1-.145,3.345,4.5,4.5,0,0,1-1.032,1.413.207.207,0,1,0,.283.3,4.9,4.9,0,0,0,1.126-1.544,5.593,5.593,0,0,0,.176-3.592,7.389,7.389,0,0,1-.164-2.448,4.677,4.677,0,0,1,.644-1.728,21.256,21.256,0,0,0-.031,2.833,11.853,11.853,0,0,0,1.623,6.4,9.714,9.714,0,0,0,3.389,3.149c-.346.53-4.639,7.306-1.741,13.374a11.734,11.734,0,0,0,4.589,4.786,15.178,15.178,0,0,0,14.249,1.162c.08-.063.156-.129.156-.129.05-.042.1-.085.147-.132a1.2,1.2,0,0,0,.216-.22c.039-.053,4.156-6.142,2.064-11a5.769,5.769,0,0,1,1.53,4.638,5.005,5.005,0,0,1-1.017,2.216.207.207,0,0,0,.036.291.2.2,0,0,0,.083.039.207.207,0,0,0,.207-.075,5.414,5.414,0,0,0,1.1-2.4c.611-3.436-2.569-5.953-2.7-6.059" transform="translate(-355.814 -46.604)" fill="#4d3744"/>
        <path id="Trazado_630784" data-name="Trazado 630784" d="M627.267,152.169l4.812-.783,6.464.251-4.053,6.206-7.3-2Z" transform="translate(-367.268 -88.648)" fill="#ababab"/>
        <path id="Trazado_630785" data-name="Trazado 630785" d="M639.246,140.863c-1.035,6.045-5.341,10.293-10.112,10.075-4.588-.2-8.533-4.489-9.435-10.312q1.964-.569,3.927-1.136a1.556,1.556,0,0,0,1.1-1.506V126.238l0,0,1.457-.091c.791-.052,1.56-.1,2.329-.153.054,0,.108,0,.164,0h.019c1.146.008,2.484.7,3.582-.225.006,0,.012-.008.019-.012a3.155,3.155,0,0,0,.282-.274.585.585,0,0,0,0,.269c.1.414.674.545.872.656.954.538-.07,4.528-.384,6.094a18.868,18.868,0,0,0-.073,6.729q1.428.405,2.909.8,1.7.447,3.343.84" transform="translate(-362.881 -73.477)" fill="#ffccbc"/>
        <path id="Trazado_630786" data-name="Trazado 630786" d="M629.178,158.715l-1.261,5.928-.726-2.527Z" transform="translate(-367.268 -92.94)" fill="#ababab"/>
        <path id="Trazado_630787" data-name="Trazado 630787" d="M641.677,158.932q.37,3.154.74,6.307l1.5-1.465Z" transform="translate(-375.751 -93.067)" fill="#ababab"/>
        <path id="Trazado_630788" data-name="Trazado 630788" d="M639.687,126.128c0,.125,0,.245,0,.37a48.09,48.09,0,0,1-2.417,5.924,9.682,9.682,0,0,1-5.429,5.208V126.618l0,0,1.457-.091,2.493-.157h.019c1.193-.076,2.389-.149,3.581-.225.1,0,.2-.012.3-.016" transform="translate(-369.989 -73.858)" fill="#ffab91"/>
        <path id="Trazado_630789" data-name="Trazado 630789" d="M638.544,93.181l-.01.027c-1.029,2.716-.069,4.01-.91,5.429-.018.03-.036.058-.057.088-.039.053-.1.135-.183.236a4.66,4.66,0,0,1-1.263.993c-2.907,1.518-6.564,3.2-6.564,3.2a11.026,11.026,0,0,1-3.085.9,10.825,10.825,0,0,1-3.99-.2,10.632,10.632,0,0,1-1.373-2.429,11.887,11.887,0,0,1-.738-2.951,15.835,15.835,0,0,1-.13-3.717,58.371,58.371,0,0,1,1.254-6.964c1.34-6.058,0-6.951,1.219-8.643,2.649-3.685,11.689-3.507,15.739,1.025,3.538,3.959.973,10.682.092,13" transform="translate(-363.166 -44.835)" fill="#ffccbc"/>
        <path id="Trazado_630790" data-name="Trazado 630790" d="M627.059,111.759a.629.629,0,1,1-.426-.9.715.715,0,0,1,.426.9" transform="translate(-366.482 -64.91)" fill="#4d3744"/>
        <path id="Trazado_630791" data-name="Trazado 630791" d="M640.854,114.769a.629.629,0,1,1-.427-.9.715.715,0,0,1,.427.9" transform="translate(-374.559 -66.673)" fill="#4d3744"/>
        <path id="Trazado_630792" data-name="Trazado 630792" d="M628.617,121.2a.212.212,0,0,1-.059-.023c-.1-.057-.966-.569-1.1-1.1s.4-1.191,1.694-2.028a.207.207,0,0,1,.225.348c-1.484.962-1.555,1.426-1.516,1.581.067.275.588.663.9.844a.207.207,0,0,1-.148.382" transform="translate(-367.414 -69.107)" fill="#9e6352"/>
        <path id="Trazado_630793" data-name="Trazado 630793" d="M628.377,129.855l1.722.375a.324.324,0,0,1,.235.445,1.357,1.357,0,0,1-1.618.765,1.315,1.315,0,0,1-.736-1.3.324.324,0,0,1,.4-.288" transform="translate(-367.729 -76.036)" fill="#fff"/>
        <path id="Trazado_630794" data-name="Trazado 630794" d="M640.107,108.59c.133.715,2.283.842,2.605.859a2.449,2.449,0,0,0-.91-1.086c-.364-.231-1.149-.581-1.516-.255a.554.554,0,0,0-.179.482" transform="translate(-374.827 -63.228)" fill="#4d3744"/>
        <path id="Trazado_630795" data-name="Trazado 630795" d="M627.425,106.589c-.148.208-.682.248-2.309-.409a1.523,1.523,0,0,1,1.976-.47c.278.218.485.666.334.878" transform="translate(-366.053 -61.784)" fill="#4d3744"/>
        <path id="Trazado_630796" data-name="Trazado 630796" d="M644.618,90.026c.167-4.209-2.208-7.3-3.78-9.341-.122-.158-.248-.312-.374-.467a9.362,9.362,0,0,0-.845-1.566c-3.731-5.545-13.842-7.35-19.536-2.448a13.691,13.691,0,0,0-4.127,7.3,14.062,14.062,0,0,0,.339,7.1c1.649-5.378,3.727-6.627,4.982-6.961.852-.227,1.429-.06,5.138.175,1.77.112,3.23.174,4.217.21a13.65,13.65,0,0,0,.053,4.418c.434,2.409,1.157,2.795,1.319,4.71.176,2.092-.612,2.74-1.217,5.753a23.083,23.083,0,0,0-.407,5.709l1.551.773c.181-.132.361-.264.553-.395a26.992,26.992,0,0,1,2.917-1.662c5.507-3.131,6.916-12.887,6.464-17.3a22.842,22.842,0,0,0-.81-3.961c-.041-.183-.093-.394-.157-.621,1.508,1.987,3.453,4.833,3.305,8.563a12.04,12.04,0,0,1-3.562,7.748.207.207,0,0,0,.3.29,12.449,12.449,0,0,0,3.68-8.022" transform="translate(-360.512 -42.953)" fill="#4d3744"/>
        <path id="Trazado_630797" data-name="Trazado 630797" d="M651.539,121.041a2.922,2.922,0,0,1,2.329-1.2,1.051,1.051,0,0,1,.349.092c1,.5,1.217,3.045.054,4.5a3.793,3.793,0,0,1-1.894,1.184,13.807,13.807,0,0,1-2.764.244Z" transform="translate(-380.399 -70.166)" fill="#ffccbc"/>
        <path id="Trazado_630798" data-name="Trazado 630798" d="M633.364,186.615q.045-13.291.09-26.581-.4-.132-.807-.26-2.082-.656-4.078-1.142a9.912,9.912,0,0,1-1.632,2.475c-.872.964-3.109,3.434-5.6,2.81-1.849-.463-3.29-2.5-3.6-5.007l-6.624,1.514v26.19Z" transform="translate(-357.853 -92.891)" fill="#fff"/>
        <path id="Trazado_630799" data-name="Trazado 630799" d="M625.786,153.275l1.91,2.254-1.91,4.929-1.125-3.435Z" transform="translate(-365.787 -89.754)" fill="#fff"/>
        <path id="Trazado_630800" data-name="Trazado 630800" d="M647.026,151.991l-5.349,2.877,1.749,5.84,4.271-4.639q-.335-2.04-.671-4.078" transform="translate(-375.751 -89.002)" fill="#fff"/>
        <path id="Trazado_630801" data-name="Trazado 630801" d="M652.19,590.383c-.194-4.78-.425-23.411-.485-31.327H644.3q.63,9.448,1.4,19.109.417,5.238.864,10.408a6.325,6.325,0,0,1-2,5.295l-.023.02-7.461,6.508a11.438,11.438,0,0,0,9.516-1.685,15.017,15.017,0,0,0,5.6-8.327" transform="translate(-373.056 -327.37)" fill="#ffccbc"/>
        <path id="Trazado_630802" data-name="Trazado 630802" d="M627.618,645.2a4.306,4.306,0,0,1,.518-.829,4.778,4.778,0,0,1,2.829-1.562,7.088,7.088,0,0,1,2.058-.223,11.763,11.763,0,0,0,2.122.074c1.126-.063,5.079-.283,7.187-2.956,1.2-1.521.764-2.538,2.484-4.588a11.017,11.017,0,0,1,1.763-1.682c.517,1.854.857,3.431,1.083,4.624a16.713,16.713,0,0,1,.408,3.339c0,.708-.066,1.349-.193,2.6-.113,1.115-.232,2.039-.321,2.693H645.26l-1.286-1.355-1.518,1.355-13.991-.083a.98.98,0,0,1-.848-1.409" transform="translate(-367.46 -370.924)" fill="#4d3744"/>
        <path id="Trazado_630803" data-name="Trazado 630803" d="M629.376,361.256c-.1,1.252-.2,2.478-.278,3.68-.477,6.763-.655,12.81-.812,18.2-.145,4.923-.182,8.533-.2,9.963-.091,7.833-.414,21.19-1.451,45.313H615.493l-3.431-54.227q-1.958-11.8-3.92-23.6a.156.156,0,0,0-.311.025q-.286,11.643-.572,23.282.012,3.512.008,7.045-.068,24.436-1.388,47.75c-5.234-.157-3.929-.116-9.163-.274-2.681-20.108-4.724-42.126-5.624-65.827-.651-17.19-.634-33.5-.141-48.827a35.613,35.613,0,0,1,15.334-4.981,36.361,36.361,0,0,1,22.449,5.806c.365,1.185.767,2.611,1.148,4.252a60.716,60.716,0,0,1,1.38,8.844c.609,7.584-.7,9.383-1.886,23.572" transform="translate(-345.836 -186.604)" fill="#6f855d"/>
        <g id="Grupo_1004524" data-name="Grupo 1004524" transform="translate(255.119 133.611)" style="mix-blend-mode: multiply;isolation: isolate">
          <g id="Grupo_1004523" data-name="Grupo 1004523">
            <g id="Grupo_1004522" data-name="Grupo 1004522" clip-path="url(#clip-path-18)">
              <g id="Grupo_1004521" data-name="Grupo 1004521" transform="translate(0)">
                <g id="Grupo_1004520" data-name="Grupo 1004520" clip-path="url(#clip-path-19)">
                  <rect id="Rectángulo_347429" data-name="Rectángulo 347429" width="45.11" height="52.588" transform="translate(-15.095 3.902) rotate(-17.181)" fill="url(#linear-gradient-8)"/>
                </g>
              </g>
            </g>
          </g>
        </g>
        <path id="Trazado_630805" data-name="Trazado 630805" d="M630.245,419.895a.207.207,0,0,1-.2-.173l-2.584-15.541c-1.642-4.826-3.595-10.68-3.526-10.972a.205.205,0,0,1,.249-.154.208.208,0,0,1,.159.216c.053.488,2.128,6.718,3.518,10.809l2.592,15.574a.207.207,0,0,1-.17.238.193.193,0,0,1-.034,0" transform="translate(-365.359 -230.16)" fill="#35453c"/>
        <path id="Trazado_630806" data-name="Trazado 630806" d="M548.87,191.534c-.352,1.746-1.671,3.544-2.023,5.29-.738-2.177-1.467-3.891-1.983-5.033-2.109-4.66-3.867-6.788-4.772-11.092a22.816,22.816,0,0,1-.37-2.375,6.053,6.053,0,0,0-2.11-3.012c-1.964-1.435-4.589-1.268-4.685-.92-.034.124.229.362.431.474.294.163.469.064.7.223a.834.834,0,0,1,.35.614c0,.4-.617.57-1.121.818a28.667,28.667,0,0,1-3.927.548,18.676,18.676,0,0,0-3.513-2.217,8.613,8.613,0,0,0-1.534,0l3.634,5.1s6.219,1.046,6.582,1.088a.5.5,0,0,0,.15-.028q4.349,15.062,8.7,30.123a2.713,2.713,0,0,0,2.2,1.956l2.672.385a1.682,1.682,0,0,0,1.429-.484,22.5,22.5,0,0,0,5.3-8.274,22.744,22.744,0,0,0,1.291-6.049c-2.788-2.362-4.609-4.776-7.4-7.138" transform="translate(-307.025 -101.979)" fill="#ffccbc"/>
        <path id="Trazado_630807" data-name="Trazado 630807" d="M548.892,196.931a.207.207,0,0,1-.2-.15l-1.856-6.426-1.3-.161a.207.207,0,0,1-.18-.231.2.2,0,0,1,.231-.181l1.44.178a.206.206,0,0,1,.174.148l1.894,6.557a.207.207,0,0,1-.142.257.2.2,0,0,1-.058.008" transform="translate(-319.345 -111.131)" fill="#9e6352"/>
        <path id="Trazado_630808" data-name="Trazado 630808" d="M548.673,189.417a.207.207,0,0,1-.073-.4l2.408-.9a.207.207,0,0,1,.145.388l-2.407.9a.2.2,0,0,1-.073.013" transform="translate(-321.169 -110.147)" fill="#9e6352"/>
        <path id="Trazado_630809" data-name="Trazado 630809" d="M591.908,195.478c-.862-.336-1.724-.667-2.586-1q-3.661-1.424-7.323-2.843l-3.68-1.43c.559-2.064,2.71-9.9,5.338-17.46a16.893,16.893,0,0,1,3.68-6.473,14.824,14.824,0,0,1,3.382-2.656q.155,4.2.315,8.388l.236,6.415q.323,8.529.638,17.062" transform="translate(-338.65 -95.808)" fill="#87a171"/>
        <g id="Grupo_1004529" data-name="Grupo 1004529" transform="translate(243.349 75.306)" style="mix-blend-mode: multiply;isolation: isolate">
          <g id="Grupo_1004528" data-name="Grupo 1004528">
            <g id="Grupo_1004527" data-name="Grupo 1004527" clip-path="url(#clip-path-20)">
              <g id="Grupo_1004526" data-name="Grupo 1004526" transform="translate(0 0)">
                <g id="Grupo_1004525" data-name="Grupo 1004525" clip-path="url(#clip-path-21)">
                  <rect id="Rectángulo_347431" data-name="Rectángulo 347431" width="10.087" height="23.386" transform="translate(0 0)" fill="url(#linear-gradient-9)"/>
                </g>
              </g>
            </g>
          </g>
        </g>
        <path id="Trazado_630811" data-name="Trazado 630811" d="M629.412,247.813c-3.431.029-8.392.058-13.2.091-3.916.021-7.729.046-10.522.07a46.916,46.916,0,0,0-1.521-5.458c-.485-1.4-1-2.694-1.529-3.871q-.566,1.971-1.119,3.97-.758,2.729-1.475,5.412c-.783-.008-1.409,0-1.848,0-.518,0-.891.021-2.3.041q-4.09.062-8.052.2a58.78,58.78,0,0,1-.1-16.229c1.131-8.148,2.279-12.735,2.279-12.735a55.124,55.124,0,0,0,1.355-8c.079-.829.128-1.724.137-2.785.058-7.476-1.894-15.765-1.707-21.144a48.533,48.533,0,0,1,.584-5.736c.116-.7.257-1.417.439-2.192.825-3.614,1.695-5.122,3.067-9.615.589-1.935,1.351-4.679,2.039-8.077,1.919-.423,3.846-.841,5.76-1.26-.452,1.347-2.661,8.317.953,14.613a14.921,14.921,0,0,0,3.663,4.235,79.523,79.523,0,0,0,5.1-6.32c.854-1.173,1.7-2.329,2.586-3.788a39,39,0,0,0,3.9-8.79,47.429,47.429,0,0,1,5.122,1.815c5.458,10.158,5.653,17.3,4.691,22.068-.427,2.118-.87,4.049-1.293,5.727-1.069,4.264-1.977,6.9-1.977,6.9-1.276,3.7-2.387,6.113-2.23,9.706.133,3.058,1.156,5.031,2.08,7.24A83.538,83.538,0,0,1,629.52,235.8a58.8,58.8,0,0,1-.108,12.018" transform="translate(-343.87 -93.958)" fill="#87a171"/>
        <g id="Grupo_1004534" data-name="Grupo 1004534" transform="translate(272.287 87.83)" style="mix-blend-mode: multiply;isolation: isolate">
          <g id="Grupo_1004533" data-name="Grupo 1004533">
            <g id="Grupo_1004532" data-name="Grupo 1004532" clip-path="url(#clip-path-22)">
              <g id="Grupo_1004531" data-name="Grupo 1004531" transform="translate(0 0)">
                <g id="Grupo_1004530" data-name="Grupo 1004530" clip-path="url(#clip-path-23)">
                  <rect id="Rectángulo_347433" data-name="Rectángulo 347433" width="53.189" height="59.734" transform="translate(-32.771 27.206) rotate(-39.901)" fill="url(#linear-gradient-10)"/>
                </g>
              </g>
            </g>
          </g>
        </g>
        <path id="Trazado_630813" data-name="Trazado 630813" d="M627.178,320.379a.208.208,0,0,1-.2-.143L623.93,310.9a.219.219,0,0,1-.01-.069l.619-26.89a.207.207,0,0,1,.414.01l-.618,26.855,2.993,9.154,18.984-.128h0a.207.207,0,0,1,0,.414l-19.134.129Z" transform="translate(-365.353 -166.153)" fill="#35453c"/>
        <path id="Trazado_630814" data-name="Trazado 630814" d="M659.8,327.6H649.384a.207.207,0,0,1-.207-.207V313.951a.207.207,0,0,1,.207-.207h9.971a.207.207,0,0,1,.207.2l.443,13.442a.209.209,0,0,1-.058.151.207.207,0,0,1-.149.063m-10.207-.414h9.993l-.429-13.027h-9.563Z" transform="translate(-380.143 -183.721)" fill="#35453c"/>
        <path id="Trazado_630815" data-name="Trazado 630815" d="M599.14,325.865h-.007l-8.567-.3a.207.207,0,0,1-.2-.228l1.256-12.482a.207.207,0,0,1,.206-.187H600.4a.207.207,0,0,1,.206.227l-1.256,12.778a.207.207,0,0,1-.206.187m-8.339-.7,8.152.281,1.215-12.357h-8.152Z" transform="translate(-345.704 -183.094)" fill="#35453c"/>
        <path id="Trazado_630816" data-name="Trazado 630816" d="M601.877,320.147h-8.284a.207.207,0,0,1,0-.414h8.284a.207.207,0,0,1,0,.414" transform="translate(-347.473 -187.228)" fill="#35453c"/>
        <path id="Trazado_630817" data-name="Trazado 630817" d="M659.46,321.82H649.384a.207.207,0,1,1,0-.414H659.46a.207.207,0,1,1,0,.414" transform="translate(-380.143 -188.208)" fill="#35453c"/>
        <path id="Trazado_630818" data-name="Trazado 630818" d="M595.117,225.543a.207.207,0,0,1-.206-.186c-.433-4.259-.813-8.641-1.13-13.027-.426-5.913-.4-7.216-.394-7.841a45.159,45.159,0,0,1,3.034-15.193.207.207,0,1,1,.388.147A44.738,44.738,0,0,0,593.8,204.5c-.01.62-.032,1.91.393,7.8.316,4.381.7,8.76,1.128,13.014a.207.207,0,0,1-.185.228h-.022" transform="translate(-347.472 -110.769)" fill="#35453c"/>
        <path id="Trazado_630819" data-name="Trazado 630819" d="M615.429,186.361a.208.208,0,0,1-.145-.058l-7.039-6.832a.206.206,0,0,1-.042-.237l2.544-5.358-4.21-3.516a.207.207,0,0,1-.048-.261l5.644-10.039a.207.207,0,1,1,.361.2l-5.56,9.889,4.2,3.509a.207.207,0,0,1,.054.248l-2.55,5.368,6.934,6.728a.208.208,0,0,1,0,.293.2.2,0,0,1-.148.063" transform="translate(-355.13 -93.666)" fill="#35453c"/>
        <path id="Trazado_630820" data-name="Trazado 630820" d="M641.014,186.657a.207.207,0,0,1-.136-.363l4.588-4.009.845-8.264a.206.206,0,0,1,.08-.143l4.983-3.833-2.3-9.835a.207.207,0,0,1,.4-.094l2.333,9.965a.207.207,0,0,1-.076.211l-5.019,3.86-.844,8.257a.206.206,0,0,1-.07.135l-4.65,4.062a.2.2,0,0,1-.136.051" transform="translate(-375.241 -93.666)" fill="#35453c"/>
        <path id="Trazado_630821" data-name="Trazado 630821" d="M628.565,224.331q-1.016-12.352-2.032-24.7l-19.57,3.208,4.759,22.885,16.843-1.39" transform="translate(-355.423 -116.897)" fill="#fff"/>
        <path id="Trazado_630822" data-name="Trazado 630822" d="M643.753,229.559a128.238,128.238,0,0,0-2.242-17.628l-10.8,2.14,2.644,13.039a31.584,31.584,0,0,0-7.535-3.337c-5.094-1.653-11.514-3.9-11.514-3.9l-11.318,1.457a.617.617,0,0,0-.445.939,20.193,20.193,0,0,1,1.267,2.242c.382.917,1.528,1.146,1.6,1.452s.1,1.3.625,1.6.981.383,1.21.765a3.793,3.793,0,0,0,.911,1.07c.453.4,1.855,0,5.635-2.857a2.336,2.336,0,0,1,2.63-.121,27.042,27.042,0,0,1,3.736,2.344c.447.47,3.067,2.24,8.307,5.78,4.056,2.74,5.838,3.676,8.152,4.279.493.129.954.228,1.368.3a3.045,3.045,0,0,0,2.394-.559l3.575-2.7q-.023-3.064-.2-6.317" transform="translate(-352.779 -124.102)" fill="#ffccbc"/>
        <path id="Trazado_630823" data-name="Trazado 630823" d="M640.56,235.491a.2.2,0,0,1-.066-.011l-13.138-4.456-2.351.3a.207.207,0,1,1-.053-.411l2.4-.309a.21.21,0,0,1,.093.01l13.183,4.471a.207.207,0,0,1-.066.4" transform="translate(-365.851 -135.037)" fill="#9e6352"/>
        <path id="Trazado_630824" data-name="Trazado 630824" d="M684.829,269.421a7.73,7.73,0,0,1-2.683-.714.207.207,0,0,1,.177-.375,6.161,6.161,0,0,0,2.913.632c.857-.2,3.9-2.33,5.111-3.214l-.042-2.415a.207.207,0,0,1,.414-.007l.044,2.522a.205.205,0,0,1-.085.171c-.171.126-4.208,3.074-5.346,3.346a2.2,2.2,0,0,1-.5.053" transform="translate(-399.379 -154.08)" fill="#9e6352"/>
        <path id="Trazado_630825" data-name="Trazado 630825" d="M681.436,250.949a.21.21,0,0,1-.1-.025l-5.506-2.986a.207.207,0,1,1,.2-.364l5.506,2.986a.207.207,0,0,1-.1.389" transform="translate(-395.687 -144.959)" fill="#9e6352"/>
        <path id="Trazado_630826" data-name="Trazado 630826" d="M665.887,162.138a51.027,51.027,0,0,1,.321,11.114c-.39,4.713-1.354,8.014-.332,12.848a23.022,23.022,0,0,0,1.506,4.621c2.35-.872,4.831-1.727,7.439-2.547q3.848-1.211,7.438-2.14a32.975,32.975,0,0,0-1.608-7.74c-1.029-3.045-3.34-9.881-9.828-13.945a19.768,19.768,0,0,0-4.936-2.211" transform="translate(-389.655 -94.944)" fill="#87a171"/>
        <path id="Trazado_630827" data-name="Trazado 630827" d="M667.265,222.619a.207.207,0,0,1-.2-.146l-1.836-5.948a.207.207,0,0,1,.4-.122l1.774,5.747,11.893-3.868a.207.207,0,1,1,.128.394l-12.093,3.933a.209.209,0,0,1-.064.01" transform="translate(-389.538 -126.635)" fill="#35453c"/>
      </g>
    </g>
  </g>
</svg>
