<svg xmlns="http://www.w3.org/2000/svg" xmlns:xlink="http://www.w3.org/1999/xlink" width="103" height="103" viewBox="0 0 103 103">
  <defs>
    <filter id="Elipse_7689" x="0" y="0" width="103" height="103" filterUnits="userSpaceOnUse">
      <feOffset dy="3" input="SourceAlpha"/>
      <feGaussianBlur stdDeviation="3" result="blur"/>
      <feFlood flood-opacity="0.161"/>
      <feComposite operator="in" in2="blur"/>
      <feComposite in="SourceGraphic"/>
    </filter>
  </defs>
  <g id="Grupo_1004858" data-name="Grupo 1004858" transform="translate(-591 -2067)">
    <g transform="matrix(1, 0, 0, 1, 591, 2067)" filter="url(#Elipse_7689)">
      <circle id="Elipse_7689-2" data-name="Elipse 7689" cx="42.5" cy="42.5" r="42.5" transform="translate(9 6)" fill="#ffd3c3"/>
    </g>
    <g id="cirujano" transform="translate(612.751 2092.205)">
      <path id="Trazado_630910" data-name="Trazado 630910" d="M313.553,5.169l4.514-2.59L316.587,0l-6.047,3.469.854,1.489-.76,2.408,7.533,2.379.9-2.836Z" transform="translate(-271.647)" fill="#007a9e"/>
      <path id="Trazado_630911" data-name="Trazado 630911" d="M185.133,252.011a21.687,21.687,0,0,0-4.607.494l5.4,9.914.694-5.947-.694-4.461Z" transform="translate(-154.519 -227.031)" fill="#ffd298"/>
      <path id="Trazado_630912" data-name="Trazado 630912" d="M235.8,252.011h-.793v10.408l5.337-9.928A21.691,21.691,0,0,0,235.8,252.011Z" transform="translate(-203.599 -227.031)" fill="#edba75"/>
      <path id="Trazado_630913" data-name="Trazado 630913" d="M26.007,256.994a21.615,21.615,0,0,0-17,21.115h22.4l2.082-7.533-2.082-6.84Z" transform="translate(0 -231.52)" fill="#00eecf"/>
      <path id="Trazado_630914" data-name="Trazado 630914" d="M257.407,277.983a21.616,21.616,0,0,0-17.065-21.129L235,263.61v14.373Z" transform="translate(-203.598 -231.394)" fill="#00b5bc"/>
      <path id="Trazado_630915" data-name="Trazado 630915" d="M104,369.011h6.939v2.974H104Z" transform="translate(-85.583 -332.434)" fill="#00c6ce"/>
      <path id="Trazado_630916" data-name="Trazado 630916" d="M304.005,351.011h2.974v5.254h-2.974Z" transform="translate(-265.759 -316.218)" fill="#007a9e"/>
      <path id="Trazado_630917" data-name="Trazado 630917" d="M276.005,391.011h8.624v2.974h-8.624Z" transform="translate(-240.534 -352.253)" fill="#9dcfff"/>
      <path id="Trazado_630918" data-name="Trazado 630918" d="M153.957,89.895l-4.262-.884-4.655.884v6.352a8.906,8.906,0,0,0,.508,2.974l4.147.892,4.262-.892,1.189-4.56Z" transform="translate(-122.55 -80.188)" fill="#ffe3c1"/>
      <path id="Trazado_630919" data-name="Trazado 630919" d="M150.167,192.011a8.924,8.924,0,0,0,8.409,5.947l1.289-3.073-1.289-2.875Z" transform="translate(-127.17 -172.978)" fill="#00eecf"/>
      <path id="Trazado_630920" data-name="Trazado 630920" d="M235,92.014l4.461.892,3.956-.892a8.906,8.906,0,0,0,.508-2.974V82.688l-4.365-1.677L235,82.688v9.326Z" transform="translate(-203.597 -72.981)" fill="#ffd298"/>
      <path id="Trazado_630921" data-name="Trazado 630921" d="M235.005,197.958h0a8.924,8.924,0,0,0,8.413-5.947h-8.416v5.947Z" transform="translate(-203.598 -172.978)" fill="#00b5bc"/>
      <path id="Trazado_630922" data-name="Trazado 630922" d="M153.956,1.011h-1.487l-1.487.5-1.487-.5h-.013a4.444,4.444,0,0,0-4.444,4.444v5.163H149.5l1.289-.785,1.685.785h1.487l1.289-4.551Z" transform="translate(-122.549 -0.911)" fill="#00eecf"/>
      <path id="Trazado_630923" data-name="Trazado 630923" d="M239.485,1.011h-.02L237.88,1.8l-1.388-.793h-1.487v9.607h1.487l1.586-.686,1.388.686h4.464V5.455a4.444,4.444,0,0,0-4.444-4.444Z" transform="translate(-203.598 -0.911)" fill="#00b5bc"/>
      <path id="Trazado_630924" data-name="Trazado 630924" d="M190.005,1.011h2.974v9.607h-2.974Z" transform="translate(-163.059 -0.911)" fill="#00c6ce"/>
      <path id="Trazado_630925" data-name="Trazado 630925" d="M250.005,1.011h2.974v9.607h-2.974Z" transform="translate(-217.111 -0.911)" fill="#007a9e"/>
    </g>
  </g>
</svg>
