<svg xmlns="http://www.w3.org/2000/svg" xmlns:xlink="http://www.w3.org/1999/xlink" width="136" height="136" viewBox="0 0 136 136">
  <defs>
    <linearGradient id="linear-gradient" x1="0.5" x2="0.5" y2="1" gradientUnits="objectBoundingBox">
      <stop offset="0" stop-color="#fff"/>
      <stop offset="1" stop-color="#e9e9e9"/>
    </linearGradient>
  </defs>
  <g id="Grupo_1004856" data-name="Grupo 1004856" transform="translate(-285 -1522.096)">
    <circle id="Elipse_7652" data-name="Elipse 7652" cx="68" cy="68" r="68" transform="translate(285 1522.096)" fill="url(#linear-gradient)"/>
    <g id="caballo" transform="translate(295.904 1531.001)">
      <path id="Trazado_632220" data-name="Trazado 632220" d="M118.192,59.1a59.031,59.031,0,0,1-25.361,48.526c-9.566,6.662-21.194,1.766-33.736,1.766a59.346,59.346,0,0,1-9.541-.769c-8.887-1.44-17.106,3.938-24.195-1A59.1,59.1,0,1,1,118.192,59.1Z" transform="translate(0 0)" fill="#ffc107"/>
      <path id="Trazado_632221" data-name="Trazado 632221" d="M177.331,311.71a59.119,59.119,0,0,1-67.471,0l13.834-46.37h39.8Z" transform="translate(-84.499 -204.088)" fill="#b75c34"/>
      <path id="Trazado_632222" data-name="Trazado 632222" d="M140.911,265.34l-6.856,56.171a58.756,58.756,0,0,1-24.195-9.8l13.834-46.37Z" transform="translate(-84.499 -204.088)" fill="#a54828"/>
      <g id="Grupo_1004722" data-name="Grupo 1004722" transform="translate(23.306 -0.001)">
        <path id="Trazado_632223" data-name="Trazado 632223" d="M220.961,400.808l-.264,5.218a6.515,6.515,0,0,1-8.572,5.9q-.16-.056-.318-.121l-1.716-.7a10.976,10.976,0,0,0-8.314,0l-1.716.7q-.158.065-.318.121a6.515,6.515,0,0,1-8.572-5.9l-.264-5.218" transform="translate(-170.144 -308.284)" fill="#cc754a"/>
        <path id="Trazado_632224" data-name="Trazado 632224" d="M142.408,15.814l7.889,1.9,2.432-8.932a7.353,7.353,0,0,1,5.7-5.3A39.1,39.1,0,0,0,168.639.314a2.656,2.656,0,0,1,3.9,2.4c-.13,6.19-2.814,15.761-17.306,19.179l6.688,20.2-3.687,20.446a8.816,8.816,0,0,1-3.245,6.691,8.815,8.815,0,0,0-3.246,6.833v7.284l.89.89a6.6,6.6,0,0,1-.858,10.051l-.382.27A6.82,6.82,0,0,1,142.622,98l-1.716-.7a10.977,10.977,0,0,0-8.314,0l-1.386.567-1.172-.5c-3.375,1.381-5.148-.276-6.681-3.585l-.432-.041-1.2.547a6.6,6.6,0,0,1-.858-10.051l.89-.89V76.057a8.815,8.815,0,0,0-3.246-6.833,8.814,8.814,0,0,1-3.245-6.691l-3.687-20.446,6.688-20.2C103.773,18.471,101.088,8.9,100.959,2.709a2.656,2.656,0,0,1,3.9-2.4A39.1,39.1,0,0,0,115.064,3.49a7.353,7.353,0,0,1,5.7,5.3l2.432,8.932,7.889-1.9a24.135,24.135,0,0,1,11.319,0Z" transform="translate(-100.958 0.001)" fill="#dc8758"/>
        <path id="Trazado_632225" data-name="Trazado 632225" d="M129.6,94.557a6.613,6.613,0,0,0,1.611,3.31l-.33.136a6.82,6.82,0,0,1-8.772-3.446l-.381-.27a6.6,6.6,0,0,1-.859-10.051l.891-.889V76.062a8.819,8.819,0,0,0-3.246-6.833,8.8,8.8,0,0,1-3.246-6.69l-3.687-20.448,6.688-20.2C103.773,18.475,101.088,8.9,100.959,2.713a2.654,2.654,0,0,1,3.9-2.394A39.2,39.2,0,0,0,115.064,3.5a7.347,7.347,0,0,1,5.7,5.293l2.433,8.931,3.959-.956-1.066,25.326.159,20.448a16.769,16.769,0,0,0,.432,3.705,10.551,10.551,0,0,0,1.154,2.985,13.851,13.851,0,0,1,1.586,6.833v7.285l-.436.889c-1.413,2.892-1.212,7.692.42,10.051Z" transform="translate(-100.958 -0.003)" fill="#cc754a"/>
        <ellipse id="Elipse_7678" data-name="Elipse 7678" cx="2.94" cy="4.613" rx="2.94" ry="4.613" transform="translate(20.025 89.586) rotate(-51.904)" fill="#384948"/>
        <ellipse id="Elipse_7679" data-name="Elipse 7679" cx="4.613" cy="2.94" rx="4.613" ry="2.94" transform="translate(40.19 90.621) rotate(-38.096)" fill="#384948"/>
        <g id="Grupo_1004718" data-name="Grupo 1004718" transform="translate(8.748 38.874)">
          <ellipse id="Elipse_7680" data-name="Elipse 7680" cx="3.417" cy="5.655" rx="3.417" ry="5.655" transform="matrix(0.89, -0.456, 0.456, 0.89, 0, 3.116)" fill="#516666"/>
          <path id="Trazado_632226" data-name="Trazado 632226" d="M153.682,182.916a2.47,2.47,0,0,1-1.174,1.453c-1.68.861-4.2-.694-5.62-3.473s-1.22-5.73.461-6.591a2.471,2.471,0,0,1,1.865-.1,7.877,7.877,0,0,0,4.468,8.716Z" transform="translate(-144.305 -172.759)" fill="#384948"/>
        </g>
        <g id="Grupo_1004719" data-name="Grupo 1004719" transform="translate(51.579 38.842)">
          <ellipse id="Elipse_7681" data-name="Elipse 7681" cx="5.655" cy="3.417" rx="5.655" ry="3.417" transform="matrix(0.456, -0.89, 0.89, 0.456, 0, 10.065)" fill="#516666"/>
          <path id="Trazado_632227" data-name="Trazado 632227" d="M339.246,175.754a2.47,2.47,0,0,0-1.174-1.453c-1.68-.861-4.2.694-5.62,3.474s-1.22,5.73.461,6.591a2.471,2.471,0,0,0,1.865.1,7.877,7.877,0,0,1,4.468-8.716Z" transform="translate(-329.863 -172.724)" fill="#384948"/>
        </g>
        <path id="Trazado_632228" data-name="Trazado 632228" d="M145.827,143.266l-5.769,4.906a2.462,2.462,0,0,0,1.1,4.287l8.354,1.72,4.3-8.995Z" transform="translate(-130.364 -110.194)" fill="#cc754a"/>
        <path id="Trazado_632229" data-name="Trazado 632229" d="M317.45,143.266l5.769,4.906a2.462,2.462,0,0,1-1.1,4.287l-8.354,1.72-4.3-8.995Z" transform="translate(-261.333 -110.194)" fill="#dc8758"/>
        <g id="Grupo_1004720" data-name="Grupo 1004720" transform="translate(22.827 11.39)">
          <path id="Trazado_632230" data-name="Trazado 632230" d="M222.64,59.826l-5.2-2.987s1.374,3.868-2.862,7.75a2.631,2.631,0,0,1-3.167.289,2.547,2.547,0,0,1-.382-.289c-4.236-3.882-2.86-7.75-2.86-7.75l-5.2,2.986A2.084,2.084,0,0,1,199.9,57.54a6.879,6.879,0,0,1,3.159-4.122l-2.36-1.242a1.462,1.462,0,0,1,.522-2.748,17.653,17.653,0,0,1,10.245,2.054,2.761,2.761,0,0,0,2.67,0,17.655,17.655,0,0,1,10.247-2.054,1.462,1.462,0,0,1,.522,2.748l-2.36,1.242a6.851,6.851,0,0,1,3.179,4.214,2.079,2.079,0,0,1-3.083,2.193Z" transform="translate(-199.842 -49.338)" fill="#b75c34"/>
          <path id="Trazado_632231" data-name="Trazado 632231" d="M211.407,64.878a2.546,2.546,0,0,1-.382-.289c-4.236-3.882-2.86-7.75-2.86-7.75l-5.2,2.986a2.084,2.084,0,0,1-3.065-2.284,6.879,6.879,0,0,1,3.159-4.122l-2.36-1.242a1.462,1.462,0,0,1,.522-2.748,17.653,17.653,0,0,1,10.245,2.054s-2.542,7.94-.058,13.395Z" transform="translate(-199.842 -49.339)" fill="#a54828"/>
        </g>
        <path id="Trazado_632232" data-name="Trazado 632232" d="M243.187,197.482a2.406,2.406,0,0,1-2.4-2.326l-1.439-43.279a3.845,3.845,0,1,1,7.686,0l-1.439,43.279A2.4,2.4,0,0,1,243.187,197.482Z" transform="translate(-207.397 -113.761)" fill="#fff9f1"/>
        <g id="Grupo_1004721" data-name="Grupo 1004721" transform="translate(3.631 5.068)">
          <path id="Trazado_632233" data-name="Trazado 632233" d="M116.687,21.955S129.741,24.3,131.844,34.73C131.844,34.73,117.417,35.643,116.687,21.955Z" transform="translate(-116.687 -21.955)" fill="#a54828"/>
          <path id="Trazado_632234" data-name="Trazado 632234" d="M344.813,21.955S331.76,24.3,329.657,34.73C329.657,34.73,344.083,35.643,344.813,21.955Z" transform="translate(-280.494 -21.955)" fill="#a54828"/>
        </g>
      </g>
    </g>
  </g>
</svg>
