<svg xmlns="http://www.w3.org/2000/svg" xmlns:xlink="http://www.w3.org/1999/xlink" width="103" height="103" viewBox="0 0 103 103">
  <defs>
    <filter id="Elipse_7656" x="0" y="0" width="103" height="103" filterUnits="userSpaceOnUse">
      <feOffset dy="3" input="SourceAlpha"/>
      <feGaussianBlur stdDeviation="3" result="blur"/>
      <feFlood flood-opacity="0.161"/>
      <feComposite operator="in" in2="blur"/>
      <feComposite in="SourceGraphic"/>
    </filter>
  </defs>
  <g id="Grupo_1004861" data-name="Grupo 1004861" transform="translate(-1011 -2070)">
    <g transform="matrix(1, 0, 0, 1, 1011, 2070)" filter="url(#Elipse_7656)">
      <circle id="Elipse_7656-2" data-name="Elipse 7656" cx="42.5" cy="42.5" r="42.5" transform="translate(9 6)" fill="#ffd3c3"/>
    </g>
    <g id="adn" transform="translate(1049.098 2090.733)">
      <g id="Grupo_1004539" data-name="Grupo 1004539" transform="translate(1.915 2.872)">
        <path id="Trazado_630829" data-name="Trazado 630829" d="M160,24h11.488v1.915H160Z" transform="translate(-160 -24)" fill="#2387c3"/>
      </g>
      <g id="Grupo_1004540" data-name="Grupo 1004540" transform="translate(5.744 10.53)">
        <path id="Trazado_630830" data-name="Trazado 630830" d="M192,88h7.658v1.915H192Z" transform="translate(-192 -88)" fill="#2387c3"/>
      </g>
      <g id="Grupo_1004541" data-name="Grupo 1004541" transform="translate(13.402 2.872)">
        <path id="Trazado_630831" data-name="Trazado 630831" d="M0,0H11.488V1.915H0Z" transform="translate(11.488 1.915) rotate(180)" fill="#d73728"/>
      </g>
      <g id="Grupo_1004542" data-name="Grupo 1004542" transform="translate(13.402 10.53)">
        <path id="Trazado_630832" data-name="Trazado 630832" d="M0,0H7.658V1.915H0Z" transform="translate(7.658 1.915) rotate(180)" fill="#d73728"/>
      </g>
      <g id="Grupo_1004543" data-name="Grupo 1004543" transform="translate(1.915 56.48)">
        <path id="Trazado_630833" data-name="Trazado 630833" d="M160,472h11.488v1.915H160Z" transform="translate(-160 -472)" fill="#2387c3"/>
      </g>
      <g id="Grupo_1004544" data-name="Grupo 1004544" transform="translate(5.744 48.822)">
        <path id="Trazado_630834" data-name="Trazado 630834" d="M192,408h7.658v1.915H192Z" transform="translate(-192 -408)" fill="#2387c3"/>
      </g>
      <g id="Grupo_1004545" data-name="Grupo 1004545" transform="translate(13.402 56.48)">
        <path id="Trazado_630835" data-name="Trazado 630835" d="M0,0H11.488V1.915H0Z" transform="translate(11.488 1.915) rotate(180)" fill="#d73728"/>
      </g>
      <g id="Grupo_1004546" data-name="Grupo 1004546" transform="translate(13.402 48.822)">
        <path id="Trazado_630836" data-name="Trazado 630836" d="M0,0H7.658V1.915H0Z" transform="translate(7.658 1.915) rotate(180)" fill="#d73728"/>
      </g>
      <g id="Grupo_1004547" data-name="Grupo 1004547" transform="translate(13.402 29.676)">
        <path id="Trazado_630837" data-name="Trazado 630837" d="M0,0H11.488V1.915H0Z" transform="translate(11.488 1.915) rotate(180)" fill="#2387c3"/>
      </g>
      <g id="Grupo_1004548" data-name="Grupo 1004548" transform="translate(13.402 22.018)">
        <path id="Trazado_630838" data-name="Trazado 630838" d="M0,0H7.658V1.915H0Z" transform="translate(7.658 1.915) rotate(180)" fill="#2387c3"/>
      </g>
      <g id="Grupo_1004549" data-name="Grupo 1004549" transform="translate(1.915 29.676)">
        <path id="Trazado_630839" data-name="Trazado 630839" d="M160,248h11.488v1.915H160Z" transform="translate(-160 -248)" fill="#d73728"/>
      </g>
      <g id="Grupo_1004550" data-name="Grupo 1004550" transform="translate(5.744 22.018)">
        <path id="Trazado_630840" data-name="Trazado 630840" d="M192,184h7.658v1.915H192Z" transform="translate(-192 -184)" fill="#d73728"/>
      </g>
      <g id="Grupo_1004551" data-name="Grupo 1004551" transform="translate(13.402 37.334)">
        <path id="Trazado_630841" data-name="Trazado 630841" d="M0,0H7.658V1.915H0Z" transform="translate(7.658 1.915) rotate(180)" fill="#2387c3"/>
      </g>
      <g id="Grupo_1004552" data-name="Grupo 1004552" transform="translate(5.744 37.334)">
        <path id="Trazado_630842" data-name="Trazado 630842" d="M192,312h7.658v1.915H192Z" transform="translate(-192 -312)" fill="#d73728"/>
      </g>
      <g id="Grupo_1004553" data-name="Grupo 1004553" transform="translate(0 0)">
        <path id="Trazado_630843" data-name="Trazado 630843" d="M145.915,32.548A1.915,1.915,0,0,1,144,30.633a13.7,13.7,0,0,1,4.123-9.852,42.537,42.537,0,0,1,8.264-6.131c5.681-3.551,10.588-6.617,10.588-12.736a1.915,1.915,0,0,1,3.829,0,13.7,13.7,0,0,1-4.123,9.852,42.536,42.536,0,0,1-8.264,6.131c-5.681,3.551-10.588,6.617-10.588,12.736A1.915,1.915,0,0,1,145.915,32.548Z" transform="translate(-144)" fill="#d73728"/>
      </g>
      <g id="Grupo_1004554" data-name="Grupo 1004554" transform="translate(0 28.719)">
        <path id="Trazado_630844" data-name="Trazado 630844" d="M145.915,272.548A1.915,1.915,0,0,1,144,270.633a13.7,13.7,0,0,1,4.123-9.852,42.536,42.536,0,0,1,8.264-6.131c5.681-3.551,10.588-6.617,10.588-12.736a1.915,1.915,0,0,1,3.829,0,13.7,13.7,0,0,1-4.123,9.852,42.536,42.536,0,0,1-8.264,6.131c-5.681,3.551-10.588,6.617-10.588,12.736A1.915,1.915,0,0,1,145.915,272.548Z" transform="translate(-144 -240)" fill="#2387c3"/>
      </g>
      <g id="Grupo_1004555" data-name="Grupo 1004555" transform="translate(0 28.719)">
        <path id="Trazado_630845" data-name="Trazado 630845" d="M168.89,272.548a1.915,1.915,0,0,1-1.915-1.915c0-6.119-4.906-9.185-10.588-12.736a42.546,42.546,0,0,1-8.264-6.131A13.7,13.7,0,0,1,144,241.915a1.915,1.915,0,0,1,3.829,0c0,6.119,4.906,9.185,10.588,12.736a42.546,42.546,0,0,1,8.264,6.131,13.7,13.7,0,0,1,4.123,9.852A1.915,1.915,0,0,1,168.89,272.548Z" transform="translate(-144 -240)" fill="#f05a4b"/>
      </g>
      <g id="Grupo_1004556" data-name="Grupo 1004556" transform="translate(0 0)">
        <path id="Trazado_630846" data-name="Trazado 630846" d="M168.89,32.548a1.915,1.915,0,0,1-1.915-1.915c0-6.119-4.906-9.185-10.588-12.736a42.546,42.546,0,0,1-8.264-6.131A13.7,13.7,0,0,1,144,1.915a1.915,1.915,0,0,1,3.829,0c0,6.119,4.906,9.185,10.588,12.736a42.546,42.546,0,0,1,8.264,6.131,13.7,13.7,0,0,1,4.123,9.852A1.915,1.915,0,0,1,168.89,32.548Z" transform="translate(-144 0)" fill="#5ad7ff"/>
      </g>
    </g>
  </g>
</svg>
