<svg xmlns="http://www.w3.org/2000/svg" xmlns:xlink="http://www.w3.org/1999/xlink" width="610" height="449" viewBox="0 0 610 449">
  <defs>
    <clipPath id="clip-path">
      <rect id="Rectángulo_347564" data-name="Rectángulo 347564" width="610" height="449" transform="translate(180 3142)" fill="#fff" stroke="#707070" stroke-width="1"/>
    </clipPath>
    <clipPath id="clip-path-2">
      <rect id="Rectángulo_347563" data-name="Rectángulo 347563" width="672.039" height="417.715" fill="none"/>
    </clipPath>
    <clipPath id="clip-path-3">
      <path id="Trazado_632367" data-name="Trazado 632367" d="M162.1,17.236c-36.311,0-66.677,28.85-82.073,43.476C34.019,104.423,29.61,161.7,27.9,182.721c-1.343,16.542,1.315,48.865,6.261,65.844a159.337,159.337,0,0,0,9.056,23.841q3.344,7.061,7.381,13.76c24.216,40.339,64.644,67.371,108.718,85q7.346,2.955,14.809,5.541c10.615,3.7,21.365,6.892,32.073,9.638q10.357,2.646,20.6,4.741a475.9,475.9,0,0,0,82.875,9.55q4.281.114,8.343.123h2.23q3.814-.012,7.4-.1c.838-.019,1.706-.044,2.622-.069a445.787,445.787,0,0,0,50.765-3.834c1.888-.263,3.809-.539,5.747-.838a316.458,316.458,0,0,0,42.837-9.575c33.848-10.151,69.523-27.72,98.28-58.3a190.716,190.716,0,0,0,13.621-16.2c.288-.387,1.034-1.419,2.109-3.039v0c6.617-9.926,25.943-41.9,33.641-84.641A199.682,199.682,0,0,0,580.483,190v-2.912a181.013,181.013,0,0,0-6.894-48.109c-4.371-15.379-17.29-60.67-59.49-91.142q-2.831-2.064-5.86-4.022c-1.212-.787-2.613-1.688-4.2-2.682-2.727-1.707-5.98-3.659-9.714-5.654a118.162,118.162,0,0,0-34.1-12.221c0-.007,0-.007-.018,0A99.1,99.1,0,0,0,448.3,21.793c-1-.068-2.008-.118-3.033-.149-.406-.019-.819-.025-1.219-.025-39.415-.784-61.893,22.959-85.328,41.514q-2.6,2.064-5.221,4.022c-.074.063-.163.123-.244.181-.406.306-.827.607-1.245.913a112.959,112.959,0,0,1-12.234,7.867,66.176,66.176,0,0,1-23.6,8.007s-3.124.4-6.36.482c-20.45.483-91.362-61.274-139.889-66.917a67.55,67.55,0,0,0-7.8-.452Z" fill="none"/>
    </clipPath>
    <clipPath id="clip-path-4">
      <rect id="Rectángulo_347559" data-name="Rectángulo 347559" width="553.555" height="400.759" transform="translate(26.928)" fill="none"/>
    </clipPath>
    <clipPath id="clip-path-5">
      <rect id="Rectángulo_347550" data-name="Rectángulo 347550" width="86.605" height="126.941" transform="translate(347.692 122.575)" fill="none"/>
    </clipPath>
    <clipPath id="clip-path-6">
      <path id="Trazado_632377" data-name="Trazado 632377" d="M412.615,139.131h0c-17.467,28.07-3.8,58.044-20.511,69.753-5.877,4.121-12.58,3.923-14.562,3.866-15.877-.468-25.712-15.919-27.1-18.168a85.961,85.961,0,0,0,5.29,10.776c4,6.923,10.6,18.087,22.992,27.006,7.368,5.306,17.376,12.508,26.655,12.68h.675a15.8,15.8,0,0,0,4.56-.74c19.807-6.364,20.865-52.418,20.886-69.089v-2.061a204.248,204.248,0,0,0-6.079-48.764,62.8,62.8,0,0,0-12.809,14.741" fill="none"/>
    </clipPath>
    <linearGradient id="linear-gradient" x1="-4.169" y1="2.403" x2="-4.157" y2="2.403" gradientUnits="objectBoundingBox">
      <stop offset="0" stop-color="#fff"/>
      <stop offset="1" stop-color="#5b97a3"/>
    </linearGradient>
    <clipPath id="clip-path-7">
      <rect id="Rectángulo_347552" data-name="Rectángulo 347552" width="143.073" height="143.455" transform="translate(400.543 112.983)" fill="none"/>
    </clipPath>
    <clipPath id="clip-path-8">
      <path id="Trazado_632388" data-name="Trazado 632388" d="M463.035,183.484l0,0c-7.762.726-27.626,35.417-24.827,37.245s47.43,2.51,47.43,2.51l23.115-77.092c-.449.433-38,36.619-45.715,37.341" fill="none"/>
    </clipPath>
    <linearGradient id="linear-gradient-2" x1="-4.074" y1="2.733" x2="-4.064" y2="2.733" xlink:href="#linear-gradient"/>
    <clipPath id="clip-path-9">
      <rect id="Rectángulo_347554" data-name="Rectángulo 347554" width="327.315" height="342.883" transform="translate(344.724 74.832)" fill="none"/>
    </clipPath>
    <clipPath id="clip-path-10">
      <path id="Trazado_632389" data-name="Trazado 632389" d="M534.252,117.627c-10.337,10.777-19.879,23.458-20.129,39.679-.029,2.357.164,2.408,0,4.165-1.513,16.586-19.839,20.9-25.184,32.766-6.1,13.547,10.733,23.516,15.7,44.681,8.044,34.336-26.635,49.2-39.114,108.467a236.744,236.744,0,0,0-4.532,27.369c23.681-10.558,46.955-25.5,66.9-46.719a190.909,190.909,0,0,0,13.623-16.2c.288-.387,1.03-1.419,2.108-3.039v-.006q.9-11.1,1.612-20.27c6.017-77.722,1.982-52.567,4.653-76.446h.007c2.314-20.717,4.745-34.941,4.881-46.528v-2c-.024-2-.126-3.928-.317-5.8v-.012a47.054,47.054,0,0,0-1.951-9.532,48.04,48.04,0,0,0-3.764-8.65c-5.665-10.585-9.071-16.964-14.48-21.929Z" fill="none"/>
    </clipPath>
    <linearGradient id="linear-gradient-3" x1="-1.843" y1="1.141" x2="-1.838" y2="1.141" xlink:href="#linear-gradient"/>
    <clipPath id="clip-path-11">
      <rect id="Rectángulo_347556" data-name="Rectángulo 347556" width="195.885" height="220.243" transform="translate(82.821 177.188)" fill="none"/>
    </clipPath>
    <clipPath id="clip-path-12">
      <path id="Trazado_632426" data-name="Trazado 632426" d="M210.544,262.991l0,0c-23.9,16.193-46.881,21.031-63.483,35.331-9.218,7.949-26.547,27.579-38.619,46.561a280.629,280.629,0,0,0,50.879,26.28q7.362,2.943,14.811,5.542c23.508-20.827,33.285-40.234,37.52-55.657,3-10.957,5.14-26.962,15.441-48.721a181.938,181.938,0,0,1,26-40.079,151.039,151.039,0,0,0-4.8-24.9c-10.915-5.366-19.482-9.431-19.482-9.431s5.633,48.883-18.263,65.076" fill="none"/>
    </clipPath>
    <linearGradient id="linear-gradient-4" x1="-0.57" y1="1.159" x2="-0.564" y2="1.159" gradientUnits="objectBoundingBox">
      <stop offset="0" stop-color="#fff"/>
      <stop offset="1" stop-color="#cadfeb"/>
    </linearGradient>
    <clipPath id="clip-path-13">
      <rect id="Rectángulo_347558" data-name="Rectángulo 347558" width="233.272" height="233.255" transform="translate(132.284 91.886)" fill="none"/>
    </clipPath>
    <clipPath id="clip-path-14">
      <path id="Trazado_632434" data-name="Trazado 632434" d="M320.768,173.8l.005,0c-2-.322-2.23-1.584-4.51-2.2-3.828-1.032-7.652,1.311-8.865,2.056-3.3,2.021-3.116,3.6-5.458,4.613-3.9,1.688-8.386-.96-9.812-1.6-11.413-5.122-29.539,27.477-54.374,34.4-12.957,3.612-27.169.325-38.9-2.964s-20.946-6.569-23.975-2.975a8.082,8.082,0,0,0-1.718,3.856c-2.945,16.38,7.231,27.1,21.616,34.93a67.5,67.5,0,0,0,15.129,2.2c.272.007.545.011.816.014h1.192c14.1-.149,25.315-5.516,32.453-8.939a53.359,53.359,0,0,0,10.257-6.042c4.547-3.665,5.66-6.385,9.931-10.826a57.626,57.626,0,0,1,11.827-9.394c9.1-4.278,16.478-7.562,21.278-9.669,10.082-4.422,26.606-11.189,28.087-17.945a64.64,64.64,0,0,0,1.556-8.7c.033-.607.07-1.92.314-3.689-1.749,1.6-4.23,3.3-6.849,2.87" fill="none"/>
    </clipPath>
    <linearGradient id="linear-gradient-5" x1="-1.001" y1="1.78" x2="-0.995" y2="1.78" xlink:href="#linear-gradient-4"/>
    <clipPath id="clip-path-16">
      <rect id="Rectángulo_347561" data-name="Rectángulo 347561" width="127.878" height="135.845" transform="translate(458.303 241.501)" fill="none"/>
    </clipPath>
    <clipPath id="clip-path-17">
      <rect id="Rectángulo_347560" data-name="Rectángulo 347560" width="127.877" height="135.843" transform="translate(458.303 241.501)" fill="none"/>
    </clipPath>
  </defs>
  <g id="Enmascarar_grupo_190" data-name="Enmascarar grupo 190" transform="translate(-180 -3142)" clip-path="url(#clip-path)">
    <g id="Grupo_1004811" data-name="Grupo 1004811" transform="translate(180 3172.995)">
      <g id="Grupo_1004810" data-name="Grupo 1004810" clip-path="url(#clip-path-2)">
        <g id="Grupo_1004775" data-name="Grupo 1004775">
          <g id="Grupo_1004774" data-name="Grupo 1004774" clip-path="url(#clip-path-3)">
            <rect id="Rectángulo_347548" data-name="Rectángulo 347548" width="553.923" height="383.568" transform="translate(26.56 17.235)" fill="#8fd7fc"/>
          </g>
        </g>
        <g id="Grupo_1004802" data-name="Grupo 1004802">
          <g id="Grupo_1004801" data-name="Grupo 1004801" clip-path="url(#clip-path-4)">
            <path id="Trazado_632368" data-name="Trazado 632368" d="M550.96,202.916C485.4,184.45,444.673,296.444,355.616,301.834l17.314-15.953a.626.626,0,0,0-.848-.92l-18.073,16.653-.773-8.116a.616.616,0,0,0-.661-.565h-.02a.625.625,0,0,0-.564.68l.8,8.346c-.446.016-.892.031-1.34.041-2.325-5.929-7.992-20.379-8.171-20.828a.626.626,0,0,0-1.162.464c.172.429,5.586,14.234,8,20.385-.657.008-1.314.017-1.976.012-26.513-.192-43.246-9.726-60.378-21.039l5.02-5.559a.625.625,0,0,0-.929-.837l-5.146,5.7q-1.777-1.181-3.567-2.38l2.2-8a.626.626,0,0,0-1.206-.332l-2.091,7.6-3.317-2.216-4.37-14.17a.628.628,0,0,0-1.2.369l3.92,12.7c-17.059-11.286-36.42-22.786-67.164-27.759C148.831,236.238,92.5,260.164,50.6,286.165c24.218,40.335,64.644,67.369,108.722,85q7.35,2.95,14.809,5.542c10.617,3.7,21.367,6.892,32.076,9.634q10.352,2.65,20.592,4.741a475.636,475.636,0,0,0,82.879,9.551c6.367.166,12.384.158,17.967.025.833-.017,1.709-.042,2.617-.067a446.789,446.789,0,0,0,50.769-3.833,322.135,322.135,0,0,0,48.586-10.417c33.843-10.151,69.52-27.718,98.279-58.3a190.325,190.325,0,0,0,13.617-16.2c.291-.392,1.033-1.425,2.108-3.041v-.008c6.617-9.926,25.943-41.9,33.643-84.637Z" fill="#adce32"/>
            <path id="Trazado_632369" data-name="Trazado 632369" d="M327.706,143.26c.714-11.6,7.216-21.827,17.12-26.615,10.437-5.046,20.465-2.028,22.827-1.247L359.4,133.813l-17.313,10.454L327.7,143.26" fill="#3b6a73"/>
            <path id="Trazado_632370" data-name="Trazado 632370" d="M350.006,63.222a25.787,25.787,0,0,0-8.057-6.422c-2.739-1.384-4.841-2.483-7.385-1.822a7.307,7.307,0,0,0-5.182,4.815,34.56,34.56,0,0,0-.189,3.913c-.091,1.831-.136,2.748-.191,3.069-.739,4.295-5.486,4.247-8.92,8.92-2.63,3.579-3.764,3.67-4.22,12.294-.191,3.627-4.6,4.011,3.261,11.684s18.223,28.2,18.607,28.774,8.286,11.8,8.286,11.8L364.8,129.6l-1.554-34.7a55.348,55.348,0,0,0-5.755-20.541,54.773,54.773,0,0,0-7.481-11.126" fill="#007dd4"/>
            <path id="Trazado_632371" data-name="Trazado 632371" d="M327.419,99.086h-.04a.626.626,0,0,1-.585-.664,36.057,36.057,0,0,0,0-4.649c-.143-1.325.392-1.67,1.287-2.081a9.283,9.283,0,0,0,2.671-1.78c1.691-1.551.649-5.25-.271-8.515a29.868,29.868,0,0,1-1-4.277,2.738,2.738,0,0,1,.54-2.139c.98-1.2,2.961-1.358,4.708-1.5.956-.078,2.263-.185,2.485-.5.574-.808.394-5.931-.112-10.417a.626.626,0,0,1,1.237-.193.474.474,0,0,1,.006.053c.181,1.6,1.024,9.681-.111,11.281-.559.787-1.877.895-3.4,1.019-1.5.122-3.2.261-3.841,1.046a1.527,1.527,0,0,0-.266,1.2,29.192,29.192,0,0,0,.959,4.085c1.018,3.611,2.17,7.7-.088,9.775a10.405,10.405,0,0,1-3,2c-.621.285-.621.285-.565.811a36.52,36.52,0,0,1,0,4.862.626.626,0,0,1-.624.585" fill="#40342e"/>
            <path id="Trazado_632372" data-name="Trazado 632372" d="M321,102.313a.625.625,0,0,1-.445-.186c-1.353-1.37-8.035-8.342-6.658-11.024a17.33,17.33,0,0,0,1.48-5.312c.044-.325,1.057-7.413,4.264-10.547a47.753,47.753,0,0,1,7.743-5.8.626.626,0,0,1,.639,1.076,47.347,47.347,0,0,0-7.507,5.622c-2.9,2.834-3.888,9.729-3.9,9.8a18.3,18.3,0,0,1-1.609,5.737c-.639,1.242,2.844,5.937,6.436,9.573a.626.626,0,0,1-.445,1.065" fill="#40342e"/>
            <path id="Trazado_632373" data-name="Trazado 632373" d="M497.069,93.734q.613-8.6,1.226-17.194L455.886,97.272a32.658,32.658,0,0,1,2.363,3.671c.169.306.331.622.493.944a29.09,29.09,0,0,1,1.2,2.818,2.294,2.294,0,0,1-1,2.744c-.185.113-.371.226-.565.331-.283.153-1.954,1.082-5.255,3.011a13.179,13.179,0,0,0-2.478,1.914v.008a24.171,24.171,0,0,0-3.1,3.73,35.209,35.209,0,0,0-1.824,4.44,33.851,33.851,0,0,0-1.526,6.853s7.16,17.033,8.436,17.8,4.609,1.9,9.219,3.253,17.146,2.123,21.505,1.356c2.172-.38,6.579-2.753,10.446-5.021s7.176-4.448,7.176-4.448l2.834-15.863a88.044,88.044,0,0,0,.129-23.128,31.475,31.475,0,0,1-3.923-2.066,6.39,6.39,0,0,1-2.948-5.885" fill="#ffccbc"/>
            <path id="Trazado_632374" data-name="Trazado 632374" d="M490.927,79.312a56.267,56.267,0,0,0-.056,5.909,48.307,48.307,0,0,1-4.093,14.07c-2.365,5.062-9.59,20.52-21.675,20.714-8.2.138-14.07-6.813-14.458-7.289v-.008a13.109,13.109,0,0,1,2.479-1.913c3.3-1.929,4.973-2.858,5.255-3.011.194-.1.38-.218.565-.331a2.3,2.3,0,0,0,1-2.744,28.729,28.729,0,0,0-1.2-2.817c-.161-.323-.323-.638-.492-.945a28.454,28.454,0,0,0-3.27-4.811c.605-3.213.88-4.69,1.493-7.9l31.871-17.7,2.4-.751c.227,1.534.412,3.237.509,5.069-.129,1.365-.25,2.858-.323,4.464" fill="#ffab91"/>
            <path id="Trazado_632375" data-name="Trazado 632375" d="M443.121,120.772c1.254,12.439,8.468,23.155,18.718,27.047,14.461,5.491,33.786-3.048,41.049-21.676L460.061,178.51s-16.476-7.865-16.94-10.934,0-46.8,0-46.8" fill="#4d8b96"/>
            <path id="Trazado_632376" data-name="Trazado 632376" d="M410.622,244.3c-10.576,3.4-23.11-5.616-31.891-11.939-12.39-8.919-18.994-20.083-22.991-27.006a85.832,85.832,0,0,1-5.291-10.776c-1.176-2.858-2.345-5.96-3.9-9.888-2.789-7.055-8.043-19.176-18.844-41.428A71.844,71.844,0,0,0,367.651,115.4c10.745,43.555,16.787,52.148,20.333,51.792,5.022-.507,10.807-19.6,12.59-25.486a66.267,66.267,0,0,1,8.174-16.643,21.749,21.749,0,0,1,2.639-3.146A23.038,23.038,0,0,1,423.164,116q1.248,4.278,2.258,8.393a204.211,204.211,0,0,1,6.079,48.765c.038,14.516-.187,64.5-20.883,71.149" fill="#55939e"/>
            <g id="Grupo_1004780" data-name="Grupo 1004780" style="mix-blend-mode: multiply;isolation: isolate">
              <g id="Grupo_1004779" data-name="Grupo 1004779">
                <g id="Grupo_1004778" data-name="Grupo 1004778" clip-path="url(#clip-path-5)">
                  <g id="Grupo_1004777" data-name="Grupo 1004777">
                    <g id="Grupo_1004776" data-name="Grupo 1004776" clip-path="url(#clip-path-6)">
                      <rect id="Rectángulo_347549" data-name="Rectángulo 347549" width="83.735" height="122.436" transform="matrix(1, -0.022, 0.022, 1, 347.748, 124.45)" fill="url(#linear-gradient)"/>
                    </g>
                  </g>
                </g>
              </g>
            </g>
            <path id="Trazado_632378" data-name="Trazado 632378" d="M328.375,143.7a.625.625,0,0,1-.156-1.231,44.843,44.843,0,0,0,4.692-1.49c1.038-.394,2.076-.834,3.088-1.307a.625.625,0,0,1,.53,1.133c-1.04.487-2.108.939-3.175,1.344a46.33,46.33,0,0,1-4.823,1.532.637.637,0,0,1-.157.02" fill="#40342e"/>
            <path id="Trazado_632379" data-name="Trazado 632379" d="M331.522,130.151l-.979-.261a4.96,4.96,0,0,1-3.511-6.072l19.239-72a4.959,4.959,0,0,1,6.071-3.511l.979.261a4.96,4.96,0,0,1,3.511,6.072l-19.24,72a4.96,4.96,0,0,1-6.072,3.511" fill="#fff"/>
            <path id="Trazado_632380" data-name="Trazado 632380" d="M334.956,94.672a.134.134,0,0,1-.04,0,.156.156,0,0,1-.111-.191l11.24-42.454a5.725,5.725,0,0,1,7-4.07h0c.111.03.22.062.329.1a5.75,5.75,0,0,1,3.673,7.135l-.731,2.35a.157.157,0,0,1-.3-.093l.73-2.351a5.412,5.412,0,0,0-10.307-3.3c-.034.1-.064.206-.092.31L335.1,94.552a.156.156,0,0,1-.151.116" fill="#40342e"/>
            <path id="Trazado_632381" data-name="Trazado 632381" d="M339.112,85.473l-9.74,36.446a3.695,3.695,0,0,0,7.139,1.908l10.25-38.355Z" fill="#e57373"/>
            <path id="Trazado_632382" data-name="Trazado 632382" d="M323.35,151.855h0c-.855-.285-1.06-2.013-.465-3.916l7.909-25.284,4.142,1.382L326.074,149c-.667,1.88-1.869,3.138-2.724,2.853" fill="#e57373"/>
            <path id="Trazado_632383" data-name="Trazado 632383" d="M360.364,120l9.208-39.1L354.226,55.8s-9.207,3.12-4.6,9.109,4.983,8.677,4.983,8.677a13.848,13.848,0,0,0-4.337,4.371,14.062,14.062,0,0,0-1.94,5.988c-1.812,16.154-4.035,24.244-1.78,31.459,1.918,6.138,13.811,4.606,13.811,4.606" fill="#007dd4"/>
            <path id="Trazado_632384" data-name="Trazado 632384" d="M348.494,86.475a.624.624,0,0,1-.62-.547c-.493-3.9.131-6.879,1.855-8.837a34.411,34.411,0,0,1,4.826-3.493c-1-1.655-2.03-3.341-3.079-5.018l-.734-1.169c-2.367-3.766-3.252-5.175-2.853-7,.346-1.578,1.649-3,3.768-4.1a.625.625,0,0,1,.652,1.067l-.052.028-.024.013c-1.78.931-2.861,2.06-3.125,3.264-.29,1.323.461,2.518,2.69,6.064l.735,1.172c1.162,1.858,2.3,3.725,3.4,5.551a.625.625,0,0,1-.191.844,42.593,42.593,0,0,0-5.088,3.619c-1.465,1.666-1.988,4.307-1.542,7.842a.626.626,0,0,1-.54.7.7.7,0,0,1-.079.005" fill="#40342e"/>
            <path id="Trazado_632385" data-name="Trazado 632385" d="M367.1,92.013a.627.627,0,0,1-.626-.628.6.6,0,0,1,.016-.14L368.9,81l-7.03-11.5a.626.626,0,0,1,1.068-.653l7.169,11.726a.632.632,0,0,1,.075.469l-2.47,10.49a.627.627,0,0,1-.609.482" fill="#40342e"/>
            <path id="Trazado_632386" data-name="Trazado 632386" d="M527.89,328.037a345.011,345.011,0,0,1-98.28,58.3,316.442,316.442,0,0,1-42.836,9.575q1.689-20.5,3.39-41Z" fill="#457d87"/>
            <path id="Trazado_632387" data-name="Trazado 632387" d="M549.886,212.072c-2.671,23.879,1.363-1.276-4.653,76.446q-.712,9.176-1.614,20.27v.006c-1.076,1.62-1.82,2.652-2.108,3.04a190.9,190.9,0,0,1-13.622,16.2c-19.945,21.215-43.217,36.162-66.9,46.72a262.31,262.31,0,0,1-31.378,11.583,109.093,109.093,0,0,1-39.446-31.428,611.206,611.206,0,0,1,4.916-70.83c1.012-7.894,2.151-15.56,3.453-23.361,2.076-12.443,4.516-24.555,7.129-35.917.206-6.142.538-11.721.926-16.661s.832-9.244,1.251-12.846c1.257-10.8,3.29-23.823,5.266-36.438.075-.482.138-.888.2-1.263.088-.557,1.52-8.969,1.989-11.427.813-4.222,3.509-15.379,7.874-30.177a150.157,150.157,0,0,1,20.5-6.3c5.247-1.113,9.932-1.582,9.932-1.582q2.5-.245,4.778-.344v.006h-.006a71.37,71.37,0,0,0-3.4,8.825,70.133,70.133,0,0,0-3.108,17.593c-.106,2.345-.094,4.609.019,6.78.075,1.4.181,2.764.332,4.084a70.985,70.985,0,0,0,6.01,21.671,138.769,138.769,0,0,0,17.4-16.321c.469-.519.938-1.044,1.4-1.576,1.144-1.307,2.283-2.677,3.421-4.084a139.461,139.461,0,0,0,23.491-43.061,157.79,157.79,0,0,1,20.733,9.557,67.291,67.291,0,0,1,6.092,3.565,34.543,34.543,0,0,1,3.484,2.821c5.41,4.966,8.819,11.345,14.485,21.934a48.012,48.012,0,0,1,3.765,8.65,47.164,47.164,0,0,1,1.951,9.531v.013c1.332,13.046-1.707,28.726-4.565,54.319" fill="#55939e"/>
            <g id="Grupo_1004785" data-name="Grupo 1004785" style="mix-blend-mode: multiply;isolation: isolate">
              <g id="Grupo_1004784" data-name="Grupo 1004784">
                <g id="Grupo_1004783" data-name="Grupo 1004783" clip-path="url(#clip-path-7)">
                  <g id="Grupo_1004782" data-name="Grupo 1004782">
                    <g id="Grupo_1004781" data-name="Grupo 1004781" clip-path="url(#clip-path-8)">
                      <rect id="Rectángulo_347551" data-name="Rectángulo 347551" width="103.207" height="104.369" transform="matrix(0.845, -0.535, 0.535, 0.845, 400.563, 168.203)" fill="url(#linear-gradient-2)"/>
                    </g>
                  </g>
                </g>
              </g>
            </g>
            <g id="Grupo_1004790" data-name="Grupo 1004790" style="mix-blend-mode: multiply;isolation: isolate">
              <g id="Grupo_1004789" data-name="Grupo 1004789">
                <g id="Grupo_1004788" data-name="Grupo 1004788" clip-path="url(#clip-path-9)">
                  <g id="Grupo_1004787" data-name="Grupo 1004787">
                    <g id="Grupo_1004786" data-name="Grupo 1004786" clip-path="url(#clip-path-10)">
                      <rect id="Rectángulo_347553" data-name="Rectángulo 347553" width="216.782" height="267.413" transform="matrix(0.845, -0.535, 0.535, 0.845, 344.78, 191.205)" fill="url(#linear-gradient-3)"/>
                    </g>
                  </g>
                </g>
              </g>
            </g>
            <path id="Trazado_632390" data-name="Trazado 632390" d="M391.485,321.652h-.042a.626.626,0,0,1-.583-.666c1.006-15.062,2.592-30.27,4.711-45.2,1.72-12.12,3.833-24.351,6.282-36.357a.625.625,0,0,1,1.225.251c-2.444,11.981-4.553,24.189-6.269,36.282-2.115,14.9-3.7,30.08-4.7,45.11a.625.625,0,0,1-.624.584" fill="#40342e"/>
            <path id="Trazado_632391" data-name="Trazado 632391" d="M444.2,335.982h-.032a.626.626,0,0,1-.594-.656l3.5-69.7a.626.626,0,0,1,1.25.063l-3.5,69.7a.625.625,0,0,1-.624.594" fill="#40342e"/>
            <path id="Trazado_632392" data-name="Trazado 632392" d="M421.271,382.814a.624.624,0,0,1-.328-.093,123.776,123.776,0,0,1-31.372-27.727.625.625,0,1,1,.974-.784A122.452,122.452,0,0,0,421.6,381.657a.626.626,0,0,1-.33,1.158" fill="#40342e"/>
            <path id="Trazado_632393" data-name="Trazado 632393" d="M398.944,328.666a.53.53,0,0,1-.08,0,.625.625,0,0,1-.437-.269l-1.969-2.9a.624.624,0,0,1,.1-.818l29.315-26.194a.626.626,0,0,1,.883.05.618.618,0,0,1,.083.119l1.932,3.567a.625.625,0,0,1-.139.769l-29.278,25.529a.627.627,0,0,1-.411.154m-1.145-3.426,1.265,1.866,28.368-24.736-1.317-2.431Z" fill="#40342e"/>
            <path id="Trazado_632394" data-name="Trazado 632394" d="M518.358,325.058a.625.625,0,0,1-.387-.134L490.489,303.3a.627.627,0,0,1-.138-.833l2.515-3.864a.627.627,0,0,1,.867-.182c.019.013.038.027.056.042l27.2,22.59a.625.625,0,0,1,.1.862l-2.23,2.9a.627.627,0,0,1-.417.239.676.676,0,0,1-.078.005m-26.646-22.387,26.525,20.879,1.476-1.919-26.193-21.755Z" fill="#40342e"/>
            <path id="Trazado_632395" data-name="Trazado 632395" d="M451.791,197.916a.624.624,0,0,1-.56-.348l-18.07-36.56a.624.624,0,0,1,.061-.653l7.434-9.892-12.919-15.941a.627.627,0,0,1,.081-.87l29.666-25.281a.625.625,0,0,1,.976.731,69.275,69.275,0,0,0-5.97,25.122,70.158,70.158,0,0,0,5.975,31.517,137.376,137.376,0,0,0,38.812-49.123.625.625,0,0,1,1.132.531,138.631,138.631,0,0,1-39.8,50.072.623.623,0,0,1-.875-.1h0a.612.612,0,0,1-.079-.129,71.446,71.446,0,0,1-6.415-32.824,70.361,70.361,0,0,1,5.04-23.127l-27.187,23.168,12.843,15.847a.626.626,0,0,1,.014.769l-7.5,9.974,17.05,34.487,4.345-25.448a.625.625,0,1,1,1.233.211l-4.669,27.345a.623.623,0,0,1-.525.513.7.7,0,0,1-.091.007" fill="#40342e"/>
            <path id="Trazado_632396" data-name="Trazado 632396" d="M393.454,160.668c-2.6,3.2-11.155,13.736-9.62,28.037a34.044,34.044,0,0,0,4.954,14.21l38.844-2.589c4.512-18.6-.144-45.642-6.614-55.538-4.083.721-17.628,3.644-27.565,15.88" fill="#3b6a73"/>
            <path id="Trazado_632397" data-name="Trazado 632397" d="M423.667,166.135l-45.525-31.316-12.6,17.409,43.16,45.845a85.448,85.448,0,0,0,14.962-31.938" fill="#ffccbc"/>
            <path id="Trazado_632398" data-name="Trazado 632398" d="M380.087,171.9c.52.136,9.3,2.286,15.266-3.431,5.414-5.191,6.177-14.641.954-21.929a53.277,53.277,0,0,1-19.962-16.953c-2.009-4.559-3.995-9.462-5.888-14.7q-2.283-6.315-4.031-12.2a41.45,41.45,0,0,0-6.9-3.2c-12.163-4.326-23.452-1.873-29.284-.077a9.593,9.593,0,0,0,.96,4.682,16.475,16.475,0,0,1,1.581,3.224,5.218,5.218,0,0,1-.355,3.053c-1.3,3.977-3.56,5.469-1.475,8.992s2.718,5.057,2.341,7.186-.31,6.854,1.387,8.576a18.592,18.592,0,0,1,1.893,2.141,17.462,17.462,0,0,1,2.56,5.169c.816,2.454,3.24,3.815,14.8,9.918,4.45,2.35,8.811,4.871,13.332,7.081a34.435,34.435,0,0,1,5.051,2.761,23.149,23.149,0,0,1,7.774,9.707" fill="#007dd4"/>
            <path id="Trazado_632399" data-name="Trazado 632399" d="M385.007,173.311a16.243,16.243,0,0,1-5.123-.821.62.62,0,0,1-.313-.237l-5.2-7.55c-8.141-4.66-34.022-19.5-34.669-20.123a10.265,10.265,0,0,1-1.659-3.282c-.107-.278-.214-.557-.322-.827-.476-1.2-3.693-6.286-4.893-8.146a.626.626,0,0,1,1.052-.678c.178.277,4.384,6.808,5,8.361.11.275.218.558.327.841a10.609,10.609,0,0,0,1.362,2.833c.823.64,21.114,12.318,34.545,20.008a.626.626,0,0,1,.2.188l5.157,7.495a13.928,13.928,0,0,0,17.655-8.736v0c.041-.12.08-.241.117-.362a.626.626,0,0,1,1.193.377,15.555,15.555,0,0,1-6.889,8.653,14.923,14.923,0,0,1-7.554,2" fill="#40342e"/>
            <path id="Trazado_632400" data-name="Trazado 632400" d="M332.32,123.79a.626.626,0,0,1-.6-.454l-2.215-7.767a.616.616,0,0,1,.008-.368l2.613-7.89L329.647,99.6a.625.625,0,0,1,.4-.786,48.486,48.486,0,0,1,35.762,2.308.626.626,0,0,1,.309.322l4.028,9.516a.625.625,0,0,1-1.151.488l-3.935-9.3a47.224,47.224,0,0,0-34.031-2.338l2.349,7.308a.627.627,0,0,1,0,.388l-2.617,7.9,2.162,7.581a.627.627,0,0,1-.429.776h0a.613.613,0,0,1-.17.024" fill="#40342e"/>
            <path id="Trazado_632401" data-name="Trazado 632401" d="M340.927,107.928h-5.256a.625.625,0,1,1,0-1.251h5.155l3.788-1.25a.625.625,0,0,1,.392,1.188l-3.883,1.282a.648.648,0,0,1-.2.031" fill="#40342e"/>
            <path id="Trazado_632402" data-name="Trazado 632402" d="M334.937,119.966a.626.626,0,1,1-.05-1.251h7.05l7.869-.48a.626.626,0,0,1,.076,1.249l-7.907.481Z" fill="#40342e"/>
            <path id="Trazado_632403" data-name="Trazado 632403" d="M346.764,129.651h-.041l-9.032-.587a.625.625,0,0,1,.081-1.248l9.032.587a.625.625,0,1,1-.04,1.25" fill="#40342e"/>
            <path id="Trazado_632404" data-name="Trazado 632404" d="M388.274,141.813a.624.624,0,0,1-.393-.139l-6.465-5.228a.672.672,0,0,1-.081-.079l-5.465-6.374a.613.613,0,0,1-.1-.166l-3.214-7.662a.625.625,0,1,1,1.153-.484l3.176,7.572,5.364,6.256,6.421,5.193a.625.625,0,0,1-.394,1.111" fill="#40342e"/>
            <path id="Trazado_632405" data-name="Trazado 632405" d="M527.627,112.879A151.79,151.79,0,0,0,510.263,130.3c-3.035,3.587-5.215,6.519-6.8,8.648a232.066,232.066,0,0,0-14.087,21.337A386.519,386.519,0,0,1,466.763,193.9l-45.746-49.109A52.979,52.979,0,0,1,388.274,202.1c14.772,15.337,28.031,27.7,38.59,37.068,14.231,12.628,21.846,18.344,32.993,20.717a55.453,55.453,0,0,0,26.471-1.151c35.023-26.276,51.232-54.494,58.7-70.59,12.835-27.675,10.108-42.766,8.359-48.484-.253-.827-.532-1.584-.532-1.584a55.852,55.852,0,0,0-25.228-25.2" fill="#55939e"/>
            <path id="Trazado_632406" data-name="Trazado 632406" d="M407.953,222.357a.625.625,0,0,1-.442-.183l-19.679-19.629a.619.619,0,0,1-.063-.073,26.926,26.926,0,0,1-5.353-15.527,25.921,25.921,0,0,1,1.363-8.636.626.626,0,0,1,1.2.372l-.01.028a24.641,24.641,0,0,0-1.3,8.22,25.678,25.678,0,0,0,5.082,14.766l19.644,19.595a.625.625,0,0,1-.442,1.068" fill="#40342e"/>
            <path id="Trazado_632407" data-name="Trazado 632407" d="M388.274,202.724a.625.625,0,0,1-.2-1.219,45.852,45.852,0,0,0,15.952-9.144,46.587,46.587,0,0,0,13.35-20.326.625.625,0,1,1,1.188.392,47.849,47.849,0,0,1-13.71,20.872,47.116,47.116,0,0,1-16.386,9.393.649.649,0,0,1-.2.032" fill="#40342e"/>
            <path id="Trazado_632408" data-name="Trazado 632408" d="M431.546,156.717a.623.623,0,0,1-.455-.2l-10.879-11.522-4.7,1.759-6.035,2.318a.626.626,0,0,1-.448-1.168l6.04-2.319,5.093-1.907a.627.627,0,0,1,.674.156L432,155.658a.626.626,0,0,1-.455,1.055" fill="#40342e"/>
            <path id="Trazado_632409" data-name="Trazado 632409" d="M553.926,142.3a.626.626,0,0,1-.593-.428,43.45,43.45,0,0,0-4.532-9.554c-2.483-3.908-6.563-8.9-17.992-16.292a148.267,148.267,0,0,0-27.089-13.753.625.625,0,1,1,.45-1.167,149.434,149.434,0,0,1,27.319,13.867c11.632,7.523,15.812,12.649,18.368,16.672a44.656,44.656,0,0,1,4.663,9.828.628.628,0,0,1-.4.792h0a.616.616,0,0,1-.2.032" fill="#40342e"/>
            <path id="Trazado_632410" data-name="Trazado 632410" d="M466.764,194.524a.626.626,0,0,1-.458-.2L438.243,164.2a.625.625,0,1,1,.915-.852L466.685,192.9l28.684-42.678a.626.626,0,1,1,1.043.693l0,.007-29.124,43.326a.622.622,0,0,1-.47.275h-.049" fill="#40342e"/>
            <path id="Trazado_632411" data-name="Trazado 632411" d="M506.554,61.073c-2.791,8.9-8.643,16.275-18.279,28.414a38.962,38.962,0,0,1-8.8,8.394,43.112,43.112,0,0,1-12.358,5.466c-6.188,1.707-12.873,3.371-17.015-.044-1.468-1.21-1.806-2.4-3.955-8.026-2.009-5.261-2.9-5.008-5.023-12.627a34.946,34.946,0,0,1-1.649-9.577c-.086-6.385,1.988-8.485,2.614-17.273.21-2.936.129-3.777.129-6.015A53.8,53.8,0,0,1,448.3,28.1c6.5-11.875,25.623-25.184,41.25-19.8,18.109,6.242,22.451,35.391,17,52.768" fill="#ffccbc"/>
            <path id="Trazado_632412" data-name="Trazado 632412" d="M468.487,64.385c-.43,1.647.117,3.215,1.22,3.5s2.346-.814,2.776-2.461-.116-3.216-1.22-3.5-2.346.814-2.776,2.461" fill="#40342e"/>
            <path id="Trazado_632413" data-name="Trazado 632413" d="M448.591,58.3c-.43,1.647.117,3.215,1.22,3.5s2.346-.814,2.776-2.461-.116-3.216-1.22-3.5-2.346.814-2.776,2.461" fill="#40342e"/>
            <path id="Trazado_632414" data-name="Trazado 632414" d="M456.29,80.575a6.3,6.3,0,0,1-4.869-2.651,5.222,5.222,0,0,1-.744-2.278.576.576,0,0,1,.141-.435,39.4,39.4,0,0,0,7.26-12.175.581.581,0,0,1,1.09.4v.007a40.473,40.473,0,0,1-7.3,12.337,4,4,0,0,0,.548,1.536c1.271,2.061,4.047,2.123,4.36,2.123a.574.574,0,0,1,.58.568v.012a.58.58,0,0,1-.58.58c-.069,0-.238,0-.478-.023" fill="#784b3c"/>
            <path id="Trazado_632415" data-name="Trazado 632415" d="M467.237,51.118a1.508,1.508,0,0,0,1.035,1.772l4.492,1.364,6.292,1.9a1.478,1.478,0,0,0,1.825-.857,1.383,1.383,0,0,0,.066-.253c.373-2.223-4.634-4.686-7.665-5.676-2.006-.655-3.63-1.158-4.86-.252a3.327,3.327,0,0,0-1.185,2" fill="#40342e"/>
            <path id="Trazado_632416" data-name="Trazado 632416" d="M457.093,48.981a1.225,1.225,0,0,1-1.493.739l-3.655-1.081-5.114-1.521a1.2,1.2,0,0,1-.855-1.4,1.179,1.179,0,0,1,.068-.2c.74-1.674,5.234-1.108,7.732-.425,1.652.452,2.979.835,3.409,2a2.7,2.7,0,0,1-.091,1.886" fill="#40342e"/>
            <path id="Trazado_632417" data-name="Trazado 632417" d="M448.682,27.439a46.943,46.943,0,0,1,25-4.021c15.1,1.88,26.976,11.518,26.114,14.477a12.772,12.772,0,0,1-2.382,3.709c-.29.316-.71.871-1.319,1.632a9.538,9.538,0,0,0-1.013,1.958c-1.335,3.667.43,5.433.113,11.625-.213,4.167-1.066,4.422-.585,6.1.676,2.348,3.33,5.237,12.568,7.062a52.792,52.792,0,0,0,7.835-12.41c2.6-5.792,5.778-12.859,3.824-21.058a24.572,24.572,0,0,0-5.706-10.645,28.129,28.129,0,0,0-2.542-7.614c-4.374-8.679-12.09-12.5-15.327-14.11a39.052,39.052,0,0,0-25.9-3.165c-4.758,1.127-11.873,2.813-16.688,9.5-4.969,6.9-4.287,14.663-4,16.969" fill="#40342e"/>
            <path id="Trazado_632418" data-name="Trazado 632418" d="M488.779,73.976l8.72-10.748,2.945-2.5a10.7,10.7,0,0,0-4.7,1.151,11.725,11.725,0,0,0-4.412,4.316,36.347,36.347,0,0,1-9.208,9.207l6.654-1.427" fill="#55939e"/>
            <path id="Trazado_632419" data-name="Trazado 632419" d="M488.839,72.43c-8.871,3.754-14.858,3.145-18.8,1.726-6.448-2.321-8.647-7.254-14.963-6.9-3.068.169-5.189,1.479-9.782.959a21.564,21.564,0,0,1-5.748-1.485,37.1,37.1,0,0,0-3.461,14.145,30.56,30.56,0,0,0,.141,4.84,25.559,25.559,0,0,0,12.52,18.754c9.468,5.269,20.542,2.927,27.239-2.11,4.637-3.489,6.762-7.959,8.632-11.893a44.238,44.238,0,0,0,4.22-18.031" fill="#55939e"/>
            <path id="Trazado_632420" data-name="Trazado 632420" d="M480.839,91.8,497.9,77.045l.614,3.551-17.969,17.12.3-5.918" fill="#55939e"/>
            <path id="Trazado_632421" data-name="Trazado 632421" d="M496.911,64.084c4.272-6.466,10.05-9.42,13.552-7.888a7.087,7.087,0,0,1,3.239,3.638c1.2,3.17-.46,6.331-1.532,8.368-2.048,3.893-3.1,2.813-6.271,7.824-1.115,1.762-2.041,3.579-4.173,4.434a6.46,6.46,0,0,1-2.734.432,10.688,10.688,0,0,1-4.736-5.5,11.206,11.206,0,0,1,2.655-11.308" fill="#ffccbc"/>
            <path id="Trazado_632422" data-name="Trazado 632422" d="M253.089,232.249a181.9,181.9,0,0,0-26,40.078c-10.3,21.759-12.446,37.764-15.442,48.721-4.234,15.423-14.01,34.83-37.52,55.657q-7.449-2.6-14.81-5.541a280.623,280.623,0,0,1-50.878-26.281c-27.55-18.244-50.754-41.948-65.22-72.475a167.769,167.769,0,0,1-9.056-23.841c-11.145-37.508-7.086-70.343-3.146-89.193,26.662,1.245,38.014,1,41.616.138.169-.038,1.351-.313,2.965-.657a71.192,71.192,0,0,1,9.757-1.426c10.395-.75,18.344,1.351,37.019,2,3.359.119,6.561.156,9.607.144,0,0,0-.013.013,0a201.141,201.141,0,0,0,23.541-1.47c4.078-.507,7.793-1.1,11.226-1.732.3-.05.582-.106.876-.169,0,0,0,.013.006,0,7.349-1.363,13.365-2.864,18.675-3.871,9.094-1.732,16.117-2.026,24.217,2.2a65.026,65.026,0,0,1,22.9,20.5c7.311,10.313,11.927,22.021,14.854,32.316a151.039,151.039,0,0,1,4.8,24.9" fill="#fff7f5"/>
            <path id="Trazado_632423" data-name="Trazado 632423" d="M186.7,223.015s-5.75,4.783-13.609,11.05c-14.117,11.243-35.077,27.235-41.827,28.76-10.509,2.375-21.2,16.034-22.393,30.293S85.7,266.386,72.031,258.069c-9.75-5.933-16.476,10.309-28.81,14.342a172.462,172.462,0,0,1-9.059-23.842c-10.654-35.847-7.474-68.093-3.147-89.2,26.667,1.247,38.014,1.006,41.619.142.174-.042,1.346-.315,2.964-.658a70.609,70.609,0,0,1,9.759-1.425c5.95,23.434,8.683,40.527,19.942,41.827,9.183,1.06,18.434-11.64,29.467-18.39a27.238,27.238,0,0,1,8.842-3.691,18.056,18.056,0,0,1,3.359-.375,16.785,16.785,0,0,1,2.642.133,22.813,22.813,0,0,1,10.742,4.642,42.437,42.437,0,0,1,4.025,3.2c4.522,4.186,13.051,18.357,22.318,38.243" fill="#3a464d"/>
            <path id="Trazado_632424" data-name="Trazado 632424" d="M67.526,160.7h-.008l-27.934-.335a.626.626,0,0,1,.008-1.251H39.6l27.869.335,13.016-2.586a.6.6,0,0,1,.12-.012l14.167-.049,24.8,1.887a.626.626,0,0,1-.1,1.247l-24.754-1.885L80.66,158.1l-13.013,2.584a.623.623,0,0,1-.122.012" fill="#1b2024"/>
            <path id="Trazado_632425" data-name="Trazado 632425" d="M253.089,232.25a181.889,181.889,0,0,0-26,40.077c-10.3,21.759-12.442,37.76-15.443,48.719-4.234,15.426-14.009,34.835-37.518,55.661q-7.451-2.6-14.809-5.542a24.039,24.039,0,0,0,7.021-11.014c4.741-17.039-16.262-27.566-19.745-47.83-5.037-29.3,30.875-53.872,24.67-61.527-1.991-2.457-8.4-3.266-29.663,6.633,7.514-16.9,18.074-32.929,32.338-34.424,13.44-1.408,23.77,10.649,28.015,6.737,6.04-5.567-11.15-36.421-11.151-36.422l42.627-18.285c15.217,21.476,18.776,48.994,19.659,57.219" fill="#3a464d"/>
            <g id="Grupo_1004795" data-name="Grupo 1004795" style="mix-blend-mode: multiply;isolation: isolate">
              <g id="Grupo_1004794" data-name="Grupo 1004794">
                <g id="Grupo_1004793" data-name="Grupo 1004793" clip-path="url(#clip-path-11)">
                  <g id="Grupo_1004792" data-name="Grupo 1004792">
                    <g id="Grupo_1004791" data-name="Grupo 1004791" clip-path="url(#clip-path-12)">
                      <rect id="Rectángulo_347555" data-name="Rectángulo 347555" width="169.016" height="197.85" transform="matrix(0.989, -0.145, 0.145, 0.989, 82.821, 201.664)" fill="url(#linear-gradient-4)"/>
                    </g>
                  </g>
                </g>
              </g>
            </g>
            <path id="Trazado_632427" data-name="Trazado 632427" d="M184.06,138.886a6.671,6.671,0,0,1-3.81-7.535A148.987,148.987,0,0,0,183.014,84.3a6.675,6.675,0,0,1,11.3-5.431,52.485,52.485,0,0,1,13.912,22.365,53.84,53.84,0,0,1-.285,32.066,6.586,6.586,0,0,1-2.091,3.088,20.056,20.056,0,0,1-7.025,3.766,21.384,21.384,0,0,1-14.763-1.272" fill="#967b5f"/>
            <path id="Trazado_632428" data-name="Trazado 632428" d="M209.292,128.066a.624.624,0,0,1-.626-.622.651.651,0,0,1,.015-.139,51.024,51.024,0,0,0-.075-22.248,50.386,50.386,0,0,0-8.593-18.731.625.625,0,1,1,1.007-.742,51.629,51.629,0,0,1,8.8,19.194,52.262,52.262,0,0,1,.078,22.8.627.627,0,0,1-.61.49" fill="#1b2024"/>
            <path id="Trazado_632429" data-name="Trazado 632429" d="M205.014,116.038a12.473,12.473,0,0,1-3.926-.637.627.627,0,0,1,.365-1.2.14.14,0,0,1,.029.009,11.2,11.2,0,0,0,4,.563,11.342,11.342,0,0,0,4.73-1.267.626.626,0,0,1,.621,1.087l-.044.023a12.61,12.61,0,0,1-5.256,1.408c-.173.007-.347.011-.52.011" fill="#1b2024"/>
            <path id="Trazado_632430" data-name="Trazado 632430" d="M325.049,167.125c-.043.168-.038.159-.1.384A53.639,53.639,0,0,1,315.3,187c-9.732,12.108-17.9,11-36.614,22.5-19.711,12.109-17.638,17.615-34.509,25.69-7.179,3.441-18.647,8.931-33.093,8.571-18.142-.456-43.848-10.012-54.356-34.717-9.084-21.336-3.69-47.258,13.245-66.682,10.148-6.514,25.458-14,43.848-13.277,1.017.04,1.961.1,2.841.184,10.028.928,12.117,4.4,25.938,7.314,34.365,7.259,56.75-8.507,74.036,3.465,1.37.949,2.149,2.808,8.867,10.692,2.949,3.461,3.8,4.363,3.766,5.952-.057,2.721-2.639,4.288-4.222,10.438" fill="#fff7f5"/>
            <path id="Trazado_632431" data-name="Trazado 632431" d="M261.039,139.257c-1.687,0-3.455-.079-5.343-.262a62.135,62.135,0,0,1-15.66-3.671.625.625,0,0,1,.437-1.172,60.908,60.908,0,0,0,15.344,3.6c7.344.712,12.661-.154,18.816-1.16a111.215,111.215,0,0,1,18.674-1.824,100.973,100.973,0,0,1,14.02.9.626.626,0,0,1-.168,1.24,100.172,100.172,0,0,0-13.846-.886,108.585,108.585,0,0,0-18.478,1.808,81.864,81.864,0,0,1-13.8,1.432" fill="#1b2024"/>
            <path id="Trazado_632432" data-name="Trazado 632432" d="M304.344,136.635a1.192,1.192,0,0,1,.563-1.589l.023-.011a10.357,10.357,0,0,1,13.093,3.683c1.51,2.135,2.633,4.963,2.056,5.378-.364.262-1.009-.717-2.464-1.275-2.694-1.03-4.7.714-6.8.6-1.676-.1-3.933-1.4-6.471-6.782" fill="#1b2024"/>
            <path id="Trazado_632433" data-name="Trazado 632433" d="M330.129,158.661c-.238,1.7-.513,3.246-.8,4.6s-.588,2.52-.844,3.471a33.885,33.885,0,0,0-.863,4.209c-.244,1.77-.281,3.083-.313,3.69a64.855,64.855,0,0,1-1.557,8.693c-1.482,6.755-18.006,13.522-28.088,17.944-4.8,2.108-12.177,5.391-21.277,9.669a57.539,57.539,0,0,0-11.827,9.394c-4.272,4.441-5.385,7.161-9.932,10.826a53.307,53.307,0,0,1-10.257,6.042c-7.474,3.584-19.413,9.3-34.461,8.925a67.489,67.489,0,0,1-15.129-2.2c-16.049-4.178-33.242-14.6-41.472-33.955-9.457-22.222-3.84-49.209,13.791-69.435,10.57-6.786,26.512-14.579,45.663-13.828,1.057.044,2.045.106,2.958.194a41.191,41.191,0,0,1-2.821,9.457c-1.22,2.789-2.758,3.759-2.364,4.591.926,1.958,9.469-1.182,16.161-2.089,11.7-1.576,20.889,3.252,38.808,12.677,17.2,9.037,21.058,17.65,27.588,15.492,7.3-2.414,6.83-16,14.347-17.074,2.4-.344,1.914,1.076,8.712,2.571,6.58,1.451,10.983.994,13.122,4.159a5.981,5.981,0,0,1,.857,1.976" fill="#3a464d"/>
            <g id="Grupo_1004800" data-name="Grupo 1004800" style="mix-blend-mode: multiply;isolation: isolate">
              <g id="Grupo_1004799" data-name="Grupo 1004799">
                <g id="Grupo_1004798" data-name="Grupo 1004798" clip-path="url(#clip-path-13)">
                  <g id="Grupo_1004797" data-name="Grupo 1004797">
                    <g id="Grupo_1004796" data-name="Grupo 1004796" clip-path="url(#clip-path-14)">
                      <rect id="Rectángulo_347557" data-name="Rectángulo 347557" width="165.766" height="163.638" transform="translate(132.461 206.969) rotate(-43.947)" fill="url(#linear-gradient-5)"/>
                    </g>
                  </g>
                </g>
              </g>
            </g>
            <path id="Trazado_632435" data-name="Trazado 632435" d="M202.592,230.374a14.5,14.5,0,0,1-5.4-.994,10.108,10.108,0,0,1-3.81-2.585c-.835-.783-1.874-1.757-3.634-3.156A70.851,70.851,0,0,0,168.684,212.3a.626.626,0,0,1,.408-1.183,72.094,72.094,0,0,1,21.438,11.545c1.8,1.431,2.9,2.467,3.711,3.223a8.9,8.9,0,0,0,3.41,2.332c3.789,1.479,7.082.886,11.25.133a49.548,49.548,0,0,1,13.537-1,45.452,45.452,0,0,1,7.233,1.134.626.626,0,0,1-.293,1.217,43.99,43.99,0,0,0-7.034-1.1,48.552,48.552,0,0,0-13.221.981,37.145,37.145,0,0,1-6.528.794" fill="#1b2024"/>
            <path id="Trazado_632436" data-name="Trazado 632436" d="M219.712,241.312a.626.626,0,0,1-.137-1.236l24.386-5.488,10.306-5.391a.625.625,0,1,1,.58,1.108l-10.378,5.429a.637.637,0,0,1-.153.056L219.85,241.3a.642.642,0,0,1-.138.015" fill="#1b2024"/>
            <path id="Trazado_632437" data-name="Trazado 632437" d="M186.693,364.971a.625.625,0,0,1-.526-.963l15.728-24.6a430.4,430.4,0,0,1,30.513-78.7c3.774-7.45,7.821-14.887,12.029-22.1a.626.626,0,0,1,1.1.591c-.007.013-.015.026-.023.039-4.2,7.193-8.231,14.607-11.994,22.036a429.1,429.1,0,0,0-30.448,78.559A.637.637,0,0,1,203,340l-15.78,24.683a.623.623,0,0,1-.528.288" fill="#1b2024"/>
            <path id="Trazado_632438" data-name="Trazado 632438" d="M330.26,259.81V400.591c-.908.025-1.784.05-2.617.066-5.584.134-11.6.142-17.967-.025V311.179q-41.44,6.938-82.879,13.867v66.036q-10.226-2.1-20.592-4.741V277.864a10.3,10.3,0,0,1,20.592,0v26.668l82.879-11.859v-32.86a10.292,10.292,0,0,1,20.584,0" fill="#967b5f"/>
            <path id="Trazado_632439" data-name="Trazado 632439" d="M239.668,227.609a58.063,58.063,0,0,1-27.081-6.579c-19.1-9.963-26.53-27.056-28.839-33.943a.626.626,0,0,1,1.176-.428.233.233,0,0,1,.01.028c2.261,6.743,9.537,23.479,28.231,33.232,21.24,11.081,41.629,4.973,47.524,2.766L276,210.447a.6.6,0,0,1,.13-.08c8.548-3.923,16.785-7.591,24.483-10.9l.28-.12a94.684,94.684,0,0,0,8.668-4.114,86.438,86.438,0,0,0,14.878-10.245,16.587,16.587,0,0,0,2.16-9.45.625.625,0,1,1,1.247-.089,17.824,17.824,0,0,1-2.377,10.258.628.628,0,0,1-.134.161,87.64,87.64,0,0,1-15.177,10.465,96.973,96.973,0,0,1-8.772,4.164l-.28.12c-7.667,3.3-15.872,6.952-24.386,10.859l-15.326,12.252a.618.618,0,0,1-.17.1,62.928,62.928,0,0,1-21.555,3.786" fill="#1b2024"/>
            <path id="Trazado_632440" data-name="Trazado 632440" d="M329.271,157.311a.637.637,0,0,1-.308-.08l-4.679-2.642-10.746-2.078a.52.52,0,0,1-.068-.017l-6.034-1.885-3.684,1.127a.627.627,0,1,1-.366-1.2l3.868-1.184a.63.63,0,0,1,.37,0l6.185,1.932,10.813,2.1a.637.637,0,0,1,.19.069l3.452,1.949-.093-.33-6.12-7.924a.625.625,0,0,1,.989-.765l6.2,8.021a.6.6,0,0,1,.108.215l.531,1.9a.625.625,0,0,1-.6.793" fill="#1b2024"/>
            <path id="Trazado_632441" data-name="Trazado 632441" d="M301.452,178.508h-.039l-9.363-.58a.625.625,0,0,1,.078-1.248l9.044.56a16.51,16.51,0,0,1,8.37-5.334,16.677,16.677,0,0,1,11.511,1.237c1.8-1.06,6.415-4.286,7.668-10.039a14.328,14.328,0,0,0-.059-6.277.626.626,0,0,1,1.22-.278,15.579,15.579,0,0,1,.063,6.822c-1.439,6.6-6.923,10.113-8.569,11.031a.627.627,0,0,1-.6.007,15.433,15.433,0,0,0-10.919-1.292,15.254,15.254,0,0,0-7.92,5.16.624.624,0,0,1-.487.233" fill="#1b2024"/>
            <path id="Trazado_632442" data-name="Trazado 632442" d="M236.98,155.122a8.4,8.4,0,0,1-4.067,2.142,7.755,7.755,0,0,1-1.867.159,8.589,8.589,0,0,1-2.3-.375,2.418,2.418,0,0,1-1.66-2.818,5.966,5.966,0,0,1,2.666-3.817l.009-.008a5.78,5.78,0,0,1,.975-.467,5.954,5.954,0,0,1,6.433,1.842,2.417,2.417,0,0,1-.191,3.342" fill="#fff7f5"/>
            <path id="Trazado_632443" data-name="Trazado 632443" d="M236.98,155.122a8.4,8.4,0,0,1-4.067,2.142,7.755,7.755,0,0,1-1.867.159,4.9,4.9,0,0,1-1.453-6.776c.052-.079.1-.157.161-.233l.009-.008a5.78,5.78,0,0,1,.975-.467,5.954,5.954,0,0,1,6.433,1.842,2.417,2.417,0,0,1-.191,3.342" fill="#1b2024"/>
            <path id="Trazado_632444" data-name="Trazado 632444" d="M231.713,150.848a.594.594,0,1,1,0-.012v.012" fill="#fff"/>
            <path id="Trazado_632445" data-name="Trazado 632445" d="M164.319,155.007a6.67,6.67,0,0,1-3.809-7.535,149.032,149.032,0,0,0,2.763-47.049,6.674,6.674,0,0,1,11.3-5.431,52.47,52.47,0,0,1,13.912,22.365,53.835,53.835,0,0,1-.285,32.067,6.577,6.577,0,0,1-2.09,3.088,20.055,20.055,0,0,1-7.025,3.766,21.392,21.392,0,0,1-14.766-1.271" fill="#967b5f"/>
            <path id="Trazado_632446" data-name="Trazado 632446" d="M175.005,158.1c-.462,0-.886-.02-1.266-.051a.625.625,0,0,1,.1-1.246,14.416,14.416,0,0,0,6.836-1.11,14.69,14.69,0,0,0,5.167-3.774c1.747-2.036,3.022-4.736,3.569-11.3a55.987,55.987,0,0,0-.928-17.664,65.236,65.236,0,0,0-8.216-20.523.626.626,0,0,1,1.046-.688c.008.012.015.024.022.036a66.475,66.475,0,0,1,8.372,20.916,57.123,57.123,0,0,1,.95,18.027c-.5,5.978-1.583,9.345-3.866,12.007a16,16,0,0,1-5.624,4.109A15.678,15.678,0,0,1,175,158.1" fill="#1b2024"/>
            <path id="Trazado_632447" data-name="Trazado 632447" d="M182.672,143.689a11.343,11.343,0,0,1-2.734-.334.625.625,0,0,1,.267-1.221l.033.008a9.935,9.935,0,0,0,9.649-2.823.626.626,0,0,1,.937.831l-.029.03a11.165,11.165,0,0,1-8.126,3.509" fill="#1b2024"/>
            <path id="Trazado_632448" data-name="Trazado 632448" d="M170.423,158.7c-2.133-1.548-12.96-9.078-25.677-5.847-10.638,2.7-21.14,12.564-19.5,19.547.374,1.593,1.394,3.145,6.659,6.594,11.341,7.429,19.12,12.6,26.393,10.053,8.448-2.956,14.257-15.606,12.126-30.346" fill="#3a464d"/>
            <path id="Trazado_632449" data-name="Trazado 632449" d="M161.456,176.664h-.064a.625.625,0,0,1-.559-.685h0c.1-1,.437-6.17-3.074-9.436-4.085-3.8-11.293-3.4-16.41.912a.626.626,0,0,1-.806-.957c5.591-4.712,13.527-5.1,18.069-.871,3.943,3.669,3.579,9.373,3.466,10.479a.625.625,0,0,1-.621.562" fill="#1b2024"/>
            <path id="Trazado_632450" data-name="Trazado 632450" d="M152.361,170.3a.625.625,0,0,1-.329-1.158l5.825-3.591a.625.625,0,0,1,.657,1.064l-5.825,3.585a.624.624,0,0,1-.328.093" fill="#1b2024"/>
            <path id="Trazado_632451" data-name="Trazado 632451" d="M147.164,227.976H136.709a5.453,5.453,0,0,1-5.451-5.451v-.137l.73-29.071a9.95,9.95,0,0,1,19.894,0l.729,29.071a5.45,5.45,0,0,1-5.311,5.586h-.138" fill="#e57373"/>
            <path id="Trazado_632452" data-name="Trazado 632452" d="M146.967,176.8a5.515,5.515,0,0,0-4.637-2.988h-.2a1.521,1.521,0,0,0-1.439,1.6h0a1.379,1.379,0,0,0,.022.192,1.569,1.569,0,0,0,1.576,1.25h.041a2.759,2.759,0,0,1,1.283.317,4.851,4.851,0,0,1,2.308,4.408,5.9,5.9,0,0,1-.6,2.626,3.814,3.814,0,0,1-1.991,1.907,2.7,2.7,0,0,1-1,.191,3.521,3.521,0,0,1-3.075-2.325,2.88,2.88,0,0,1-.15-.358c-.008-.025-.016-.042-.025-.067l-2.5-1.525-.117-.067a9.867,9.867,0,0,0,.559,2.95c.942,2.617,2.967,4.426,5.309,4.426a5.111,5.111,0,0,0,3.784-1.817,7.7,7.7,0,0,0,1.383-2.208V185.3a9.777,9.777,0,0,0,.725-3.726,9.4,9.4,0,0,0-1.25-4.783" fill="#e57373"/>
          </g>
        </g>
        <g id="Grupo_1004809" data-name="Grupo 1004809">
          <g id="Grupo_1004808" data-name="Grupo 1004808" clip-path="url(#clip-path-2)">
            <path id="Trazado_632453" data-name="Trazado 632453" d="M554.1,238.464c-3.893,4.106-5.783,9.66-7.431,14.955-.862,2.767-1.578,5.588-2.507,8.332a19.3,19.3,0,0,1-2.215,4.7,22.274,22.274,0,0,0-1.409,2.026,3.237,3.237,0,0,1-2.4-.5c-1.2-.864-1.229-2.532-1.2-3.86a24.406,24.406,0,0,1,1.765-8.978,32.184,32.184,0,0,1,5.131-7.955,31.224,31.224,0,0,1,3.04-3.217,14.533,14.533,0,0,0,2.914-2.761c2.874-4.634-6.26-4.458-8.434-4.27-5.268.455-10.556,1.931-14.734,5.281-7.349,5.9-10.654,16.034-12.778,24.868-1.264,5.258-2.262,10.552-3.93,15.711a49.209,49.209,0,0,1-2.862,7.486c-.343.661-.849,1.817-1.688,1.458-.747-.319-1.075-2.618-1.253-3.355-2.958-12.278.868-25.193,7.016-35.85a35.114,35.114,0,0,1,4.7-6.437c.976-1.063,2.4-2.714,1.57-4.261-2-3.7-9.574-.979-12.267.157-9,3.807-18.552,11.037-20.727,21.02-1.358,6.25-.522,12.692.3,18.95.9,6.893,1.706,13.822,2.9,20.674.672,3.883,1.366,7.753.3,11.641-.363,1.314-.958,3.216-2.32,3.83-1.984.9-3.824-1.38-4.809-2.832-3.243-4.8-3.556-11-4.218-16.573-1.505-12.608-1.643-25.18,1.237-37.613a1.761,1.761,0,0,0-1.221-2.858c-4.4-.495-8.536,2.748-11.919,5.126a42.139,42.139,0,0,0-10.624,10.517c-5.786,8.358-6.615,18.852-4.844,28.63,2.09,11.533,8.516,22.193,12.649,33.06,1.2,3.152,2.981,6.921,3.031,10.365.089,5.773-7.971-.737-9.5-2.538a62.456,62.456,0,0,1-9.464-15.247c-2.57-5.845-3.926-11.964-5.656-18.07a.862.862,0,0,0-.3-.435c-.725-1.693-2.531-1.792-3.9.032-2.79,3.722-2.508,9.212-2.35,13.586.394,10.861,2.34,22.224,8.027,31.639,5.389,8.936,13.7,16.232,22.682,21.4a80.14,80.14,0,0,0,14.68,6.743,67.2,67.2,0,0,0,16.2,2.727,132.373,132.373,0,0,0,17.843.533c4.407-.278,9.662-.892,13.383-3.586,2.931-.606,5.84-1.262,8.714-1.947,13.441-3.2,27.73-8.777,36.265-20.216,2.9-3.887,5.979-9.35,6.04-14.311.024-1.885-.7-3.861-2.636-4.5-2.7-.892-5.745.99-8.168,1.948-7.258,2.865-15.416,3.438-23.154,3.561-6.961.109-14.29-.538-20.556-3.82-3.168-1.661-6.575-4.173-8.4-7.332-2.732-4.739,2.344-7.161,6.442-6.987,4.409.189,8.781,1.469,13.182,1.917,4.664.476,9.333.55,14.013.687,14.729.429,30.321-3.052,40.539-14.51,3.636-4.079,6.69-9.554,7.369-15.034.3-2.474-.028-5.2-2.052-6.883-2.469-2.053-5.691-1.173-8.167.394-3.724,2.358-6.979,5.386-10.765,7.7a88,88,0,0,1-12.394,6.581c-4.036,1.654-7.949,2.042-12.251,2.277a53.615,53.615,0,0,1-10.33.038c-1.148-.161-8.594-2.617-6.684-3.911,1.582-1.071,5.176-.518,7.036-.616,4.6-.242,9.276-.231,13.814-1.122a76.209,76.209,0,0,0,13.4-4.471c7.11-2.85,13.691-6.162,19.179-11.62a40.93,40.93,0,0,0,10.7-17.932c.66-2.345,1.318-5.164-.387-7.2a1.705,1.705,0,0,0-2.067-.264c-2.71,1.949-5.932,2.938-8.747,4.708-3.513,2.208-6.834,4.51-10.7,6.1a15.533,15.533,0,0,1-12.932-.345c-.676-2.31,1.094-4.323,3.117-5.5,4.239-2.459,9.078-3.644,13.3-6.233a24.719,24.719,0,0,0,9.361-9.784,44.42,44.42,0,0,0,2.86-7.763c.788-2.671,2.174-6.567,1.119-9.3a1.282,1.282,0,0,0-.121-.217.421.421,0,0,0-.164-.39c-2.4-1.854-5.835-2.259-8.767-2.589-3.622-.41-7.308-.627-10.945-.745-6.569-.2-13.679.337-18.451,5.374M516.347,351.879c3.518.435,13.265,3.677,11.278,8.735-2.015,5.121-11.5,4.207-15.578,3.859-6.739-.574-16.881-2.006-22.508-6.192-3.022-2.25-1.441-3.843,1.412-4.547a81.41,81.41,0,0,1,10.428-1.89,63.94,63.94,0,0,1,14.968.035" fill="#4f9638"/>
            <g id="Grupo_1004807" data-name="Grupo 1004807" opacity="0.7">
              <g id="Grupo_1004806" data-name="Grupo 1004806">
                <g id="Grupo_1004805" data-name="Grupo 1004805" clip-path="url(#clip-path-16)">
                  <g id="Grupo_1004804" data-name="Grupo 1004804">
                    <g id="Grupo_1004803" data-name="Grupo 1004803" clip-path="url(#clip-path-17)">
                      <path id="Trazado_632454" data-name="Trazado 632454" d="M550.223,269.121q-4.1,3.795-8.107,7.684c-7.26,7-14.549,13.956-21.681,21.089-6.537,6.544-12.9,13.3-19,20.26-7.6,8.671-15.018,17.681-21.9,26.945a62.188,62.188,0,0,1-4.955-10.651c-.131-.349-.765-.337-.706.1a23.886,23.886,0,0,0,1.83,6.658,38.586,38.586,0,0,0,2.833,5.215c-.177.243-.367.48-.544.722-6.875,9.413-13.789,18.91-19.6,29.033a.8.8,0,0,0,1.38.806c5.6-9.04,12.423-17.409,19.01-25.749,7.656-9.693,15.62-19.194,23.594-28.628,12.186-14.421,25.468-28.091,38.741-41.5,5-5.052,10.491-9.555,15.566-14.489.879-.853-.234-2.057-1.234-1.6-2.027.93-3.612,2.611-5.23,4.111" fill="#0a481c"/>
                      <path id="Trazado_632455" data-name="Trazado 632455" d="M470.344,322.307a130.264,130.264,0,0,1-5.117-25.862c-.4-4.134-.6-8.289-.787-12.436-.18-4,.308-8.415-.661-12.314a.426.426,0,0,0-.811,0c-.933,3.86-.306,8.384-.126,12.315.207,4.474.676,8.915,1.272,13.35a140.85,140.85,0,0,0,5.688,25.1c.11.344.651.2.542-.15" fill="#0a481c"/>
                      <path id="Trazado_632456" data-name="Trazado 632456" d="M493.421,283.72a93.125,93.125,0,0,0,2.28,18.758c1.224,5.027,2.4,9.982,5.092,14.473.179.3.661,0,.459-.269-3-4.061-3.287-9.732-4.373-14.53a93.791,93.791,0,0,1-2.118-17.968c-.338-10.361.783-20.6,4.862-30.192a.393.393,0,0,0-.616-.47c-3.118,2.542-3.161,8.727-3.786,12.382-.452,2.615-1.33,5.143-1.7,7.771a55.618,55.618,0,0,0-.1,10.045" fill="#0a481c"/>
                      <path id="Trazado_632457" data-name="Trazado 632457" d="M524.6,267.015c-.634,2.531-1.3,5.057-1.822,7.615-1.014,4.953-1.567,10-.28,14.961a.627.627,0,0,0,1.207-.336c-1.349-5.151-.652-10.462.572-15.566.588-2.447,1.278-4.87,1.924-7.3.529-2,1.61-4.589,1.126-6.65a.411.411,0,0,0-.745-.1,10.146,10.146,0,0,0-1.031,3.4c-.291,1.335-.62,2.655-.951,3.976" fill="#0a481c"/>
                      <path id="Trazado_632458" data-name="Trazado 632458" d="M534.064,244.188a28.434,28.434,0,0,0-2.481,3.461,49.344,49.344,0,0,0-3.433,7.65c-.189.483.585.793.826.343,1.306-2.374,2.783-4.629,4.292-6.881.734-1.092,1.493-2.182,2.326-3.2.815-1,2.08-1.992,2.441-3.251a.65.65,0,0,0-.79-.788c-1.32.266-2.364,1.682-3.181,2.667" fill="#0a481c"/>
                      <path id="Trazado_632459" data-name="Trazado 632459" d="M565.109,290.468c-7.381,1.779-15.82,2.649-23.285.972-.941-.212-1.341,1.218-.4,1.446,7.591,1.854,15.78.817,23.333-.8a47.031,47.031,0,0,0,10.843-3.945c3.558-1.751,7.553-3.583,10.479-6.3a.346.346,0,0,0,0-.491.351.351,0,0,0-.338-.087c-3.419.967-6.448,3.2-9.6,4.837a48.525,48.525,0,0,1-11.035,4.365" fill="#0a481c"/>
                      <path id="Trazado_632460" data-name="Trazado 632460" d="M559.693,260.223c-.5.547.3,1.356.82.819,4.682-4.8,10.2-8.644,15.726-12.389.209-.143.087-.515-.18-.43a29.1,29.1,0,0,0-8.815,5.019,60.05,60.05,0,0,0-7.551,6.981" fill="#0a481c"/>
                      <path id="Trazado_632461" data-name="Trazado 632461" d="M581.5,243.732c-.477.345-.964.7-1.42,1.066-.88.718-1.75,1.438-2.659,2.118a.174.174,0,0,0,.175.3c1.046-.5,2.137-.988,3.132-1.582a12.313,12.313,0,0,0,1.452-1.021,7.38,7.38,0,0,0,1.092-1.281c.176-.232-.161-.523-.387-.385-.45.276-.961.478-1.385.787" fill="#0a481c"/>
                      <path id="Trazado_632462" data-name="Trazado 632462" d="M528.866,320.588c-1.8-1.314-4.2-1.741-6.334-2.243a13.561,13.561,0,0,1-6.175-2.789.579.579,0,0,0-.817.821,13.492,13.492,0,0,0,6.135,3.3c2.258.652,4.59,1.134,6.892,1.624a.393.393,0,0,0,.3-.714" fill="#0a481c"/>
                      <path id="Trazado_632463" data-name="Trazado 632463" d="M578.233,312.144a31.64,31.64,0,0,1-5.2,3.862,44.6,44.6,0,0,1-11.667,4.726,66.288,66.288,0,0,1-24.954,1.317c-.277-.036-.345.443-.066.491a63.747,63.747,0,0,0,26.032-.54,42.07,42.07,0,0,0,12.037-4.845c3.1-1.878,7.425-4.7,8.592-8.335a.474.474,0,0,0-.692-.528c-1.571,1.031-2.71,2.581-4.082,3.85" fill="#0a481c"/>
                    </g>
                  </g>
                </g>
              </g>
            </g>
            <path id="Trazado_632464" data-name="Trazado 632464" d="M14.466,297.852a105.328,105.328,0,0,0,17.941,11.92,169.043,169.043,0,0,0,21.5,9.586,37.727,37.727,0,0,0,10.925,2.366c4,.23,8.689.035,12.083.986,1.956.548,5.353-1.947,3.87-3.02a6.47,6.47,0,0,0-.622-.341c1.618-6.894,4.278-14.053,6.75-21.1,2.31-6.6,4.27-13.12,7.169-19.8,4.833-11.129,12.824-25.3,7.383-33.793-2.406-3.754-7.949-5.637-13.851-6.673-6.814-1.2-16.259-.1-20.291-3.928-6.824-6.473-2.935-17.9-6.6-25.828-2.3-4.957-7-12.25-18.436-8.925-13.214,3.84-21.929,15.172-24.12,22.9-1.319,4.663-1.4,9.055-1.471,13.394-.092,5.17-.533,9.85-3.774,15.679-3.158,5.678-7.456,11.381-10.372,17.058C-.6,274.467-.716,279.793,1.566,284.4c2.632,5.3,8.017,9.45,12.9,13.448" fill="#add031"/>
            <path id="Trazado_632465" data-name="Trazado 632465" d="M37.627,204.3c-.039,8.394-1.588,17.229-1.1,25.467a126.9,126.9,0,0,0,4.233,24.508c2.149,8.2,5.749,15.791,8.41,23.791a85.363,85.363,0,0,0,11.1,22.693c5.428,7.7,10.525,15.495,17.339,22.424.817.833,4.023-.6,3.805-1.776-.669-3.66-4.7-5.841-6.91-8.751-2.65-3.508-4.918-7.178-7.342-10.808-4.66-6.976-9.2-13.722-11.989-21.62-5.568-15.755-13-30.9-15.5-47.926-1.339-9.1.518-19.244-.071-28.6-.048-.773-1.976-.213-1.981.587Z" fill="#36753c"/>
            <path id="Trazado_632466" data-name="Trazado 632466" d="M90.645,243.875A129.828,129.828,0,0,1,78.616,270.43c-2.557,4.4-5.354,8.818-8.483,13.219-1.49,2.1-3.061,4.187-4.64,6.278-1.549,2.05-3.534,4.273-4.1,6.288-.114.409.511.644,1.122.2a23.268,23.268,0,0,0,4.928-5.23c1.784-2.324,3.4-4.673,4.98-7.009,3.035-4.489,5.889-8.983,8.456-13.467,5.249-9.183,9.322-18.257,11.618-27.078.21-.809-1.592-.6-1.851.242Z" fill="#36753c"/>
            <path id="Trazado_632467" data-name="Trazado 632467" d="M54.024,284.021c-8.549-1.69-16.991-3.407-24.41-6.213a57.916,57.916,0,0,1-10.369-5.049c-3.12-1.957-5.646-4.337-9.007-6.108-.481-.253-1.553.283-1.366.764,1.175,3.041,4.08,5.193,7.122,7.144a59.921,59.921,0,0,0,10.494,5.267,82.966,82.966,0,0,0,26.357,5.492c.9.045,2.055-1.123,1.179-1.3" fill="#36753c"/>
            <path id="Trazado_632468" data-name="Trazado 632468" d="M52.33,209.607a50.89,50.89,0,0,1-5,13.351c-1.146,2.269-2.478,4.537-3.924,6.816-.729,1.151-1.486,2.3-2.25,3.451-.653.976-1.535,2-1.6,2.912-.035.473.814.335,1.309-.053a10.8,10.8,0,0,0,2.384-3.132q1.112-1.732,2.171-3.461c1.418-2.33,2.793-4.669,4.046-6.994a35.456,35.456,0,0,0,4.513-13.379c.06-.69-1.529-.191-1.648.487Z" fill="#36753c"/>
            <path id="Trazado_632469" data-name="Trazado 632469" d="M23.813,231.472c2.054,4.719,3.528,9.7,6.392,14.037a22.6,22.6,0,0,0,8.485,8.026,7.279,7.279,0,0,0,3.641,1.358c.468,0,1.17-.451.982-.756-.579-.9-2.008-1.312-2.99-1.96a22,22,0,0,1-3.078-2.458,35.953,35.953,0,0,1-5.021-5.942,110.581,110.581,0,0,1-7.291-12.828c-.189-.387-1.29.125-1.12.523" fill="#36753c"/>
            <path id="Trazado_632470" data-name="Trazado 632470" d="M23.314,276.553A14.191,14.191,0,0,0,18.265,286.6c-.332,4.65,1.565,8.473,4.181,12.174a31.568,31.568,0,0,0,3.626,4.27h.013a42.718,42.718,0,0,0,3.689,3.284h.013c1.393,1.122,2.856,2.174,4.351,3.2,2.4,1.646,4.867,3.159,7.284,4.747A13.624,13.624,0,0,1,47,320.5c1.026,2.532,1.52,5.294,2.4,7.873l.349.944a12.784,12.784,0,0,0,3.083,4.777c3.732,3.527,8.53,3.882,13.372,4.421a23.383,23.383,0,0,1,8.9,2.372,17.944,17.944,0,0,1,5.693,5.438c.139.162.262.345.386.517.173.236.329.478.506.714a39.778,39.778,0,0,0,3.946,5.181,14.614,14.614,0,0,0,6.614,3.724c5.658,1.62,11.568,1.686,17.38,2.127,1.333.11,2.668.264,4,.24a.81.81,0,0,0,.65.646c2.025.442,4.009-.7,5.647-1.8a23.456,23.456,0,0,0,3.43-2.767,20.884,20.884,0,0,0,1.561-1.684v-.013A24.977,24.977,0,0,0,130.47,340.4c1.123-8.922-2.772-18.116-10.777-22.373-.318-.167-.649-.338-1-.5h-.012c-.378-.168-.763-.339-1.174-.489-2.576-1-5.4-1.261-8.07-1.94a28.1,28.1,0,0,1-8.738-3.51,11.845,11.845,0,0,1-2.191-1.854,14.238,14.238,0,0,1-1.622-2.08c-.013,0-.013,0-.011-.014a47.423,47.423,0,0,1-3.993-8.462c-1.724-4.19-3.6-8.328-7.8-10.567-4.73-2.537-10.614-1.968-15.8-2.141-.509-.021-1.007-.04-1.508-.073-.433-.013-.863-.042-1.291-.069a30.888,30.888,0,0,1-6.093-1,28.133,28.133,0,0,1-8.007-4.142,68.694,68.694,0,0,0-10.305-6.251c-.406-.176-.812-.352-1.225-.5a21.793,21.793,0,0,0-3.247-1,17.442,17.442,0,0,0-14.3,3.112" fill="#36753c"/>
            <path id="Trazado_632471" data-name="Trazado 632471" d="M22.6,280.813c1.433,1.239,2.579,2.8,3.909,4.148,2.886,2.917,5.991,5.643,9.043,8.39,9.6,8.653,19.4,17.127,29.4,25.319,3.791,3.1,7.572,6.213,11.627,8.967,3.308,2.245,6.7,4.365,10.115,6.451,7.961,4.866,16.048,9.535,24.181,14.108,3.547,1.995,7.091,4.073,10.745,5.873,1.2.59,2.392,1.189,3.632,1.679.426.178.861.334,1.3.469.258.073,1.014.317.492.114.851.337,1.564-.922.706-1.258.088.035-.318-.2-.483-.318-.3-.206-.59-.411-.892-.611-.928-.611-1.89-1.164-2.848-1.724-2.928-1.711-5.927-3.3-8.887-4.951-8.025-4.479-16.021-9.009-23.912-13.724a215.788,215.788,0,0,1-20.524-13.587q-16.083-12.289-31.217-25.714c-5.3-4.7-10.358-9.841-16.194-13.892-.153-.107-.336.141-.194.263Z" fill="#4f9638"/>
            <path id="Trazado_632472" data-name="Trazado 632472" d="M58.138,313.011a3.976,3.976,0,0,1,1.418.216.3.3,0,0,1,.009.58,1.53,1.53,0,0,1-.344.109c-1.515.478-3.594.01-5.09-.163a58.44,58.44,0,0,1-6.036-1.019,85.738,85.738,0,0,1-12.23-3.759q-3.092-1.215-6.079-2.634h-.011a42.892,42.892,0,0,1-3.69-3.285,99.75,99.75,0,0,0,10.314,4.78,86.03,86.03,0,0,0,11.973,3.76A57.194,57.194,0,0,0,54.1,312.72c1.056.142,2.11.233,3.179.273.29.021.573.013.859.018" fill="#4f9638"/>
            <path id="Trazado_632473" data-name="Trazado 632473" d="M67.779,286.4c.205.371.407.753.611,1.123A65.66,65.66,0,0,1,73.9,299.738c2.5,7.854,4.771,17,3.055,25.264-.06.293-.127.572-.2.861a.449.449,0,0,1-.873-.211c.086-.4.158-.808.223-1.228,1.289-8.035-.855-16.777-3.293-24.36a69.29,69.29,0,0,0-5.489-12.173c-.284-.517-.569-1.036-.838-1.563.429.028.859.056,1.292.07" fill="#4f9638"/>
            <path id="Trazado_632474" data-name="Trazado 632474" d="M40.86,274.437c.411.151.818.326,1.223.5a63.618,63.618,0,0,1,3.418,8.128,51.256,51.256,0,0,1,2.346,9.754c.474,3.436.673,6.9,1.209,10.323.017.145.048.28.065.422.061.429-.577.634-.653.2s-.168-.887-.24-1.326c-1.011-5.959-1.245-11.958-3.1-17.782a64.838,64.838,0,0,0-3.786-9.27c-.164-.324-.317-.643-.485-.952" fill="#4f9638"/>
            <path id="Trazado_632475" data-name="Trazado 632475" d="M49.406,328.377a92.072,92.072,0,0,0,13.71,1.58,77.277,77.277,0,0,0,8.082-.123,33.436,33.436,0,0,0,4.413-.581c.837-.171,1.644-.433,2.472-.621.326-.075.661-.134.993-.181.475-.052.585.6.247.829l-.135.08c-2.051,1.367-5.047,1.561-7.431,1.764a61.8,61.8,0,0,1-8.607.008,94.043,94.043,0,0,1-13.4-1.81Z" fill="#4f9638"/>
            <path id="Trazado_632476" data-name="Trazado 632476" d="M96.9,307.657a14.184,14.184,0,0,0,1.623,2.079,68.965,68.965,0,0,1,.711,12.769c-.164,4.891-.626,10.165-2.5,14.774-.137.351-.283.688-.441,1.021-.169.378-.851.126-.7-.275s.28-.778.4-1.172A42.633,42.633,0,0,0,97.3,330.8,68.239,68.239,0,0,0,97.3,310c-.117-.785-.248-1.561-.389-2.34" fill="#4f9638"/>
            <path id="Trazado_632477" data-name="Trazado 632477" d="M106.233,345.068a3.881,3.881,0,0,1-.286.328c-1.612,1.621-5,1.951-7.044,2.287a56.55,56.55,0,0,1-7.944.709,47.816,47.816,0,0,1-9.263-.832c-.174-.23-.329-.477-.507-.714-.124-.171-.247-.355-.385-.516a.244.244,0,0,1,.1.015,48.724,48.724,0,0,0,10.206.856,55.743,55.743,0,0,0,8.109-.865,30.915,30.915,0,0,0,3.7-.91c.628-.2,1.245-.479,1.884-.681h.015a5.644,5.644,0,0,1,1.163-.255c.329-.035.425.36.257.576" fill="#36753c"/>
            <path id="Trazado_632478" data-name="Trazado 632478" d="M118.707,317.53c.346.156.676.332.994.5.169,2.132.241,4.278.27,6.427a101.868,101.868,0,0,1-.4,12.216c-.425,3.961-.755,8.477-2.56,12.1a1.975,1.975,0,0,1-.126.252c-.247.492-.99.066-.743-.422a1.777,1.777,0,0,0,.111-.243,21.535,21.535,0,0,0,1.615-6.057c.349-2.273.669-4.544.87-6.843.31-3.643.292-7.315.248-10.98-.026-2.318-.088-4.642-.284-6.946" fill="#36753c"/>
            <path id="Trazado_632479" data-name="Trazado 632479" d="M67.932,52.623a34.3,34.3,0,1,1-34.3,34.3,34.3,34.3,0,0,1,34.3-34.3" fill="#ffa686"/>
            <path id="Trazado_632480" data-name="Trazado 632480" d="M392.12,26.308a13.157,13.157,0,1,1-13.157,13.157A13.158,13.158,0,0,1,392.12,26.308" fill="#ffc107"/>
            <path id="Trazado_632481" data-name="Trazado 632481" d="M594.689,136.982a9.082,9.082,0,0,1,9.44,10.742,14.858,14.858,0,0,1-3.722,7.511c-5.08,5.558-10.266,11.053-15.446,16.53a11.683,11.683,0,0,1-2.215,1.747c-3.641,2.4-7.413,2.281-10.431-.268a8.71,8.71,0,0,1-1.614-11.135,27.369,27.369,0,0,1,3.489-4.421c5.049-5.584,10.674-10.649,14.728-17.119A8.108,8.108,0,0,1,594.689,136.982Z" fill="none" stroke="#ffc107" stroke-width="3"/>
            <path id="Trazado_632482" data-name="Trazado 632482" d="M555,147.071a13.384,13.384,0,0,1,.319-3.052q2.98-9.9,6.2-19.744a12.72,12.72,0,0,1,4.328-6.059,7.911,7.911,0,0,1,8.824-1.048A7.477,7.477,0,0,1,578.942,124a12.516,12.516,0,0,1-.338,3.719q-3.3,10.781-6.782,21.519a10.575,10.575,0,0,1-1.271,2.5,8.47,8.47,0,0,1-9.776,3.738C557.325,154.474,555.278,151.724,555,147.071Z" fill="none" stroke="#ffc107" stroke-width="3"/>
          </g>
        </g>
      </g>
    </g>
  </g>
</svg>
