<svg id="Grupo_1004637" data-name="Grupo 1004637" xmlns="http://www.w3.org/2000/svg" xmlns:xlink="http://www.w3.org/1999/xlink" width="400" height="132.425" viewBox="0 0 400 132.425">
  <defs>
    <clipPath id="clip-path">
      <rect id="Rectángulo_347499" data-name="Rectángulo 347499" width="400" height="132.425" fill="none"/>
    </clipPath>
  </defs>
  <g id="Grupo_1004636" data-name="Grupo 1004636" clip-path="url(#clip-path)">
    <path id="Trazado_632001" data-name="Trazado 632001" d="M398.583,310.829H1.417c-.782,0-1.417-.349-1.417-.779s.635-.779,1.417-.779H398.583c.782,0,1.417.349,1.417.779s-.635.779-1.417.779" transform="translate(0 -193.397)" fill="#e9a486"/>
    <rect id="Rectángulo_347455" data-name="Rectángulo 347455" width="17.22" height="38.618" transform="translate(229.585 76.507)" fill="#305d44"/>
    <rect id="Rectángulo_347456" data-name="Rectángulo 347456" width="9.012" height="38.618" transform="translate(237.793 76.507)" fill="#80af59"/>
    <rect id="Rectángulo_347457" data-name="Rectángulo 347457" width="12.54" height="26.27" transform="translate(231.523 82.919)" fill="#91baa3"/>
    <rect id="Rectángulo_347458" data-name="Rectángulo 347458" width="6.27" height="26.27" transform="translate(237.793 82.919)" fill="#fefefe"/>
    <rect id="Rectángulo_347459" data-name="Rectángulo 347459" width="20.744" height="2.977" transform="translate(227.421 75.019)" fill="#d8ebd4"/>
    <path id="Trazado_632002" data-name="Trazado 632002" d="M653.5,196.833H634.12l1.393-2.034h16.6Z" transform="translate(-406.019 -121.814)" fill="#99bda6"/>
    <rect id="Rectángulo_347460" data-name="Rectángulo 347460" width="17.22" height="38.618" transform="translate(182.103 76.959)" fill="#305d44"/>
    <rect id="Rectángulo_347461" data-name="Rectángulo 347461" width="9.012" height="38.618" transform="translate(190.311 76.959)" fill="#80af59"/>
    <rect id="Rectángulo_347462" data-name="Rectángulo 347462" width="12.54" height="26.27" transform="translate(184.041 83.37)" fill="#91baa3"/>
    <rect id="Rectángulo_347463" data-name="Rectángulo 347463" width="6.27" height="26.27" transform="translate(190.311 83.37)" fill="#fefefe"/>
    <rect id="Rectángulo_347464" data-name="Rectángulo 347464" width="20.744" height="2.977" transform="translate(179.938 75.471)" fill="#d8ebd4"/>
    <path id="Trazado_632003" data-name="Trazado 632003" d="M521.5,198.038H502.12L503.513,196h16.6Z" transform="translate(-321.501 -122.567)" fill="#99bda6"/>
    <path id="Trazado_632004" data-name="Trazado 632004" d="M333.8,133.4H266.926a3.568,3.568,0,0,1-3.483-3.628V31.528a3.568,3.568,0,0,1,3.483-3.628H333.8a3.568,3.568,0,0,1,3.483,3.628v98.243A3.568,3.568,0,0,1,333.8,133.4" transform="translate(-168.679 -17.447)" fill="#e1eaaf"/>
    <path id="Trazado_632005" data-name="Trazado 632005" d="M399.622,27.9H366.237V133.4h33.385a3.568,3.568,0,0,0,3.483-3.628V31.528a3.568,3.568,0,0,0-3.483-3.628" transform="translate(-234.497 -17.447)" fill="#d3e188"/>
    <path id="Trazado_632006" data-name="Trazado 632006" d="M339.115,131.954H283.239a2.981,2.981,0,0,1-2.91-3.031V46.842a2.981,2.981,0,0,1,2.91-3.031h55.876a2.981,2.981,0,0,1,2.91,3.031v82.081a2.981,2.981,0,0,1-2.91,3.031" transform="translate(-179.491 -27.396)" fill="#fff"/>
    <path id="Trazado_632007" data-name="Trazado 632007" d="M394.024,43.811H366.086v88.143h27.938a2.981,2.981,0,0,0,2.91-3.031V46.842a2.981,2.981,0,0,0-2.91-3.031" transform="translate(-234.4 -27.396)" fill="#ebf1f2"/>
    <path id="Trazado_632008" data-name="Trazado 632008" d="M352.1,22.6V34.814a1.185,1.185,0,0,1-1.157,1.2h-33.55a1.185,1.185,0,0,1-1.157-1.2V22.6" transform="translate(-202.481 -14.131)" fill="none" stroke="#a6a6a6" stroke-miterlimit="10" stroke-width="4"/>
    <path id="Trazado_632009" data-name="Trazado 632009" d="M348.368,21.878H312.71a2.232,2.232,0,0,1,0-4.461h35.658a2.232,2.232,0,0,1,0,4.461" transform="translate(-198.854 -10.891)" fill="#b6cd45"/>
    <path id="Trazado_632010" data-name="Trazado 632010" d="M344.761,88.009H292.837a.872.872,0,0,1,0-1.743h51.924a.872.872,0,0,1,0,1.743" transform="translate(-186.964 -53.945)" fill="#dae8f1"/>
    <path id="Trazado_632011" data-name="Trazado 632011" d="M344.761,100.92H292.837a.872.872,0,0,1,0-1.743h51.924a.872.872,0,0,1,0,1.743" transform="translate(-186.964 -62.018)" fill="#dae8f1"/>
    <path id="Trazado_632012" data-name="Trazado 632012" d="M344.761,113.831H292.837a.872.872,0,0,1,0-1.743h51.924a.872.872,0,0,1,0,1.743" transform="translate(-186.964 -70.092)" fill="#dae8f1"/>
    <path id="Trazado_632013" data-name="Trazado 632013" d="M344.064,133.417H292.753a1.225,1.225,0,0,1,0-2.447h51.311a1.225,1.225,0,0,1,0,2.447" transform="translate(-186.694 -81.899)" fill="#dae8f1"/>
    <path id="Trazado_632014" data-name="Trazado 632014" d="M344.064,148.911H292.753a1.224,1.224,0,0,1,0-2.447h51.311a1.224,1.224,0,0,1,0,2.447" transform="translate(-186.694 -91.588)" fill="#dae8f1"/>
    <path id="Trazado_632015" data-name="Trazado 632015" d="M344.064,227.668H292.753a1.225,1.225,0,0,1,0-2.447h51.311a1.225,1.225,0,0,1,0,2.447" transform="translate(-186.694 -140.837)" fill="#dae8f1"/>
    <path id="Trazado_632016" data-name="Trazado 632016" d="M344.064,243.161H292.753a1.225,1.225,0,0,1,0-2.447h51.311a1.225,1.225,0,0,1,0,2.447" transform="translate(-186.694 -150.526)" fill="#dae8f1"/>
    <path id="Trazado_632017" data-name="Trazado 632017" d="M307.873,182.968H292.238a.676.676,0,0,1-.66-.687V163.036a.676.676,0,0,1,.66-.688h15.635a.676.676,0,0,1,.66.688V182.28a.676.676,0,0,1-.66.687" transform="translate(-186.694 -101.521)" fill="#fedc19"/>
    <path id="Trazado_632018" data-name="Trazado 632018" d="M358.964,182.968H343.329a.676.676,0,0,1-.66-.687V163.036a.676.676,0,0,1,.66-.688h15.635a.676.676,0,0,1,.66.688V182.28a.676.676,0,0,1-.66.687" transform="translate(-219.407 -101.521)" fill="#ef4e45"/>
    <path id="Trazado_632019" data-name="Trazado 632019" d="M409.914,182.968H394.279a.676.676,0,0,1-.66-.687V163.036a.676.676,0,0,1,.66-.688h15.635a.676.676,0,0,1,.66.688V182.28a.676.676,0,0,1-.66.687" transform="translate(-252.029 -101.521)" fill="#88c94f"/>
    <path id="Trazado_632020" data-name="Trazado 632020" d="M351.093,162.349H343.33a.676.676,0,0,0-.66.687v19.245a.676.676,0,0,0,.66.688h7.763Z" transform="translate(-219.407 -101.522)" fill="#f8695e"/>
    <path id="Trazado_632021" data-name="Trazado 632021" d="M961.789,85.765l-3.146.793c-15,3.78-30.154-5.853-33.783-21.476L915.2,23.488a5.68,5.68,0,0,1,4-6.829l4-1.008.655,2.821-4,1.008A2.766,2.766,0,0,0,917.9,22.8L927.569,64.4c3.268,14.067,16.914,22.741,30.42,19.337l3.146-.793c13.505-3.4,21.834-17.618,18.566-31.685L969.86,8.908a2.645,2.645,0,0,0-3.194-2.03l-3.365.848-.655-2.821,3.365-.848a5.43,5.43,0,0,1,6.557,4.168l9.84,42.351c3.629,15.622-5.62,31.408-20.619,35.188" transform="translate(-585.891 -2.438)" fill="#afafaf"/>
    <path id="Trazado_632022" data-name="Trazado 632022" d="M966.012,4.058l-3.365.848.328,1.411,2.5-.629A5.229,5.229,0,0,1,971.784,9.7l9.475,40.783c3.5,15.044-5.412,30.245-19.855,33.885l-3.029.764c-14.444,3.64-29.037-5.637-32.533-20.681L916.536,24.4a5.47,5.47,0,0,1,3.854-6.577l3.13-.789L923.2,15.65l-4,1.008a5.68,5.68,0,0,0-4,6.829l9.664,41.594c3.63,15.622,18.785,25.257,33.784,21.476l3.146-.793c15-3.78,24.248-19.566,20.619-35.188l-9.84-42.351a5.431,5.431,0,0,0-6.557-4.168" transform="translate(-585.891 -2.438)" fill="#8b8c8c"/>
    <path id="Trazado_632023" data-name="Trazado 632023" d="M992.343,185.205,989.2,186a27.344,27.344,0,0,1-26.521-7.745l2.286-2.407a24.2,24.2,0,0,0,23.469,6.861l3.146-.793a25.46,25.46,0,0,0,18.427-19.372l3.164.78a28.767,28.767,0,0,1-20.825,21.883" transform="translate(-616.39 -101.642)" fill="#f0f5d6"/>
    <path id="Trazado_632024" data-name="Trazado 632024" d="M991.845,183.954l-3.146.793a27.241,27.241,0,0,1-25.2-6.467l-.822.865A27.344,27.344,0,0,0,989.2,186.89l3.146-.793a28.767,28.767,0,0,0,20.825-21.883l-.993-.245a28.63,28.63,0,0,1-20.33,19.985" transform="translate(-616.39 -102.535)" fill="#d3e188"/>
    <path id="Trazado_632025" data-name="Trazado 632025" d="M1038.855,6.836l-6.475,1.632a1.566,1.566,0,0,1-1.888-1.2l-.842-3.623a1.639,1.639,0,0,1,1.152-1.967l6.475-1.632a1.566,1.566,0,0,1,1.888,1.2l.842,3.623a1.638,1.638,0,0,1-1.152,1.967" transform="translate(-659.244 0)" fill="#2d4344"/>
    <path id="Trazado_632026" data-name="Trazado 632026" d="M1037.835,5.762l-5.375,1.355a1.206,1.206,0,0,1-1.453-.924l-.586-2.524a1.262,1.262,0,0,1,.887-1.514L1036.682.8a1.206,1.206,0,0,1,1.454.924l.586,2.524a1.261,1.261,0,0,1-.887,1.514" transform="translate(-659.744 -0.479)" fill="#4d6666"/>
    <path id="Trazado_632027" data-name="Trazado 632027" d="M938.581,31.166l6.475-1.632a1.639,1.639,0,0,0,1.152-1.967l-.842-3.623a1.567,1.567,0,0,0-1.888-1.2L937,24.377a1.639,1.639,0,0,0-1.152,1.967l.842,3.623a1.567,1.567,0,0,0,1.888,1.2" transform="translate(-599.186 -14.194)" fill="#2d4344"/>
    <path id="Trazado_632028" data-name="Trazado 632028" d="M937.673,30.054l5.375-1.355a1.262,1.262,0,0,0,.887-1.514l-.586-2.524a1.206,1.206,0,0,0-1.453-.924l-5.376,1.355a1.261,1.261,0,0,0-.887,1.514l.587,2.524a1.206,1.206,0,0,0,1.454.924" transform="translate(-599.053 -14.822)" fill="#4d6666"/>
    <rect id="Rectángulo_347465" data-name="Rectángulo 347465" width="14.862" height="2.288" transform="translate(201.796 97.552)" fill="#939393"/>
    <rect id="Rectángulo_347466" data-name="Rectángulo 347466" width="11.146" height="1.951" transform="translate(201.796 97.552)" fill="#afafaf"/>
    <path id="Trazado_632029" data-name="Trazado 632029" d="M537.577,177.51h-.268a1.175,1.175,0,0,1-1.15-1.2v-2.2a1.175,1.175,0,0,1,1.15-1.2h.268a1.175,1.175,0,0,1,1.15,1.2v2.2a1.175,1.175,0,0,1-1.15,1.2" transform="translate(-343.296 -108.129)" fill="#c3ddcd"/>
    <path id="Trazado_632030" data-name="Trazado 632030" d="M551.78,171.51h-.268a1.175,1.175,0,0,1-1.15-1.2v-2.2a1.175,1.175,0,0,1,1.15-1.2h.268a1.175,1.175,0,0,1,1.15,1.2v2.2a1.175,1.175,0,0,1-1.15,1.2" transform="translate(-352.39 -104.377)" fill="#c3ddcd"/>
    <rect id="Rectángulo_347467" data-name="Rectángulo 347467" width="24.368" height="44.787" transform="translate(194.147 70.791)" fill="#fe6735"/>
    <rect id="Rectángulo_347468" data-name="Rectángulo 347468" width="12.184" height="44.787" transform="translate(206.331 70.791)" fill="#d75a32"/>
    <rect id="Rectángulo_347469" data-name="Rectángulo 347469" width="21.117" height="14.442" transform="translate(199.597 85.04)" fill="#fff"/>
    <rect id="Rectángulo_347470" data-name="Rectángulo 347470" width="10.559" height="14.442" transform="translate(210.156 85.04)" fill="#c3ddcd"/>
    <rect id="Rectángulo_347471" data-name="Rectángulo 347471" width="16.719" height="3.357" transform="translate(201.796 86.456)" fill="#939393"/>
    <rect id="Rectángulo_347472" data-name="Rectángulo 347472" width="14.862" height="2.288" transform="translate(201.796 90.897)" fill="#939393"/>
    <rect id="Rectángulo_347473" data-name="Rectángulo 347473" width="11.146" height="1.951" transform="translate(201.796 90.896)" fill="#afafaf"/>
    <rect id="Rectángulo_347474" data-name="Rectángulo 347474" width="13.149" height="2.612" transform="translate(201.796 86.456)" fill="#afafaf"/>
    <rect id="Rectángulo_347475" data-name="Rectángulo 347475" width="29.136" height="3.784" transform="translate(191.579 68.577)" fill="#d75a32"/>
    <path id="Trazado_632031" data-name="Trazado 632031" d="M553.5,186.817H542.56a1.893,1.893,0,0,1,0-3.784H553.5a1.893,1.893,0,0,1,0,3.784" transform="translate(-346.232 -114.456)" fill="#fe6735"/>
    <rect id="Rectángulo_347476" data-name="Rectángulo 347476" width="29.136" height="6.733" transform="translate(191.579 61.844)" fill="#dae8f1"/>
    <path id="Trazado_632032" data-name="Trazado 632032" d="M564.69,172.51h-.268a1.175,1.175,0,0,1-1.15-1.2v-2.2a1.175,1.175,0,0,1,1.15-1.2h.268a1.175,1.175,0,0,1,1.15,1.2v2.2a1.175,1.175,0,0,1-1.15,1.2" transform="translate(-360.656 -105.003)" fill="#c3ddcd"/>
    <path id="Trazado_632033" data-name="Trazado 632033" d="M577.6,172.51h-.268a1.175,1.175,0,0,1-1.15-1.2v-2.2a1.175,1.175,0,0,1,1.15-1.2h.268a1.175,1.175,0,0,1,1.15,1.2v2.2a1.175,1.175,0,0,1-1.15,1.2" transform="translate(-368.924 -105.003)" fill="#c3ddcd"/>
    <path id="Trazado_632034" data-name="Trazado 632034" d="M590.512,172.51h-.268a1.175,1.175,0,0,1-1.15-1.2v-2.2a1.175,1.175,0,0,1,1.15-1.2h.268a1.175,1.175,0,0,1,1.15,1.2v2.2a1.175,1.175,0,0,1-1.15,1.2" transform="translate(-377.19 -105.003)" fill="#c3ddcd"/>
    <path id="Trazado_632035" data-name="Trazado 632035" d="M603.423,172.51h-.268a1.175,1.175,0,0,1-1.15-1.2v-2.2a1.175,1.175,0,0,1,1.15-1.2h.268a1.175,1.175,0,0,1,1.15,1.2v2.2a1.175,1.175,0,0,1-1.15,1.2" transform="translate(-385.456 -105.003)" fill="#c3ddcd"/>
    <rect id="Rectángulo_347477" data-name="Rectángulo 347477" width="25.653" height="1.569" transform="translate(192.863 60.275)" fill="#ebf7f2"/>
    <path id="Trazado_632036" data-name="Trazado 632036" d="M557.938,135.618l-10.49-3.934a3.191,3.191,0,0,1-1.818-4.024,3,3,0,0,1,3.863-1.893l10.49,3.934a3.191,3.191,0,0,1,1.818,4.024,3,3,0,0,1-3.863,1.893" transform="translate(-349.246 -78.53)" fill="#a6e1eb"/>
    <path id="Trazado_632037" data-name="Trazado 632037" d="M554.913,127.8l-5.42-2.033a3,3,0,0,0-3.863,1.893,3.191,3.191,0,0,0,1.818,4.024l5.42,2.033Z" transform="translate(-349.246 -78.53)" fill="#fe6b3a"/>
    <path id="Trazado_632038" data-name="Trazado 632038" d="M570.312,81.374l-10.407,4.167a2.992,2.992,0,0,1-3.9-1.806,3.2,3.2,0,0,1,1.735-4.063L568.146,75.5a2.992,2.992,0,0,1,3.9,1.806,3.2,3.2,0,0,1-1.734,4.063" transform="translate(-355.874 -47.084)" fill="#a6e1eb"/>
    <path id="Trazado_632039" data-name="Trazado 632039" d="M563.116,81.228l-5.377,2.153A3.2,3.2,0,0,0,556,87.445a2.992,2.992,0,0,0,3.9,1.807l5.377-2.154Z" transform="translate(-355.875 -50.794)" fill="#fe6b3a"/>
    <line id="Línea_174" data-name="Línea 174" y1="4.29" x2="9.973" transform="translate(201.022 29.929)" fill="none" stroke="#fff" stroke-linecap="round" stroke-miterlimit="10" stroke-width="2"/>
    <line id="Línea_175" data-name="Línea 175" x2="10.222" y2="3.598" transform="translate(200.571 48.605)" fill="none" stroke="#fff" stroke-linecap="round" stroke-miterlimit="10" stroke-width="2"/>
    <path id="Trazado_632040" data-name="Trazado 632040" d="M200.986,319.332l-10.517,3.858a3,3,0,0,1-3.85-1.921,3.189,3.189,0,0,1,1.844-4.01L198.98,313.4a3,3,0,0,1,3.85,1.921,3.189,3.189,0,0,1-1.844,4.01" transform="translate(-119.381 -195.867)" fill="#a6e1eb"/>
    <path id="Trazado_632041" data-name="Trazado 632041" d="M193.9,318.674l-5.434,1.994a3.189,3.189,0,0,0-1.844,4.01,3,3,0,0,0,3.85,1.921l5.434-1.994Z" transform="translate(-119.381 -199.276)" fill="#fe6b3a"/>
    <path id="Trazado_632042" data-name="Trazado 632042" d="M180.89,264.429l-5.535,10.081a2.963,2.963,0,0,1-4.119,1.169,3.226,3.226,0,0,1-1.122-4.29l5.535-10.081a2.963,2.963,0,0,1,4.119-1.169,3.226,3.226,0,0,1,1.122,4.29" transform="translate(-108.668 -162.414)" fill="#a6e1eb"/>
    <path id="Trazado_632043" data-name="Trazado 632043" d="M172.974,276.95l-2.86,5.209a3.226,3.226,0,0,0,1.122,4.29,2.963,2.963,0,0,0,4.119-1.169l2.86-5.209Z" transform="translate(-108.668 -173.185)" fill="#fe6b3a"/>
    <line id="Línea_176" data-name="Línea 176" y1="9.89" x2="5.124" transform="translate(61.784 100.903)" fill="none" stroke="#fff" stroke-linecap="round" stroke-miterlimit="10" stroke-width="2"/>
    <line id="Línea_177" data-name="Línea 177" y1="3.942" x2="10.104" transform="translate(70.165 118.295)" fill="none" stroke="#fff" stroke-linecap="round" stroke-miterlimit="10" stroke-width="2"/>
    <rect id="Rectángulo_347478" data-name="Rectángulo 347478" width="6.618" height="6.894" transform="translate(254.378 67.615)" fill="#dae8f1"/>
    <rect id="Rectángulo_347479" data-name="Rectángulo 347479" width="6.911" height="6.894" transform="translate(260.997 67.615)" fill="#80aaa3"/>
    <path id="Trazado_632044" data-name="Trazado 632044" d="M714.716,203.083a4.844,4.844,0,0,1-2.41-4.15V198.8h-9.863v.132a4.844,4.844,0,0,1-2.411,4.15,5.852,5.852,0,0,0-2.818,5.034v25.52a5.71,5.71,0,0,0,5.573,5.8h9.173a5.709,5.709,0,0,0,5.573-5.8v-25.52a5.852,5.852,0,0,0-2.818-5.034" transform="translate(-446.418 -124.317)" fill="#dd4926"/>
    <path id="Trazado_632045" data-name="Trazado 632045" d="M702.917,198.8h-.475v.132a4.844,4.844,0,0,1-2.411,4.15,5.852,5.852,0,0,0-2.818,5.034v25.52a5.709,5.709,0,0,0,5.573,5.8h4.773V198.8Z" transform="translate(-446.418 -124.317)" fill="#fe6735"/>
    <rect id="Rectángulo_347480" data-name="Rectángulo 347480" width="18.777" height="21.149" transform="translate(249.131 87.002)" fill="#dae8f1"/>
    <rect id="Rectángulo_347481" data-name="Rectángulo 347481" width="10.08" height="2.515" transform="translate(251.063 89.362)" fill="#c3ddcd"/>
    <rect id="Rectángulo_347482" data-name="Rectángulo 347482" width="10.08" height="2.515" transform="translate(251.063 94.559)" fill="#c3ddcd"/>
    <rect id="Rectángulo_347483" data-name="Rectángulo 347483" width="10.08" height="7.144" transform="translate(251.063 99.031)" fill="#305d44"/>
    <path id="Trazado_632046" data-name="Trazado 632046" d="M708.035,267.973l-10.08-3.659h10.08Z" transform="translate(-446.892 -165.283)" fill="#80af59"/>
    <path id="Trazado_632047" data-name="Trazado 632047" d="M743.08,210.191a4.3,4.3,0,0,1-3.231-4.227v-4.536h-6.5v4.536a4.305,4.305,0,0,1-3.231,4.227h-.936a2.527,2.527,0,0,0-2.474,2.577v25.741a2.527,2.527,0,0,0,2.474,2.577h15a2.527,2.527,0,0,0,2.474-2.577V212.767a2.527,2.527,0,0,0-2.474-2.577Z" transform="translate(-465.303 -125.959)" fill="#fec013"/>
    <path id="Trazado_632048" data-name="Trazado 632048" d="M736.59,201.428h-3.24v4.536a4.3,4.3,0,0,1-3.231,4.227h-.936a2.527,2.527,0,0,0-2.474,2.577v25.741a2.527,2.527,0,0,0,2.474,2.577h7.407Z" transform="translate(-465.303 -125.959)" fill="#fedc19"/>
    <rect id="Rectángulo_347484" data-name="Rectángulo 347484" width="8.992" height="5.365" transform="translate(266.605 72.792)" fill="#ebf1f2"/>
    <rect id="Rectángulo_347485" data-name="Rectángulo 347485" width="4.31" height="5.318" transform="translate(271.287 72.839)" fill="#80aaa3"/>
    <rect id="Rectángulo_347486" data-name="Rectángulo 347486" width="17.31" height="18.03" transform="translate(262.632 88.256)" fill="#ebf1f2"/>
    <rect id="Rectángulo_347487" data-name="Rectángulo 347487" width="8.563" height="18.03" transform="translate(271.379 88.256)" fill="#d3e188"/>
    <path id="Trazado_632049" data-name="Trazado 632049" d="M746.409,245.517a3.2,3.2,0,0,1-5.64,0,3.342,3.342,0,0,0-3.272,3.408c0,1.882,6.092,7.1,6.092,7.1s6.092-5.221,6.092-7.1a3.342,3.342,0,0,0-3.272-3.408" transform="translate(-472.21 -153.529)" fill="#ae492b"/>
    <path id="Trazado_632050" data-name="Trazado 632050" d="M743.59,247.2a3.218,3.218,0,0,0-2.82-1.686,3.342,3.342,0,0,0-3.272,3.408c0,1.882,6.092,7.1,6.092,7.1Z" transform="translate(-472.211 -153.529)" fill="#fe6735"/>
    <path id="Trazado_632051" data-name="Trazado 632051" d="M107.079,212.191a4.3,4.3,0,0,1-3.231-4.227v-4.536h-6.5v4.536a4.305,4.305,0,0,1-3.232,4.227h-.936a2.527,2.527,0,0,0-2.474,2.577v25.741a2.527,2.527,0,0,0,2.474,2.577h15a2.527,2.527,0,0,0,2.474-2.577V214.767a2.527,2.527,0,0,0-2.474-2.577Z" transform="translate(-58.08 -127.21)" fill="#fec013"/>
    <path id="Trazado_632052" data-name="Trazado 632052" d="M100.59,203.428H97.35v4.536a4.3,4.3,0,0,1-3.231,4.227h-.936a2.527,2.527,0,0,0-2.474,2.577v25.741a2.527,2.527,0,0,0,2.474,2.577h7.407Z" transform="translate(-58.08 -127.21)" fill="#fedc19"/>
    <rect id="Rectángulo_347488" data-name="Rectángulo 347488" width="8.992" height="5.365" transform="translate(37.828 73.541)" fill="#ebf1f2"/>
    <rect id="Rectángulo_347489" data-name="Rectángulo 347489" width="4.31" height="5.318" transform="translate(42.51 73.588)" fill="#80aaa3"/>
    <rect id="Rectángulo_347490" data-name="Rectángulo 347490" width="17.31" height="18.03" transform="translate(33.855 89.005)" fill="#ebf1f2"/>
    <rect id="Rectángulo_347491" data-name="Rectángulo 347491" width="8.563" height="18.03" transform="translate(42.602 89.005)" fill="#d3e188"/>
    <path id="Trazado_632053" data-name="Trazado 632053" d="M110.409,247.517a3.246,3.246,0,0,0-2.82,1.686,3.245,3.245,0,0,0-2.82-1.686,3.342,3.342,0,0,0-3.272,3.408c0,1.882,6.092,7.1,6.092,7.1s6.092-5.221,6.092-7.1a3.342,3.342,0,0,0-3.272-3.408" transform="translate(-64.987 -154.78)" fill="#ae492b"/>
    <path id="Trazado_632054" data-name="Trazado 632054" d="M107.59,249.2a3.218,3.218,0,0,0-2.82-1.686,3.342,3.342,0,0,0-3.272,3.408c0,1.882,6.092,7.1,6.092,7.1Z" transform="translate(-64.988 -154.78)" fill="#fe6735"/>
    <line id="Línea_178" data-name="Línea 178" x1="14.757" y2="0.865" transform="translate(288.599 105.926)" fill="none" stroke="#949b96" stroke-miterlimit="10" stroke-width="2"/>
    <path id="Trazado_632061" data-name="Trazado 632061" d="M.014.093,39.967,0l-.014,6.385L0,6.478Z" transform="translate(304.76 102.553) rotate(-3.222)" fill="#dae8f1"/>
    <path id="Trazado_632062" data-name="Trazado 632062" d="M.014.054,23.187,0l-.014,6.384L0,6.438Z" transform="translate(304.762 102.591) rotate(-3.219)" fill="#ef4e45"/>
    <path id="Trazado_632055" data-name="Trazado 632055" d="M888.5,274.33h0a1.162,1.162,0,0,1-1.067,1.243l-7.35.431a1.15,1.15,0,0,1-1.194-1.111,1.162,1.162,0,0,1,1.067-1.243l7.35-.431a1.15,1.15,0,0,1,1.194,1.111" transform="translate(-562.74 -170.851)" fill="#f8695e"/>
    <path id="Trazado_632056" data-name="Trazado 632056" d="M843.678,280.335l-.344-6.375-2.221,3.328Z" transform="translate(-538.555 -171.315)" fill="#f9837d"/>
    <path id="Trazado_632063" data-name="Trazado 632063" d="M.021,0l1.6,0L1.6,9.4,0,9.4Z" transform="matrix(0.998, -0.056, 0.056, 0.998, 344.164, 98.863)" fill="#dae8f1"/>
    <path id="Trazado_632064" data-name="Trazado 632064" d="M.007.02,8.4,0,8.39,3.181,0,3.2Z" transform="translate(345.339 101.833) rotate(-3.221)" fill="#afafaf"/>
    <path id="Trazado_632065" data-name="Trazado 632065" d="M.007.041,17.386,0l-.007,3.181L0,3.221Z" transform="translate(327.988 102.829) rotate(-3.221)" fill="#bbbcbb"/>
    <path id="Trazado_632066" data-name="Trazado 632066" d="M.014,0,2,0,1.988,6.384,0,6.389Z" transform="translate(327.898 101.285) rotate(-3.219)" fill="#bbbcbb"/>
    <path id="Trazado_632067" data-name="Trazado 632067" d="M.013,0,2.087,0,2.074,5.772,0,5.777Z" transform="matrix(0.998, -0.056, 0.056, 0.998, 351.562, 100.048)" fill="#afafaf"/>
    <path id="Trazado_632057" data-name="Trazado 632057" d="M747.965,260.472H616.558v-3.386H747.965c9.244,0,16.765-7.833,16.765-17.461V219.18h3.251v20.445c0,11.5-8.979,20.847-20.016,20.847" transform="translate(-394.775 -137.06)" fill="#f0f5d6"/>
    <path id="Trazado_632058" data-name="Trazado 632058" d="M766.548,219.18v19.607c0,11.024-8.611,19.993-19.195,19.993H621.334v-1.694h-4.776v3.386H747.965c11.037,0,20.016-9.352,20.016-20.847V219.18Z" transform="translate(-394.775 -137.06)" fill="#d3e188"/>
    <path id="Trazado_632059" data-name="Trazado 632059" d="M599.133,307A10.286,10.286,0,1,1,588.856,296.3,10.5,10.5,0,0,1,599.133,307" transform="translate(-370.456 -185.285)" fill="#b6bfbf"/>
    <path id="Trazado_632060" data-name="Trazado 632060" d="M601.482,312.237a7.273,7.273,0,1,1-7.267-7.569,7.423,7.423,0,0,1,7.267,7.569" transform="translate(-375.815 -190.518)" fill="#e9edee"/>
  </g>
</svg>
