<svg xmlns="http://www.w3.org/2000/svg" width="355.01" height="227.236" viewBox="0 0 355.01 227.236">
  <g id="Grupo_1004847" data-name="Grupo 1004847" transform="translate(-464.392 -1100.764)">
    <g id="Grupo_908183" data-name="Grupo 908183" transform="translate(746.847 1244.9)">
      <g id="Grupo_907858" data-name="Grupo 907858" transform="translate(0 4.181)">
        <g id="Grupo_907857" data-name="Grupo 907857">
          <path id="Trazado_627956" data-name="Trazado 627956" d="M55.452,199.175a31.983,31.983,0,0,1-2.525-4.42c-1.263-2.525-2.289-4.577-2.131-4.656a31.982,31.982,0,0,1,2.525,4.42C54.584,197.044,55.61,199.1,55.452,199.175Z" transform="translate(-50.78 -190.097)" fill="#263238"/>
        </g>
      </g>
      <g id="Grupo_907860" data-name="Grupo 907860" transform="translate(3.725 0.237)">
        <g id="Grupo_907859" data-name="Grupo 907859">
          <path id="Trazado_627957" data-name="Trazado 627957" d="M58.815,197.333a7.394,7.394,0,0,1-.71-1.736,38.269,38.269,0,0,1-1.263-4.341c-.474-1.736-.789-3.236-1.026-4.341S55.5,185.1,55.5,185.1a7.9,7.9,0,0,1,.552,1.815c.316,1.263.71,2.683,1.184,4.341.474,1.578.868,3.078,1.184,4.341C58.657,196.622,58.815,197.333,58.815,197.333Z" transform="translate(-55.5 -185.1)" fill="#263238"/>
        </g>
      </g>
      <g id="Grupo_907862" data-name="Grupo 907862" transform="translate(8.756 0)">
        <g id="Grupo_907861" data-name="Grupo 907861">
          <path id="Trazado_627958" data-name="Trazado 627958" d="M63.078,184.8a63.352,63.352,0,0,1-.395,6.393,41.275,41.275,0,0,1-.789,6.393,63.357,63.357,0,0,1,.395-6.393A57.312,57.312,0,0,1,63.078,184.8Z" transform="translate(-61.875 -184.8)" fill="#263238"/>
        </g>
      </g>
    </g>
    <g id="Grupo_908188" data-name="Grupo 908188" transform="translate(546 1153.513)">
      <g id="Grupo_907886" data-name="Grupo 907886" transform="translate(0 4.103)">
        <g id="Grupo_907885" data-name="Grupo 907885">
          <path id="Trazado_627968" data-name="Trazado 627968" d="M89.252,132.575a31.984,31.984,0,0,1-2.525-4.42c-1.263-2.525-2.289-4.577-2.131-4.656a31.983,31.983,0,0,1,2.525,4.42A42.708,42.708,0,0,1,89.252,132.575Z" transform="translate(-84.58 -123.497)" fill="#263238"/>
        </g>
      </g>
      <g id="Grupo_907888" data-name="Grupo 907888" transform="translate(3.646 0.238)">
        <g id="Grupo_907887" data-name="Grupo 907887">
          <path id="Trazado_627969" data-name="Trazado 627969" d="M92.515,130.833a7.4,7.4,0,0,1-.71-1.736,38.269,38.269,0,0,1-1.263-4.341c-.474-1.736-.789-3.236-1.026-4.341S89.2,118.6,89.2,118.6a7.9,7.9,0,0,1,.552,1.815c.316,1.263.71,2.683,1.184,4.341.474,1.578.868,3.078,1.184,4.341C92.357,130.122,92.515,130.754,92.515,130.833Z" transform="translate(-89.2 -118.6)" fill="#263238"/>
        </g>
      </g>
      <g id="Grupo_907890" data-name="Grupo 907890" transform="translate(8.677 0)">
        <g id="Grupo_907889" data-name="Grupo 907889">
          <path id="Trazado_627970" data-name="Trazado 627970" d="M96.778,118.3a63.355,63.355,0,0,1-.395,6.393,41.276,41.276,0,0,1-.789,6.393,63.355,63.355,0,0,1,.395-6.393C96.384,121.141,96.7,118.221,96.778,118.3Z" transform="translate(-95.575 -118.298)" fill="#263238"/>
        </g>
      </g>
    </g>
    <g id="pollos" transform="translate(367.692 1051.394)">
      <g id="Grupo_908141" data-name="Grupo 908141" transform="translate(207.324 49.371)">
        <path id="Trazado_628111" data-name="Trazado 628111" d="M358.3,400.73c46.929,11.223,103.254,11.85,149.609-.052C460.353,390.76,405.333,390.134,358.3,400.73Z" transform="translate(-332.365 -213.626)" fill="#f2e9d6"/>
        <g id="Grupo_908140" data-name="Grupo 908140">
          <path id="Trazado_628112" data-name="Trazado 628112" d="M493.081,376.835h0c-2.4-.313-4.855-.679-7.256-1.148-1.931-.574-3.811-1.253-5.638-1.984,4.124,0,8.3.052,12.424,0,1.305,0,1.931-2.088.313-2.036-5.063.157-10.075.47-15.138.574.783-4.959,1.618-9.918,2.453-14.877.47-2.767.94-5.533,1.462-8.3.47-2.4,1.305-5.011.94-7.413-.157-1.1-1.67-.47-2.036.157-1.148,1.984-1.409,4.28-1.879,6.473q-.861,4.15-1.566,8.3c-.887,5.011-1.566,10.023-2.14,15.086-1.931-.313-3.811-.626-5.742-.887-.992-.157-2.61,1.462-1.253,2.036,7.83,3.08,15.556,5.586,24.013,6.473C493.6,379.341,494.647,377.1,493.081,376.835Z" transform="translate(-384.564 -188.791)" fill="#ffbc36"/>
          <path id="Trazado_628113" data-name="Trazado 628113" d="M569.406,371.63a85.83,85.83,0,0,0-13.05-2.036c-.1,0-.261-.052-.365-.052,4.019-1.409,8.352.1,12.372-1.305,1.566-.522,1.462-2.923-.313-2.245-4.072,1.514-8.457.157-12.58,1.618-1.618-4.7-3.237-9.448-4.8-14.147-1.723-5.22-2.923-10.91-5.272-15.921-.522-1.148-2.558-.1-2.4.992.679,5.481,2.871,10.962,4.594,16.182,1.409,4.437,2.975,8.822,4.594,13.155a22.7,22.7,0,0,0-7.308,1.775c-1.148.47-1.044,2.193.313,2.14a78.085,78.085,0,0,1,12.111.418c3.706.626,7.36,1.253,11.067,1.879C569.771,374.24,571.233,372.047,569.406,371.63Z" transform="translate(-420.642 -186.874)" fill="#ffbc36"/>
          <path id="Trazado_628114" data-name="Trazado 628114" d="M380.646,108.9a39.732,39.732,0,0,0-18.114-37.48c-2.819-1.827-6.421-4.28-9.814-4.646-2.975-.313-2.349,1.879-1.1,3.758a17.688,17.688,0,0,0,6.421,5.847c-11.014-5.951-26.623-6.577-36.28,2.192-1.148,1.044-2.349,2.506-1.931,4.072a3.361,3.361,0,0,0,2.14,2.14,10.25,10.25,0,0,0,3.08.47A83.077,83.077,0,0,1,348.386,89.9c-5.9-2.088-11.328-1.566-17.279.157a49.26,49.26,0,0,0-9.918,4.333c-5.272,2.871-10.858,8.4-12.372,14.355-.418,1.618-.261,3.758,1.253,4.437,1.253.522,2.61-.261,3.758-.992,5.011-3.341,10.075-6.682,15.713-8.822s11.9-3.028,17.7-1.305c-2.245-.679-6.369.783-8.509,1.462a38.182,38.182,0,0,0-7.987,4.019c-5.011,2.923-9.5,5.951-13.1,10.649a35,35,0,0,0-6.786,23.908,6.515,6.515,0,0,0,.731,2.61,2.574,2.574,0,0,0,2.245,1.357c1.462-.1,1.514-1.67,1.984-2.714a25.385,25.385,0,0,1,2.558-4.072,68.193,68.193,0,0,1,6.212-7.726A60.778,60.778,0,0,1,340.347,119.6c-7.047,7.569-13.677,15.921-16.757,25.787-1.2,3.811-1.1,7.1-1.148,10.962,0,4.333.365,8.3,2.245,12.319.522,1.044,1.253,2.192,2.4,2.245a2.5,2.5,0,0,0,2.192-1.305c1.409-2.4,1.618-6,2.506-8.665a75.2,75.2,0,0,1,3.758-9.292,68.531,68.531,0,0,1,11.328-16.391c-2.14,5.429-4.333,10.858-5.325,16.6s-.783,11.85,1.67,17.122c1.305,2.819,4.437,5.638,7.152,4.124,2.192-1.2,2.245-4.228,2.506-6.682.679-6.473,4.542-12.163,8.874-16.965s9.344-9.083,13.155-14.355,6.369-11.9,5.011-18.218Z" transform="translate(-308.617 -57.674)" fill="#ffbc36"/>
          <path id="Trazado_628115" data-name="Trazado 628115" d="M393.046,120.886a36.365,36.365,0,0,0-22.76-24.43c-1.305-.47-3.028-.679-3.759.47-.94,1.409.679,3.08,2.088,4.072A51.813,51.813,0,0,1,385.059,120.1c-1.1-2.14-5.272-4.333-7.308-5.533a36.1,36.1,0,0,0-8.509-3.654,23.405,23.405,0,0,0-18.792,2.819c-1.357.835-2.714,2.14-2.453,3.706a3.147,3.147,0,0,0,2.558,2.3,9.608,9.608,0,0,0,3.654-.209,42.281,42.281,0,0,1,19.262,1.514c-6.943.679-13.886,2.192-19.993,5.481-6.16,3.289-11.432,8.457-13.886,14.982-.626,1.618-.94,3.654.261,4.907a3.521,3.521,0,0,0,3.759.626A13.952,13.952,0,0,0,347,144.846a46.735,46.735,0,0,1,16.757-8.509,26.313,26.313,0,0,0-12.633,22.969c.052,1.253.261,2.662,1.253,3.393a3.068,3.068,0,0,0,3.55-.157,10.774,10.774,0,0,0,2.558-2.767,43.718,43.718,0,0,1,11.8-10.753c-3.132,1.931-5.325,7.517-6.316,10.858-.679,2.4-2.871,10.492.574,11.641,1.775.574,3.184-1.462,4.124-3.08A21.269,21.269,0,0,1,383.7,158.21a38.35,38.35,0,0,0,6.682-27.353,64.371,64.371,0,0,0,3.289,5.847c.418.626.94,1.253,1.67,1.253,1.148,0,1.566-1.566,1.566-2.714C396.961,130.491,394.3,125.532,393.046,120.886Z" transform="translate(-323.158 -71.697)" fill="#229cbc"/>
          <path id="Trazado_628116" data-name="Trazado 628116" d="M422.887,149.507a32.96,32.96,0,0,0-5.116-16.965,6.706,6.706,0,0,0-2.506-2.61,2.767,2.767,0,0,0-3.341.626c-.679.992-.313,2.349.1,3.5,1.827,5.22,3.706,10.44,5.533,15.66a19.551,19.551,0,0,0-17.435-9.866c-.731.052-1.566.209-1.879.835-.365.783.365,1.618,1.044,2.192l9.709,8.3a14.9,14.9,0,0,0-17.8,5.69c4.28.94,8.509,1.879,12.789,2.819a23.528,23.528,0,0,0-14.773,11.38c-.887,1.618-1.409,4.019.1,5.064a4.049,4.049,0,0,0,3.132.209,33.459,33.459,0,0,0,8.874-3.5,27.7,27.7,0,0,0-8.613,15.66c-.261,1.409-.209,3.184.992,3.915,1.409.835,3.08-.313,4.28-1.409,6.421-5.847,12.894-11.745,19.314-17.592Z" transform="translate(-346.734 -87.738)" fill="#005a72"/>
          <path id="Trazado_628117" data-name="Trazado 628117" d="M525.692,235.526c3.341-5.481,9.448-23.7,5.847-39.882-1.148-5.064-9.083-5.638-13.938-7.726s-10.231-3.967-15.5-3.184c-18.009,2.714-36.75,7.517-55.49,5.064-4.646-.626-8.509,1.514-13.207,1.253-4.542,36.7,4.907,51,9.866,54.185,3.445,2.245,8.352,5.377,11.328,8.2,2.192,2.036,3.132,5.011,4.333,7.726s2.923,5.481,5.847,6.473c4.333,1.409,8.613-1.879,12.319-4.385,7.83-5.272,17.174-7.935,26.048-11.432C511.911,248.263,520.785,243.46,525.692,235.526Z" transform="translate(-367.688 -113.986)" fill="#12789b"/>
          <path id="Trazado_628118" data-name="Trazado 628118" d="M564.343,73.283c-3.55-.261-6.838,2.192-8.77,5.168s-2.767,6.525-3.706,9.97A114.947,114.947,0,0,1,524.2,136.707a17.5,17.5,0,0,0,15.5-4.7,22.412,22.412,0,0,0-7.256,11.484,18.712,18.712,0,0,0,12.163-6.369,45.286,45.286,0,0,0-4.072,9.4c-.313.992-.574,2.192.1,3.028.992,1.253,3.028.574,4.385-.313a34.769,34.769,0,0,0,9.4-9.135c-.574,3.028-1.148,6.055-1.775,9.083-.313,1.514-.157,3.706,1.357,3.915,1.148.157,2.036-.992,2.61-1.984l4.228-7.2a61.462,61.462,0,0,0,.313,11.589c.209,1.566.679,3.445,2.14,4.019,2.088.783,4.02-1.618,4.385-3.758.365-2.192,0-4.594,1.148-6.473,1.305,1.775,1.044,4.228,1.618,6.369s2.923,4.228,4.75,3.028a3.947,3.947,0,0,0,1.253-1.775c3.237-7.152,4.228-38.368-.313-65.721a54.884,54.884,0,0,0-4.385-12.737C570.085,75.632,567.423,73.491,564.343,73.283Z" transform="translate(-411.663 -60.791)" fill="#ffbc36"/>
          <path id="Trazado_628119" data-name="Trazado 628119" d="M463.324,237.639a42.34,42.34,0,0,0-10.284.313c-1.462.209-3.08.679-3.706,1.984a3.335,3.335,0,0,0,.47,3.393,10.028,10.028,0,0,0,2.767,2.349,2.807,2.807,0,0,0-4.228-.1,4.113,4.113,0,0,0-.47,4.542,8.177,8.177,0,0,0,3.393,3.393c1.409.835,2.923,1.462,4.28,2.3-1.827-.626-3.863,1.148-4.02,3.08a5.446,5.446,0,0,0,2.819,4.75,15.565,15.565,0,0,0,5.533,1.723,2.215,2.215,0,0,0-2.714,1.879,3.583,3.583,0,0,0,1.618,3.236,9.577,9.577,0,0,0,3.5,1.357c4.75,1.148,9.709,1.931,14.512,1.044s9.448-3.706,11.536-8.2Z" transform="translate(-374.956 -139.276)" fill="#005a72"/>
          <path id="Trazado_628120" data-name="Trazado 628120" d="M428,174.664a13.574,13.574,0,0,0-8.613-6.891c-1.253-.313-3.08-.1-3.184,1.2a2.508,2.508,0,0,0,.94,1.775c1.827,1.931,3.654,3.863,5.481,5.847a11.72,11.72,0,0,0-11.067-.47c-1.148.574-2.349,1.723-2.036,2.975.209.94,1.148,1.462,2.036,1.827a26.356,26.356,0,0,0,7.2,1.984A19.976,19.976,0,0,0,407.8,195.283a17.214,17.214,0,0,0,11.641-6.473,20.442,20.442,0,0,0-3.184,8.822c-.1.887,0,2.036.835,2.349.731.313,1.566-.261,2.14-.835,5.847-5.794,8.822-14.616,16.026-18.636a35.809,35.809,0,0,0-2.245-19.419c-.783-1.879-2.453-4.02-4.385-3.393-1.879.626-2.036,3.184-1.827,5.168C427.167,166.781,427.584,170.748,428,174.664Z" transform="translate(-356.025 -101.097)" fill="#12789b"/>
          <path id="Trazado_628121" data-name="Trazado 628121" d="M522.2,316.926c2.975,2.245,6,4.542,8.979,6.786a5.024,5.024,0,0,0,2.453,1.253,4.951,4.951,0,0,0,3.6-1.566A31.912,31.912,0,0,0,547.2,308Z" transform="translate(-410.707 -172.992)" fill="#12789b"/>
          <path id="Trazado_628122" data-name="Trazado 628122" d="M482.32,226.908c-5.742,1.148-11.9.522-17.174,2.975-1.618.731-3.236,2.088-3.132,3.863.157,2.245,2.923,3.289,4.02,5.22a6.792,6.792,0,0,0-6.369-.94,3.244,3.244,0,0,0-2.088,1.775c-.574,1.566.783,3.236,2.245,4.02,1.514.783,3.236,1.1,4.489,2.192a5.636,5.636,0,0,0-3.811.365,2.723,2.723,0,0,0-1.357,3.289,3.98,3.98,0,0,0,1.723,1.618,22.524,22.524,0,0,0,7.621,2.871c-1.984-.365-3.811,1.827-3.55,3.811a5.571,5.571,0,0,0,3.811,4.28,16.479,16.479,0,0,0,6,.626c-.418.365-.835.679-1.2,1.044a19.533,19.533,0,0,0,11.536,2.14,37.42,37.42,0,0,0,11.38-3.236c5.533-2.4,10.858-5.586,14.877-10.127,3.967-4.542,6.525-10.545,6-16.6-.522-6-4.489-11.85-10.231-13.729-4.072-1.305-8.509-.574-12.58.626C490.411,224.35,486.5,226.125,482.32,226.908Z" transform="translate(-379.754 -131.73)" fill="#229cbc"/>
          <path id="Trazado_628123" data-name="Trazado 628123" d="M486,243.163c-1.305-.679-3.132-.261-4.437,0-1.357.261-3.393.992-4.02,2.349s.574,2.349,1.827,2.349a5.742,5.742,0,0,0,1.618-.209,9,9,0,0,0,2.192.157,4.579,4.579,0,0,0,3.706-1.723A1.93,1.93,0,0,0,486,243.163Z" transform="translate(-389.28 -141.825)" fill="#12789b"/>
          <path id="Trazado_628124" data-name="Trazado 628124" d="M479.672,260.235a8.075,8.075,0,0,0-1.2-.365,2.066,2.066,0,0,0-1.357.261,1.743,1.743,0,0,0-1.827,1.462A2.075,2.075,0,0,0,476.592,263a3.394,3.394,0,0,0,2.662-.261,1.86,1.86,0,0,0,.992-1.253A1.012,1.012,0,0,0,479.672,260.235Z" transform="translate(-388.276 -149.971)" fill="#12789b"/>
          <path id="Trazado_628125" data-name="Trazado 628125" d="M500.263,270.739a4.549,4.549,0,0,0-4.281-.835,4.476,4.476,0,0,0-1.723.992.989.989,0,0,0-1.148.209c-.783.731-1.514,1.305-1.618,2.4-.1,1.148.835,1.723,1.827,1.984a6.5,6.5,0,0,0,3.289-.47,9.822,9.822,0,0,0,3.445-2.14C500.471,272.305,500.993,271.313,500.263,270.739Z" transform="translate(-396.026 -154.68)" fill="#12789b"/>
          <path id="Trazado_628126" data-name="Trazado 628126" d="M496.005,287.878a8.015,8.015,0,0,0-5.586.679,2.871,2.871,0,0,0-.47.365,1.191,1.191,0,0,0-.94.052l-.313.157c-.731.261-1.514,1.148-.835,1.827,1.984,2.192,7.047,2.871,9.083.313C498.041,289.914,497.624,288.348,496.005,287.878Z" transform="translate(-394.17 -163.258)" fill="#12789b"/>
          <path id="Trazado_628127" data-name="Trazado 628127" d="M520.087,288.848a3.243,3.243,0,0,0-1.409.052,2.9,2.9,0,0,0-1.1.313c-.835.365-1.357,1.723-.313,2.192a2.736,2.736,0,0,0,1.305.157h.418a3.872,3.872,0,0,0,1.1-.365,1.616,1.616,0,0,0,.94-1.148A1.136,1.136,0,0,0,520.087,288.848Z" transform="translate(-408.072 -163.811)" fill="#12789b"/>
          <path id="Trazado_628128" data-name="Trazado 628128" d="M524.332,269.959a4.846,4.846,0,0,0-2.871.365,2.165,2.165,0,0,0-.992,1.253,4.121,4.121,0,0,0-.887,1.618,1.051,1.051,0,0,0,.574,1.1c2.088.94,4.75-.522,5.533-2.558C526.211,270.69,525.376,270.011,524.332,269.959Z" transform="translate(-409.446 -154.787)" fill="#12789b"/>
          <path id="Trazado_628129" data-name="Trazado 628129" d="M511.029,251.994c-.313-.418-1.044-.365-1.462-.261a1.955,1.955,0,0,0-1.305,1.1.4.4,0,0,0-.052.209c-.052,0-.052.052-.1.052a1.374,1.374,0,0,0-.783,1.723c.209.522.94.679,1.462.626a2.657,2.657,0,0,0,1.618-.679,2.475,2.475,0,0,0,.835-1.1,1.39,1.39,0,0,0,.157-.626A1.065,1.065,0,0,0,511.029,251.994Z" transform="translate(-403.556 -146.062)" fill="#12789b"/>
          <path id="Trazado_628130" data-name="Trazado 628130" d="M520.023,238.747a.192.192,0,0,1-.157-.052c-.1,0-.209-.052-.313-.052a3.951,3.951,0,0,0-.783-.052h-.209a3.667,3.667,0,0,0-1.67.313,1.859,1.859,0,0,0-1.2,1.357,1.162,1.162,0,0,0,1.357,1.253,3.629,3.629,0,0,0,2.453-1.253.051.051,0,0,1,.052-.052c.209-.052.47-.157.313-.1a.952.952,0,0,0,.887-.731A.661.661,0,0,0,520.023,238.747Z" transform="translate(-407.591 -139.811)" fill="#12789b"/>
          <path id="Trazado_628131" data-name="Trazado 628131" d="M554.876,166.1c-1.514-.731-3.863.47-3.706,2.192a9.179,9.179,0,0,0-2.714,4.333c-.365,1.253,1.409,1.253,2.088.992A8.633,8.633,0,0,0,555.5,167.3,1.057,1.057,0,0,0,554.876,166.1Z" transform="translate(-423.233 -105.062)" fill="#ffdb6a"/>
          <path id="Trazado_628132" data-name="Trazado 628132" d="M559.291,186.577a.817.817,0,0,0-.94-.313H558.3a2.379,2.379,0,0,0-1.2.261,1.768,1.768,0,0,0-.783.731.906.906,0,0,0,.679,1.305,2.025,2.025,0,0,0,1.984-.731.938.938,0,0,0,.209-.47A.727.727,0,0,0,559.291,186.577Z" transform="translate(-426.97 -114.785)" fill="#ffdb6a"/>
          <path id="Trazado_628133" data-name="Trazado 628133" d="M574.994,178.618a4.976,4.976,0,0,0-3.5,3.6c-1.514,2.558-3.445,6.838-.209,6.63,1.827-.1,2.923-1.723,3.758-3.184a14.976,14.976,0,0,0,1.931-5.742A1.414,1.414,0,0,0,574.994,178.618Z" transform="translate(-433.329 -111.106)" fill="#ffdb6a"/>
          <path id="Trazado_628134" data-name="Trazado 628134" d="M569.454,203.082a1.2,1.2,0,0,0-1.305.731,3.5,3.5,0,0,0-.365.94.722.722,0,0,0,.626.835,1.407,1.407,0,0,0,1.409-.731,3.17,3.17,0,0,0,.261-.94A.794.794,0,0,0,569.454,203.082Z" transform="translate(-432.487 -122.833)" fill="#ffdb6a"/>
          <path id="Trazado_628135" data-name="Trazado 628135" d="M591.432,190.175a2.136,2.136,0,0,0-2.349.679,2.078,2.078,0,0,0-.574,1.618c-.052.209-.157.418-.209.626a1.751,1.751,0,0,0-.209,1.984c.679,1.1,2.3.418,2.767-.522l.47-1.1a1.511,1.511,0,0,0,.47-.835,1.739,1.739,0,0,0,0-.522c.052-.157.1-.261.157-.418A1.071,1.071,0,0,0,591.432,190.175Z" transform="translate(-442.094 -116.608)" fill="#ffdb6a"/>
          <path id="Trazado_628136" data-name="Trazado 628136" d="M602.977,204.7c-.574-1.931-3.289-.679-3.289.94a1.907,1.907,0,0,0,.157.783,6.608,6.608,0,0,0-.313,4.124c.365,1.566,2.4.783,2.976-.209A7.814,7.814,0,0,0,602.977,204.7Z" transform="translate(-447.583 -123.149)" fill="#ffdb6a"/>
          <path id="Trazado_628137" data-name="Trazado 628137" d="M611.241,187.835a1.264,1.264,0,0,0-1.409-.94,2.055,2.055,0,0,0-1.879,1.566v.1a.935.935,0,0,0-.261.365,2.781,2.781,0,0,0,.209,2.558c.574.992,1.931.47,2.506-.157A4.713,4.713,0,0,0,611.241,187.835Z" transform="translate(-451.462 -115.103)" fill="#ffdb6a"/>
          <path id="Trazado_628138" data-name="Trazado 628138" d="M619.865,209.827c-.731-1.148-2.61-.574-3.08.574a3.7,3.7,0,0,0-.522,2.192.752.752,0,0,0,.313.522,1.948,1.948,0,0,0,1.462,3.5,3.443,3.443,0,0,0,3.028-2.662A5.674,5.674,0,0,0,619.865,209.827Z" transform="translate(-455.44 -125.767)" fill="#ffdb6a"/>
          <path id="Trazado_628139" data-name="Trazado 628139" d="M596.767,168.828c0-.052.052-.1.1-.209a.644.644,0,0,0-.313-.887,1.164,1.164,0,0,0-1.3.418,2.655,2.655,0,0,0-.47.679,1.4,1.4,0,0,0-.783,1.1v.626a1.34,1.34,0,0,0,.261.626c0,.052.052.052.1.1l.052.052h0a1.142,1.142,0,0,0,.261.157,1.71,1.71,0,0,0,1.984-.574,2.719,2.719,0,0,0,.418-1.566A1.391,1.391,0,0,0,596.767,168.828Z" transform="translate(-445.027 -105.91)" fill="#ffdb6a"/>
          <path id="Trazado_628140" data-name="Trazado 628140" d="M569.972,163.292c-.1-.365-.1-.418-.052-.157l-.157-.47a2,2,0,0,0-1.409-.992c-.731-.209-1.827.783-1.148,1.462v.261a.182.182,0,0,1-.052.1,1.436,1.436,0,0,0-.1.94,1.079,1.079,0,0,0,.522.731,1.676,1.676,0,0,0,1.409-.1,1.9,1.9,0,0,0,1.1-1.409C570.024,163.553,570.024,163.4,569.972,163.292Z" transform="translate(-432.117 -103.037)" fill="#ffdb6a"/>
          <path id="Trazado_628141" data-name="Trazado 628141" d="M364.953,83.677c-1.253-1.723-3.5-2.245-5.847-2.088-4.124-.626-9.187,1.253-12.215,3.654-1.253.992-1.67,3.236,0,4.072,2.3,1.044,6-.1,8.4-.313C357.227,88.792,368.5,88.531,364.953,83.677Z" transform="translate(-326.385 -64.712)" fill="#ffdb6a"/>
          <path id="Trazado_628142" data-name="Trazado 628142" d="M330.622,125.332l-.313.157a.73.73,0,0,0-.835-.992c-4.437.209-8.248,5.011-9.709,8.77-.783,2.036,1.723,2.14,2.871,1.357,1.566-1.1,3.132-2.192,4.75-3.289,1.67-1.148,3.654-2.192,4.907-3.811A1.412,1.412,0,0,0,330.622,125.332Z" transform="translate(-313.874 -85.278)" fill="#ffdb6a"/>
          <path id="Trazado_628143" data-name="Trazado 628143" d="M331.5,162.207c-3.132,1.618-5.481,4.542-7.256,7.517s-4.02,7.256-3.132,10.858c.47,1.984,3.08,1.044,3.811-.261,1.357-2.61,1.879-5.586,3.08-8.248,1.409-3.028,3.706-5.272,5.533-7.987C334.48,162.572,332.862,161.528,331.5,162.207Z" transform="translate(-314.496 -103.204)" fill="#ffdb6a"/>
          <path id="Trazado_628144" data-name="Trazado 628144" d="M345.3,205.076c-3.915,4.281-7.2,13.625-3.55,18.9.887,1.253,2.975.47,3.236-.94.47-2.714.052-5.481.261-8.2a41.582,41.582,0,0,1,2.245-9.031C348.013,204.188,346.029,204.241,345.3,205.076Z" transform="translate(-323.696 -123.522)" fill="#ffdb6a"/>
          <path id="Trazado_628145" data-name="Trazado 628145" d="M379.218,233.148c.157-1.723-2.349-1.044-2.662.157a12.989,12.989,0,0,0,.1,8.091c.522,1.514,3.184.1,3.028-1.2A31.809,31.809,0,0,1,379.218,233.148Z" transform="translate(-340.807 -136.717)" fill="#ffdb6a"/>
          <path id="Trazado_628146" data-name="Trazado 628146" d="M361.669,112.9c-2.349.157-4.7.157-6.786,1.462-.679.418-1.1,1.514,0,1.775,2.3.522,4.594-.522,6.734-1.253C362.713,114.566,363.182,112.792,361.669,112.9Z" transform="translate(-330.409 -79.733)" fill="#ffdb6a"/>
          <path id="Trazado_628147" data-name="Trazado 628147" d="M417.174,91.1a20.149,20.149,0,0,0-4.907-8.874c-2.088-2.3-6.055-5.481-9.344-5.064-.783.1-2.192.992-1.566,1.984.731,1.148,1.827,1.514,3.028,2.192a29.053,29.053,0,0,1,4.228,2.923,30,30,0,0,1,6.212,7.778C415.4,93.087,417.435,92.252,417.174,91.1Z" transform="translate(-352.871 -62.639)" fill="#ffdb6a"/>
          <path id="Trazado_628148" data-name="Trazado 628148" d="M390.754,113.186a12.642,12.642,0,0,0-6.473-1.409c-1.409.1-2.923,2.453-.887,2.819a61.143,61.143,0,0,0,6.16.47C390.493,115.17,392.059,113.812,390.754,113.186Z" transform="translate(-343.886 -79.188)" fill="#ffdb6a"/>
          <path id="Trazado_628149" data-name="Trazado 628149" d="M386.923,131.02c-4.437-3.445-12.528-3.289-17.279-.574-1.2.679-1.409,2.767.365,2.558,2.453-.261,4.855-.887,7.36-.992,2.714-.1,5.429.574,8.143.783C386.245,132.847,387.915,131.8,386.923,131.02Z" transform="translate(-337.341 -87.155)" fill="#12789b"/>
          <path id="Trazado_628150" data-name="Trazado 628150" d="M363.436,161.536c-3.5.992-6.577,2.61-8.665,5.638-1.305,1.879,1.253,3.028,2.662,1.723a30.593,30.593,0,0,1,6.734-5.116C365.628,163.1,365.158,161.066,363.436,161.536Z" transform="translate(-330.506 -102.951)" fill="#12789b"/>
          <path id="Trazado_628151" data-name="Trazado 628151" d="M377.414,188.114a9.613,9.613,0,0,0-2.767,3.028c-.783,1.2-1.879,2.819-1.514,4.333.47,1.775,2.558,1.1,3.5.157a9.152,9.152,0,0,0,1.566-3.393A13.8,13.8,0,0,0,379.241,189,1.14,1.14,0,0,0,377.414,188.114Z" transform="translate(-339.421 -115.591)" fill="#12789b"/>
          <path id="Trazado_628152" data-name="Trazado 628152" d="M412.276,110.021a8.549,8.549,0,0,0-5.586-4.437c-.679-.157-2.088.731-1.514,1.566a16.516,16.516,0,0,0,2.088,2.192,21.7,21.7,0,0,0,2.506,2.4C410.815,112.422,412.8,111.43,412.276,110.021Z" transform="translate(-354.707 -76.231)" fill="#12789b"/>
          <path id="Trazado_628153" data-name="Trazado 628153" d="M541.171,317.1a22.537,22.537,0,0,0-12.946,5.586c-.731.679,0,1.566.835,1.1,1.723-.992,3.341-2.088,5.116-2.975a47.718,47.718,0,0,1,6.943-2.453C541.8,318.142,542.058,317.046,541.171,317.1Z" transform="translate(-413.444 -177.34)" fill="#005a72"/>
          <path id="Trazado_628154" data-name="Trazado 628154" d="M460.772,202.37a1.854,1.854,0,0,0-.992-.418,4.464,4.464,0,0,0-1.67.052,1.915,1.915,0,0,0-1.2.992,1.11,1.11,0,0,0,.209,1.253,3.361,3.361,0,0,0,1.409.574,2.436,2.436,0,0,0,2.4-.783A1.29,1.29,0,0,0,460.772,202.37Z" transform="translate(-379.451 -122.278)" fill="#229cbc"/>
          <path id="Trazado_628155" data-name="Trazado 628155" d="M455.338,211.333c-.052-.157-.1-.261-.157-.418a1.659,1.659,0,0,0-.522-.522,10.579,10.579,0,0,0-.94-.679,1.2,1.2,0,0,0-1.253-.052c-.365.209-.94.835-.574,1.305a7.779,7.779,0,0,0,.783,1.044,1.588,1.588,0,0,0,.418.418,2.813,2.813,0,0,0,.679.365C454.451,213.055,455.7,212.22,455.338,211.333Z" transform="translate(-377.045 -125.916)" fill="#229cbc"/>
          <path id="Trazado_628156" data-name="Trazado 628156" d="M446.181,223.669a10.657,10.657,0,0,0-.47-2.871c-.365-.94-1.723-.157-2.036.365a6.494,6.494,0,0,0-.679,3.445c0,1.2-.1,2.349.731,3.289.887.992,2.506-.209,2.767-1.148A7.767,7.767,0,0,0,446.181,223.669Z" transform="translate(-372.847 -131.101)" fill="#229cbc"/>
          <path id="Trazado_628157" data-name="Trazado 628157" d="M456.221,222.9a3.95,3.95,0,0,0-.783.052h-.209a1.373,1.373,0,0,0-1.1.731.734.734,0,0,0,.522,1.044s.313.052.157,0a1.854,1.854,0,0,0,.522.1,1.66,1.66,0,0,0,1.514-.574.777.777,0,0,0,.209-.47C457.109,223.37,456.639,222.952,456.221,222.9Z" transform="translate(-378.137 -132.315)" fill="#229cbc"/>
          <path id="Trazado_628158" data-name="Trazado 628158" d="M473.394,210.762a1.321,1.321,0,0,0-1.305-.157,1.364,1.364,0,0,0-.418.157c-.052,0-.1.052-.157.052.1-.052-.052,0-.157,0a.526.526,0,0,0-.157-.052,1.407,1.407,0,0,0-1.409.261c-.365.313-.679.992-.209,1.409a2.623,2.623,0,0,0,1.462.626,2.526,2.526,0,0,0,2.453-1.148A1.017,1.017,0,0,0,473.394,210.762Z" transform="translate(-385.444 -126.39)" fill="#229cbc"/>
          <path id="Trazado_628159" data-name="Trazado 628159" d="M495.182,200.4a12.7,12.7,0,0,0-3.706.052,8.915,8.915,0,0,0-3.393.574c-.522.209-.94,1.044-.47,1.462a1.955,1.955,0,0,0,.626.365c0,.418.261.731.835.887a4.527,4.527,0,0,0,2.349-.313c.157-.052.261-.052.418-.1.835,0,1.67,0,2.453-.052C495.756,203.269,497.218,200.659,495.182,200.4Z" transform="translate(-394.077 -121.506)" fill="#229cbc"/>
          <path id="Trazado_628160" data-name="Trazado 628160" d="M491.653,213.348a2.8,2.8,0,0,0-.574.261h-.157l-.052-.052c-.261-.313-.835-.209-1.148-.052a1.074,1.074,0,0,0-.626.992,3.435,3.435,0,0,0,.209.783,1.994,1.994,0,0,0,1.148.783c.992.261,2.714-.47,2.767-1.618A1.137,1.137,0,0,0,491.653,213.348Z" transform="translate(-394.881 -127.722)" fill="#229cbc"/>
          <path id="Trazado_628161" data-name="Trazado 628161" d="M515.487,206.343c-.157-.835-.94-1.044-1.723-.887a4.869,4.869,0,0,0-2.349.94,1.464,1.464,0,0,0-.522,1.723,2.219,2.219,0,0,0,2.61.679C514.547,208.536,515.7,207.492,515.487,206.343Z" transform="translate(-405.247 -123.955)" fill="#229cbc"/>
          <path id="Trazado_628162" data-name="Trazado 628162" d="M519.991,197.25a2.422,2.422,0,0,0-1.357.1c-.522.209-1.148.679-1.044,1.305s.783.731,1.3.626a2.848,2.848,0,0,0,1.305-.679A.733.733,0,0,0,519.991,197.25Z" transform="translate(-408.498 -120.029)" fill="#229cbc"/>
          <path id="Trazado_628163" data-name="Trazado 628163" d="M589.95,254.4c-.47-1.1-2.14-.626-2.819.052a1.68,1.68,0,0,0-.94.626,16.019,16.019,0,0,0-1.514,3.341,1.782,1.782,0,0,0,.261,1.827,1.9,1.9,0,0,0,1.931.47,4.3,4.3,0,0,0,2.558-2.819C589.95,256.907,590.472,255.5,589.95,254.4Z" transform="translate(-440.507 -147.061)" fill="#229cbc"/>
          <g id="Grupo_908139" data-name="Grupo 908139" transform="translate(154.551 105.234)">
            <path id="Trazado_628164" data-name="Trazado 628164" d="M605,256.1c0-.052,0-.1.052-.1Z" transform="translate(-604.836 -253.37)" fill="#229cbc"/>
            <path id="Trazado_628165" data-name="Trazado 628165" d="M607.616,251.087a1.637,1.637,0,0,0-1.931.574,4.16,4.16,0,0,0-.418.835v.052c.052-.209-.1.365-.157.47a2.5,2.5,0,0,1-.261.626,3.185,3.185,0,0,0-.157.679,1.051,1.051,0,0,0,.574,1.1,1.714,1.714,0,0,0,1.514-.1C608.347,254.741,609.443,252.078,607.616,251.087Z" transform="translate(-604.685 -250.963)" fill="#229cbc"/>
            <path id="Trazado_628166" data-name="Trazado 628166" d="M605.8,253.928Z" transform="translate(-605.218 -252.343)" fill="#229cbc"/>
          </g>
          <path id="Trazado_628167" data-name="Trazado 628167" d="M592.239,275.307c-.783-1.2-2.4-.783-3.341-.052a1.571,1.571,0,0,0-.574,1.931h0l-.1.1c-.626.731-1.253,1.462-1.879,2.245a1.452,1.452,0,0,0,0,1.984,2.049,2.049,0,0,0,2.3.1,8.415,8.415,0,0,0,3.445-3.811A2.691,2.691,0,0,0,592.239,275.307Z" transform="translate(-441.178 -157.004)" fill="#229cbc"/>
          <path id="Trazado_628168" data-name="Trazado 628168" d="M575.235,280.563a.885.885,0,0,0,0-.522c-.157-.731-.992-.783-1.618-.679a2.864,2.864,0,0,0-1.1.626,1.952,1.952,0,0,0-.731,1.2c-.1.783.522,1.253,1.3,1.2.157,0,.261-.052.365-.052h.052a2.8,2.8,0,0,0,.574-.261A2.36,2.36,0,0,0,575.235,280.563Z" transform="translate(-434.405 -159.284)" fill="#229cbc"/>
          <path id="Trazado_628169" data-name="Trazado 628169" d="M571.63,294.488a1.245,1.245,0,0,0-1.514-.47,4.4,4.4,0,0,0-1.1.574l-.418.418-.209.209-.052.052-.052.052a.051.051,0,0,0-.052.052c-.052.052-.157.1-.209.157-.261.157-.052,0,0,0a1.465,1.465,0,0,0-1.2.835.8.8,0,0,0,.365,1.1,3.455,3.455,0,0,0,2.506.1C570.69,297.15,572.465,295.845,571.63,294.488Z" transform="translate(-432.001 -166.266)" fill="#229cbc"/>
          <path id="Trazado_628170" data-name="Trazado 628170" d="M583.728,242.052a1.138,1.138,0,0,0-1.148-.209,1.55,1.55,0,0,0-1.1,1.1c.052-.209-.052.1-.052.1a1.562,1.562,0,0,1-.209.418c-.052.157-.157.261-.209.418.209-.418-.052,0-.1.1a1.341,1.341,0,0,0,0,1.723,1.968,1.968,0,0,0,2.349-.157A2.377,2.377,0,0,0,583.728,242.052Z" transform="translate(-438.617 -141.34)" fill="#229cbc"/>
          <path id="Trazado_628171" data-name="Trazado 628171" d="M587.918,58a2.582,2.582,0,0,0-2.767-.731c-.992.261-1.827.887-2.819,1.253a6.894,6.894,0,0,0-1.148-7.83c-1.044-1.044-2.714-1.775-3.967-.992-1.1.679-1.357,2.14-1.253,3.445a13.374,13.374,0,0,1,.209,3.811,13.235,13.235,0,0,0-10.6-6.055,5.246,5.246,0,0,0-2.819.522,2.722,2.722,0,0,0-1.566,2.245,3.836,3.836,0,0,0,1.827,2.923,8.377,8.377,0,0,1,2.61,2.453,22.488,22.488,0,0,0-8.143.365,4.052,4.052,0,0,0-2.61,1.409c-.887,1.305-.1,3.184,1.253,4.019a8.929,8.929,0,0,0,4.542.992,12.725,12.725,0,0,0-7.308,2.506c-1.253.887-2.4,2.4-1.879,3.811.47,1.253,1.931,1.775,3.236,1.931a12.776,12.776,0,0,0,7.935-1.67c4.281-2.506,7.152-7.569,11.954-8.77,2.3-.574,4.75-.157,7.1-.209,2.4-.052,5.011-.835,6.16-2.871A2.5,2.5,0,0,0,587.918,58Z" transform="translate(-424.642 -49.371)" fill="#ef3a27"/>
          <path id="Trazado_628172" data-name="Trazado 628172" d="M593.065,101.693c2.767.313,5.272-2.036,6.16-4.7.522-1.67.835-3.706,2.4-4.385-.365-.052-.731-.052-1.148-.1a15.944,15.944,0,0,0-1.305-4.489,6.612,6.612,0,0,0-3.289-3.236c-2.61-1.044-5.742.365-7.256,2.714a10.633,10.633,0,0,0-1.044,8.091C588.262,98.457,590.194,101.38,593.065,101.693Z" transform="translate(-441.795 -66.129)" fill="#ef3a27"/>
          <path id="Trazado_628173" data-name="Trazado 628173" d="M620.149,111.415c-1.305-.783-3.08-1.305-4.281-.313a4.175,4.175,0,0,0-1.148,2.349,35.624,35.624,0,0,0-.679,11.275,6.732,6.732,0,0,0,.783,2.871,2.544,2.544,0,0,0,2.506,1.253c1.044-.209,1.67-1.253,2.088-2.245a13.508,13.508,0,0,0,.783-7.465,19.729,19.729,0,0,0,4.542,5.22,1.909,1.909,0,0,0,1.2.522c.731-.1.94-1.1.94-1.827A13.871,13.871,0,0,0,620.149,111.415Z" transform="translate(-454.524 -78.617)" fill="#ef3a27"/>
          <path id="Trazado_628174" data-name="Trazado 628174" d="M600.99,93.347A2.851,2.851,0,0,0,597.962,91c-3.55.052-4.333,5.168-4.02,7.778.1.835,1.357.313,1.462-.261a25.68,25.68,0,0,1,.731-2.871c.209-.626.626-2.245,1.462-2.349.679-.1,1.1,2.245,1.2,2.662.261.887.261,1.931,1.044,2.506a1.007,1.007,0,0,0,1.409-.261C602.19,96.74,601.459,94.861,600.99,93.347Z" transform="translate(-444.969 -69.267)" fill="#47120e"/>
          <path id="Trazado_628175" data-name="Trazado 628175" d="M586.217,148.335c-.47-.731-1.67-.365-1.984.365a4.337,4.337,0,0,0-.313,1.1,4.429,4.429,0,0,1-.418.887.938.938,0,0,0,.731,1.357,1.756,1.756,0,0,0,1.775-.94A2.77,2.77,0,0,0,586.217,148.335Z" transform="translate(-439.958 -96.484)" fill="#ffdb6a"/>
          <path id="Trazado_628176" data-name="Trazado 628176" d="M578.881,130.487c-1.618-.209-3.132,1.879-3.289,3.341a1.087,1.087,0,0,0,.626,1.148,1.906,1.906,0,0,0,2.245-.679,4.429,4.429,0,0,0,.574-1.357C579.247,132.262,580.239,130.7,578.881,130.487Z" transform="translate(-436.225 -88.136)" fill="#ffdb6a"/>
          <path id="Trazado_628177" data-name="Trazado 628177" d="M596.045,129.263a1.2,1.2,0,0,0-1.1-.209,1.568,1.568,0,0,0-.992.835,1.549,1.549,0,0,0,0,1.357c.209.522.94.522,1.357.418a1.6,1.6,0,0,0,1.148-1.148A1.741,1.741,0,0,0,596.045,129.263Z" transform="translate(-444.931 -87.434)" fill="#ffdb6a"/>
          <path id="Trazado_628178" data-name="Trazado 628178" d="M612.311,154.32a13.4,13.4,0,0,0-1.044-3.184c-.522-1.044-2.4-.313-2.506.731a15.253,15.253,0,0,0,.157,3.445c.157,1.305.261,2.4,1.409,3.184.731.47,1.723-.261,2.036-.835A4.36,4.36,0,0,0,612.311,154.32Z" transform="translate(-452.063 -97.771)" fill="#ffdb6a"/>
          <path id="Trazado_628179" data-name="Trazado 628179" d="M622.428,171.365a9.525,9.525,0,0,0-.365-1.305c-.157-.418-.731-.418-1.044-.313a1.268,1.268,0,0,0-.887.887,3.885,3.885,0,0,0,.1,2.662c.47.783,1.775.418,2.088-.365A2.685,2.685,0,0,0,622.428,171.365Z" transform="translate(-457.429 -106.881)" fill="#ffdb6a"/>
          <path id="Trazado_628180" data-name="Trazado 628180" d="M601.314,141.322a.683.683,0,0,0-.731-.522,1.114,1.114,0,0,0-.992.835,4.031,4.031,0,0,1-.1.783,1.783,1.783,0,0,0,.157.887c.1.261.47.313.679.313a.96.96,0,0,0,.887-.626c.052-.1.052-.209.1-.313a2.542,2.542,0,0,0,.052-.626C601.367,141.792,601.314,141.583,601.314,141.322Z" transform="translate(-447.643 -93.073)" fill="#ffdb6a"/>
          <path id="Trazado_628181" data-name="Trazado 628181" d="M619.3,97.142a29.189,29.189,0,0,0,9.5-.783,36.162,36.162,0,0,0-10.7-4.385c2.819-2.453,5.533-5.011,8.2-7.674-3.445.783-6.891,1.514-10.336,2.3L613.3,93.018c1.2,1.618,2.506,3.289,4.437,3.863A7.55,7.55,0,0,0,619.3,97.142Z" transform="translate(-454.252 -66.066)" fill="#ffdb6a"/>
          <path id="Trazado_628182" data-name="Trazado 628182" d="M630.643,84.3l-4.7,8.665-3.445-.992Z" transform="translate(-458.649 -66.066)" fill="#ff8a09"/>
          <path id="Trazado_628183" data-name="Trazado 628183" d="M691.883,82.263c-.783,1.827-1.67,3.758-3.341,4.855-2.558,1.618-6.108.731-8.3-1.357s-3.341-5.011-4.281-7.882c-3.237-.418-6.525-.887-9.762-1.305,1.618-.626,3.236-1.2,4.907-1.827a12.046,12.046,0,0,1,22.238-9.24C695.746,70.778,694.075,76.938,691.883,82.263Z" transform="translate(-479.537 -53.745)" fill="#dbdbdb"/>
          <path id="Trazado_628184" data-name="Trazado 628184" d="M654.637,74.68a104.484,104.484,0,0,0-11.745,7.256c-.835.574.052,1.462.835,1.044a105.751,105.751,0,0,0,12.058-6.891C656.882,75.306,655.681,74.158,654.637,74.68Z" transform="translate(-468.236 -61.405)" fill="#dbdbdb"/>
          <path id="Trazado_628185" data-name="Trazado 628185" d="M652.019,95.286a49.338,49.338,0,0,0-6.212-.052c-.887.052-1.3,1.357-.209,1.357a46.07,46.07,0,0,0,6,0C652.28,96.538,653.01,95.39,652.019,95.286Z" transform="translate(-469.376 -71.258)" fill="#dbdbdb"/>
          <path id="Trazado_628186" data-name="Trazado 628186" d="M664.748,109.834c-3.706-2.714-8.979-3.758-13.468-4.646-.835-.157-1.67,1.1-.626,1.409,4.437,1.253,8.561,3.5,13,4.646C664.331,111.4,665.531,110.408,664.748,109.834Z" transform="translate(-471.874 -76.044)" fill="#dbdbdb"/>
          <path id="Trazado_628187" data-name="Trazado 628187" d="M697.24,80.632a3.347,3.347,0,0,0-2.662,0,19.1,19.1,0,0,1,2.506-6.995c.522-.887-.626-1.618-1.409-1.305-2.349.887-4.8,1.618-7.1,2.662-.626.313-.679,1.409.209,1.253,1.566-.261,3.132-.679,4.7-1.044a19.24,19.24,0,0,0-1.931,8.926c.052,2.506,1.723,6.369,4.7,3.863C697.553,86.9,699.693,81.52,697.24,80.632Z" transform="translate(-490.01 -60.311)" fill="#47120e"/>
        </g>
      </g>
      <g id="Grupo_908143" data-name="Grupo 908143" transform="translate(96.7 128.244)">
        <path id="Trazado_628188" data-name="Trazado 628188" d="M96.7,450.469c43.275,16.235,95.215,17.174,137.968-.1C190.819,436.062,140.079,435.122,96.7,450.469Z" transform="translate(-96.7 -314.623)" fill="#f2e9d6"/>
        <path id="Trazado_628189" data-name="Trazado 628189" d="M112.5,397.6l7.882,31.895c36.436,7.569,71.777,8.143,105.708,0l7.778-31.895Z" transform="translate(-104.252 -294.693)" fill="#b74d06"/>
        <g id="Grupo_908142" data-name="Grupo 908142" transform="translate(2.14 0)">
          <path id="Trazado_628190" data-name="Trazado 628190" d="M127.684,367.6a19,19,0,0,0-14.355.679c2.036,1.462,4.02,2.923,6.055,4.385-4.594.835-9.187,1.67-13.729,2.453,2.036.731,4.02,1.462,6.055,2.192a27.533,27.533,0,0,0-10.91,3.236,59.52,59.52,0,0,0,28.972,18.114l-3.445,2.506a62.393,62.393,0,0,0,30.486,2.819l-1.1,4.385a7.273,7.273,0,0,1,4.646-2.245,7.788,7.788,0,0,1,.1,1.1c1.462-1.775,4.176-2.088,6.316-1.305s3.863,2.453,5.533,4.02a3.622,3.622,0,0,1,1.879-3.654,3.574,3.574,0,0,1,4.072.626c.052-1.044.1-2.14.157-3.184a139.68,139.68,0,0,0,29.128,2.192c-1.723-1.931-3.5-3.863-5.22-5.794a4.921,4.921,0,0,0,2.61,0,1.654,1.654,0,0,0,1.044-2.088,60.048,60.048,0,0,0,27.092-8.665c-2.975-.365-6-.679-8.979-1.044,3.289-2.871,6.63-5.69,9.918-8.561a15.876,15.876,0,0,1-8.039-1.723c2.871-2.036,5.742-4.124,8.613-6.16-11.536-5.429-24.952-4.072-37.585-2.506l-49.33,5.951Z" transform="translate(-100.8 -279.832)" fill="#e87e16"/>
          <path id="Trazado_628191" data-name="Trazado 628191" d="M280.9,277.272a35.659,35.659,0,0,1,4.75-10.075c.679-.992,1.879-2.14,2.975-1.566a2.805,2.805,0,0,1,1.044,1.67,42.4,42.4,0,0,1,1.2,5.69c.626-3.967,1.357-8.143,3.706-11.432.887-1.253,2.3-2.453,3.811-2.192,1.931.365,2.662,2.662,2.975,4.594a53.2,53.2,0,0,1-.052,16.026,39.964,39.964,0,0,1,3.028-7.465c.418-.731,1.044-1.566,1.879-1.357.626.157.887.887,1.044,1.462a29.375,29.375,0,0,1,.47,13.468,5.958,5.958,0,0,1,1.044-2.506,2.053,2.053,0,0,1,2.453-.626,2.949,2.949,0,0,1,1.1,2.3,45.52,45.52,0,0,1-11.745,35.706,47.5,47.5,0,0,0,3.863-20.15,34.976,34.976,0,0,0-1.723-11.641,17.564,17.564,0,0,0-7.1-9.187,11.837,11.837,0,0,0-11.328-.731Z" transform="translate(-186.886 -228.602)" fill="#9b9a9a"/>
          <path id="Trazado_628192" data-name="Trazado 628192" d="M258.549,289.241a14.852,14.852,0,0,0,2.4-4.594c.626-1.618,3.758-6.108,5.481-6.055,2.036.1,2.558,2.61,2.662,5.011,1.566-3.289,3.132-6.63,4.7-9.918.679-1.409,1.827-3.132,3.393-2.819,1.2.209,1.879,1.514,2.245,2.714a27.907,27.907,0,0,1,1.148,11.171c.1-3.184,2.088-7.2,4.542-6.891,3.341,1.618,3.236,9.031,2.453,14.3,1.044-2.558,1.2-8.248,3.08-7.674,3.289,1.148,3.5,6.891,3.237,10.806-.47,8.352-1.67,16.809-4.959,24.535-3.341,7.726-8.979,14.721-16.7,18.375s-17.54,3.445-24.326-1.618Z" transform="translate(-171.112 -234.098)" fill="#b7b6b6"/>
          <path id="Trazado_628193" data-name="Trazado 628193" d="M145.887,332.242A17.137,17.137,0,0,0,151,339.393c2.558,2.14,4.907,2.662,8.091,2.975,4.176.418,8.091,2.14,12.163,3.08a79.084,79.084,0,0,0,28.241,1.357c6.108-.835,12.267-2.192,17.8-4.959s10.492-6.995,13.259-12.476a23.993,23.993,0,0,0,.052-21.35c-3.6-7.152-10.545-11.954-16.182-17.7-5.377-5.481-10.127-12.267-17.435-14.616-5.325-1.723-11.275-.731-16.287,1.723-12.32,6-24.013,16.026-31.008,28.032C145.313,312.823,142.651,323.785,145.887,332.242Z" transform="translate(-121.666 -236.017)" fill="#b7b6b6"/>
          <path id="Trazado_628194" data-name="Trazado 628194" d="M219.861,264.379a12.7,12.7,0,0,0,5.325,3.445c2.088.47,4.646-.522,5.116-2.61.47-2.14-1.305-4.02-2.819-5.69-8.2-9.083-9.292-22.238-13.468-33.722-.887-2.506-2.088-5.064-4.228-6.63-3.863-2.767-10.231-2.506-13.52.887s-5.168,7.621-6.473,13.677c-2.245,10.492-6.682,20.411-13.886,28.136-.992,1.044-1.305,3.184,0,3.863.731.418,3.55.052,4.333-.365a21.247,21.247,0,0,0,7.621-6.473,15.513,15.513,0,0,0-1.931,11.38c.261,1.1.835,2.349,1.931,2.506a2.88,2.88,0,0,0,2.3-1.253,20.509,20.509,0,0,0,4.228-7.2,11.215,11.215,0,0,1,.261,4.75,7.972,7.972,0,0,0,.574,4.7c.731,1.409,2.61,2.4,4.019,1.618a4.511,4.511,0,0,0,1.775-2.975,62.372,62.372,0,0,0,2.14-12.789,31.981,31.981,0,0,0,3.341,9.709,4.157,4.157,0,0,0,2.349,2.349,3.016,3.016,0,0,0,3.236-2.14,8.7,8.7,0,0,0,.052-4.176,6.5,6.5,0,0,0,2.975,5.377,4.749,4.749,0,0,0,5.847-.887A3.762,3.762,0,0,0,219.861,264.379Z" transform="translate(-136.287 -208.506)" fill="#dbdbdb"/>
          <path id="Trazado_628195" data-name="Trazado 628195" d="M212.9,213.064c-.522.418-1.1.887-1.723.783s-.992-.783-1.253-1.409a10.076,10.076,0,0,1-.313-5.951,4.16,4.16,0,0,1,1.618-2.662,2.6,2.6,0,0,1,2.975.209,2.727,2.727,0,0,1,.835,2.871,9.369,9.369,0,0,1,4.646-5.794c1.305-.679,3.08-1.044,4.124.052a2.84,2.84,0,0,1,.679,2.245,6.883,6.883,0,0,1-.679,2.3,7.686,7.686,0,0,1,5.69-2.036,7.563,7.563,0,0,1,5.325,2.871,4.989,4.989,0,0,1,1.044,2.4,4.406,4.406,0,0,1-2.714,4.02,13.565,13.565,0,0,1-5.011.94,8.675,8.675,0,0,0-7.36-3.863A12.272,12.272,0,0,0,212.9,213.064Z" transform="translate(-152.664 -200.465)" fill="#ef3a27"/>
          <path id="Trazado_628196" data-name="Trazado 628196" d="M232.229,244.594c-.887,1.67-2.3,3.289-4.176,3.6a5.314,5.314,0,0,1-4.019-1.044,12.391,12.391,0,0,1-2.819-3.132c-.887.418-1.827.835-2.714,1.2.418-.47.887-.94,1.305-1.357a8.932,8.932,0,0,1,.783-6.838,7.815,7.815,0,0,1,5.586-3.863,6.69,6.69,0,0,1,6.16,2.662C234.108,238.382,233.691,241.88,232.229,244.594Z" transform="translate(-157.059 -216.074)" fill="#ef3a27"/>
          <path id="Trazado_628197" data-name="Trazado 628197" d="M204.943,264.791a8.854,8.854,0,0,0-2.767,7.1c.052.887.47,1.879,1.357,1.931a1.893,1.893,0,0,0,1.305-.679,11.609,11.609,0,0,0,2.871-4.646,15,15,0,0,0,2.14,8.143c.522.887,1.462,1.827,2.453,1.566.992-.209,1.357-1.357,1.514-2.349a20.181,20.181,0,0,0-1.566-10.649,6.623,6.623,0,0,0-2.453-3.341c-1.2-.679-3.08-.418-3.6.887Z" transform="translate(-149.244 -229.642)" fill="#ef3a27"/>
          <path id="Trazado_628198" data-name="Trazado 628198" d="M202.868,257c-.626.313-10.023-.992-13.468-3.08,2.923-2.3,10.753-6.316,11.432-6.316.992.052,3.028,2.14,4.333,3.863C205.165,253.342,203.755,256.474,202.868,257Z" transform="translate(-143.15 -222.995)" fill="#ffbc36"/>
          <path id="Trazado_628199" data-name="Trazado 628199" d="M189.9,257.282c4.855,0,10.179.887,14.408-2.088.679-.47,1.67.626.94.94a28.263,28.263,0,0,1-15.295,1.566C189.694,257.648,189.538,257.282,189.9,257.282Z" transform="translate(-143.287 -226.57)" fill="#ff8a09"/>
          <path id="Trazado_628200" data-name="Trazado 628200" d="M165.347,371.4c-1.148-2.349-3.184-4.228-4.542-6.473a26.5,26.5,0,0,1-2.975-8.091,26.234,26.234,0,0,1,0-9.031c.47-3.028,2.245-5.742,2.662-8.718.052-.418-.47-.418-.679-.209-4.333,4.02-4.8,12.215-4.072,17.644.679,5.22,3.706,13.155,8.822,15.556C164.877,372.283,165.556,371.866,165.347,371.4Z" transform="translate(-126.927 -266.558)" fill="#9b9a9a"/>
          <path id="Trazado_628201" data-name="Trazado 628201" d="M278.291,329.843c-.365-.679-1.514,0-1.253.679,2.4,7.047,3.706,13.781,2.453,21.246a37.981,37.981,0,0,1-3.028,9.4c-1.409,3.08-3.706,5.481-5.325,8.4-.313.626.574.679.887.418,5.22-4.072,8.039-12.059,9.24-18.323C282.676,344.511,281.841,336.263,278.291,329.843Z" transform="translate(-182.189 -262.172)" fill="#9b9a9a"/>
          <path id="Trazado_628202" data-name="Trazado 628202" d="M291.279,310.869c-.209-.157-.679.261-.418.47,6.734,5.638,11.014,13.52,10.806,22.394-.209,9.135-5.377,16.026-12.215,21.455-.679.574.052,1.3.731.94,7.726-4.02,12.476-13.259,13-21.664A26.507,26.507,0,0,0,291.279,310.869Z" transform="translate(-190.844 -253.22)" fill="#9b9a9a"/>
          <path id="Trazado_628203" data-name="Trazado 628203" d="M230.134,240.178c-2.088,1.1-3.08,3.5-3.341,5.951-.1.835.94.574,1.2.052.887-1.984,2.819-6.577,5.064-3.236.418.626,1.409.157,1.357-.626C234.31,239.969,231.7,239.342,230.134,240.178Z" transform="translate(-161.02 -219.279)" fill="#662320"/>
          <path id="Trazado_628204" data-name="Trazado 628204" d="M232.309,251.6a4.03,4.03,0,0,0-.783.1.837.837,0,0,0-.731.574c-.052.313.261.522.522.522a7.732,7.732,0,0,0,.992-.157.671.671,0,0,0,.522-.522C232.883,251.757,232.57,251.6,232.309,251.6Z" transform="translate(-162.933 -224.907)" fill="#662320"/>
          <path id="Trazado_628205" data-name="Trazado 628205" d="M301.62,279.733c-.261-.731-1.305-.522-1.827-.313-2.871,1.2-3.341,4.124-3.393,6.891,0,1.044,1.462.835,1.775.052v.313c0,1.514,2.558.835,2.871-.209C301.829,284.274,302.455,282.082,301.62,279.733Z" transform="translate(-194.294 -238.11)" fill="#dbdbdb"/>
          <path id="Trazado_628206" data-name="Trazado 628206" d="M319.144,295.169a1.535,1.535,0,0,0-2.349,1.253c0,.992-.157,1.984-.1,2.975a.441.441,0,0,0,.1.313.667.667,0,0,0,.1.626c0,.052.052.052.052.1a1.241,1.241,0,0,0,1.357.418C320.658,300.441,320.814,296.422,319.144,295.169Z" transform="translate(-203.988 -245.612)" fill="#dbdbdb"/>
          <path id="Trazado_628207" data-name="Trazado 628207" d="M308.258,301.513a1.611,1.611,0,0,0-1.984-.783,2.065,2.065,0,0,0-1.566,1.67v.418a.821.821,0,0,0,.052,1.148,1.3,1.3,0,0,0,1.357.209,2.009,2.009,0,0,0,1.409-.47A1.956,1.956,0,0,0,308.258,301.513Z" transform="translate(-198.166 -248.354)" fill="#dbdbdb"/>
          <path id="Trazado_628208" data-name="Trazado 628208" d="M281.73,290.713a1.09,1.09,0,0,0-1.148-.522,1.863,1.863,0,0,0-1.2.574c-.365.157-.679.418-.679.783,0,.052-.1.313-.1.418,0,.052-.052.157-.052.209.052-.209-.052.1-.052.1-.47.94.574,1.67,1.462,1.357C280.947,293.219,282.252,291.966,281.73,290.713Z" transform="translate(-185.679 -243.348)" fill="#dbdbdb"/>
          <path id="Trazado_628209" data-name="Trazado 628209" d="M294.389,298.046a1.532,1.532,0,0,0-2.245.679,1.412,1.412,0,0,0-.157.783c.052.47.522.626.94.626a2.5,2.5,0,0,0,.887-.261C294.441,299.559,294.963,298.62,294.389,298.046Z" transform="translate(-192.179 -246.975)" fill="#dbdbdb"/>
          <path id="Trazado_628210" data-name="Trazado 628210" d="M328.994,307.7a2.077,2.077,0,0,0-1.827,1.462,4.03,4.03,0,0,0-.1.783,32.292,32.292,0,0,0-.365,3.236A1.145,1.145,0,0,0,328,314.431a1.945,1.945,0,0,0,1.775-1.462,8.378,8.378,0,0,0,.261-1.514l.313-2.506A1.163,1.163,0,0,0,328.994,307.7Z" transform="translate(-208.774 -251.719)" fill="#dbdbdb"/>
          <path id="Trazado_628211" data-name="Trazado 628211" d="M320.006,312.066c-.679-1.305-3.184-.209-2.923,1.2a1.823,1.823,0,0,0,.418,1.253,1.339,1.339,0,0,0,1.514.052,1.671,1.671,0,0,0,.992-.887A1.627,1.627,0,0,0,320.006,312.066Z" transform="translate(-204.171 -253.53)" fill="#dbdbdb"/>
          <path id="Trazado_628212" data-name="Trazado 628212" d="M327.049,330.426c0-.47-.574-.626-.94-.626a1.4,1.4,0,0,0-1.253.992,5.577,5.577,0,0,0-.157,1.305c0,.47.574.679.94.679a1.4,1.4,0,0,0,1.253-1.044A3.591,3.591,0,0,0,327.049,330.426Z" transform="translate(-207.821 -262.286)" fill="#dbdbdb"/>
          <path id="Trazado_628213" data-name="Trazado 628213" d="M312.553,266.605a2.315,2.315,0,0,0-3.028.313.544.544,0,0,0,.209.94v.157a1.2,1.2,0,0,0,.209.731,1.139,1.139,0,0,0,.209.261,5.859,5.859,0,0,1,.418,1.357c.261,1.514,2.662.731,2.767-.47C313.492,268.693,313.545,267.44,312.553,266.605Z" transform="translate(-200.477 -231.873)" fill="#b7b6b6"/>
          <path id="Trazado_628214" data-name="Trazado 628214" d="M187.6,296.236a1.339,1.339,0,0,0-1.514-.1,1.738,1.738,0,0,0-.522.313c-.209.157-.365.313-.574.47a5,5,0,0,0-.94.887h0a.963.963,0,0,0-.261.835,1.049,1.049,0,0,0,1.409.679,7.046,7.046,0,0,0,1.357-.783,7.633,7.633,0,0,0,.992-.835A1.059,1.059,0,0,0,187.6,296.236Z" transform="translate(-140.461 -246.104)" fill="#b7b6b6"/>
          <path id="Trazado_628215" data-name="Trazado 628215" d="M204.393,300.718a1.569,1.569,0,0,0-2.61.47,3.974,3.974,0,0,0-.157,1.1,4.207,4.207,0,0,0-.835,3.08c0,.418.47.731.835.783a1.889,1.889,0,0,0,1.67-.679,6.342,6.342,0,0,0,1.148-2.3A3.086,3.086,0,0,0,204.393,300.718Z" transform="translate(-148.59 -248.133)" fill="#b7b6b6"/>
          <path id="Trazado_628216" data-name="Trazado 628216" d="M218.693,310.855c-.052-.1-.157-.157-.261-.261a.456.456,0,0,0-.313-.47.994.994,0,0,0-1.2.365,1.485,1.485,0,0,0-.209,1.462.777.777,0,0,0,.783.365,1.553,1.553,0,0,0,1.044-.522A.8.8,0,0,0,218.693,310.855Z" transform="translate(-156.156 -252.841)" fill="#b7b6b6"/>
          <path id="Trazado_628217" data-name="Trazado 628217" d="M215.453,297.421a1.233,1.233,0,0,0-1.2.209.915.915,0,0,0-.313,1.044v.261h0a5.067,5.067,0,0,0-.052.887.948.948,0,0,0,1.1.731,1.617,1.617,0,0,0,.47-3.132Z" transform="translate(-154.847 -246.767)" fill="#b7b6b6"/>
          <path id="Trazado_628218" data-name="Trazado 628218" d="M239.715,303.531a3.2,3.2,0,0,0-.574-1.2,1.723,1.723,0,0,0-1.514-.731,1.577,1.577,0,0,0-.835.261,1.687,1.687,0,0,0-.626.574c-.835,1.462-.1,3.393.835,4.542.679.835,2.4.052,2.662-.783A4.217,4.217,0,0,0,239.715,303.531Z" transform="translate(-165.328 -248.806)" fill="#b7b6b6"/>
          <path id="Trazado_628219" data-name="Trazado 628219" d="M244.962,292.025a1.15,1.15,0,0,0-.626-.835c-.157-.1-.418-.157-.626-.261-.731-.313-1.775.365-1.462,1.2a1.5,1.5,0,0,0,.835,1.1,1.286,1.286,0,0,0,1.148-.1C244.649,292.965,245.119,292.443,244.962,292.025Z" transform="translate(-168.383 -243.668)" fill="#b7b6b6"/>
          <path id="Trazado_628220" data-name="Trazado 628220" d="M254.165,304.209a2.266,2.266,0,0,0-.209-.365c-.052-.052-.209-.418-.209-.313a1.113,1.113,0,0,0-1.253-.835,1.836,1.836,0,0,0-1.67,1.357v.1a2.181,2.181,0,0,0-.574.783,2.461,2.461,0,0,0-.052,1.618,1.978,1.978,0,0,0,2.453,1.044,2.415,2.415,0,0,0,1.775-2.4A2.341,2.341,0,0,0,254.165,304.209Z" transform="translate(-172.157 -249.327)" fill="#b7b6b6"/>
          <path id="Trazado_628221" data-name="Trazado 628221" d="M266.669,298.675a1.784,1.784,0,0,0-1.514.47,1.414,1.414,0,0,0-.574,1.305c.052.157.052.313.1.522a2.55,2.55,0,0,0,.157.365.638.638,0,0,0,.209.47.051.051,0,0,0,.052.052c0,.052.052.1.052.157a.984.984,0,0,0,1.253.365,2.178,2.178,0,0,0,1.618-1.827A1.8,1.8,0,0,0,266.669,298.675Z" transform="translate(-179.076 -247.396)" fill="#b7b6b6"/>
          <path id="Trazado_628222" data-name="Trazado 628222" d="M183.247,315.218a3.966,3.966,0,0,0-1.931,1.357c-.157.157-.261.313-.418.47a7.453,7.453,0,0,0-.783,1.409,1.676,1.676,0,0,0,.1,1.775,1.608,1.608,0,0,0,2.14.365,5.905,5.905,0,0,0,2.767-4.072A1.336,1.336,0,0,0,183.247,315.218Z" transform="translate(-138.614 -255.273)" fill="#dbdbdb"/>
          <path id="Trazado_628223" data-name="Trazado 628223" d="M204.315,328.184c-.1-.679-.783-.887-1.409-.731-.052-.052-.052-.1-.1-.157-.157-.313-.626-.365-.94-.313a1.006,1.006,0,0,0-.783.992,11.759,11.759,0,0,1,0,1.357c-.052.157-.052.313-.1.47-.157.574.365,1.044.887,1.148a1.889,1.889,0,0,0,1.67-.679A2.636,2.636,0,0,0,204.315,328.184Z" transform="translate(-148.669 -260.931)" fill="#dbdbdb"/>
          <path id="Trazado_628224" data-name="Trazado 628224" d="M236.106,324.177a1.081,1.081,0,0,0-.94-.679.965.965,0,0,0-1.1.157c-.835.313-1.514,1.1-1.305,1.827a.968.968,0,0,1,.1.365h0a.051.051,0,0,0,.052.052c.052.1.1.261.157.365a3.846,3.846,0,0,1,.209.731,9.933,9.933,0,0,0,.261,2.088c.365,1.775,3.08.835,3.289-.574A7.964,7.964,0,0,0,236.106,324.177Z" transform="translate(-163.859 -259.22)" fill="#dbdbdb"/>
          <path id="Trazado_628225" data-name="Trazado 628225" d="M253.575,325.869a1.341,1.341,0,0,0-1.044-1.044h-.365c.209,0,.261,0,.1-.052-.1-.052-.261-.052-.365-.1-.679-.209-1.775.574-1.618,1.305,0,.1.052.157.052.261s.052.365.052,0a1.2,1.2,0,0,0,.783,1.253,1.92,1.92,0,0,0,1.514-.1C253.105,327.122,253.731,326.5,253.575,325.869Z" transform="translate(-172.245 -259.817)" fill="#dbdbdb"/>
          <path id="Trazado_628226" data-name="Trazado 628226" d="M265.314,320.825a.726.726,0,0,0,.783,1.044h0l.1.1v.157h0c-.1.835.574,1.305,1.357,1.253a1.9,1.9,0,0,0,1.775-1.462C269.7,319.624,266.253,319,265.314,320.825Z" transform="translate(-179.391 -257.487)" fill="#dbdbdb"/>
          <path id="Trazado_628227" data-name="Trazado 628227" d="M173.551,315.8a1.055,1.055,0,0,0-1.044-.157,4.5,4.5,0,0,0-2.088,1.462,2.83,2.83,0,0,0-.835,2.245c.157,1.2,1.879.835,2.349.1a14.057,14.057,0,0,0,.835-1.514c-.052.1-.052.052.052-.1.1-.1.157-.261.261-.365a7.47,7.47,0,0,0,.574-.783A.711.711,0,0,0,173.551,315.8Z" transform="translate(-133.669 -255.486)" fill="#dbdbdb"/>
          <path id="Trazado_628228" data-name="Trazado 628228" d="M288.706,315.076a2.039,2.039,0,0,0-1.723,1.148,1.128,1.128,0,0,0,.313,1.409c0,.052.052.052.052.1s.052.1.052.157h0a1.1,1.1,0,0,0,.887.574,2.32,2.32,0,0,0,1.931-.783A1.612,1.612,0,0,0,288.706,315.076Z" transform="translate(-189.732 -255.235)" fill="#dbdbdb"/>
          <path id="Trazado_628229" data-name="Trazado 628229" d="M177.95,386.819c-.418-.94-1.67-.731-2.453-.052-.626,0-1.409.574-1.305,1.2a7.693,7.693,0,0,0,2.453,4.437,1.749,1.749,0,0,0,2.662-1.1A6.237,6.237,0,0,0,177.95,386.819Z" transform="translate(-135.876 -289.237)" fill="#9b9a9a"/>
          <path id="Trazado_628230" data-name="Trazado 628230" d="M197.175,397.4a3.191,3.191,0,0,0-.679-1.148,1.233,1.233,0,0,0-1.2-.209c-.157.052-.261.1-.418.157a1.241,1.241,0,0,0-.887.94,3.87,3.87,0,0,0,.418,2.036,1.14,1.14,0,0,0,.157.261,1.29,1.29,0,0,0,1.514.47,1.676,1.676,0,0,0,1.253-1.618A1.992,1.992,0,0,0,197.175,397.4Z" transform="translate(-145.339 -293.919)" fill="#9b9a9a"/>
          <path id="Trazado_628231" data-name="Trazado 628231" d="M194.278,377.287v-.313a.754.754,0,0,0-.835-.574,1.3,1.3,0,0,0-1.1.887c0,.1-.052.261-.052.365a2.592,2.592,0,0,0-.365,2.61h0a1.007,1.007,0,0,0,.731.522,1.756,1.756,0,0,0,1.775-.94,3.685,3.685,0,0,0,.313-1.462A1.16,1.16,0,0,0,194.278,377.287Z" transform="translate(-144.269 -284.56)" fill="#9b9a9a"/>
          <path id="Trazado_628232" data-name="Trazado 628232" d="M211.722,400.866a1.3,1.3,0,0,0-1.775-.835,1.681,1.681,0,0,0-1.357,1.723.47.47,0,0,0,.052.261c0,.052-.052.1-.052.157a1.5,1.5,0,0,0,.157.835c0,.052.052.052.052.1a.9.9,0,0,1,.157.209,1.407,1.407,0,0,0,.418.365,1.615,1.615,0,0,0,1.462-.1,1.551,1.551,0,0,0,.887-1.148A3.955,3.955,0,0,0,211.722,400.866Z" transform="translate(-152.317 -295.819)" fill="#9b9a9a"/>
          <path id="Trazado_628233" data-name="Trazado 628233" d="M212.411,380.982a1.028,1.028,0,0,0-.783-.522h-.052a1.893,1.893,0,0,0-1.984,1.044,1.106,1.106,0,0,0,0,.992,1.182,1.182,0,0,0,.783.522h.052a1.969,1.969,0,0,0,1.984-1.044A1.1,1.1,0,0,0,212.411,380.982Z" transform="translate(-152.745 -286.48)" fill="#9b9a9a"/>
          <path id="Trazado_628234" data-name="Trazado 628234" d="M226.833,396.734c-.052-.679-.835-.992-1.409-.94a2.25,2.25,0,0,0-1.775,1.2c-.626,1.044-1.1,2.871-.261,3.915,0,.052.052.052.052.1a1.544,1.544,0,0,1,.1.522c-.1,1.723,2.192,1.2,2.767.1A9.865,9.865,0,0,0,226.833,396.734Z" transform="translate(-159.181 -293.828)" fill="#9b9a9a"/>
          <path id="Trazado_628235" data-name="Trazado 628235" d="M235.225,382.865a.79.79,0,0,0-.731-.365,1.285,1.285,0,0,0-.574.209c-.626,0-1.305.574-.992,1.2.209.522.887.574,1.357.47a1.408,1.408,0,0,0,.783-.574A.871.871,0,0,0,235.225,382.865Z" transform="translate(-163.918 -287.476)" fill="#9b9a9a"/>
          <path id="Trazado_628236" data-name="Trazado 628236" d="M244.585,395.121c-.157-1.357-1.984-1.044-2.662-.47a4,4,0,0,0-1.462,2.3,3.06,3.06,0,0,0-.052,1.2,4,4,0,0,0-.209,1.409c0,.418.47.731.887.835a1.755,1.755,0,0,0,1.409-.418A5.326,5.326,0,0,0,244.585,395.121Z" transform="translate(-167.432 -293.049)" fill="#9b9a9a"/>
          <path id="Trazado_628237" data-name="Trazado 628237" d="M258.053,378.9a1.851,1.851,0,0,0-2.349.992,7.377,7.377,0,0,0-.313,1.148h0a.951.951,0,0,0,.574,1.044,1.845,1.845,0,0,0,2.245-.94,7.454,7.454,0,0,0,.418-1.148A1.051,1.051,0,0,0,258.053,378.9Z" transform="translate(-174.688 -285.702)" fill="#9b9a9a"/>
          <path id="Trazado_628238" data-name="Trazado 628238" d="M262.615,395.081c.052-1.462-1.618-1.462-2.506-.783a4.045,4.045,0,0,0-1.462,2.245c-.052.157-.052.365-.1.574a1,1,0,0,0-.261.522,1.161,1.161,0,0,0,.157.835.95.95,0,0,0,.835.418c.052,0,.052.052.1.052a1.814,1.814,0,0,0,2.453-1.723A3.818,3.818,0,0,0,262.615,395.081Z" transform="translate(-176.065 -292.905)" fill="#9b9a9a"/>
          <path id="Trazado_628239" data-name="Trazado 628239" d="M270.763,380.218c-.365-.418-1.253-.1-1.514.261a1.308,1.308,0,0,0-.261.992.712.712,0,0,0,.835.574,1.345,1.345,0,0,0,1.148-.94A.8.8,0,0,0,270.763,380.218Z" transform="translate(-181.185 -286.289)" fill="#9b9a9a"/>
          <path id="Trazado_628240" data-name="Trazado 628240" d="M225.244,371.381a1.157,1.157,0,0,0-1.2.626c-.313.522-.731,1.044-.574,1.67a.656.656,0,0,0,1.044.313,2.278,2.278,0,0,0,.887-.835c.1-.313.261-.574.365-.887A.65.65,0,0,0,225.244,371.381Z" transform="translate(-159.418 -282.151)" fill="#9b9a9a"/>
          <path id="Trazado_628241" data-name="Trazado 628241" d="M198.659,398.363a61.555,61.555,0,0,1,16.6-10.6,33.058,33.058,0,0,0-3.706,8.457c1.1-.731,2.245-1.409,3.341-2.14,7.726-2.61,15.4-5.168,23.125-7.778a24.783,24.783,0,0,1-8.248,13.52,39.065,39.065,0,0,1-14.147,7.569,51.42,51.42,0,0,1-30.851.313,43.782,43.782,0,0,1-24.274-18.74,23.645,23.645,0,0,1,11.275,5.533c.052-3.184.1-6.316.1-9.5,4.646,3.915,9.24,7.83,13.886,11.745.418-1.409.835-2.871,1.253-4.281.783,1.2,1.566,2.349,2.349,3.55a14.189,14.189,0,0,1,6.473-6.264C196.728,392.621,197.719,395.492,198.659,398.363Z" transform="translate(-129.336 -288.671)" fill="#e87e16"/>
          <path id="Trazado_628242" data-name="Trazado 628242" d="M159.234,365.431a17.831,17.831,0,0,0-4.176-8.77A7.489,7.489,0,0,0,149.943,354c-2.61-.052-4.907,1.879-6.055,4.176a21.614,21.614,0,0,0-1.67,7.569,7.339,7.339,0,0,0-1.357-2.192,2.362,2.362,0,0,0-2.349-.626,1.459,1.459,0,0,0-.731,2.088,5.683,5.683,0,0,0-1.723-1.2,2.325,2.325,0,0,0-2.036.052,2.569,2.569,0,0,0-.783,2.819c.261.992.783,1.931.992,2.975-.47-.1-.94-.157-1.409-.261a9.208,9.208,0,0,0,1.462,8.2,13.673,13.673,0,0,0,7.1,4.75,23.823,23.823,0,0,0,8.613.679,18.4,18.4,0,0,0,5.011-1.148c3.028-1.2,4.75-2.819,5.011-6.264A37.1,37.1,0,0,0,159.234,365.431Z" transform="translate(-115.907 -273.852)" fill="#ffdb6a"/>
          <path id="Trazado_628243" data-name="Trazado 628243" d="M163,352.954a4.576,4.576,0,0,0-.887-2.14.929.929,0,0,0-.574-.418c-.365-.052-.731.365-.731.731a2.28,2.28,0,0,0,.365,1.1,4.48,4.48,0,0,0-2.61-1.2c-.47-.052-1.1,0-1.305.47-.209.522.313,1.044.783,1.305C159.084,353.215,161.955,353.006,163,352.954Z" transform="translate(-127.763 -272.128)" fill="#ffdb6a"/>
          <path id="Trazado_628244" data-name="Trazado 628244" d="M259.559,377.342a18.8,18.8,0,0,0,.418,5.69,8.882,8.882,0,0,0,2.923,4.8c1.879,1.514,4.333,1.931,6.734,2.088a26.128,26.128,0,0,0,11.693-1.618,15.654,15.654,0,0,0,8.509-7.935,3.754,3.754,0,0,0,.418-1.827,1.717,1.717,0,0,0-.94-1.514,1.127,1.127,0,0,0-1.514.731c.679-.47,1.462-.94,1.67-1.775.209-.783-.574-1.827-1.357-1.514,1.148-1.044,1.931-2.819,1.044-4.124a3,3,0,0,0-3.758-.679,8.549,8.549,0,0,0-2.923,2.871,1.376,1.376,0,0,0,.157-2.036,2.229,2.229,0,0,0-2.192-.418,6.752,6.752,0,0,0-2.036,1.2,20.839,20.839,0,0,0-.94-6.212,7.583,7.583,0,0,0-4.019-4.646c-2.506-.992-5.429-.052-7.569,1.618a15.578,15.578,0,0,0-4.855,6.943A30.171,30.171,0,0,0,259.559,377.342Z" transform="translate(-176.663 -276.732)" fill="#ffdb6a"/>
          <path id="Trazado_628245" data-name="Trazado 628245" d="M180.175,369.764a6.89,6.89,0,0,1-1.514-5.064l6.055.157A20.338,20.338,0,0,1,180.175,369.764Z" transform="translate(-137.997 -278.967)" fill="#ffbc36"/>
          <path id="Trazado_628246" data-name="Trazado 628246" d="M261.017,373.141c-.626-.313-.418-1.357-.835-1.931a2,2,0,0,0-.94-.626c-1.566-.679-3.132-1.305-4.75-1.984a25.615,25.615,0,0,0,3.758,4.437c-1.618.887-3.184,1.827-4.75,2.871a36.235,36.235,0,0,0,6.264-.522C260.182,374.655,260.6,373.924,261.017,373.141Z" transform="translate(-173.789 -280.832)" fill="#ffbc36"/>
          <path id="Trazado_628247" data-name="Trazado 628247" d="M287.255,381.479a10.558,10.558,0,0,0-3.55,2.923,12.565,12.565,0,0,0-2.819,4.176c-.1.418.365.574.679.313,1.1-1.1,1.984-2.453,3.028-3.6.992-1.1,2.453-2.036,3.184-3.289C287.986,381.635,287.568,381.374,287.255,381.479Z" transform="translate(-186.872 -286.976)" fill="#ffbc36"/>
          <path id="Trazado_628248" data-name="Trazado 628248" d="M296.571,387.429a1.914,1.914,0,0,0-1.723-.94,3.838,3.838,0,0,0,.887-3.811c-.209-.679-1.2-.261-1.2.313.052,1.566-.1,2.871-1.462,3.915-.313.261-.209.783.261.731,2.767,1.305,2.871,2.714.313,4.281a12.126,12.126,0,0,1-4.019,1.1,25.68,25.68,0,0,1-6.63-.261c-.418-.052-1.148.626-.522.887,3.6,1.409,10.753,1.514,13.468-1.879A3.578,3.578,0,0,0,296.571,387.429Z" transform="translate(-187.523 -287.394)" fill="#ffbc36"/>
          <path id="Trazado_628249" data-name="Trazado 628249" d="M297.5,392.163a20.884,20.884,0,0,1-2.871,1.879c-.522.261-.313,1.044.261.835a9.03,9.03,0,0,0,3.341-1.984C298.854,392.267,298.071,391.745,297.5,392.163Z" transform="translate(-193.304 -292.022)" fill="#ffbc36"/>
          <path id="Trazado_628250" data-name="Trazado 628250" d="M295.631,384.214a9.071,9.071,0,0,0-.783.679l-.731.783c-.313.365.261.626.574.365.261-.209.47-.47.731-.679.261-.261.47-.522.731-.835C296.362,384.162,295.892,384.006,295.631,384.214Z" transform="translate(-193.16 -288.25)" fill="#ffbc36"/>
          <path id="Trazado_628251" data-name="Trazado 628251" d="M150.443,381.38a7.22,7.22,0,0,0-5.951-.783c-2.088.783-1.253,3.5.835,3.445.261,0,.783-.418.418-.679-.313-.261-.679-.418-.887-.783-.731-1.1,1.253-1.044,1.566-1.044a6.316,6.316,0,0,1,3.236.626C150.078,382.424,150.913,381.693,150.443,381.38Z" transform="translate(-121.106 -286.408)" fill="#ffbc36"/>
          <path id="Trazado_628252" data-name="Trazado 628252" d="M143.236,389.935a5.6,5.6,0,0,1-2.506-1.357c-1.148-1.2.835-2.192,1.827-2.192.209,0,.574-.365.313-.522-1.044-.835-3.289.522-3.5,1.723-.313,1.723,1.931,3.028,3.393,3.132C143.079,390.718,143.758,390.144,143.236,389.935Z" transform="translate(-119.223 -288.96)" fill="#ffbc36"/>
          <path id="Trazado_628253" data-name="Trazado 628253" d="M155.22,389.29c-.261-.313-.783.052-.835.365a19.812,19.812,0,0,1-.313,2.088c-.418,1.3-1.984,2.036-3.132,2.453-1.827.679-6.682.887-6.264-2.192.052-.522-.626-.418-.835-.157-2.662,3.237,4.124,4.124,5.9,3.758C151.931,395.189,157.621,392.422,155.22,389.29Z" transform="translate(-121.08 -290.664)" fill="#ffbc36"/>
          <path id="Trazado_628254" data-name="Trazado 628254" d="M288.608,357.96a1.129,1.129,0,0,1-1.044.783,3.881,3.881,0,0,1-1.357-.157c-1.253-.313-2.453-.626-3.706-.94a3.87,3.87,0,0,1,.418-2.036,1.537,1.537,0,0,1,1.775-.783,14.868,14.868,0,0,1-1.462,2.871,2.823,2.823,0,0,1,1.514-1.148,4.641,4.641,0,0,1,1.879-.209,2.738,2.738,0,0,1,1.462.313A1.241,1.241,0,0,1,288.608,357.96Z" transform="translate(-187.65 -274.211)" fill="#ffdb6a"/>
          <path id="Trazado_628255" data-name="Trazado 628255" d="M167.967,362a1.775,1.775,0,0,0-1.566,1.409,2.712,2.712,0,0,0,.313,2.3v-.052a.587.587,0,0,0,.887-.313c.1-.365-.365-2.4.418-2.192.94.313.835,1.566,1.2,2.3.157.313.731.157.835-.157C170.577,363.771,169.742,361.892,167.967,362Z" transform="translate(-132.105 -277.673)" fill="#662320"/>
          <path id="Trazado_628256" data-name="Trazado 628256" d="M274.711,370.581a4.911,4.911,0,0,0,.887-1.618,2.737,2.737,0,0,0-.1-1.827,1.6,1.6,0,0,0-1.514-.94,2.531,2.531,0,0,0-1.618.992,6.533,6.533,0,0,0-1.148,1.931,3.685,3.685,0,0,0-.313,1.253,1.694,1.694,0,0,0,.418,1.2,1.76,1.76,0,0,0,1.879.313A3.634,3.634,0,0,0,274.711,370.581Z" transform="translate(-182.106 -279.68)" fill="#fff"/>
          <path id="Trazado_628257" data-name="Trazado 628257" d="M275.23,367.636c-.052-.835-1.1-.887-1.618-.47a4.974,4.974,0,0,0-1.775,3.08,1.086,1.086,0,0,0,.1.992c.94,1.2,2.349-.887,2.767-1.67A4.282,4.282,0,0,0,275.23,367.636Z" transform="translate(-182.521 -280.024)" fill="#662320"/>
          <path id="Trazado_628258" data-name="Trazado 628258" d="M273.227,409.833a16.689,16.689,0,0,1,7.882-3.08c-.574,1.409-1.1,2.819-1.67,4.228a39.079,39.079,0,0,1,9.448-4.437,7.456,7.456,0,0,1-2.662,4.959,14.1,14.1,0,0,1-5.116,2.662,24.879,24.879,0,0,1-16.391-.574c-.626-.261-1.305-.574-1.514-1.148a2.986,2.986,0,0,1-.052-1.357c.313-2.245.679-4.542.992-6.786,1.253,1.984,2.453,3.915,3.706,5.9.209.365.522.783.992.783a1.216,1.216,0,0,0,.783-.365c1.514-1.2,3.08-2.349,4.594-3.55A2.811,2.811,0,0,1,273.227,409.833Z" transform="translate(-178.377 -297.896)" fill="#e87e16"/>
          <path id="Trazado_628259" data-name="Trazado 628259" d="M136.408,391.1a78.526,78.526,0,0,0,3.55,7.308c.209.418.522.835.992.835a1.066,1.066,0,0,0,.679-.418c1.1-1.044,2.192-2.088,3.341-3.08l-.313,1.879c.94-1.253,1.879-2.558,2.819-3.811.157-.209.365-.418.626-.365.157.052.209.209.313.365,1.148,2.4,2.349,4.75,3.5,7.152a7.256,7.256,0,0,1,3.236-4.489c-.574.418-.1,1.462.626,1.566a3.022,3.022,0,0,0,1.984-.731c.887-.626,1.827-1.253,2.714-1.931a2.128,2.128,0,0,1,1.67-.574,1.352,1.352,0,0,1,.887,1.148,3.043,3.043,0,0,1-.313,1.514c-1.253,3.08-4.28,5.168-7.413,6.264a19.352,19.352,0,0,1-19.628-4.7,4.176,4.176,0,0,1-1.148-1.723,3.834,3.834,0,0,1,.1-1.879A17.231,17.231,0,0,1,136.408,391.1Z" transform="translate(-116.885 -291.586)" fill="#e87e16"/>
          <path id="Trazado_628260" data-name="Trazado 628260" d="M178.571,409.394a27.083,27.083,0,0,1-1.514-6.055c-.1-.783-1.357-.261-1.357.365a13.263,13.263,0,0,0,1.879,6.212C177.84,410.438,178.78,409.916,178.571,409.394Z" transform="translate(-136.601 -297.248)" fill="#ce6200"/>
          <path id="Trazado_628261" data-name="Trazado 628261" d="M191.085,407.154a30.883,30.883,0,0,0-4.176-9.031c-.313-.47-1.148,0-.94.522a91.52,91.52,0,0,0,3.915,8.979C190.2,408.2,191.242,407.728,191.085,407.154Z" transform="translate(-141.494 -294.851)" fill="#ce6200"/>
          <path id="Trazado_628262" data-name="Trazado 628262" d="M200.468,408.587c-.418-.783-.887-1.514-1.357-2.245a.731.731,0,0,0-.992-.157,11.939,11.939,0,0,0-3.341,2.714c-.47.574.418.94.835.574a19.456,19.456,0,0,1,2.4-1.827c.313.574.679,1.148,1.044,1.723C199.476,410.048,200.885,409.317,200.468,408.587Z" transform="translate(-145.656 -298.737)" fill="#ce6200"/>
          <path id="Trazado_628263" data-name="Trazado 628263" d="M233.294,409.081c-.157-.679-1.305-.261-1.2.365.157,1.514.47,2.975.731,4.489.1.731,1.357.261,1.253-.365C233.816,412.057,233.608,410.6,233.294,409.081Z" transform="translate(-163.554 -300.015)" fill="#ce6200"/>
          <path id="Trazado_628264" data-name="Trazado 628264" d="M213.442,407.8c-.313.679-.626,1.409-.887,2.088-.313.783.94.835,1.2.209a15.161,15.161,0,0,0,.835-2.14C214.8,407.179,213.7,407.231,213.442,407.8Z" transform="translate(-154.193 -299.365)" fill="#ce6200"/>
          <path id="Trazado_628265" data-name="Trazado 628265" d="M256.648,408.378c-.731-.783-1.409-1.566-2.192-2.3-.313-.313-.835,0-.992.313a27.146,27.146,0,0,0-2.871,6.838c-.1.574.783.418.94.052.887-1.984,1.618-3.967,2.61-5.9.574.522,1.2,1.1,1.827,1.618C256.282,409.265,256.961,408.743,256.648,408.378Z" transform="translate(-172.395 -298.685)" fill="#ce6200"/>
          <path id="Trazado_628266" data-name="Trazado 628266" d="M273.6,419.283a11.415,11.415,0,0,0-1.357-2.14c-.313-.418-1.148,0-.887.47a8.931,8.931,0,0,0,1.462,2.192C273.077,420.223,273.756,419.753,273.6,419.283Z" transform="translate(-182.299 -303.952)" fill="#ce6200"/>
          <path id="Trazado_628267" data-name="Trazado 628267" d="M277.907,415.762a.726.726,0,0,0-.783.209,5.533,5.533,0,0,1-.522.626.393.393,0,0,0,.1.626.726.726,0,0,0,.783-.209,5.531,5.531,0,0,1,.522-.626A.4.4,0,0,0,277.907,415.762Z" transform="translate(-184.78 -303.355)" fill="#ce6200"/>
          <path id="Trazado_628268" data-name="Trazado 628268" d="M293.858,414.266a37.4,37.4,0,0,0-3.654,3.967c-.365.47.313.783.679.47a33.3,33.3,0,0,0,3.811-3.863C295.163,414.266,294.276,413.9,293.858,414.266Z" transform="translate(-191.283 -302.589)" fill="#ce6200"/>
          <path id="Trazado_628269" data-name="Trazado 628269" d="M317.488,407.114c-.1-.679-.992-.418-1.305-.052-.992,1.2-1.984,2.453-2.975,3.654l-.47-3.289c-.1-.574-.992-.209-.94.261.052,1.618.1,3.184.261,4.8.052.679.992.365,1.253.052,1.044-1.2,2.036-2.453,3.028-3.654a3.336,3.336,0,0,0,.418.992c.261.418.887.1.992-.313A8.2,8.2,0,0,0,317.488,407.114Z" transform="translate(-201.653 -299.039)" fill="#ce6200"/>
          <path id="Trazado_628270" data-name="Trazado 628270" d="M132.218,397a8.221,8.221,0,0,0-1.618,3.811c0,.522.679.365.835.052.626-1.148.992-2.453,1.618-3.6C133.314,396.741,132.479,396.636,132.218,397Z" transform="translate(-115.044 -294.304)" fill="#ce6200"/>
          <path id="Trazado_628271" data-name="Trazado 628271" d="M126.667,395.213a43.653,43.653,0,0,1-1.879-4.542c-.157-.522-.835-.418-1.1-.052a14.026,14.026,0,0,0-1.827,2.871c-.209.47.47.679.783.365a10.1,10.1,0,0,0,1.462-1.879c.626,1.148,1.148,2.453,1.775,3.654C126.092,396.048,126.875,395.63,126.667,395.213Z" transform="translate(-110.85 -291.21)" fill="#ce6200"/>
          <path id="Trazado_628272" data-name="Trazado 628272" d="M207.289,426.892c-.052-.157-.261-.157-.365,0a7.544,7.544,0,0,0-1.148,3.184,13.133,13.133,0,0,0-.418,4.28c.052.574.94.209.992-.157.313-1.2.418-2.453.626-3.654C207.132,429.346,207.6,428.093,207.289,426.892Z" transform="translate(-150.755 -308.639)" fill="#ce6200"/>
          <path id="Trazado_628273" data-name="Trazado 628273" d="M163.164,423.195a11.732,11.732,0,0,0-4.7,1.618c-.574.365-.47,1.357.313,1.044a19.392,19.392,0,0,1,4.176-1.305.893.893,0,0,0,.835-.679A.553.553,0,0,0,163.164,423.195Z" transform="translate(-128.19 -306.925)" fill="#ce6200"/>
          <path id="Trazado_628274" data-name="Trazado 628274" d="M238.28,442.146c-.313-.626-.626-1.2-.94-1.775-.313-.626-1.566.052-1.2.626s.679,1.148,1.044,1.723C237.5,443.294,238.541,442.772,238.28,442.146Z" transform="translate(-165.459 -315.018)" fill="#ce6200"/>
          <path id="Trazado_628275" data-name="Trazado 628275" d="M248.156,434.987c-.365-.783-.731-1.514-1.1-2.245-.365-.679-1.618,0-1.305.679.365.731.731,1.514,1.148,2.245C247.268,436.292,248.469,435.666,248.156,434.987Z" transform="translate(-170.063 -311.357)" fill="#ce6200"/>
          <path id="Trazado_628276" data-name="Trazado 628276" d="M337.263,384.771c-1.827.47-3.6,1.1-5.377,1.618-.626.209-.626,1.148.157.94,1.775-.522,3.6-.992,5.377-1.618C338.046,385.45,338.046,384.562,337.263,384.771Z" transform="translate(-211.04 -288.546)" fill="#ce6200"/>
          <path id="Trazado_628277" data-name="Trazado 628277" d="M337.258,389.764c-.679.261-1.357.574-2.036.887-.261.1-.522.522-.365.783.157.313.574.261.887.157a20.045,20.045,0,0,0,1.827-.94.565.565,0,0,0,.365-.574A.486.486,0,0,0,337.258,389.764Z" transform="translate(-212.654 -290.929)" fill="#ce6200"/>
          <path id="Trazado_628278" data-name="Trazado 628278" d="M151.351,393.21c-.313-.209-.835-.052-1.2-.157a1.357,1.357,0,0,1-.94-.731c-.261-.47-1.148,0-.94.522.47,1.148,2.245,2.245,3.236,1.1A.513.513,0,0,0,151.351,393.21Z" transform="translate(-123.476 -292.078)" fill="#ffbc36"/>
          <path id="Trazado_628279" data-name="Trazado 628279" d="M151.291,389.235c-.261-.418-.783-.261-1.2-.261a.678.678,0,0,0-.626.418.438.438,0,0,0,.313.626,1.613,1.613,0,0,0,1.305-.209A.5.5,0,0,0,151.291,389.235Z" transform="translate(-124.042 -290.556)" fill="#ffbc36"/>
          <path id="Trazado_628280" data-name="Trazado 628280" d="M152.464,384.368a3.132,3.132,0,0,0-1.2.1.613.613,0,0,0-.47.522c-.052.261.209.47.47.47a3.147,3.147,0,0,0,1.2-.313C152.725,384.942,152.882,384.472,152.464,384.368Z" transform="translate(-124.693 -288.352)" fill="#ffbc36"/>
          <path id="Trazado_628281" data-name="Trazado 628281" d="M139.594,378.051a2.281,2.281,0,0,0-.47-.94,4.985,4.985,0,0,0-.626-.835.788.788,0,0,0-1.2.47,2.21,2.21,0,0,0,1.2,2.036C138.915,378.991,139.7,378.573,139.594,378.051Z" transform="translate(-118.243 -284.436)" fill="#ffbc36"/>
          <path id="Trazado_628282" data-name="Trazado 628282" d="M136.538,386.23c-.1-.209-.418-.209-.574-.157-.261.1-.522.313-.47.626.052.522.626.574.992.418C136.851,386.909,136.955,386.387,136.538,386.23Z" transform="translate(-117.38 -289.17)" fill="#ffbc36"/>
          <path id="Trazado_628283" data-name="Trazado 628283" d="M145.4,375.324a2.8,2.8,0,0,0-.574-.261.743.743,0,0,0-.835.261c-.157.209-.209.574.1.679a2.588,2.588,0,0,0,.679.157.7.7,0,0,0,.626-.261C145.5,375.742,145.6,375.481,145.4,375.324Z" transform="translate(-121.383 -283.902)" fill="#ffbc36"/>
          <path id="Trazado_628284" data-name="Trazado 628284" d="M292.7,390.932c-.313.209-.626.418-.992.626s-.783.313-1.148.522c-.209.1-.418.47-.1.626a3.034,3.034,0,0,0,3.028-.992C293.951,391.141,293.168,390.671,292.7,390.932Z" transform="translate(-191.376 -291.471)" fill="#ffbc36"/>
          <path id="Trazado_628285" data-name="Trazado 628285" d="M300.4,385.681a2.41,2.41,0,0,0-.783.47.475.475,0,0,0-.157.574.5.5,0,0,0,.679.1,2.352,2.352,0,0,0,.731-.522A.4.4,0,0,0,300.4,385.681Z" transform="translate(-195.738 -288.987)" fill="#ffbc36"/>
          <path id="Trazado_628286" data-name="Trazado 628286" d="M300.02,396.084a4.3,4.3,0,0,0-1.305.626.453.453,0,0,0,.261.835,4.1,4.1,0,0,0,1.357-.418c.209-.157.47-.365.418-.679C300.7,396.084,300.281,396.032,300.02,396.084Z" transform="translate(-195.304 -293.961)" fill="#ffbc36"/>
          <path id="Trazado_628287" data-name="Trazado 628287" d="M308.614,402.115c-.626.574-1.044,1.305-1.723,1.827-.574.418.052,1.1.626.783a4.189,4.189,0,0,0,2.192-2.245C309.867,401.8,308.928,401.8,308.614,402.115Z" transform="translate(-199.201 -296.755)" fill="#ffbc36"/>
          <path id="Trazado_628288" data-name="Trazado 628288" d="M312.838,395.233a.5.5,0,0,0-.731-.052,1.031,1.031,0,0,0-.313.626.381.381,0,0,0,.47.418.662.662,0,0,0,.626-.522A.771.771,0,0,0,312.838,395.233Z" transform="translate(-201.649 -293.474)" fill="#ffbc36"/>
          <path id="Trazado_628289" data-name="Trazado 628289" d="M310.337,386.262a.592.592,0,0,0-.679.209c-.052.1-.1.157-.157.261-.157.209-.157.47.1.574a.615.615,0,0,0,.783-.313c.052-.1.1-.157.157-.261C310.546,386.523,310.494,386.315,310.337,386.262Z" transform="translate(-200.506 -289.254)" fill="#ffbc36"/>
          <path id="Trazado_628290" data-name="Trazado 628290" d="M264.279,395.726c-.1-.365-.157-.731-.261-1.1-.157-.731-1.253-.365-1.357.261a2.709,2.709,0,0,0,.574,2.349.779.779,0,0,0,1.2-.47A2.313,2.313,0,0,0,264.279,395.726Z" transform="translate(-178.147 -293.08)" fill="#fff69c"/>
          <path id="Trazado_628291" data-name="Trazado 628291" d="M271.407,403c-.1-.209-.1-.365-.209-.574a.513.513,0,0,0-.835.052,1.647,1.647,0,0,0-.209,1.305.5.5,0,0,0,.418.418h.052a.848.848,0,0,0,.835-.47C271.668,403.519,271.563,403.311,271.407,403Z" transform="translate(-181.725 -296.906)" fill="#fff69c"/>
          <path id="Trazado_628292" data-name="Trazado 628292" d="M269.474,394.641a2.016,2.016,0,0,0,0,1.462c.209.522,1.253.052,1.148-.47a3.156,3.156,0,0,1,0-.992C270.779,394.066,269.63,394.171,269.474,394.641Z" transform="translate(-181.358 -293.091)" fill="#fff69c"/>
          <path id="Trazado_628293" data-name="Trazado 628293" d="M277.674,405.983c-.1-.157-.157-.365-.313-.47a.7.7,0,0,0-.94.261,1.522,1.522,0,0,0-.052.835c.052.261.209.313.418.418h.052a.8.8,0,0,0,.731-.313A.561.561,0,0,0,277.674,405.983Z" transform="translate(-184.703 -298.43)" fill="#fff69c"/>
          <path id="Trazado_628294" data-name="Trazado 628294" d="M272.884,410.111c-.209-.47-1.1-.052-.992.418a2.945,2.945,0,0,0,.209.626.533.533,0,0,0,.94-.365A.883.883,0,0,0,272.884,410.111Z" transform="translate(-182.576 -300.575)" fill="#fff69c"/>
          <path id="Trazado_628295" data-name="Trazado 628295" d="M289.241,367.256a2.7,2.7,0,0,0-.887-.835c-.365-.261-1.1.1-.887.574a2.663,2.663,0,0,0,.626,1.044C288.563,368.352,289.554,367.83,289.241,367.256Z" transform="translate(-190.007 -279.748)" fill="#fff69c"/>
          <path id="Trazado_628296" data-name="Trazado 628296" d="M288.834,374.161c.052-.209-.157-.418-.365-.47a.7.7,0,0,0-.783.418,1.113,1.113,0,0,0,.1,1.2c.261.313.94,0,.94-.418A3.082,3.082,0,0,0,288.834,374.161Z" transform="translate(-190.07 -283.26)" fill="#fff69c"/>
          <path id="Trazado_628297" data-name="Trazado 628297" d="M283.542,364.179a1.741,1.741,0,0,0-.522,0c-.261.052-.574.209-.626.47a.381.381,0,0,0,.47.418,2.59,2.59,0,0,0,.679-.157C283.855,364.753,283.96,364.283,283.542,364.179Z" transform="translate(-187.596 -278.707)" fill="#fff69c"/>
          <path id="Trazado_628298" data-name="Trazado 628298" d="M180.587,383.487c-.261-.522-1.044-.052-1.1.313a2.727,2.727,0,0,0,.157,2.036c.261.418.94.209,1.1-.209A3.338,3.338,0,0,0,180.587,383.487Z" transform="translate(-138.356 -287.836)" fill="#fff69c"/>
          <path id="Trazado_628299" data-name="Trazado 628299" d="M178.87,393.5a.794.794,0,0,0-.679.522,2.586,2.586,0,0,0-.1.887c.052.574.887.261,1.044-.052a2.46,2.46,0,0,0,.209-.887C179.392,393.657,179.131,393.5,178.87,393.5Z" transform="translate(-137.735 -292.733)" fill="#fff69c"/>
          <path id="Trazado_628300" data-name="Trazado 628300" d="M173.755,394.4c-.052-.313-.365-.365-.626-.313a.614.614,0,0,0-.47.626c0,.365-.209.626-.261.992-.052.522.679.626.992.313A2,2,0,0,0,173.755,394.4Z" transform="translate(-135.021 -293.004)" fill="#fff69c"/>
          <path id="Trazado_628301" data-name="Trazado 628301" d="M174.4,384.97a2.944,2.944,0,0,0-.209-.626.66.66,0,0,0-.522-.365c-.261-.1-.574.157-.679.365a1.432,1.432,0,0,0-.052,1.044,7.352,7.352,0,0,0,.052,1.044c.157.679,1.148.418,1.409-.1A2.4,2.4,0,0,0,174.4,384.97Z" transform="translate(-135.244 -288.171)" fill="#fff69c"/>
          <path id="Trazado_628302" data-name="Trazado 628302" d="M169.454,390.383a2.354,2.354,0,0,0-.157.574c-.052.574.783.418.94.052a1.19,1.19,0,0,0,.157-.574C170.551,389.861,169.611,389.965,169.454,390.383Z" transform="translate(-133.54 -291.078)" fill="#fff69c"/>
          <path id="Trazado_628303" data-name="Trazado 628303" d="M180.366,377.19c-.1-.313-.574-.261-.783-.1a.6.6,0,0,0-.313.731,1.527,1.527,0,0,0,.365.626c.313.365.94-.1.94-.47A5.325,5.325,0,0,0,180.366,377.19Z" transform="translate(-138.292 -284.828)" fill="#fff69c"/>
          <path id="Trazado_628304" data-name="Trazado 628304" d="M158.521,358.084a2.273,2.273,0,0,0-1.827,1.931c-.052.313.209.47.47.47a.671.671,0,0,0,.626-.522,1.659,1.659,0,0,1,.835-1.044c.209-.1.47-.261.418-.522A.387.387,0,0,0,158.521,358.084Z" transform="translate(-127.513 -275.797)" fill="#fff69c"/>
          <path id="Trazado_628305" data-name="Trazado 628305" d="M156.949,369.41c-.261-.209-.574-.052-.783.157l-.157.157c-.1.157-.157.365,0,.47a.553.553,0,0,0,.679-.052l.157-.157A.408.408,0,0,0,156.949,369.41Z" transform="translate(-127.142 -281.172)" fill="#fff69c"/>
          <path id="Trazado_628306" data-name="Trazado 628306" d="M164.3,357.478a5.077,5.077,0,0,0-1.462,1.148c-.157.157-.261.418-.1.574a.553.553,0,0,0,.679-.052,4.282,4.282,0,0,0,1.305-1.253C164.869,357.635,164.556,357.374,164.3,357.478Z" transform="translate(-130.364 -275.504)" fill="#fff69c"/>
        </g>
      </g>
    </g>
    <g id="Grupo_908205" data-name="Grupo 908205" transform="translate(820.287 1223.24) rotate(120)">
      <g id="Grupo_86466" data-name="Grupo 86466" transform="translate(0 0.154)">
        <path id="Trazado_122954" data-name="Trazado 122954" d="M1072.818,86.873c-8.614,3.029-17.561,5.241-25.439,10.052a56.436,56.436,0,0,0-10.288,7.988,37.987,37.987,0,0,0-7.438,9.542c-1.431,2.859-3.017,6.921-1.011,9.89,1.683,2.49,4.991,3.082,7.78,2.693,8.47-1.186,10.458-11.023,13.39-17.573,3.562-7.959,9.721-13.9,17.041-18.22,2.478-.67,4.91-1.51,6.633-3.226C1073.948,87.557,1073.482,86.639,1072.818,86.873Z" transform="translate(-960.896 -86.835)" fill="#add031"/>
        <path id="Trazado_122955" data-name="Trazado 122955" d="M1029.6,108.809q5.826-2.771,11.511-5.819a118.121,118.121,0,0,0,10.361-6.448c2.044-1.376,4.132-2.66,6.14-4.09q1.272-.905,2.509-1.861c.293-.227.937-.57,1.013-.986a.572.572,0,0,0-.174-.535.47.47,0,0,0-.043-.113l-.1-.124a.62.62,0,0,0-.269-.158l.121.051c-.108-.046-.215-.108-.327-.144-.066-.022-.135-.035-.2-.054a3.435,3.435,0,0,1-.391-.135l-.092-.041c-.012-.586-.57-1.156-1.173-.72-11.733,8.472-25.917,12.22-39.822,15.373a104.15,104.15,0,0,1-12,2.046c-3.919.423-7.827.177-11.761.411-4.29.255-8.845.108-12.879,1.838-3.226,1.383-5.13,4.825-2.708,7.936,2.354,3.025,7.083,3.926,10.689,4.1,6.371.308,13.069-1.079,19.166-2.785A128.189,128.189,0,0,0,1029.6,108.809Z" transform="translate(-978.229 -86.61)" fill="#add031"/>
      </g>
      <g id="Grupo_86467" data-name="Grupo 86467" transform="translate(71.822 0)">
        <path id="Trazado_122956" data-name="Trazado 122956" d="M1031.85,121.032c3.947-8.761,9.358-17.492,17.556-22.838a68.98,68.98,0,0,1,12.378-6.116c2.111-.836,4.27-1.51,6.428-2.212a18.273,18.273,0,0,0,5.927-2.641c.242-.193-.022-.564-.286-.494-2.387.64-4.7,1.614-7.065,2.335-2.317.7-4.568,1.533-6.8,2.46a64.657,64.657,0,0,0-12.328,6.37c-7.736,5.395-13.131,14.19-16.229,22.958-.086.244.315.42.424.178Z" transform="translate(-1031.414 -86.722)" fill="#4f9638"/>
      </g>
      <g id="Grupo_86468" data-name="Grupo 86468" transform="translate(2.418 2.269)">
        <path id="Trazado_122957" data-name="Trazado 122957" d="M980.219,112.561c2,1.029,4.251,1,6.452,1,2.821,0,5.626.261,8.451.22a82.231,82.231,0,0,0,17.422-2.563,143.9,143.9,0,0,0,32.645-11.831c5.218-2.644,10.91-5.742,14.53-10.445.284-.367-.29-.708-.6-.46a71.5,71.5,0,0,1-13.03,8.909c-4.938,2.454-9.9,4.813-15.056,6.79-5.072,1.947-10.247,3.458-15.482,4.893a106.078,106.078,0,0,1-16.834,3.635,50.5,50.5,0,0,1-9.5.008c-2.825-.235-5.974.436-8.609-.833-.448-.216-.844.443-.393.674Z" transform="translate(-980.02 -88.402)" fill="#4f9638"/>
      </g>
    </g>
  </g>
</svg>
