<svg xmlns="http://www.w3.org/2000/svg" xmlns:xlink="http://www.w3.org/1999/xlink" width="328.889" height="176.182" viewBox="0 0 328.889 176.182">
  <defs>
    <radialGradient id="radial-gradient" cx="0.65" cy="0.415" r="0.749" gradientTransform="matrix(-0.76, 0, 0, 1, 48.457, 0)" gradientUnits="objectBoundingBox">
      <stop offset="0" stop-color="#dea5bb"/>
      <stop offset="0.624" stop-color="#d48ba7"/>
      <stop offset="1" stop-color="#d48ba7"/>
    </radialGradient>
    <radialGradient id="radial-gradient-2" cx="0.471" cy="0.164" r="0.871" gradientTransform="matrix(-0.765, 0, 0, 1, 21.873, 0)" xlink:href="#radial-gradient"/>
    <radialGradient id="radial-gradient-3" cx="0.468" cy="-0.069" r="1.113" gradientTransform="matrix(-0.599, 0, 0, 1, 19.818, 0)" xlink:href="#radial-gradient"/>
    <radialGradient id="radial-gradient-4" cx="0.346" cy="0.428" r="0.758" gradientTransform="translate(0.127) scale(0.745 1)" xlink:href="#radial-gradient"/>
    <radialGradient id="radial-gradient-5" cx="0.533" cy="0.163" r="0.874" gradientTransform="translate(0.119) scale(0.762 1)" xlink:href="#radial-gradient"/>
    <radialGradient id="radial-gradient-6" cx="0.528" cy="-0.067" r="1.115" gradientTransform="translate(0.201) scale(0.599 1)" xlink:href="#radial-gradient"/>
  </defs>
  <g id="Grupo_1004848" data-name="Grupo 1004848" transform="translate(-974.011 -1126.418)">
    <g id="Grupo_908187" data-name="Grupo 908187" transform="translate(978.962 1289.416)">
      <g id="Grupo_907886" data-name="Grupo 907886" transform="translate(0 4.103)">
        <g id="Grupo_907885" data-name="Grupo 907885">
          <path id="Trazado_627968" data-name="Trazado 627968" d="M89.252,132.575a31.984,31.984,0,0,1-2.525-4.42c-1.263-2.525-2.289-4.577-2.131-4.656a31.983,31.983,0,0,1,2.525,4.42A42.708,42.708,0,0,1,89.252,132.575Z" transform="translate(-84.58 -123.497)" fill="#263238"/>
        </g>
      </g>
      <g id="Grupo_907888" data-name="Grupo 907888" transform="translate(3.646 0.238)">
        <g id="Grupo_907887" data-name="Grupo 907887">
          <path id="Trazado_627969" data-name="Trazado 627969" d="M92.515,130.833a7.4,7.4,0,0,1-.71-1.736,38.269,38.269,0,0,1-1.263-4.341c-.474-1.736-.789-3.236-1.026-4.341S89.2,118.6,89.2,118.6a7.9,7.9,0,0,1,.552,1.815c.316,1.263.71,2.683,1.184,4.341.474,1.578.868,3.078,1.184,4.341C92.357,130.122,92.515,130.754,92.515,130.833Z" transform="translate(-89.2 -118.6)" fill="#263238"/>
        </g>
      </g>
      <g id="Grupo_907890" data-name="Grupo 907890" transform="translate(8.677)">
        <g id="Grupo_907889" data-name="Grupo 907889">
          <path id="Trazado_627970" data-name="Trazado 627970" d="M96.778,118.3a63.355,63.355,0,0,1-.395,6.393,41.276,41.276,0,0,1-.789,6.393,63.355,63.355,0,0,1,.395-6.393C96.384,121.141,96.7,118.221,96.778,118.3Z" transform="translate(-95.575 -118.298)" fill="#263238"/>
        </g>
      </g>
    </g>
    <g id="Grupo_908186" data-name="Grupo 908186" transform="translate(1272 1149.64)">
      <g id="Grupo_907886-2" data-name="Grupo 907886" transform="translate(0 4.103)">
        <g id="Grupo_907885-2" data-name="Grupo 907885">
          <path id="Trazado_627968-2" data-name="Trazado 627968" d="M89.252,132.575a31.984,31.984,0,0,1-2.525-4.42c-1.263-2.525-2.289-4.577-2.131-4.656a31.983,31.983,0,0,1,2.525,4.42A42.708,42.708,0,0,1,89.252,132.575Z" transform="translate(-84.58 -123.497)" fill="#263238"/>
        </g>
      </g>
      <g id="Grupo_907888-2" data-name="Grupo 907888" transform="translate(3.646 0.238)">
        <g id="Grupo_907887-2" data-name="Grupo 907887">
          <path id="Trazado_627969-2" data-name="Trazado 627969" d="M92.515,130.833a7.4,7.4,0,0,1-.71-1.736,38.269,38.269,0,0,1-1.263-4.341c-.474-1.736-.789-3.236-1.026-4.341S89.2,118.6,89.2,118.6a7.9,7.9,0,0,1,.552,1.815c.316,1.263.71,2.683,1.184,4.341.474,1.578.868,3.078,1.184,4.341C92.357,130.122,92.515,130.754,92.515,130.833Z" transform="translate(-89.2 -118.6)" fill="#263238"/>
        </g>
      </g>
      <g id="Grupo_907890-2" data-name="Grupo 907890" transform="translate(8.677)">
        <g id="Grupo_907889-2" data-name="Grupo 907889">
          <path id="Trazado_627970-2" data-name="Trazado 627970" d="M96.778,118.3a63.355,63.355,0,0,1-.395,6.393,41.276,41.276,0,0,1-.789,6.393,63.355,63.355,0,0,1,.395-6.393C96.384,121.141,96.7,118.221,96.778,118.3Z" transform="translate(-95.575 -118.298)" fill="#263238"/>
        </g>
      </g>
    </g>
    <g id="Grupo_908185" data-name="Grupo 908185" transform="translate(974.011 1192.891)">
      <g id="Grupo_907886-3" data-name="Grupo 907886" transform="translate(0 4.103)">
        <g id="Grupo_907885-3" data-name="Grupo 907885">
          <path id="Trazado_627968-3" data-name="Trazado 627968" d="M89.252,132.575a31.984,31.984,0,0,1-2.525-4.42c-1.263-2.525-2.289-4.577-2.131-4.656a31.983,31.983,0,0,1,2.525,4.42A42.708,42.708,0,0,1,89.252,132.575Z" transform="translate(-84.58 -123.497)" fill="#263238"/>
        </g>
      </g>
      <g id="Grupo_907888-3" data-name="Grupo 907888" transform="translate(3.646 0.238)">
        <g id="Grupo_907887-3" data-name="Grupo 907887">
          <path id="Trazado_627969-3" data-name="Trazado 627969" d="M92.515,130.833a7.4,7.4,0,0,1-.71-1.736,38.269,38.269,0,0,1-1.263-4.341c-.474-1.736-.789-3.236-1.026-4.341S89.2,118.6,89.2,118.6a7.9,7.9,0,0,1,.552,1.815c.316,1.263.71,2.683,1.184,4.341.474,1.578.868,3.078,1.184,4.341C92.357,130.122,92.515,130.754,92.515,130.833Z" transform="translate(-89.2 -118.6)" fill="#263238"/>
        </g>
      </g>
      <g id="Grupo_907890-3" data-name="Grupo 907890" transform="translate(8.677)">
        <g id="Grupo_907889-3" data-name="Grupo 907889">
          <path id="Trazado_627970-3" data-name="Trazado 627970" d="M96.778,118.3a63.355,63.355,0,0,1-.395,6.393,41.276,41.276,0,0,1-.789,6.393,63.355,63.355,0,0,1,.395-6.393C96.384,121.141,96.7,118.221,96.778,118.3Z" transform="translate(-95.575 -118.298)" fill="#263238"/>
        </g>
      </g>
    </g>
    <g id="Grupo_908206" data-name="Grupo 908206" transform="translate(1275.683 1164.229) rotate(120)">
      <g id="Grupo_86466" data-name="Grupo 86466" transform="translate(0 0.154)">
        <path id="Trazado_122954" data-name="Trazado 122954" d="M45.123.037C36.509,3.066,27.563,5.278,19.684,10.09A56.436,56.436,0,0,0,9.4,18.078,37.987,37.987,0,0,0,1.959,27.62C.527,30.478-1.058,34.54.948,37.51,2.63,40,5.939,40.592,8.727,40.2c8.47-1.186,10.458-11.023,13.39-17.573,3.562-7.959,9.721-13.9,17.041-18.22,2.478-.67,4.91-1.51,6.633-3.226C46.254.722,45.787-.2,45.123.037Z" transform="translate(66.799 0)" fill="#add031"/>
        <path id="Trazado_122955" data-name="Trazado 122955" d="M51.374,21.331Q57.2,18.56,62.884,15.512A118.121,118.121,0,0,0,73.245,9.064c2.044-1.376,4.132-2.66,6.14-4.09q1.272-.905,2.509-1.861c.293-.227.937-.57,1.013-.986a.572.572,0,0,0-.174-.535.47.47,0,0,0-.043-.113l-.1-.124a.62.62,0,0,0-.269-.158l.121.051c-.108-.046-.215-.108-.327-.144-.066-.022-.135-.035-.2-.054a3.435,3.435,0,0,1-.391-.135L81.435.874c-.012-.586-.57-1.156-1.173-.72C68.529,8.626,54.344,12.374,40.44,15.527a104.15,104.15,0,0,1-12,2.046c-3.919.423-7.827.177-11.761.411-4.29.255-8.845.108-12.879,1.838C.577,21.2-1.327,24.646,1.1,27.758c2.354,3.025,7.083,3.926,10.689,4.1,6.371.308,13.069-1.079,19.166-2.785A128.189,128.189,0,0,0,51.374,21.331Z" transform="translate(0 0.868)" fill="#add031"/>
      </g>
      <g id="Grupo_86467" data-name="Grupo 86467" transform="translate(71.822 0)">
        <path id="Trazado_122956" data-name="Trazado 122956" d="M.436,34.31c3.947-8.761,9.358-17.492,17.556-22.838A68.98,68.98,0,0,1,30.371,5.356c2.111-.836,4.27-1.51,6.428-2.212A18.273,18.273,0,0,0,42.726.5c.242-.193-.022-.564-.286-.494-2.387.64-4.7,1.614-7.065,2.335-2.317.7-4.568,1.533-6.8,2.46a64.657,64.657,0,0,0-12.328,6.37C8.5,16.569,3.11,25.364.012,34.132c-.086.244.315.42.424.178Z" fill="#4f9638"/>
      </g>
      <g id="Grupo_86468" data-name="Grupo 86468" transform="translate(2.418 2.269)">
        <path id="Trazado_122957" data-name="Trazado 122957" d="M.2,24.159c2,1.029,4.251,1,6.452,1,2.821,0,5.626.261,8.451.22a82.231,82.231,0,0,0,17.422-2.563A143.9,143.9,0,0,0,65.169,10.99C70.387,8.346,76.079,5.248,79.7.545c.284-.367-.29-.708-.6-.46a71.5,71.5,0,0,1-13.03,8.909c-4.938,2.454-9.9,4.813-15.056,6.79-5.072,1.947-10.247,3.458-15.482,4.893A106.078,106.078,0,0,1,18.7,24.311a50.5,50.5,0,0,1-9.5.008c-2.825-.235-5.974.436-8.609-.833-.448-.216-.844.443-.393.674Z" fill="#4f9638"/>
      </g>
    </g>
    <g id="cerdos" transform="translate(1000 1126.418)">
      <path id="Trazado_628343" data-name="Trazado 628343" d="M62.3,153.4c89.9,21.5,197.8,22.7,286.6-.1C257.8,134.4,152.4,133.1,62.3,153.4Z" transform="translate(-60.6 -0.254)" fill="#f2e9d6"/>
      <g id="Grupo_908177" data-name="Grupo 908177" transform="translate(0 0)">
        <path id="Trazado_628344" data-name="Trazado 628344" d="M99.6,26.7c0-2.1-.9-5.8-3.2-4.9-.4-1.5-.3-3.2-.9-4.8-.4.5-1.5.8-1.9,1.1-.4-1.6-.6-3.1-1-4.7-.5.3-1.2.2-1.9.7-1-2.1-.6-4.4-2.2-6.3-.2.6-.9,1.4-1,1.9-.3-1.8-1.1-3.4-2.9-3.6,0,.9-.6,1.7-.5,2.7-.6-.3-1.3-.1-2.1-.6a33.859,33.859,0,0,0-.4,3.5,7.632,7.632,0,0,1-1.1-.8,5.464,5.464,0,0,0-.9,4c-.7-.3-2,0-2.7-.3,0,1.4-.1,2.9-.1,4.4-.8-.4-1.9,0-2.7-.3-.1,1.9.5,3.6.3,5.5-2.3,0-1.7,2-2.3,3.1A8.136,8.136,0,0,0,71,33.2a4.253,4.253,0,0,1,.2,1.1c-.5,0-1,.1-1.5.1.3,3.2,2.2,5.3,2,8.8,5.4-1.5,8.5-6.6,12.1-10.4C88,28.5,94.8,28.6,99.6,26.7Z" transform="translate(-60.6 -6.1)" fill="#2f3642"/>
        <path id="Trazado_628345" data-name="Trazado 628345" d="M224.9,47.4c2.9,1,6.6,2.2,9.9,1.6s4.8-4.2,7.2-6.1a3.668,3.668,0,0,1,2-1.4c1.1-.7,7.2-1.8,7,1,0,.8-2.3,2-3,2.7-.9,1-1.6,2.1-2.5,3.2-4,4.7-8.1,7.5-14.1,6.8C227.2,55.9,225.5,50.9,224.9,47.4Z" transform="translate(-60.6 -4.772)" fill="#cfa47b"/>
        <path id="Trazado_628346" data-name="Trazado 628346" d="M174.1,99.9l24,6.9a305.157,305.157,0,0,0-9.6,33.2c-1.2,5.6-1.4,5.2-1.3,10.8l-12.2.4C174.9,151.2,175.9,108.4,174.1,99.9Z" transform="translate(-60.6 -0.254)" fill="#986043"/>
        <path id="Trazado_628347" data-name="Trazado 628347" d="M82.1,101.3s9.7,26.9,9.5,34.4-1.8,22.5-1.8,22.5l12.1-.2s2.1-11.6,6.3-18.5c4.3-6.9,15.6-33.8,12.2-39.7C116.9,94,85.5,95.8,82.1,101.3Z" transform="translate(-60.6 -0.254)" fill="#986043"/>
        <path id="Trazado_628348" data-name="Trazado 628348" d="M110.4,131.2c-1.8.3-1-1.9-1.5-3.3a7.847,7.847,0,0,0-1.6-2.8,4.379,4.379,0,0,0-5.4-.5,14.588,14.588,0,0,0-5.2,5.8c-.7,1.4-1,2.9-1.6,4.4a5.265,5.265,0,0,1-3.5,3.5c0-.9.1-1.7.1-2.3.2-7.5-9.5-34.4-9.5-34.4,3.4-5.5,34.8-7.3,38.3-1.4,2.6,4.4-3.3,21-8.1,31.7A2.283,2.283,0,0,0,110.4,131.2Z" transform="translate(-60.6 -1.875)" fill="#4b4a4b"/>
        <path id="Trazado_628349" data-name="Trazado 628349" d="M110.5,33.289s25.7-5.734,30.4-8.028,32.6-1.668,46.2,0S230,39.649,235.1,70.2c5.1,30.653-7.5,42.852-8.1,50.88s-3.6,24.919-2.6,35.345H211.7s-1.4-14.6-3.2-18.767c-1.8-4.066-4.6-19.184-5.3-18.35-.8.834-25.6,18.455-38.1,16.265-12.6-2.19-18.4-7.715-19-6.673s-2,13.346-1.4,19.81c.6,6.569-9.3,9.592-9.6,17.516l-12.2.521s4.6-18.976,2.9-23.251-14.3-20.54-19.3-27.213C101.3,109.505,80.7,45.8,110.5,33.289Z" transform="translate(-60.6 -6.1)" fill="#cfa47b"/>
        <path id="Trazado_628350" data-name="Trazado 628350" d="M106.3,112.4c-1.6-2.1-5-10.1-7.6-20.4a173.827,173.827,0,0,1,21.1-7c12-3.1,19.2,5.5,29,10.5,10.1,5.1,23.9,9.1,34.5,3,4.4-2.5,8.6-5.9,13.1-8.1,3.8-1.8,21.1-9,20.4,3.7-.4,7.4-5.1,12.9-4.7,20.7.4,7.6-1.5,15.3-1.8,23l-.3-2.7a15.674,15.674,0,0,0-3.1-6.5c-1.6-5.7-3.3-13.8-3.9-13.3-.8.8-25.6,17.7-38.1,15.6-12.6-2.1-18.4-7.4-19-6.4s-2,12.8-1.4,19c.6,6.3-9.3,9.2-9.6,16.8l-12.2.5s4.6-18.2,2.9-22.3S111.3,118.8,106.3,112.4Z" transform="translate(-60.6 -0.254)" fill="#c6a07b" opacity="0.55"/>
        <path id="Trazado_628351" data-name="Trazado 628351" d="M129.5,142.7c.5-1.5,2.4-2.2,2.8-4a8.367,8.367,0,0,0-.6-4.9c-1.3-3.5-3.7-5.5-2.9-9.5.7-3.6,3.2-7.2,6.9-6.5,3.6.7,7-1.5,4.7-5.3-1.1-1.7-1.9-2.3-.9-4.4a21.6,21.6,0,0,1,2.7-4c3.4-3.8,5.7,1,8.3,2.8,3.5,2.5,6.3-1.6,9.9-1,4.4.7,5.3,5,8.1,7.9a16.711,16.711,0,0,0,10.4,4.5c4.4.3,10.2.4,13.7-2.4,2.8-2.3,4.2-6.5,7.7-7.8,4.7-1.7,4.9,3.7,5.6,6.9a64.25,64.25,0,0,0,1.5,6.3c.7,2.1.1,2.8,0,4.9-.1,1.7,1,3.1,1.8,4.7.9,1.8.8,3.1,1.3,4.9,1,3.8,7,4.7,2.5,8.8a13.23,13.23,0,0,0-1.8,2.2c-.6-5.5-1.7-11.4-2.7-13.5-1.8-3.9-4.6-18.4-5.3-17.6-.8.8-25.6,17.7-38.1,15.6-12.6-2.1-18.4-7.4-19-6.4s-1.9,11.7-1.5,18.2l-.2.2c-2.8,1.3-5.1,3.6-8.3,4.3C133.1,147.8,128,147,129.5,142.7Z" transform="translate(-60.6 -1.471)" fill="#2f3642"/>
        <path id="Trazado_628352" data-name="Trazado 628352" d="M224.5,138.3c-4.1-1.5-8.1-3.1-9.3-7.9-1-4.3-.3-8.9-1.4-13-2.7-10.1-14.7-24.2,2.5-30.3,13.9-5,13-19.8,8.3-31.3-4.8-11.7-18.4-25.4-31.9-24.2-6.6.6-12.7,13.1-20.9,4-1.7-1.9-3.3-4.2-5.5-5.6-2.3-1.5-5.8-3.1-8.2-.7-7,7.2-2,13.9,7.1,14.8,11.9,1.2,10.7,11.2,2,17.3-1.5,1.1-4.5,2.8-5.4,4.6a30.9,30.9,0,0,0-1.4,3.2q.3,8.1-10.5.9c.7-2.3,1.7-4.8,1.8-7.3.2-6.7-7.8-14.1-12.2-5.8a42.749,42.749,0,0,0-3.1,7.7c-3.1,10.3-15.5,10.1-24,8.4a101.473,101.473,0,0,1-17.7-5.6c-.6-15.1,2.9-29.4,15.7-34.6,0,0,25.7-5.5,30.4-7.7s32.6-1.6,46.2,0S229.9,39,235,68.3c5.1,29.4-7.5,41.1-8.1,48.8C226.6,121.4,225.2,129.9,224.5,138.3Z" transform="translate(-60.6 -6.1)" fill="#2f3642"/>
        <g id="Grupo_908173" data-name="Grupo 908173" transform="translate(22.043 157.746)">
          <path id="Trazado_628353" data-name="Trazado 628353" d="M101.9,158l-12.1.1s-7.9,10.4-7.1,11.6,13.6-.2,13.9-.7c.9-1.3,2.1-7.9,2.4-7.5.2.4-2.2,7.6-.3,7.5C99.8,169,103,163.6,101.9,158Z" transform="translate(-82.643 -158)" fill="#c6aba9"/>
          <path id="Trazado_628354" data-name="Trazado 628354" d="M91.1,158.6c-.6,1-5.7,8.8-7.3,11.5a26.275,26.275,0,0,0,3,.1S90.2,162.4,91.1,158.6Z" transform="translate(-82.643 -158)" fill="#997f7d"/>
        </g>
        <g id="Grupo_908174" data-name="Grupo 908174" transform="translate(55.327 160.146)">
          <path id="Trazado_628355" data-name="Trazado 628355" d="M134.9,160.4l-12.1.4s-7.7,10.6-6.8,11.8c.8,1.2,13.6-.6,13.9-1.1.8-1.3,1.9-8,2.2-7.6s-2,7.7-.1,7.6C133,171.4,136.1,165.9,134.9,160.4Z" transform="translate(-115.927 -160.4)" fill="#c6aba9"/>
          <path id="Trazado_628356" data-name="Trazado 628356" d="M124.4,161.2c-.6,1-5.4,8.9-7,11.7a14.887,14.887,0,0,0,3,0A69.513,69.513,0,0,0,124.4,161.2Z" transform="translate(-115.927 -160.4)" fill="#997f7d"/>
        </g>
        <g id="Grupo_908175" data-name="Grupo 908175" transform="translate(107.342 150.546)">
          <path id="Trazado_628357" data-name="Trazado 628357" d="M187.1,150.8l-12.1.3s-7.8,10.5-7,11.7,13.6-.4,13.9-.9c.8-1.3,2-8,2.3-7.6.2.4-2.1,7.7-.2,7.5C185.1,161.8,188.3,156.3,187.1,150.8Z" transform="translate(-167.942 -150.8)" fill="#c6aba9"/>
          <path id="Trazado_628358" data-name="Trazado 628358" d="M176.3,151.5c-.6,1-5.6,8.9-7.1,11.6a14.887,14.887,0,0,0,3,0A82.029,82.029,0,0,0,176.3,151.5Z" transform="translate(-167.942 -150.8)" fill="#997f7d"/>
        </g>
        <g id="Grupo_908176" data-name="Grupo 908176" transform="translate(144.028 150.146)">
          <path id="Trazado_628359" data-name="Trazado 628359" d="M224.1,150.4l-12.5.6s-7.8,11.1-6.9,12.3,14-.8,14.3-1.3c.8-1.4,1.9-8.3,2.1-7.9.3.4-2,8,0,7.8C222.4,161.8,225.5,156.1,224.1,150.4Z" transform="translate(-204.628 -150.4)" fill="#c6aba9"/>
          <path id="Trazado_628360" data-name="Trazado 628360" d="M213.4,151.4c-.6,1-5.5,9.3-7.1,12.2.8.1,1.9,0,3.1,0C209.4,163.6,212.6,155.4,213.4,151.4Z" transform="translate(-204.628 -150.4)" fill="#997f7d"/>
        </g>
        <path id="Trazado_628361" data-name="Trazado 628361" d="M110.3,29c1.4-2.2,3.3-2.3,3.7-5.6.5.2,1.8,0,2.3.3-.7-4.9,5.4-3.9,5.4-8,2,.1,3.1-1.2,2.8-3.2,1-.6,2.2-1.4,3.3-2,2.2.6,3.9-1,5.9-1,2.7.1,2.5,2,5.3,2.6-1.2,1.8.4,4.6,1.2,6.4a12.579,12.579,0,0,1,1,7.3c-.4,2.7-.2,12.5-2.9,13-.1,2,.7,4.4-1.6,4.8a9.976,9.976,0,0,1-.5,3.9c-2.6.3-9.2-8.7-12-10.6C120.8,34.7,110.9,33.2,110.3,29Z" transform="translate(-60.6 -6.1)" fill="#2f3642"/>
        <path id="Trazado_628362" data-name="Trazado 628362" d="M123,32.7c5.3,3.4,14,6.9,14.2,17.4s2.6,13.8,4.9,18.8c2.2,5.1,6.3,21.5-4.5,38.5-10.7,17-35,12.4-46.2,7.5-11.1-4.9-24.3-7.7-25.7-18.6-1.4-11-5.1-11.4-5.1-17.8,0-6.5,7.5-19.4,7.7-23.7s1.9-25.5,21.1-27.7C108.7,24.8,117.7,29.2,123,32.7Z" transform="translate(-60.6 -6.1)" fill="#cfa47b"/>
        <path id="Trazado_628363" data-name="Trazado 628363" d="M65.9,65.4c-.3-.5-.5-.9-.8-1.4a81.779,81.779,0,0,0,3-8c.4,3.2,1.9,6.1,2.8,9.1A31.128,31.128,0,0,1,72,69.2,9.185,9.185,0,0,1,65.9,65.4Z" transform="translate(-60.6 -4.202)" fill="#c6a07b" opacity="0.32"/>
        <path id="Trazado_628364" data-name="Trazado 628364" d="M110.9,76.5a20.324,20.324,0,0,0,9.6-8c1.6-2.6,3.7-5.1,5.7-7.8,0,.1.1.3.1.4,2.1,8.6-1.2,10.8-6.1,16.1-2.5,2.7-7.9,9.8-12.5,7.4-.9-.5-5.5-3.5-8.7-5.8C102.9,77.8,107.1,77.9,110.9,76.5Z" transform="translate(-60.6 -3.86)" fill="#c6a07b" opacity="0.32"/>
        <path id="Trazado_628365" data-name="Trazado 628365" d="M72.7,78.7a35.41,35.41,0,0,1,5-.9,2.506,2.506,0,0,0,.4.7c1.7,2.2,6.8,6.1,2.8,8.5-2.9,1.8-6.2.8-8.6-1.5-1.1-1.1-2.9-2.5-3.2-4.1C68.8,79.4,71.4,78.9,72.7,78.7Z" transform="translate(-60.6 -3.427)" fill="url(#radial-gradient)"/>
        <path id="Trazado_628366" data-name="Trazado 628366" d="M80.2,85.7c-.1,0-.2-.1-.3-.1a.1.1,0,0,1-.1-.1,17.6,17.6,0,0,0-2-.9,10.624,10.624,0,0,0-4.7-.1,7.366,7.366,0,0,0-1.4.4c-1.1-1-2.4-2.2-2.6-3.5-.4-2,2.3-2.5,3.6-2.8a35.41,35.41,0,0,1,5-.9,2.506,2.506,0,0,0,.4.7c1.6,2,6,5.5,3.5,7.9A3.672,3.672,0,0,0,80.2,85.7Z" transform="translate(-60.6 -3.456)" fill="#71545a"/>
        <path id="Trazado_628367" data-name="Trazado 628367" d="M109.1,88.9c-1.6,3.9-1.7,8.3-3,12.2-2.7,8.4,11.1.5,12.4,2a4.94,4.94,0,0,0,6.2,1.1c8.1-4.2,3.2-11,6.2-19,2.5-6.7,7.8-10.9,10.9-16.8.1.2.1.3.2.5,2.2,5.1,6.3,21.5-4.5,38.5a16.41,16.41,0,0,1-1.9,2.5h0c-.7.8-1.4,1.5-2.1,2.2l-.2.2c-.7.6-1.4,1.2-2.1,1.7-.1.1-.3.2-.4.3a25.294,25.294,0,0,1-2.2,1.3c-.2.1-.3.2-.5.3a15.955,15.955,0,0,1-2.3,1,1.421,1.421,0,0,1-.6.2,20.154,20.154,0,0,1-2.3.7c-.2.1-.5.1-.7.2-.8.2-1.6.4-2.3.5-.3,0-.5.1-.8.1-.8.1-1.5.2-2.3.3a2.769,2.769,0,0,0-.9.1,17.7,17.7,0,0,1-2.3.1h-.9a16.2,16.2,0,0,1-2.2-.1,3.4,3.4,0,0,1-1-.1c-.7-.1-1.4-.1-2.1-.2-.4,0-.7-.1-1.1-.1-.7-.1-1.3-.2-2-.3-.4-.1-.8-.1-1.1-.2a11.627,11.627,0,0,1-1.8-.4l-1.2-.3a8.33,8.33,0,0,1-1.5-.4c-.5-.1-.9-.3-1.4-.4a6.468,6.468,0,0,1-1.3-.4c-.5-.2-1-.3-1.5-.5l-.9-.3c-.8-.3-1.5-.6-2.2-.9-1.6-.7-3.3-1.4-4.9-2-9.8-3.8-19.6-7.2-20.8-16.6a33.926,33.926,0,0,0-1.5-6.7l.3.3c3.1,3,6.6,6.3,9.6,9.3a5.711,5.711,0,0,0,4.6,1.6c5.4-1.2,7,.8,11.6,2.5,2.3.9,4,2.4,6.5,1,7.8-4.3,3.2-10,12.3-15" transform="translate(-60.6 -2.966)" fill="#c6a07b" opacity="0.55"/>
        <path id="Trazado_628368" data-name="Trazado 628368" d="M77.2,103.7a8.069,8.069,0,0,0,4,.4c4.6-.4,7.1,2.1,10.9,4a14.8,14.8,0,0,0,9.9,1.6c10.5-1.3,15.1,5.3,24.9-1.5,4.2-2.9,6.6-7.1,3.5-11.6-5.1-7.4,5.9-18.6-4.2-23.3-2.5-1.2,0-9.1-2.6-11.1-4-3.1-6-6.7-8.4-11-3-5.1-10.1-3.4-14.1-1-3.1,1.9-4.6,6.1-6.1,9.2-3.4,7.2-11.4,6.3-18,4.5a35.924,35.924,0,0,0,1.7-3.4,14.13,14.13,0,0,0,.7-10.1c-1.5-4.5-5.2-7-9.2-6.5,2.4-7.3,7.6-15.4,19.1-16.8,19.2-2.2,28.3,2.2,33.6,5.6s14,6.9,14.2,17.4,2.6,13.8,4.9,18.8c2.2,5.1,6.3,21.5-4.5,38.5-10.7,17-35,12.4-46.2,7.5C80.2,110,67,107.2,65.6,96.3v-.2A72.326,72.326,0,0,0,77.2,103.7Z" transform="translate(-60.6 -6.1)" fill="#2f3642"/>
        <path id="Trazado_628369" data-name="Trazado 628369" d="M113,58.9c.5-4.7-6.8-8.2-9.2-3.4-1.8,3.7,3,1.4,4.4,1.5C109.3,57.1,112.8,61.2,113,58.9Z" transform="translate(-60.6 -4.385)" fill="#353533"/>
        <path id="Trazado_628370" data-name="Trazado 628370" d="M76.5,55.4c.4-2-.8-3.1-2.5-3.6-2.2-.6-4.2.2-3.8,2.8.3.3,2-.7,3.3-.3C74.9,54.7,76.3,56,76.5,55.4Z" transform="translate(-60.6 -4.467)" fill="#353533"/>
        <path id="Trazado_628371" data-name="Trazado 628371" d="M99.3,82.2c-3,3.8-6.6,6.3-11.7,4.7-2.4-.7-3.9-2.6-6-3.8a16.863,16.863,0,0,0-7.7-1.9,2.483,2.483,0,0,1-.9-.1h-.2a.1.1,0,0,0,.1.1,18.01,18.01,0,0,0-3.2.6c-.8.2-1.6.3-2.4.5a5.382,5.382,0,0,1-2.2.4,9.83,9.83,0,0,1-1.6-.5c-.3,1.3,1.6,1.5,2.4,1.6a17.2,17.2,0,0,0,3.2-.2,12.816,12.816,0,0,0,2.7-.5,14.474,14.474,0,0,1,3-.4,8.684,8.684,0,0,1,2.3.1c1.9.6,3.5,2.1,5,3.5,3.6,3.2,7.9,5.6,12.4,2.7C96.8,87.6,99.1,84.7,99.3,82.2Z" transform="translate(-60.6 -3.32)" fill="#71545a"/>
        <path id="Trazado_628372" data-name="Trazado 628372" d="M83.7,85.7c-1.3,2.8-5.7,3.8-8.4,2.9a6.787,6.787,0,0,1-3.1-2.5C71.4,85,70,84,69.4,82.8c2.8-.2,4.4,3.7,7.1,4.2a5.6,5.6,0,0,0,4.4-.7C82.2,85.5,82.4,83.9,83.7,85.7Z" transform="translate(-60.6 -3.312)" fill="#71545a"/>
        <path id="Trazado_628373" data-name="Trazado 628373" d="M77.6,62.7a21.094,21.094,0,0,1,6.8,1,12.581,12.581,0,0,1,6.4,4.5c2.6,3.6,3.7,9.1,1.4,13.1-2.6,4.7-6.6,5.3-11.1,3.4a12.415,12.415,0,0,0-6.8-1.1c-2.5.4-4.6.7-7-.6-7.1-4-3.4-14.6,2.1-17.9a14.882,14.882,0,0,1,6.3-2.2A6.478,6.478,0,0,1,77.6,62.7Z" transform="translate(-60.6 -3.801)" fill="url(#radial-gradient-2)"/>
        <path id="Trazado_628374" data-name="Trazado 628374" d="M72.3,79.2c1.3-.1,2.6-.6,3.9-.7.8,0,1.4,1,2.3,1.4,6.4,2.8,12.5-.9,12.6-8a13.3,13.3,0,0,0-.6-4.2c.1.2.3.3.4.5,2.6,3.6,3.7,9.1,1.4,13.1-2.6,4.7-6.6,5.3-11.1,3.4a12.415,12.415,0,0,0-6.8-1.1c-2.5.4-4.6.7-7-.6a7.33,7.33,0,0,1-3.9-6.8A12.75,12.75,0,0,0,72.3,79.2Z" transform="translate(-60.6 -3.682)" opacity="0.32" fill="url(#radial-gradient-3)"/>
        <path id="Trazado_628375" data-name="Trazado 628375" d="M79.2,71c4-2.3,9.2,3.7,5.3,6.3C81.2,79.4,75.4,73.1,79.2,71Z" transform="translate(-60.6 -3.743)" fill="#353533"/>
        <path id="Trazado_628376" data-name="Trazado 628376" d="M71.3,69.3c3.8,1.3,1.9,5.7-1.6,5.8C65,75.3,68.1,68.2,71.3,69.3Z" transform="translate(-60.6 -3.809)" fill="#353533"/>
        <path id="Trazado_628377" data-name="Trazado 628377" d="M180.5,48.7c2.4-1.2,5.5-3.2,6.9-5.7,1.7-3,2.7-5.5,6.8-5.1,3.6.3,7,3.1,9.7,5.5,3,2.6,7,5.8,9.1,9.3,3.3,5.4,2.9,14.4-1.2,19.3-2.4,2.8-5,3.4-8.6,3.6-3.5.2-6.7.2-9,3.4-1.9,2.7-1.4,6.3-2.8,9.3a14.474,14.474,0,0,1-6,6.7c-2.6,1.6-5.9,3.1-9.1,2.5s-4.3-5.1-3.1-7.7c1.2-2.7,5.1-3.5,4.9-6.8-.2-3.9-4.7-6.7-4.7-10.7,0-3.7,3.1-6.4,6.1-8,2.8-1.5,5.3-4.5,2.4-7.6-1.1-1.2-2.2-1.4-2.7-3.1C178.8,51.2,180.3,50.7,180.5,48.7Z" transform="translate(-60.6 -4.367)" fill="#2f3642"/>
        <path id="Trazado_628378" data-name="Trazado 628378" d="M157.8,85.3c1.1-.9,1.6-2.4,3.2-2.4,1.8-.1,2.6,1.7,3.5,3,2.3,3.2,3.1,4.7.3,8.1-2.1,2.6-6.4,5.4-9.9,3.6a4.374,4.374,0,0,1-2-4.8c.3-2.2,1.3-2.6,2.9-3.8C157.7,87.7,156.3,86.5,157.8,85.3Z" transform="translate(-60.6 -3.139)" fill="#2f3642"/>
        <path id="Trazado_628379" data-name="Trazado 628379" d="M181.9,102.5c5.6,3.8,11-9.4,17.1-3.3,3.4,3.4-3.6,5.4-5.7,6.7-3.1,1.9-3.9,5.4-6.6,7.5-3.7,2.9-9,.9-10.4-3.5a5.247,5.247,0,0,1,1.2-5.7C179.4,102.4,179.6,102.8,181.9,102.5Z" transform="translate(-60.6 -2.529)" fill="#2f3642"/>
      </g>
      <g id="Grupo_908182" data-name="Grupo 908182" transform="translate(179.698 57.846)">
        <path id="Trazado_628380" data-name="Trazado 628380" d="M338.3,71.5c0-1.3.6-3.8,2.1-3.2a16.962,16.962,0,0,1,.6-3.1c.3.3,1,.5,1.2.7a28.379,28.379,0,0,0,.6-3.1c.3.2.8.1,1.2.5.7-1.4.4-2.9,1.4-4.1.1.4.6.9.6,1.2.2-1.2.7-2.2,1.9-2.3,0,.6.4,1.1.3,1.8.4-.2.9-.1,1.3-.4a14.982,14.982,0,0,1,.2,2.2,3.039,3.039,0,0,1,.7-.5,3.4,3.4,0,0,1,.6,2.6c.5-.2,1.3,0,1.8-.2,0,.9.1,1.9.1,2.8.5-.2,1.2,0,1.7-.2.1,1.2-.3,2.3-.2,3.6,1.5,0,1.1,1.3,1.5,2a4.729,4.729,0,0,1,.7,3.8,1.7,1.7,0,0,0-.1.7c.3,0,.7.1,1,.1-.2,2.1-1.4,3.4-1.3,5.7-3.5-.9-5.5-4.3-7.8-6.7C345.8,72.6,341.4,72.7,338.3,71.5Z" transform="translate(-240.298 -58.1)" fill="#2f3642"/>
        <path id="Trazado_628381" data-name="Trazado 628381" d="M257.2,84.9c-1.9.7-4.3,1.4-6.4,1s-3.1-2.7-4.7-3.9a2.072,2.072,0,0,0-1.3-.9c-.7-.4-4.6-1.1-4.5.7,0,.5,1.5,1.3,1.9,1.7.6.7,1,1.4,1.6,2.1,2.6,3,5.2,4.9,9.1,4.4C255.8,90.4,256.8,87.1,257.2,84.9Z" transform="translate(-240.298 -58.1)" fill="#cfa47b"/>
        <path id="Trazado_628382" data-name="Trazado 628382" d="M290.1,118.8l-15.5,4.5a207.956,207.956,0,0,1,6.2,21.5c.8,3.6.9,3.4.9,7l7.9.3S288.9,124.3,290.1,118.8Z" transform="translate(-240.298 -58.1)" fill="#986043"/>
        <path id="Trazado_628383" data-name="Trazado 628383" d="M349.6,119.8s-6.3,17.4-6.2,22.3c.1,4.8,1.2,14.5,1.2,14.5l-7.8-.1s-1.3-7.5-4.1-11.9c-2.8-4.5-10.1-21.9-7.9-25.7C327.1,115,347.4,116.2,349.6,119.8Z" transform="translate(-240.298 -58.1)" fill="#986043"/>
        <path id="Trazado_628384" data-name="Trazado 628384" d="M331.3,139.1c1.1.2.6-1.3,1-2.2a4.185,4.185,0,0,1,1.1-1.8,3.036,3.036,0,0,1,3.5-.4,9.307,9.307,0,0,1,3.4,3.7c.5.9.6,1.9,1,2.8a3.318,3.318,0,0,0,2.3,2.2,6.621,6.621,0,0,0-.1-1.5c-.1-4.8,6.2-22.3,6.2-22.3-2.2-3.5-22.5-4.7-24.8-.9-1.7,2.9,2.1,13.6,5.2,20.5A2.251,2.251,0,0,1,331.3,139.1Z" transform="translate(-240.298 -58.1)" fill="#4b4a4b"/>
        <path id="Trazado_628385" data-name="Trazado 628385" d="M331.3,75.5s-16.6-3.5-19.6-5c-3-1.4-21.1-1-29.9,0s-27.8,8.9-31,27.9c-3.3,19,4.8,26.6,5.2,31.6s2.3,15.5,1.7,21.9h8.2s.9-9.1,2.1-11.6c1.2-2.6,2.9-11.9,3.4-11.4s16.5,11.4,24.7,10.1c8.1-1.4,11.9-4.8,12.3-4.1s1.3,8.3.9,12.3c-.4,4.1,6,6,6.2,10.8l7.9.3s-2.9-11.8-1.9-14.4c1.1-2.7,9.2-12.8,12.5-16.9C337.2,122.8,350.5,83.3,331.3,75.5Z" transform="translate(-240.298 -58.1)" fill="#cfa47b"/>
        <path id="Trazado_628386" data-name="Trazado 628386" d="M333.9,126.9c1.1-1.4,3.2-6.6,4.9-13.2a113.917,113.917,0,0,0-13.6-4.5c-7.8-2-12.4,3.5-18.7,6.8-6.5,3.3-15.5,5.9-22.3,2-2.9-1.6-5.5-3.8-8.5-5.2-2.5-1.2-13.6-5.8-13.2,2.4.2,4.8,3.3,8.4,3,13.4-.3,4.9,1,9.9,1.2,14.9.1-.6.1-1.1.2-1.7a10.881,10.881,0,0,1,2-4.2c1-3.7,2.1-9,2.5-8.6.5.5,16.5,11.4,24.7,10.1,8.1-1.4,11.9-4.8,12.3-4.1s1.3,8.3.9,12.3c-.4,4.1,6,6,6.2,10.8l7.9.3s-2.9-11.8-1.9-14.4C322.5,141.2,330.7,131.1,333.9,126.9Z" transform="translate(-240.298 -58.1)" fill="#c6a07b" opacity="0.55"/>
        <path id="Trazado_628387" data-name="Trazado 628387" d="M319,146.5c-.3-1-1.5-1.4-1.8-2.6a5.583,5.583,0,0,1,.4-3.1c.8-2.2,2.4-3.5,1.9-6.2-.5-2.4-2.1-4.6-4.5-4.2-2.3.4-4.5-1-3-3.4.7-1.1,1.2-1.5.6-2.9a15.1,15.1,0,0,0-1.8-2.6c-2.2-2.5-3.7.7-5.4,1.8-2.3,1.6-4-1-6.4-.6-2.9.5-3.4,3.3-5.2,5.1a11.047,11.047,0,0,1-6.7,2.9c-2.9.2-6.6.3-8.8-1.6-1.8-1.5-2.7-4.2-5-5-3-1.1-3.2,2.4-3.6,4.5-.3,1.4-.5,2.7-.9,4.1s-.1,1.8,0,3.1c.1,1.1-.7,2-1.2,3a11.812,11.812,0,0,0-.8,3.1c-.6,2.4-4.5,3-1.6,5.7a8.7,8.7,0,0,1,1.2,1.4c.4-3.5,1.1-7.4,1.8-8.7,1.2-2.6,2.9-11.9,3.4-11.4s16.5,11.4,24.7,10.1c8.1-1.4,11.9-4.8,12.3-4.1.4.6,1.2,7.6,1,11.7l.1.1c1.8.9,3.3,2.3,5.4,2.8C316.6,149.8,319.9,149.3,319,146.5Z" transform="translate(-240.298 -58.1)" fill="#2f3642"/>
        <path id="Trazado_628388" data-name="Trazado 628388" d="M257.5,143.7c2.7-1,5.2-2,6-5.1.7-2.8.2-5.7.9-8.4,1.8-6.5,9.5-15.7-1.6-19.6-9-3.2-8.4-12.8-5.3-20.3,3.1-7.6,11.9-16.4,20.6-15.7,4.3.4,8.2,8.5,13.5,2.6a23.9,23.9,0,0,1,3.5-3.6c1.5-1,3.8-2,5.3-.4,4.6,4.6,1.3,9-4.6,9.6-7.7.8-6.9,7.2-1.3,11.2,1,.7,2.9,1.8,3.5,3l.9,2.1c-.1,3.5,2.1,3.7,6.8.6a24.927,24.927,0,0,1-1.2-4.7c-.2-4.3,5.1-9.1,7.9-3.7a27.462,27.462,0,0,1,2,5c2,6.7,10,6.5,15.5,5.4a61.6,61.6,0,0,0,11.5-3.6c.4-9.8-1.9-19-10.1-22.4,0,0-16.6-3.5-19.6-5-3-1.4-21.1-1-29.9,0s-27.8,8.9-31,27.9c-3.3,19,4.8,26.6,5.2,31.6C256.2,132.8,257,138.2,257.5,143.7Z" transform="translate(-240.298 -58.1)" fill="#2f3642"/>
        <g id="Grupo_908178" data-name="Grupo 908178" transform="translate(96.361 98.3)">
          <path id="Trazado_628389" data-name="Trazado 628389" d="M336.8,156.4l7.8.1s5.1,6.7,4.6,7.5-8.8-.1-9-.5c-.6-.8-1.4-5.1-1.5-4.9-.1.3,1.4,4.9.2,4.9C338.2,163.5,336.1,160,336.8,156.4Z" transform="translate(-336.659 -156.4)" fill="#c6aba9"/>
          <path id="Trazado_628390" data-name="Trazado 628390" d="M343.8,156.8c.4.6,3.7,5.7,4.7,7.4a6.62,6.62,0,0,1-2,0C346.6,164.3,344.4,159.3,343.8,156.8Z" transform="translate(-336.659 -156.4)" fill="#997f7d"/>
        </g>
        <g id="Grupo_908179" data-name="Grupo 908179" transform="translate(75.016 99.9)">
          <path id="Trazado_628391" data-name="Trazado 628391" d="M315.5,158l7.8.3s4.9,6.9,4.4,7.6c-.5.8-8.8-.4-9-.7-.5-.9-1.2-5.2-1.4-4.9s1.3,5,.1,4.9C316.7,165.1,314.7,161.5,315.5,158Z" transform="translate(-315.314 -158)" fill="#c6aba9"/>
          <path id="Trazado_628392" data-name="Trazado 628392" d="M322.2,158.5c.4.6,3.5,5.8,4.5,7.6h-2C324.8,166.1,322.7,161,322.2,158.5Z" transform="translate(-315.314 -158)" fill="#997f7d"/>
        </g>
        <g id="Grupo_908180" data-name="Grupo 908180" transform="translate(41.216 93.7)">
          <path id="Trazado_628393" data-name="Trazado 628393" d="M281.7,151.8l7.8.2s5,6.8,4.5,7.6-8.8-.3-9-.6c-.5-.9-1.3-5.2-1.5-4.9s1.4,5,.1,4.9C282.9,158.9,280.9,155.3,281.7,151.8Z" transform="translate(-281.514 -151.8)" fill="#c6aba9"/>
          <path id="Trazado_628394" data-name="Trazado 628394" d="M288.7,152.2c.4.6,3.6,5.7,4.6,7.5a6.62,6.62,0,0,1-2,0A52.07,52.07,0,0,1,288.7,152.2Z" transform="translate(-281.514 -151.8)" fill="#997f7d"/>
        </g>
        <g id="Grupo_908181" data-name="Grupo 908181" transform="translate(17.181 93.4)">
          <path id="Trazado_628395" data-name="Trazado 628395" d="M257.7,151.5l8.1.4s5,7.2,4.5,7.9-9.1-.5-9.3-.9c-.5-.9-1.2-5.4-1.4-5.1s1.3,5.2,0,5C258.9,158.9,256.8,155.2,257.7,151.5Z" transform="translate(-257.479 -151.5)" fill="#c6aba9"/>
          <path id="Trazado_628396" data-name="Trazado 628396" d="M264.7,152.2c.4.7,3.6,6,4.6,7.9h-2A71.337,71.337,0,0,1,264.7,152.2Z" transform="translate(-257.479 -151.5)" fill="#997f7d"/>
        </g>
        <path id="Trazado_628397" data-name="Trazado 628397" d="M331.4,73c-.9-1.4-2.1-1.5-2.4-3.6a7.719,7.719,0,0,0-1.5.2c.5-3.2-3.5-2.5-3.5-5.2-1.3.1-2-.8-1.8-2.1-.7-.4-1.4-.9-2.1-1.3-1.4.4-2.5-.7-3.8-.6-1.7,0-1.6,1.3-3.4,1.7.7,1.2-.3,2.9-.8,4.1a8.208,8.208,0,0,0-.6,4.7c.3,1.8.1,8.1,1.9,8.4,0,1.3-.4,2.9,1.1,3.1a5.242,5.242,0,0,0,.3,2.5c1.7.2,6-5.6,7.8-6.8C324.6,76.7,331,75.7,331.4,73Z" transform="translate(-240.298 -58.1)" fill="#2f3642"/>
        <path id="Trazado_628398" data-name="Trazado 628398" d="M323.1,75.3c-3.4,2.2-9,4.5-9.2,11.3-.1,6.8-1.7,8.9-3.1,12.2a27.823,27.823,0,0,0,2.9,24.9c6.9,11,22.7,8,29.9,4.8,7.2-3.1,15.7-5,16.6-12,.9-7.1,3.3-7.3,3.3-11.5s-4.8-12.6-5-15.3c-.1-2.8-1.2-16.5-13.7-17.9C332.4,70.3,326.5,73.1,323.1,75.3Z" transform="translate(-240.298 -58.1)" fill="#cfa47b"/>
        <path id="Trazado_628399" data-name="Trazado 628399" d="M360,96.5c.2-.3.3-.6.5-.9a34.812,34.812,0,0,1-1.9-5.2,40.182,40.182,0,0,1-1.8,5.9,26.815,26.815,0,0,0-.7,2.7A5.731,5.731,0,0,0,360,96.5Z" transform="translate(-240.298 -58.1)" fill="#c6a07b" opacity="0.32"/>
        <path id="Trazado_628400" data-name="Trazado 628400" d="M330.9,103.7a12.6,12.6,0,0,1-6.2-5.2,53.5,53.5,0,0,0-3.7-5,.367.367,0,0,1-.1.3c-1.4,5.6.8,7,4,10.4,1.6,1.8,5.1,6.3,8.1,4.8.6-.3,3.5-2.3,5.6-3.8C336.2,104.5,333.4,104.6,330.9,103.7Z" transform="translate(-240.298 -58.1)" fill="#c6a07b" opacity="0.32"/>
        <path id="Trazado_628401" data-name="Trazado 628401" d="M355.7,105.1c-.6-.1-2.1-.5-3.3-.6-.1.2-.1.3-.2.4-1.1,1.4-4.4,3.9-1.8,5.5,1.9,1.1,4,.5,5.6-.9.7-.7,1.9-1.6,2.1-2.6C358.2,105.6,356.5,105.3,355.7,105.1Z" transform="translate(-240.298 -58.1)" fill="url(#radial-gradient-4)"/>
        <path id="Trazado_628402" data-name="Trazado 628402" d="M350.8,109.7h.3c.4-.2.9-.4,1.3-.6a7.644,7.644,0,0,1,3-.1,2.92,2.92,0,0,1,.9.2,4.806,4.806,0,0,0,1.7-2.3c.2-1.3-1.5-1.6-2.3-1.8-.6-.1-2.1-.5-3.3-.6-.1.2-.1.3-.2.4-1,1.3-3.9,3.6-2.3,5.1A2.39,2.39,0,0,1,350.8,109.7Z" transform="translate(-240.298 -58.1)" fill="#71545a"/>
        <path id="Trazado_628403" data-name="Trazado 628403" d="M332.1,111.7c1,2.5,1.1,5.3,1.9,7.9,1.8,5.4-7.2.3-8,1.3a3.064,3.064,0,0,1-4,.7c-5.2-2.7-2.1-7.1-4-12.3-1.6-4.4-5-7.1-7.1-10.8,0,.1-.1.2-.1.3a27.823,27.823,0,0,0,2.9,24.9c.4.6.8,1.1,1.2,1.6h0a17.879,17.879,0,0,0,1.3,1.4l.2.2a7.551,7.551,0,0,0,1.4,1.1c.1.1.2.1.3.2.5.3.9.6,1.4.9.1.1.2.1.3.2.5.2,1,.5,1.5.7.1.1.3.1.4.2.5.2,1,.3,1.5.5.2,0,.3.1.5.1l1.5.3c.2,0,.3.1.5.1.5.1,1,.1,1.5.2h.6c.5,0,1,.1,1.5.1h2.6c.5,0,.9-.1,1.4-.1.2,0,.5-.1.7-.1.4-.1.9-.1,1.3-.2.3,0,.5-.1.7-.1.4-.1.8-.1,1.1-.2s.5-.1.8-.2a3.553,3.553,0,0,1,1-.2l.9-.3a3.091,3.091,0,0,1,.8-.2c.3-.1.7-.2,1-.3.2-.1.4-.1.6-.2.5-.2,1-.4,1.4-.6a30.543,30.543,0,0,1,3.2-1.3c6.3-2.5,12.7-4.7,13.5-10.7a19.232,19.232,0,0,1,1-4.4l-.2.2c-2,1.9-4.3,4.1-6.2,6a3.692,3.692,0,0,1-3,1c-3.5-.8-4.5.5-7.5,1.6-1.5.6-2.6,1.5-4.2.6-5.1-3.1-2.2-6.8-8.1-10.1" transform="translate(-240.298 -58.1)" fill="#c6a07b" opacity="0.55"/>
        <path id="Trazado_628404" data-name="Trazado 628404" d="M352.8,121.3a4.7,4.7,0,0,1-2.6.2c-3-.3-4.6,1.4-7,2.6a9.438,9.438,0,0,1-6.4,1c-6.8-.9-9.8,3.4-16.1-1-2.7-1.9-4.3-4.6-2.3-7.5,3.3-4.8-3.8-12,2.7-15.1,1.6-.8,0-5.9,1.7-7.2,2.6-2,3.9-4.4,5.5-7.1,1.9-3.3,6.5-2.2,9.1-.7,2,1.2,3,4,3.9,5.9,2.2,4.7,7.4,4.1,11.7,2.9a22.565,22.565,0,0,1-1.1-2.2,10,10,0,0,1-.5-6.6c1-2.9,3.4-4.6,5.9-4.2-1.5-4.7-4.9-10-12.4-10.9-12.4-1.4-18.3,1.4-21.7,3.6s-9,4.5-9.2,11.3c-.1,6.8-1.7,8.9-3.1,12.2a27.823,27.823,0,0,0,2.9,24.9c6.9,11,22.7,8,29.9,4.8,7.2-3.1,15.7-5,16.6-12v-.1A33.661,33.661,0,0,1,352.8,121.3Z" transform="translate(-240.298 -58.1)" fill="#2f3642"/>
        <path id="Trazado_628405" data-name="Trazado 628405" d="M329.6,92.3c-.3-3.1,4.4-5.3,5.9-2.2,1.2,2.4-1.9.9-2.8,1C332,91.2,329.8,93.8,329.6,92.3Z" transform="translate(-240.298 -58.1)" fill="#353533"/>
        <path id="Trazado_628406" data-name="Trazado 628406" d="M353.2,90c-.3-1.3.5-2,1.6-2.3,1.4-.4,2.7.2,2.4,1.8-.2.2-1.3-.4-2.2-.2C354.2,89.6,353.3,90.5,353.2,90Z" transform="translate(-240.298 -58.1)" fill="#353533"/>
        <path id="Trazado_628407" data-name="Trazado 628407" d="M338.5,107.4c1.9,2.5,4.3,4.1,7.6,3,1.6-.5,2.5-1.7,3.9-2.5a10.627,10.627,0,0,1,5-1.3c.2,0,.5,0,.6-.1h.1v.1a15.525,15.525,0,0,1,2.1.4l1.5.3a5.768,5.768,0,0,0,1.4.3c.4-.1.7-.2,1.1-.3.2.8-1,1-1.6,1a7.413,7.413,0,0,1-2.1-.1,8.585,8.585,0,0,1-1.7-.3,6.154,6.154,0,0,0-1.9-.2,3.812,3.812,0,0,0-1.5.1,11.9,11.9,0,0,0-3.3,2.2c-2.3,2-5.1,3.6-8,1.8A6.367,6.367,0,0,1,338.5,107.4Z" transform="translate(-240.298 -58.1)" fill="#71545a"/>
        <path id="Trazado_628408" data-name="Trazado 628408" d="M348.6,109.6c.8,1.8,3.7,2.5,5.4,1.9a5.079,5.079,0,0,0,2-1.6,16.8,16.8,0,0,0,1.8-2.1c-1.8-.1-2.9,2.4-4.6,2.7a3.805,3.805,0,0,1-2.9-.5C349.6,109.5,349.4,108.5,348.6,109.6Z" transform="translate(-240.298 -58.1)" fill="#71545a"/>
        <path id="Trazado_628409" data-name="Trazado 628409" d="M352.5,94.8a15.1,15.1,0,0,0-4.4.6,8.232,8.232,0,0,0-4.2,2.9c-1.7,2.3-2.4,5.9-.9,8.5,1.7,3,4.3,3.4,7.2,2.2a8.362,8.362,0,0,1,4.4-.7c1.6.2,3,.4,4.5-.4,4.6-2.6,2.2-9.4-1.3-11.6a8.741,8.741,0,0,0-4.1-1.4A4.869,4.869,0,0,0,352.5,94.8Z" transform="translate(-240.298 -58.1)" fill="url(#radial-gradient-5)"/>
        <path id="Trazado_628410" data-name="Trazado 628410" d="M356,105.4a21.657,21.657,0,0,0-2.5-.4c-.5,0-.9.6-1.5.9-4.1,1.8-8.1-.6-8.1-5.2a7.664,7.664,0,0,1,.4-2.7l-.3.3c-1.7,2.3-2.4,5.9-.9,8.5,1.7,3,4.3,3.4,7.2,2.2a8.362,8.362,0,0,1,4.4-.7c1.6.2,3,.4,4.5-.4a4.719,4.719,0,0,0,2.5-4.4A8.055,8.055,0,0,1,356,105.4Z" transform="translate(-240.298 -58.1)" opacity="0.32" fill="url(#radial-gradient-6)"/>
        <path id="Trazado_628411" data-name="Trazado 628411" d="M351.5,100.2c-2.6-1.5-5.9,2.4-3.4,4.1C350.2,105.6,353.9,101.5,351.5,100.2Z" transform="translate(-240.298 -58.1)" fill="#353533"/>
        <path id="Trazado_628412" data-name="Trazado 628412" d="M356.6,99.1c-2.4.8-1.3,3.7,1,3.8C360.7,103,358.7,98.4,356.6,99.1Z" transform="translate(-240.298 -58.1)" fill="#353533"/>
        <path id="Trazado_628413" data-name="Trazado 628413" d="M285.9,85.7a10.847,10.847,0,0,1-4.5-3.7c-1.1-1.9-1.7-3.5-4.4-3.3-2.3.2-4.5,2-6.3,3.5-1.9,1.7-4.5,3.8-5.9,6-2.1,3.5-1.9,9.3.8,12.5,1.5,1.8,3.3,2.2,5.5,2.4,2.3.1,4.4.1,5.8,2.2,1.2,1.8.9,4.1,1.8,6a9.555,9.555,0,0,0,3.9,4.3c1.7,1,3.8,2,5.9,1.6s2.8-3.3,2-5-3.3-2.3-3.2-4.4c.1-2.5,3-4.3,3-6.9,0-2.4-2-4.1-3.9-5.1-1.8-1-3.5-2.9-1.6-4.9.7-.8,1.4-.9,1.7-2C287,87.4,286.1,87,285.9,85.7Z" transform="translate(-240.298 -58.1)" fill="#2f3642"/>
        <path id="Trazado_628414" data-name="Trazado 628414" d="M300.6,109.4c-.7-.6-1.1-1.5-2.1-1.6-1.2-.1-1.6,1.1-2.3,1.9-1.5,2.1-2,3.1-.2,5.2,1.4,1.7,4.2,3.5,6.4,2.4a2.759,2.759,0,0,0,1.3-3.1c-.2-1.4-.8-1.7-1.9-2.5S301.6,110.2,300.6,109.4Z" transform="translate(-240.298 -58.1)" fill="#2f3642"/>
        <path id="Trazado_628415" data-name="Trazado 628415" d="M285,120.5c-3.6,2.4-7.1-6.1-11-2.1-2.2,2.2,2.3,3.5,3.7,4.4,2,1.2,2.5,3.5,4.3,4.9a4.316,4.316,0,0,0,6.7-2.3,3.41,3.41,0,0,0-.8-3.7C286.7,120.4,286.5,120.7,285,120.5Z" transform="translate(-240.298 -58.1)" fill="#2f3642"/>
      </g>
    </g>
  </g>
</svg>
