<svg xmlns="http://www.w3.org/2000/svg" width="872.005" height="473" viewBox="0 0 872.005 473">
  <g id="Grupo_905577" data-name="Grupo 905577" transform="translate(-337.661 -527)">
    <rect id="Rectángulo_34091" data-name="Rectángulo 34091" width="295.501" height="72" rx="36" transform="translate(647.917 662)" fill="#0b481e"/>
    <rect id="Rectángulo_34787" data-name="Rectángulo 34787" width="200.333" height="50" rx="25" transform="translate(1009.333 673)" fill="#ffa686"/>
    <rect id="Rectángulo_330002" data-name="Rectángulo 330002" width="287.083" height="50" rx="25" transform="translate(495 527)" fill="#cee284"/>
    <rect id="Rectángulo_330003" data-name="Rectángulo 330003" width="238.917" height="50" rx="25" transform="translate(817.917 527.5)" fill="#cee284"/>
    <rect id="Rectángulo_330007" data-name="Rectángulo 330007" width="144.834" height="50" rx="25" transform="translate(402.333 950)" fill="#cee284"/>
    <text id="Labores_de_manejo_animal" data-name="Labores de manejo animal" transform="translate(788.251 705)" fill="#fff" font-size="20" font-family="Roboto-Black, Roboto" font-weight="800"><tspan x="-118.555" y="0">Labores de manejo animal</tspan></text>
    <text id="Identificación_animal" data-name="Identificación animal" transform="translate(1110.333 704)" fill="#12263f" font-size="16" font-family="Roboto-Black, Roboto" font-weight="800"><tspan x="-75.859" y="0">Identificación animal</tspan></text>
    <text id="Equipo_instrumentos_e_insumos" data-name="Equipo, instrumentos e insumos" transform="translate(641 557.5)" fill="#12263f" font-size="16" font-family="Roboto-Black, Roboto" font-weight="800"><tspan x="-116.043" y="0">Equipo, instrumentos e insumos</tspan></text>
    <text id="Sujeción_e_inmovilización" data-name="Sujeción e inmovilización" transform="translate(940.667 557.5)" fill="#12263f" font-size="16" font-family="Roboto-Black, Roboto" font-weight="800"><tspan x="-92.223" y="0">Sujeción e inmovilización</tspan></text>
    <text id="Medicamentos_" data-name="Medicamentos " transform="translate(475.333 980)" fill="#12263f" font-size="16" font-family="Roboto-Regular, Roboto"><tspan x="-55.082" y="0">Medicamentos </tspan></text>
    <g id="Grupo_84067" data-name="Grupo 84067" transform="translate(1394.575 -101.833) rotate(90)">
      <line id="Línea_154" data-name="Línea 154" x1="0.167" y2="61.073" transform="translate(799.166 746.742)" fill="none" stroke="#0b481e" stroke-width="3"/>
      <path id="Trazado_118034" data-name="Trazado 118034" d="M-11969.333-9290.667l10,6,10-6" transform="translate(12759.666 10092.815)" fill="none" stroke="#0b481e" stroke-linecap="round" stroke-width="3"/>
    </g>
    <g id="Grupo_905569" data-name="Grupo 905569" transform="translate(-324 137.258)">
      <line id="Línea_154-2" data-name="Línea 154" x1="0.167" y2="61.073" transform="translate(799.166 746.742)" fill="none" stroke="#0b481e" stroke-width="3"/>
      <path id="Trazado_118034-2" data-name="Trazado 118034" d="M-11969.333-9290.667l10,6,10-6" transform="translate(12758.666 10092.815)" fill="none" stroke="#0b481e" stroke-linecap="round" stroke-width="3"/>
    </g>
    <g id="Grupo_905570" data-name="Grupo 905570" transform="translate(-385.333 -23.742)">
      <line id="Línea_154-3" data-name="Línea 154" x1="0.167" y2="39" transform="translate(799.166 746.742)" fill="none" stroke="#0b481e" stroke-width="3"/>
      <path id="Trazado_118034-3" data-name="Trazado 118034" d="M-11969.333-9290.667l10,6,10-6" transform="translate(12758.666 10070.742)" fill="none" stroke="#0b481e" stroke-linecap="round" stroke-width="3"/>
    </g>
    <g id="Grupo_905572" data-name="Grupo 905572" transform="translate(420.667 815)">
      <line id="Línea_154-4" data-name="Línea 154" x1="0.167" y2="41.167" transform="translate(9.833)" fill="none" stroke="#0b481e" stroke-width="3"/>
      <path id="Trazado_118034-4" data-name="Trazado 118034" d="M-11969.333-9290.667l10,6,10-6" transform="translate(11969.333 9326.167)" fill="none" stroke="#0b481e" stroke-linecap="round" stroke-width="3"/>
    </g>
    <g id="Grupo_905573" data-name="Grupo 905573" transform="translate(515 815.5)">
      <line id="Línea_154-5" data-name="Línea 154" x1="0.167" y2="41.167" transform="translate(9.833)" fill="none" stroke="#0b481e" stroke-width="3"/>
      <path id="Trazado_118034-5" data-name="Trazado 118034" d="M-11969.333-9290.667l10,6,10-6" transform="translate(11969.333 9326.167)" fill="none" stroke="#0b481e" stroke-linecap="round" stroke-width="3"/>
    </g>
    <g id="Grupo_905571" data-name="Grupo 905571" transform="translate(-248.666 -23.742)">
      <line id="Línea_154-6" data-name="Línea 154" x1="0.167" y2="39" transform="translate(799.166 746.742)" fill="none" stroke="#0b481e" stroke-width="3"/>
      <path id="Trazado_118034-6" data-name="Trazado 118034" d="M-11969.333-9290.667l10,6,10-6" transform="translate(12758.666 10070.742)" fill="none" stroke="#0b481e" stroke-linecap="round" stroke-width="3"/>
    </g>
    <g id="Grupo_905574" data-name="Grupo 905574" transform="translate(310.999 -23.242)">
      <line id="Línea_154-7" data-name="Línea 154" x1="0.167" y2="39" transform="translate(799.166 746.742)" fill="none" stroke="#0b481e" stroke-width="3"/>
      <path id="Trazado_118034-7" data-name="Trazado 118034" d="M-11969.333-9290.667l10,6,10-6" transform="translate(12758.666 10070.742)" fill="none" stroke="#0b481e" stroke-linecap="round" stroke-width="3"/>
    </g>
    <g id="Grupo_905575" data-name="Grupo 905575" transform="translate(310.999 67.258)">
      <line id="Línea_154-8" data-name="Línea 154" x1="0.167" y2="39" transform="translate(799.166 746.742)" fill="none" stroke="#0b481e" stroke-width="3"/>
      <path id="Trazado_118034-8" data-name="Trazado 118034" d="M-11969.333-9290.667l10,6,10-6" transform="translate(12758.666 10070.742)" fill="none" stroke="#0b481e" stroke-linecap="round" stroke-width="3"/>
    </g>
    <g id="Grupo_905576" data-name="Grupo 905576" transform="translate(310.999 157.758)">
      <line id="Línea_154-9" data-name="Línea 154" x1="0.167" y2="39" transform="translate(799.166 746.742)" fill="none" stroke="#0b481e" stroke-width="3"/>
      <path id="Trazado_118034-9" data-name="Trazado 118034" d="M-11969.333-9290.667l10,6,10-6" transform="translate(12758.666 10070.742)" fill="none" stroke="#0b481e" stroke-linecap="round" stroke-width="3"/>
    </g>
    <g id="Grupo_905562" data-name="Grupo 905562" transform="translate(191.852 1498.333) rotate(-90)">
      <line id="Línea_154-10" data-name="Línea 154" x1="0.167" y2="61.073" transform="translate(799.166 746.742)" fill="none" stroke="#0b481e" stroke-width="3"/>
      <path id="Trazado_118034-10" data-name="Trazado 118034" d="M-11969.333-9290.667l10,6,10-6" transform="translate(12759.666 10092.815)" fill="none" stroke="#0b481e" stroke-linecap="round" stroke-width="3"/>
    </g>
    <g id="Grupo_905563" data-name="Grupo 905563" transform="translate(1672.881 1391.445) rotate(180)">
      <line id="Línea_154-11" data-name="Línea 154" x1="0.882" y2="77.87" transform="translate(799.166 729.945)" fill="none" stroke="#0b481e" stroke-width="3"/>
      <path id="Trazado_118034-11" data-name="Trazado 118034" d="M-11969.333-9290.667l10,6,10-6" transform="translate(12759.666 10092.815)" fill="none" stroke="#0b481e" stroke-linecap="round" stroke-width="3"/>
    </g>
    <g id="Grupo_905564" data-name="Grupo 905564" transform="translate(1515.333 1391.445) rotate(180)">
      <line id="Línea_154-12" data-name="Línea 154" x1="0.882" y2="78.87" transform="translate(799.166 728.945)" fill="none" stroke="#0b481e" stroke-width="3"/>
      <path id="Trazado_118034-12" data-name="Trazado 118034" d="M-11969.333-9290.667l10,6,10-6" transform="translate(12759.666 10092.815)" fill="none" stroke="#0b481e" stroke-linecap="round" stroke-width="3"/>
    </g>
    <rect id="Rectángulo_34788" data-name="Rectángulo 34788" width="210" height="50" rx="25" transform="translate(370.333 673.5)" fill="#ffa686"/>
    <text id="Sanidad" transform="translate(475.333 703.024)" fill="#12263f" font-size="16" font-family="Roboto-Black, Roboto" font-weight="800"><tspan x="-29.211" y="0">Sanidad</tspan></text>
    <rect id="Rectángulo_330004" data-name="Rectángulo 330004" width="144.834" height="50" rx="25" transform="translate(337.661 765.5)" fill="#cee284"/>
    <rect id="Rectángulo_330005" data-name="Rectángulo 330005" width="144.834" height="50" rx="25" transform="translate(487 765)" fill="#cee284"/>
    <rect id="Rectángulo_330008" data-name="Rectángulo 330008" width="190" height="50" rx="25" transform="translate(1015.333 764.5)" fill="#cee284"/>
    <rect id="Rectángulo_330009" data-name="Rectángulo 330009" width="116" height="50" rx="25" transform="translate(1052.333 855)" fill="#cee284"/>
    <rect id="Rectángulo_330010" data-name="Rectángulo 330010" width="116" height="50" rx="25" transform="translate(1052.333 945.5)" fill="#cee284"/>
    <rect id="Rectángulo_330006" data-name="Rectángulo 330006" width="144.834" height="50" rx="25" transform="translate(402.333 859)" fill="#cee284"/>
    <text id="Enfermedades" transform="translate(409.328 795.5)" fill="#12263f" font-size="16" font-family="Roboto-Regular, Roboto"><tspan x="-51.672" y="0">Enfermedades</tspan></text>
    <text id="Toma_muestra" data-name="Toma muestra" transform="translate(558.667 795)" fill="#12263f" font-size="16" font-family="Roboto-Regular, Roboto"><tspan x="-51.594" y="0">Toma muestra</tspan></text>
    <text id="Indicadores_bienestar" data-name="Indicadores bienestar" transform="translate(1110.333 794.5)" fill="#12263f" font-size="16" font-family="Roboto-Regular, Roboto"><tspan x="-76.824" y="0">Indicadores bienestar</tspan></text>
    <text id="Técnicas" transform="translate(1110.333 885)" fill="#12263f" font-size="16" font-family="Roboto-Regular, Roboto"><tspan x="-32.219" y="0">Técnicas</tspan></text>
    <text id="Registro" transform="translate(1110.333 975.5)" fill="#12263f" font-size="16" font-family="Roboto-Regular, Roboto"><tspan x="-29.523" y="0">Registro</tspan></text>
    <text id="Plan_sanitario" data-name="Plan sanitario" transform="translate(475.333 889)" fill="#12263f" font-size="16" font-family="Roboto-Regular, Roboto"><tspan x="-48.742" y="0">Plan sanitario</tspan></text>
  </g>
</svg>
