<svg xmlns="http://www.w3.org/2000/svg" xmlns:xlink="http://www.w3.org/1999/xlink" width="96" height="95" viewBox="0 0 96 95">
  <defs>
    <linearGradient id="linear-gradient" x1="0.5" x2="0.5" y2="1" gradientUnits="objectBoundingBox">
      <stop offset="0" stop-color="#fff"/>
      <stop offset="1" stop-color="#e9e9e9"/>
    </linearGradient>
    <filter id="Elipse_7662" x="0" y="0" width="96" height="95" filterUnits="userSpaceOnUse">
      <feOffset dy="3" input="SourceAlpha"/>
      <feGaussianBlur stdDeviation="3" result="blur"/>
      <feFlood flood-opacity="0.161"/>
      <feComposite operator="in" in2="blur"/>
      <feComposite in="SourceGraphic"/>
    </filter>
  </defs>
  <g id="Grupo_1004664" data-name="Grupo 1004664" transform="translate(9 5.622)">
    <g transform="matrix(1, 0, 0, 1, -9, -5.62)" filter="url(#Elipse_7662)">
      <ellipse id="Elipse_7662-2" data-name="Elipse 7662" cx="39" cy="38.5" rx="39" ry="38.5" transform="translate(9 6)" fill="url(#linear-gradient)"/>
    </g>
    <g id="Grupo_1004658" data-name="Grupo 1004658" transform="translate(16.826 18.716)">
      <path id="Trazado_632068" data-name="Trazado 632068" d="M45.154,205.829a.7.7,0,0,1-.686-.581l-1.955-11.636a.7.7,0,0,1,1.374-.231l1.955,11.636a.7.7,0,0,1-.688.812Zm0,0" transform="translate(-38.724 -175.657)" fill="#d8e4ef"/>
      <path id="Trazado_632069" data-name="Trazado 632069" d="M6.96,12.086,9.276,25.871a1.557,1.557,0,0,1-.267,1.162,1.594,1.594,0,0,1-.337.345A1.559,1.559,0,0,1,6.2,26.388L3.887,12.6a1.558,1.558,0,1,1,3.073-.516Zm0,0" transform="translate(-3.521 -9.827)" fill="#c9508b"/>
      <path id="Trazado_632070" data-name="Trazado 632070" d="M21.352,12.836l2.316,13.785a1.557,1.557,0,0,1-.267,1.162,1.593,1.593,0,0,1-.337.345A1.558,1.558,0,0,1,22,26.9L19.683,13.117a1.558,1.558,0,0,1,.605-1.507,1.56,1.56,0,0,1,1.063,1.227Zm0,0" transform="translate(-17.913 -10.577)" fill="#e08ca4"/>
      <path id="Trazado_632071" data-name="Trazado 632071" d="M238.792,196.61a.729.729,0,0,1-.073,0,.7.7,0,0,1-.621-.765l1.227-11.735a.7.7,0,0,1,1.386.145l-1.227,11.735A.7.7,0,0,1,238.792,196.61Zm0,0" transform="translate(-216.925 -167.167)" fill="#d8e4ef"/>
      <path id="Trazado_632072" data-name="Trazado 632072" d="M248.586,1.721l-1.453,13.9a1.556,1.556,0,0,1-.568,1.048,1.59,1.59,0,0,1-.417.242,1.559,1.559,0,0,1-2.114-1.615l1.454-13.9a1.558,1.558,0,1,1,3.1.324Zm0,0" transform="translate(-222.328 -0.001)" fill="#c9508b"/>
      <path id="Trazado_632073" data-name="Trazado 632073" d="M263.1,4.318l-1.453,13.9a1.556,1.556,0,0,1-.568,1.048,1.592,1.592,0,0,1-.417.242,1.557,1.557,0,0,1-.7-1.467l1.453-13.9a1.558,1.558,0,0,1,.986-1.291,1.559,1.559,0,0,1,.7,1.467Zm0,0" transform="translate(-236.845 -2.598)" fill="#e08ca4"/>
      <path id="Trazado_632074" data-name="Trazado 632074" d="M45.523,315.924v9.422H0v-9.422a11.829,11.829,0,0,1,4.1-2.845c13.141-5.76,41.42,2.845,41.42,2.845Zm0,0" transform="translate(0 -283.434)" fill="#f7d5b9"/>
      <path id="Trazado_632075" data-name="Trazado 632075" d="M30.38,345.693H0v-9.422a11.828,11.828,0,0,1,4.1-2.845c-.759,5.324,6.766,12.267,26.276,12.267Zm0,0" transform="translate(0 -303.781)" fill="#d89f7d"/>
      <path id="Trazado_632076" data-name="Trazado 632076" d="M145.091,257.884a.7.7,0,0,1-.7-.7v-11.8a.7.7,0,1,1,1.393,0v11.8A.7.7,0,0,1,145.091,257.884Zm0,0" transform="translate(-131.556 -222.935)" fill="#d8e4ef"/>
      <path id="Trazado_632077" data-name="Trazado 632077" d="M137.827,61.824V75.8a1.556,1.556,0,0,1-.456,1.1,1.6,1.6,0,0,1-.389.284,1.559,1.559,0,0,1-2.271-1.386V61.824a1.558,1.558,0,1,1,3.116,0Zm0,0" transform="translate(-122.734 -54.907)" fill="#c9508b"/>
      <path id="Trazado_632078" data-name="Trazado 632078" d="M152.422,63.585V77.564a1.556,1.556,0,0,1-.456,1.1,1.6,1.6,0,0,1-.389.284,1.558,1.558,0,0,1-.846-1.386V63.585a.951.951,0,1,1,1.692,0Zm0,0" transform="translate(-137.329 -56.669)" fill="#e08ca4"/>
      <path id="Trazado_632079" data-name="Trazado 632079" d="M398.973,254.974a.7.7,0,0,1-.117-.01.7.7,0,0,1-.571-.8l1.963-11.635a.7.7,0,1,1,1.374.232l-1.963,11.635A.7.7,0,0,1,398.973,254.974Zm0,0" transform="translate(-362.864 -220.433)" fill="#d8e4ef"/>
      <path id="Trazado_632080" data-name="Trazado 632080" d="M419,61.77l-2.325,13.784a1.556,1.556,0,0,1-.633,1.011,1.6,1.6,0,0,1-.431.215,1.559,1.559,0,0,1-2.009-1.745l2.325-13.783A1.558,1.558,0,1,1,419,61.77Zm0,0" transform="translate(-376.805 -54.622)" fill="#c9508b"/>
      <path id="Trazado_632081" data-name="Trazado 632081" d="M433.39,64.949l-2.325,13.784a1.557,1.557,0,0,1-.633,1.011,1.6,1.6,0,0,1-.431.215,1.557,1.557,0,0,1-.6-1.507l2.325-13.784a.951.951,0,1,1,1.668.281Zm0,0" transform="translate(-391.198 -57.801)" fill="#e08ca4"/>
    </g>
  </g>
</svg>
