<svg xmlns="http://www.w3.org/2000/svg" xmlns:xlink="http://www.w3.org/1999/xlink" width="96.094" height="96.093" viewBox="0 0 96.094 96.093">
  <defs>
    <linearGradient id="linear-gradient" x1="0.5" x2="0.5" y2="1" gradientUnits="objectBoundingBox">
      <stop offset="0" stop-color="#fff"/>
      <stop offset="1" stop-color="#e9e9e9"/>
    </linearGradient>
    <filter id="Elipse_7659" x="0" y="0" width="96.094" height="96.093" filterUnits="userSpaceOnUse">
      <feOffset dy="3" input="SourceAlpha"/>
      <feGaussianBlur stdDeviation="3" result="blur"/>
      <feFlood flood-opacity="0.161"/>
      <feComposite operator="in" in2="blur"/>
      <feComposite in="SourceGraphic"/>
    </filter>
  </defs>
  <g id="Grupo_1004663" data-name="Grupo 1004663" transform="translate(9 6)">
    <g transform="matrix(1, 0, 0, 1, -9, -6)" filter="url(#Elipse_7659)">
      <ellipse id="Elipse_7659-2" data-name="Elipse 7659" cx="39.047" cy="39.047" rx="39.047" ry="39.047" transform="translate(9 6)" fill="url(#linear-gradient)"/>
    </g>
    <g id="Grupo_1004657" data-name="Grupo 1004657" transform="translate(22.775 15.854)">
      <path id="Trazado_632096" data-name="Trazado 632096" d="M27.178,93.042v23.367H0V90.027l5.436-5.436V77H21.743v4.828Z" transform="translate(0 -70.024)" fill="#c86e59"/>
      <path id="Trazado_632097" data-name="Trazado 632097" d="M163.589,93.042v23.367H150V77h8.154v4.828Z" transform="translate(-136.411 -70.024)" fill="#a34f3e"/>
      <g id="Grupo_1004648" data-name="Grupo 1004648" transform="translate(5.436 32.795)">
        <path id="Trazado_632098" data-name="Trazado 632098" d="M64.077,370.154a4.077,4.077,0,1,1,4.077-4.077A4.081,4.081,0,0,1,64.077,370.154Z" transform="translate(-60 -362)" fill="#fed843"/>
      </g>
      <g id="Grupo_1004652" data-name="Grupo 1004652" transform="translate(13.589 32.795)">
        <g id="Grupo_1004651" data-name="Grupo 1004651">
          <g id="Grupo_1004650" data-name="Grupo 1004650">
            <g id="Grupo_1004649" data-name="Grupo 1004649">
              <path id="Trazado_632099" data-name="Trazado 632099" d="M154.077,370.154a4.077,4.077,0,1,1,4.077-4.077A4.081,4.081,0,0,1,154.077,370.154Z" transform="translate(-150 -362)" fill="#ffb64c"/>
            </g>
          </g>
        </g>
      </g>
      <g id="Grupo_1004653" data-name="Grupo 1004653" transform="translate(9.513 24.642)">
        <path id="Trazado_632100" data-name="Trazado 632100" d="M109.077,272a4.077,4.077,0,1,0,4.077,4.077A4.082,4.082,0,0,0,109.077,272Z" transform="translate(-105 -272)" fill="#fed843"/>
      </g>
      <path id="Trazado_632101" data-name="Trazado 632101" d="M154.077,276.077A4.082,4.082,0,0,1,150,280.154V272A4.082,4.082,0,0,1,154.077,276.077Z" transform="translate(-136.411 -247.358)" fill="#ffb64c"/>
      <path id="Trazado_632102" data-name="Trazado 632102" d="M90,0h10.871V6.976H90Z" transform="translate(-81.846)" fill="#efffcc"/>
      <path id="Trazado_632103" data-name="Trazado 632103" d="M150,0h5.436V6.976H150Z" transform="translate(-136.411)" fill="#d3f3c2"/>
      <g id="Grupo_1004654" data-name="Grupo 1004654" transform="translate(2.718 5.617)">
        <path id="Trazado_632104" data-name="Trazado 632104" d="M30,62H51.743v2.718H30Z" transform="translate(-30 -62)" fill="#a34f3e"/>
      </g>
      <path id="Trazado_632105" data-name="Trazado 632105" d="M150,62h10.871v2.718H150Z" transform="translate(-136.411 -56.383)" fill="#873f2e"/>
      <g id="Grupo_1004655" data-name="Grupo 1004655" transform="translate(30.791 10.435)">
        <path id="Trazado_632106" data-name="Trazado 632106" d="M341.557,129.022l-1.433-.011.079-1.293c-.757-4.064-.33-8.206,2.957-10.791,3.5-2.782,8.241-1.881,12.315.193-.364,3.406-1.232,8.349-3.9,10.478l-.008.007C348.488,130.021,343.34,129.036,341.557,129.022Z" transform="translate(-339.882 -115.179)" fill="#9cdd05"/>
      </g>
      <g id="Grupo_1004656" data-name="Grupo 1004656" transform="translate(13.653 10.436)">
        <path id="Trazado_632107" data-name="Trazado 632107" d="M154.547,127.619l-.008-.007c-2.667-2.128-3.5-7.066-3.836-10.478,4.048-2.079,8.763-2.966,12.252-.192,3.287,2.585,3.713,6.728,2.956,10.79l.079,1.293-1.433.011c-.3,0-.737.036-1.241.076C160.427,129.34,156.926,129.488,154.547,127.619Z" transform="translate(-150.702 -115.197)" fill="#c3ea21"/>
      </g>
      <path id="Trazado_632108" data-name="Trazado 632108" d="M225.865,162.461c-6.529,4.412-10.273,8.769-10.273,11.953h-2.718c0-3.184-3.744-7.541-10.273-11.953l1.522-2.251c3.737,2.525,7.987,5.968,10.11,9.675,2.124-3.706,6.373-7.15,10.11-9.675Z" transform="translate(-184.246 -145.696)" fill="#9cdd05"/>
      <path id="Trazado_632109" data-name="Trazado 632109" d="M342.632,162.461c-6.529,4.412-10.273,8.769-10.273,11.953H331v-4.53c2.124-3.706,6.373-7.15,10.11-9.675Z" transform="translate(-301.013 -145.696)" fill="#6b0"/>
    </g>
  </g>
</svg>
