<svg xmlns="http://www.w3.org/2000/svg" xmlns:xlink="http://www.w3.org/1999/xlink" width="65" height="65" viewBox="0 0 65 65">
  <defs>
    <filter id="Elipse_7668" x="0" y="0" width="65" height="65" filterUnits="userSpaceOnUse">
      <feOffset dy="3" input="SourceAlpha"/>
      <feGaussianBlur stdDeviation="3" result="blur"/>
      <feFlood flood-opacity="0.161"/>
      <feComposite operator="in" in2="blur"/>
      <feComposite in="SourceGraphic"/>
    </filter>
  </defs>
  <g id="Grupo_1004869" data-name="Grupo 1004869" transform="translate(-801 -937.981)">
    <g transform="matrix(1, 0, 0, 1, 801, 937.98)" filter="url(#Elipse_7668)">
      <circle id="Elipse_7668-2" data-name="Elipse 7668" cx="23.5" cy="23.5" r="23.5" transform="translate(9 6)" fill="#ffd3c3"/>
    </g>
    <g id="portapapeles" transform="translate(818.279 939.816)">
      <path id="Trazado_632110" data-name="Trazado 632110" d="M29.374,92.156a2.482,2.482,0,0,1-2.482,2.482H2.482A2.482,2.482,0,0,1,0,92.156V60.631a2.482,2.482,0,0,1,2.482-2.482H26.892a2.482,2.482,0,0,1,2.482,2.482Zm0,0" transform="translate(0 -53.474)" fill="#aa8452"/>
      <path id="Trazado_632111" data-name="Trazado 632111" d="M308.563,60.63V92.156a2.482,2.482,0,0,1-2.482,2.482H303.6a2.482,2.482,0,0,0,2.482-2.482V60.63a2.482,2.482,0,0,0-2.482-2.482h2.482A2.482,2.482,0,0,1,308.563,60.63Zm0,0" transform="translate(-279.189 -53.473)" fill="#7f5c3e"/>
      <path id="Trazado_632112" data-name="Trazado 632112" d="M54.336,88.406a.414.414,0,0,0-.414-.414H30.258a.414.414,0,0,0-.414.414v30.781a.414.414,0,0,0,.414.414H53.923a.414.414,0,0,0,.414-.414Zm0,0" transform="translate(-27.445 -80.918)" fill="#fff"/>
      <path id="Trazado_632113" data-name="Trazado 632113" d="M145.838,4.22V1.241A1.241,1.241,0,0,0,144.6,0h-4.551A1.241,1.241,0,0,0,138.8,1.241V4.22Zm0,0" transform="translate(-127.644)" fill="#ccc"/>
      <path id="Trazado_632114" data-name="Trazado 632114" d="M183.692,1.241V4.22H181.21V1.241A1.241,1.241,0,0,0,179.969,0h2.482A1.241,1.241,0,0,1,183.692,1.241Zm0,0" transform="translate(-165.499)" fill="#a0a0a0"/>
      <path id="Trazado_632115" data-name="Trazado 632115" d="M95.378,42.2a.827.827,0,0,0-.827.827v4.055a.827.827,0,0,0,.827.827h12.494a.827.827,0,0,0,.827-.827V43.023a.827.827,0,0,0-.827-.827Zm0,0" transform="translate(-86.949 -38.803)" fill="#e8e8e8"/>
      <path id="Trazado_632116" data-name="Trazado 632116" d="M404.717,131.954l-1.218-.7a.827.827,0,0,0-1.13.3l-1.034,1.79.86,1.53h1.79l1.034-1.791A.827.827,0,0,0,404.717,131.954Zm0,0" transform="translate(-369.069 -120.596)" fill="#db8733"/>
      <path id="Trazado_632117" data-name="Trazado 632117" d="M373.609,154.2l3.51,2.026a.827.827,0,0,1,.3,1.13l-.827,1.432-3.4-.376-1.537-2.477.827-1.432A.827.827,0,0,1,373.609,154.2Zm0,0" transform="translate(-341.771 -141.7)" fill="#edaf54"/>
      <path id="Trazado_632118" data-name="Trazado 632118" d="M274.25,194.156h-3.075l-1.866-2.853,8.229-14.253,4.942,2.853Zm0,0" transform="translate(-247.656 -162.816)" fill="#ffd47d"/>
      <path id="Trazado_632119" data-name="Trazado 632119" d="M258.711,359.543l-3.568,1.654a.414.414,0,0,1-.586-.346l-.277-3.876a1.654,1.654,0,0,1,.217-.945l.987-1.709,4.942,2.853-.979,1.7A1.654,1.654,0,0,1,258.711,359.543Zm0,0" transform="translate(-233.832 -325.833)" fill="#edaf54"/>
      <g id="Grupo_1004669" data-name="Grupo 1004669" transform="translate(5.223 12.867)">
        <path id="Trazado_632120" data-name="Trazado 632120" d="M69.9,395.6a.621.621,0,0,1-.464-1.033L70.828,393a1.034,1.034,0,0,1,1.566.022l.955,1.139,1.141-1.239a1.035,1.035,0,0,1,.761-.334h.011a1.035,1.035,0,0,1,.764.35l1.421,1.609a.62.62,0,1,1-.93.822l-1.27-1.437L74.1,395.181a1.034,1.034,0,0,1-1.553-.036l-.953-1.136-1.231,1.385A.618.618,0,0,1,69.9,395.6Zm0,0" transform="translate(-68.934 -373.896)" fill="#515759"/>
        <path id="Trazado_632121" data-name="Trazado 632121" d="M83.206,161.273H65.582a.621.621,0,1,1,0-1.241H83.206a.621.621,0,0,1,0,1.241Zm0,0" transform="translate(-64.961 -160.031)" fill="#515759"/>
        <path id="Trazado_632122" data-name="Trazado 632122" d="M73.974,202.437H66.609a.621.621,0,1,1,0-1.242h7.364a.621.621,0,0,1,0,1.242Zm0,0" transform="translate(-65.906 -197.886)" fill="#515759"/>
        <path id="Trazado_632123" data-name="Trazado 632123" d="M197.122,202.437h-2.9a.621.621,0,0,1,0-1.242h2.9a.621.621,0,0,1,0,1.242Zm0,0" transform="translate(-183.263 -197.886)" fill="#515759"/>
        <path id="Trazado_632124" data-name="Trazado 632124" d="M72.571,243.6H66.613a.621.621,0,0,1,0-1.241h5.957a.621.621,0,0,1,0,1.241Zm0,0" transform="translate(-65.91 -235.744)" fill="#515759"/>
        <path id="Trazado_632125" data-name="Trazado 632125" d="M176.457,243.6h-2.813a.621.621,0,1,1,0-1.241h2.813a.621.621,0,1,1,0,1.241Zm0,0" transform="translate(-164.335 -235.744)" fill="#515759"/>
        <path id="Trazado_632126" data-name="Trazado 632126" d="M70.912,284.769h-4.3a.621.621,0,1,1,0-1.241h4.3a.621.621,0,0,1,0,1.241Zm0,0" transform="translate(-65.906 -273.598)" fill="#515759"/>
        <path id="Trazado_632127" data-name="Trazado 632127" d="M157.526,284.769h-4.468a.621.621,0,0,1,0-1.241h4.468a.621.621,0,0,1,0,1.241Zm0,0" transform="translate(-145.404 -273.598)" fill="#515759"/>
        <path id="Trazado_632128" data-name="Trazado 632128" d="M70.912,325.937h-4.3a.621.621,0,1,1,0-1.241h4.3a.621.621,0,1,1,0,1.241Zm0,0" transform="translate(-65.906 -311.456)" fill="#515759"/>
      </g>
      <path id="Trazado_632129" data-name="Trazado 632129" d="M232.677,43.023v4.055a.828.828,0,0,1-.828.827h-2.482a.828.828,0,0,0,.828-.827V43.023a.828.828,0,0,0-.828-.827h2.482A.828.828,0,0,1,232.677,43.023Zm0,0" transform="translate(-210.926 -38.803)" fill="#ccc"/>
      <path id="Trazado_632130" data-name="Trazado 632130" d="M409.359,167.605l-.827,1.432-2.15-1.241.827-1.432a.827.827,0,0,0-.3-1.129l2.15,1.241A.827.827,0,0,1,409.359,167.605Zm0,0" transform="translate(-373.709 -151.95)" fill="#db8733"/>
      <path id="Trazado_632131" data-name="Trazado 632131" d="M304.027,211.361l8.229-14.252,2.15,1.241L306.176,212.6Zm0,0" transform="translate(-279.583 -181.261)" fill="#e89e46"/>
      <path id="Trazado_632132" data-name="Trazado 632132" d="M262.356,375.609l-.979,1.7a1.657,1.657,0,0,1-.737.673l-3.567,1.654a.414.414,0,0,1-.587-.345l-.112-1.568,2.116-.981a1.657,1.657,0,0,0,.737-.673l.979-1.7Zm0,0" transform="translate(-235.762 -344.268)" fill="#db8733"/>
    </g>
  </g>
</svg>
