<svg xmlns="http://www.w3.org/2000/svg" xmlns:xlink="http://www.w3.org/1999/xlink" width="71" height="74" viewBox="0 0 71 74"><defs><filter id="a" x="0" y="0" width="71" height="74" filterUnits="userSpaceOnUse"><feOffset dy="3" input="SourceAlpha"/><feGaussianBlur stdDeviation="3" result="b"/><feFlood flood-opacity="0.161"/><feComposite operator="in" in2="b"/><feComposite in="SourceGraphic"/></filter></defs><g transform="translate(-653 -3035)"><g transform="matrix(1, 0, 0, 1, 653, 3035)" filter="url(#a)"><rect width="53" height="56" rx="8" transform="translate(9 6)" fill="#adce32"/></g><path d="M10.01-5.585A6.843,6.843,0,0,1,8.851-1.3,4.048,4.048,0,0,1,5.455.186,4.076,4.076,0,0,1,2.078-1.271a6.643,6.643,0,0,1-1.2-4.175V-7.932a6.753,6.753,0,0,1,1.174-4.3,4.078,4.078,0,0,1,3.382-1.466,4.082,4.082,0,0,1,3.377,1.452,6.622,6.622,0,0,1,1.2,4.17ZM7.329-8.312a4.937,4.937,0,0,0-.459-2.445,1.552,1.552,0,0,0-1.433-.765,1.525,1.525,0,0,0-1.4.728,4.621,4.621,0,0,0-.478,2.278v3.284a5.183,5.183,0,0,0,.45,2.454,1.532,1.532,0,0,0,1.443.8,1.506,1.506,0,0,0,1.419-.77A5.059,5.059,0,0,0,7.329-5.1Zm7.218.371h1.429a2.013,2.013,0,0,0,1.512-.51,1.87,1.87,0,0,0,.492-1.354,1.653,1.653,0,0,0-.487-1.271,1.888,1.888,0,0,0-1.341-.455,1.979,1.979,0,0,0-1.29.422,1.35,1.35,0,0,0-.52,1.1H11.662a3.3,3.3,0,0,1,.571-1.9,3.8,3.8,0,0,1,1.6-1.313,5.326,5.326,0,0,1,2.259-.473,5.051,5.051,0,0,1,3.358,1.025,3.5,3.5,0,0,1,1.215,2.825,2.842,2.842,0,0,1-.566,1.707,3.677,3.677,0,0,1-1.484,1.2,3.356,3.356,0,0,1,1.7,1.225,3.322,3.322,0,0,1,.561,1.93A3.556,3.556,0,0,1,19.561-.9,5.278,5.278,0,0,1,16.087.186,5,5,0,0,1,12.78-.881,3.484,3.484,0,0,1,11.495-3.7h2.681a1.553,1.553,0,0,0,.571,1.243,2.1,2.1,0,0,0,1.406.482,2.112,2.112,0,0,0,1.5-.506,1.745,1.745,0,0,0,.543-1.341q0-2.022-2.227-2.022H14.547Z" transform="translate(678 3077)" fill="#12263f"/></g></svg>