<svg xmlns="http://www.w3.org/2000/svg" xmlns:xlink="http://www.w3.org/1999/xlink" width="138.403" height="138.259" viewBox="0 0 138.403 138.259">
  <defs>
    <radialGradient id="radial-gradient" cx="0.076" cy="0.019" r="1.465" gradientTransform="translate(0.001)" gradientUnits="objectBoundingBox">
      <stop offset="0" stop-color="#f6f6f7"/>
      <stop offset="0.477" stop-color="#f9f9fa"/>
      <stop offset="0.715" stop-color="#fff"/>
    </radialGradient>
    <filter id="Trazado_40937" x="0" y="0" width="138.403" height="138.259" filterUnits="userSpaceOnUse">
      <feOffset dy="7" input="SourceAlpha"/>
      <feGaussianBlur stdDeviation="2.5" result="blur"/>
      <feFlood flood-opacity="0.102"/>
      <feComposite operator="in" in2="blur"/>
      <feComposite in="SourceGraphic"/>
    </filter>
    <clipPath id="clip-path">
      <rect id="Rectángulo_361944" data-name="Rectángulo 361944" width="64.995" height="81.447" fill="none"/>
    </clipPath>
  </defs>
  <g id="Grupo_1084752" data-name="Grupo 1084752" transform="translate(-1119.097 -3579.967)">
    <g transform="matrix(1, 0, 0, 1, 1119.1, 3579.97)" filter="url(#Trazado_40937)">
      <path id="Trazado_40937-2" data-name="Trazado 40937" d="M318.88,2207.409a62.5,62.5,0,1,0-62.5,62.5A62.252,62.252,0,0,0,318.88,2207.409Z" transform="translate(-187.98 -2146.15)" fill="url(#radial-gradient)"/>
    </g>
    <g id="Grupo_1084498" data-name="Grupo 1084498" transform="translate(1155.003 3604.28)">
      <g id="Grupo_1084497" data-name="Grupo 1084497" clip-path="url(#clip-path)">
        <path id="Trazado_725954" data-name="Trazado 725954" d="M32.427,112.576c-8.132,0-16.264-.059-24.395.046-1.762.022-2.37-.6-2.605-2.223C3.713,98.6,1.946,86.813.2,75.021c-.115-.771-.586-1.83.525-2.055,1.169-.237,1.1.988,1.213,1.7.58,3.565,1.2,7.131,1.576,10.721C3.7,87.143,4.678,86.972,5.9,87.062c1.591.118,1.447-.87,1.515-1.868a8.179,8.179,0,0,1,3.366-6.229c.927-.692,1.092-1.182.4-2.117a4.742,4.742,0,0,1-.831-1.978c-.333-2.005-.51-4.4,1.365-5.42,1.758-.954,3.583.507,5.014,1.821.735.675,1.062,1.667,2.582,1.159,2.422-.809,3.52.253,3.251,2.834a10.064,10.064,0,0,1-.851,2.539c-.148.374-.207.7.105.966a.687.687,0,0,0,.959-.1,9.559,9.559,0,0,1,3.287-1.837c.8-.258.509-.778.419-1.285a8.685,8.685,0,0,1-.282-1.871c.109-2.249.611-4.82,2.848-5.374,1.981-.49,3.4,1.591,4.431,3.36.4.693.3,1.6,1.676,1.681,3.046.172,4.019,1.934,2.183,4.324-1.356,1.764-1.119,2.946-.223,4.633a10.335,10.335,0,0,1,.685,3.418c.081.6-.185,1.274.836,1.313,1.257.048.938-.807.914-1.469a8.871,8.871,0,0,1,3.444-7.59c.7-.569.887-.968.286-1.712a4.476,4.476,0,0,1-.87-1.668c-.51-2.065-.937-4.584.884-5.8,1.887-1.261,3.9.252,5.458,1.721.594.559.82,1.355,2.129.942,2.951-.931,4.28.371,3.36,3.477a3.528,3.528,0,0,0,1.173,4.292A7.564,7.564,0,0,1,57.6,84.887c.02.9-.712,2.223,1.282,2.19,1.543-.025,2.464-.18,2.643-2.046.319-3.323.873-6.626,1.433-9.92.141-.827-.173-2.424,1.347-2.084,1.207.269.484,1.515.363,2.342C62.974,86.9,61.226,98.416,59.6,109.953c-.28,1.984-.925,2.716-3.05,2.679-8.039-.137-16.082-.055-24.124-.056m0-1.73q11.526,0,23.052,0c1.04,0,2.178.319,2.41-1.356.894-6.445,1.878-12.877,2.807-19.317.069-.478.338-1.388-.341-1.336-1.393.106-2.877-.726-4.154.979-4.331,5.786-10.9,5.772-15.192.149-1.335-1.749-3.254-1.725-4.472.054-3.162,4.619-7.553,5.753-12.449,3.2-.693-.362-1.163-.741-2.122-.176-6.071,3.574-9.8,2.666-13.833-3.39-1-1.494-2.289-.9-3.367-.783-1.216.131-.489,1.346-.4,2,.848,6.086,1.839,12.153,2.646,18.245.217,1.637,1.031,1.769,2.36,1.761,7.684-.043,15.368-.021,23.052-.027m23.415-25.86C55.8,80.859,53.571,78.851,49.6,79.3a4.291,4.291,0,0,1-2.119-.223c-2.648-1.162-4.017.422-5.178,2.345a7.082,7.082,0,0,0,.717,8.317,7.251,7.251,0,0,0,12.817-4.757m-19.845.248c-.422-1.614-.114-4.161-2.717-4.632a9.374,9.374,0,0,1-4.684-1.753c-.953-.805-1.826-.4-2.749-.011a7.257,7.257,0,1,0,10.15,6.4M16.629,93.243a13.347,13.347,0,0,0,1.566-.189c2.73-.592,3.247-1.572,2.207-4.065a8.931,8.931,0,0,1-.166-6.608c.926-2.637.856-2.74-1.783-2.242a5.031,5.031,0,0,1-3.2-.138c-2.147-1.11-3.412.03-4.573,1.52a6.862,6.862,0,0,0-.858,7.639,6.909,6.909,0,0,0,6.809,4.084M32.438,74.908c-.014-1.9-1.246-4.089-2.376-4.559a.841.841,0,0,0-1.159.265,5.434,5.434,0,0,0-.7,4.656,1.1,1.1,0,0,0,.088.255c.591,1.121,1.282,2.7,2.519,2.5,1.453-.238,1.452-2.016,1.623-3.114M16.979,76.255c0-2.393-2.02-5.119-3.818-5.082-1.427.03-1.2,1.291-1.225,2.187-.057,2.241,2.035,4.987,3.811,5,1.662.017.847-1.46,1.232-2.11m31.909-.9c-.024-2.4-1.983-4.987-3.8-5.05-1.628-.057-1.219,1.272-1.243,2.12-.066,2.285,1.95,4.843,3.787,4.933,1.713.084.957-1.335,1.253-2m1.649,1.813a3.059,3.059,0,0,0,2.091-2.679c.044-.611.455-1.6-.783-1.547a1.224,1.224,0,0,0-1.315,1.374c.033.882.007,1.765.007,2.852m-32.115,1.1c1.983-1.086,2.521-2.313,2.25-3.858-.1-.541-.722-.438-1.141-.271-1.992.793-.911,2.363-1.109,4.129m14.389.417c2.35-.457,3.186-1.453,3.436-2.971.1-.625-.472-.689-.916-.631-2.051.271-1.155,2.2-2.52,3.6" transform="translate(0 -31.187)" fill="#161616"/>
        <path id="Trazado_725955" data-name="Trazado 725955" d="M31.459,6.695c-1.2.472-2.969-.785-3.691,1.308-.184.532-1.108.378-1.309-.18-.724-2-2.412-1.085-3.441-.886-1.195.231-.149,1.669-.43,2.539a3.7,3.7,0,0,0-.02,1.079c0,.675-.092,1.379-.964,1.287-.613-.065-.773-.661-.768-1.245A5.227,5.227,0,0,0,20.8,8.98c-.235-.711.8-1.886-.352-2.061-1.078-.164-2.52-.855-3.386.623-.572.978-1.151,1.143-1.666,0-.214-.475-.488-.771-.985-.727-1.991.174-1.855-1.165-1.8-2.472a11.055,11.055,0,0,0-.009-1.9C12.34.538,13.13-.008,15.02,0Q38.194.1,61.369,0c1.838-.008,2.2.556,2.573,2.372.653,3.2-1.442,4.318-3.32,5.765A.7.7,0,0,1,59.5,7.812C58.734,5.963,57.08,6.7,56.016,6.96c-1.1.267-.165,1.683-.408,2.561a4.028,4.028,0,0,0-.017,1.08c.007.584-.153,1.179-.769,1.243-.874.09-.96-.615-.963-1.289a5.67,5.67,0,0,0-.035-1.618c-.221-.7.788-1.89-.4-2.036-1.071-.131-2.538-.867-3.337.681C49.719,8.3,48.9,8.622,48.67,8c-.771-2.079-2.5-.821-3.7-1.3a3.044,3.044,0,0,0-2.319-.02c-1.322.432-3.166-.659-3.951,1.4-.137.359-.847.272-.941.03-.846-2.185-2.811-.952-4.2-1.436a3.155,3.155,0,0,0-2.1.022m6.759-1.681q10.831,0,21.662,0c1.1,0,2.308.4,2.292-1.6-.016-1.933-1.131-1.655-2.293-1.654q-21.663,0-43.325,0c-1.161,0-2.279-.28-2.291,1.654-.012,1.991,1.184,1.6,2.293,1.6q10.831.009,21.662.007" transform="translate(-5.736 0)" fill="#161616"/>
        <path id="Trazado_725956" data-name="Trazado 725956" d="M67.993,12.116a3.039,3.039,0,0,1,2.319.02c-.661,1.259-.075,2.6-.246,3.894-.087.661-.217,1.307-.988,1.332-.827.027-.952-.688-.983-1.319-.063-1.308-.071-2.618-.1-3.927" transform="translate(-31.079 -5.438)" fill="#484848"/>
        <path id="Trazado_725957" data-name="Trazado 725957" d="M47.379,12.171a3.156,3.156,0,0,1,2.1-.022c.044,1.319.123,2.637.118,3.956,0,.632-.173,1.337-1,1.3-.773-.039-.881-.694-.971-1.349-.176-1.29.419-2.627-.248-3.881" transform="translate(-21.657 -5.476)" fill="#484848"/>
        <path id="Trazado_725958" data-name="Trazado 725958" d="M49.828,28.263c-.234,1.035.4,2.507-.927,2.61-1.475.114-1.014-1.382-1.026-2.256-.012-.906-.464-2.362.835-2.472,1.54-.131.757,1.459,1.118,2.118" transform="translate(-21.844 -11.948)" fill="#343434"/>
        <path id="Trazado_725959" data-name="Trazado 725959" d="M59.963,35.005c-.149.935.379,2.4-.975,2.456-1.4.053-1.047-1.413-1.027-2.323s-.473-2.363.928-2.419c1.465-.059.9,1.428,1.074,2.286" transform="translate(-26.463 -14.955)" fill="#3e3e3e"/>
        <path id="Trazado_725960" data-name="Trazado 725960" d="M78.459,34.907c.223-.784-.446-2.2.916-2.116,1.435.086.807,1.541.822,2.4.015.834.556,2.371-.97,2.206-1.334-.144-.494-1.641-.769-2.488" transform="translate(-35.857 -14.987)" fill="#161616"/>
        <path id="Trazado_725961" data-name="Trazado 725961" d="M80.234,22.033c-.282.817.573,2.314-.969,2.308-1.321,0-.795-1.394-.771-2.165.026-.865-.634-2.372.764-2.445,1.5-.078.712,1.466.976,2.3" transform="translate(-35.818 -9.018)" fill="#161616"/>
        <path id="Trazado_725962" data-name="Trazado 725962" d="M57.91,21.969c.124-1.045-.243-2.411.961-2.376,1.622.047.989,1.612,1.048,2.572.052.826.347,2.187-.9,2.163-1.713-.033-.739-1.675-1.111-2.359" transform="translate(-26.471 -8.955)" fill="#3e3e3e"/>
        <path id="Trazado_725963" data-name="Trazado 725963" d="M39.655,35.047c-.286.924.407,2.352-.832,2.362-1.725.013-.85-1.61-.95-2.505-.084-.761-.478-2.152.836-2.1,1.563.061.472,1.607.946,2.244" transform="translate(-17.25 -14.993)" fill="#161616"/>
        <path id="Trazado_725964" data-name="Trazado 725964" d="M49.806,41.67c-.215.847.382,2.344-1.036,2.294-1.356-.047-.878-1.511-.893-2.4s-.39-2.359.975-2.316c1.343.042.739,1.532.954,2.426" transform="translate(-21.853 -17.938)" fill="#343434"/>
        <path id="Trazado_725965" data-name="Trazado 725965" d="M70.142,41.5c-.219.957.4,2.441-.983,2.465s-.956-1.453-.949-2.328-.453-2.366.905-2.393c1.4-.028.8,1.47,1.027,2.256" transform="translate(-31.145 -17.937)" fill="#343434"/>
        <path id="Trazado_725966" data-name="Trazado 725966" d="M39.658,21.882c-.376.907.566,2.408-.963,2.463-1.326.047-.908-1.343-.824-2.1.1-.894-.764-2.521.965-2.495,1.285.02.425,1.481.821,2.136" transform="translate(-17.252 -9.026)" fill="#161616"/>
        <path id="Trazado_725967" data-name="Trazado 725967" d="M70.136,28.32c-.2,1.024.4,2.5-.929,2.577-1.456.088-1-1.415-1-2.291-.007-.895-.465-2.363.861-2.441,1.463-.086.807,1.442,1.073,2.155" transform="translate(-31.138 -11.958)" fill="#343434"/>
        <path id="Trazado_725968" data-name="Trazado 725968" d="M90.354,28.606c-.307.813.536,2.33-1.009,2.286-1.255-.036-.758-1.415-.737-2.2.023-.866-.589-2.374.788-2.421,1.476-.049.652,1.507.959,2.333" transform="translate(-40.449 -12.009)" fill="#161616"/>
        <path id="Trazado_725969" data-name="Trazado 725969" d="M29.51,28.523c-.308.793.564,2.336-.881,2.355s-.834-1.509-.845-2.356-.583-2.334.942-2.266c1.238.056.553,1.443.784,2.267" transform="translate(-12.644 -12.001)" fill="#161616"/>
        <path id="Trazado_725970" data-name="Trazado 725970" d="M19.394,35.127c-.292.8.58,2.3-.957,2.292-1.3,0-.808-1.383-.77-2.153.042-.861-.624-2.362.765-2.433,1.505-.077.686,1.467.962,2.294" transform="translate(-8.019 -15.006)" fill="#141414"/>
        <path id="Trazado_725971" data-name="Trazado 725971" d="M100.493,21.925c-.312.911.521,2.417-1,2.393-1.227-.019-.778-1.4-.762-2.195.018-.888-.523-2.4.782-2.452,1.437-.056.63,1.521.976,2.254" transform="translate(-45.088 -8.991)" fill="#141414"/>
        <path id="Trazado_725972" data-name="Trazado 725972" d="M19.406,22.059c-.175.943.343,2.327-.909,2.275-1.435-.06-.815-1.528-.826-2.381-.011-.835-.551-2.372.925-2.248,1.323.111.491,1.64.811,2.353" transform="translate(-8.02 -9.004)" fill="#141414"/>
        <path id="Trazado_725973" data-name="Trazado 725973" d="M29.526,41.638c-.306.8.531,2.362-.946,2.3-1.334-.055-.752-1.561-.789-2.442-.034-.811-.409-2.2.768-2.207,1.479-.014.7,1.491.968,2.349" transform="translate(-12.659 -17.959)" fill="#141414"/>
        <path id="Trazado_725974" data-name="Trazado 725974" d="M88.564,41.655c.276-.852-.507-2.407.952-2.34,1.3.06.771,1.563.793,2.456.02.807.416,2.182-.784,2.188-1.493.007-.661-1.5-.961-2.3" transform="translate(-40.482 -17.97)" fill="#141414"/>
        <path id="Trazado_725975" data-name="Trazado 725975" d="M100.458,35.129c-.214.866.482,2.34-.949,2.342-1.165,0-.825-1.371-.783-2.184.046-.881-.533-2.372.787-2.439,1.48-.074.678,1.473.945,2.281" transform="translate(-45.087 -15.014)" fill="#141414"/>
        <path id="Trazado_725976" data-name="Trazado 725976" d="M35.847,128.045c-7.684,0-15.368-.019-23.052.024-1.329.007-2.143-.125-2.36-1.762-.807-6.091-1.8-12.158-2.646-18.244-.091-.655-.818-1.87.4-2,1.078-.117,2.372-.711,3.367.783,4.037,6.056,7.762,6.964,13.833,3.39.958-.564,1.428-.186,2.122.176,4.9,2.553,9.287,1.419,12.449-3.2,1.218-1.78,3.137-1.8,4.472-.054,4.293,5.623,10.861,5.637,15.192-.149,1.276-1.7,2.761-.873,4.154-.979.68-.052.41.858.341,1.336-.929,6.44-1.913,12.872-2.807,19.316-.232,1.675-1.371,1.356-2.41,1.357q-11.526.01-23.052.007" transform="translate(-3.424 -48.382)" fill="#afafaf"/>
        <path id="Trazado_725977" data-name="Trazado 725977" d="M90.594,93.79a7.251,7.251,0,0,1-12.817,4.757,7.083,7.083,0,0,1-.718-8.317c1.162-1.924,2.531-3.507,5.179-2.345a4.291,4.291,0,0,0,2.119.223c3.969-.453,6.2,1.555,6.236,5.682" transform="translate(-34.755 -39.991)" fill="#ffd947"/>
        <path id="Trazado_725978" data-name="Trazado 725978" d="M54.048,93.784a7.285,7.285,0,1,1-10.15-6.4c.923-.393,1.8-.794,2.749.011a9.369,9.369,0,0,0,4.684,1.753c2.6.471,2.3,3.019,2.717,4.632" transform="translate(-18.055 -39.737)" fill="#ffa686"/>
        <path id="Trazado_725979" data-name="Trazado 725979" d="M24.237,102.78a7.227,7.227,0,0,1-5.951-11.723c1.162-1.489,2.426-2.629,4.573-1.52a5.031,5.031,0,0,0,3.2.138c2.64-.5,2.709-.395,1.783,2.242a8.933,8.933,0,0,0,.166,6.608c1.041,2.494.523,3.473-2.207,4.065a13.466,13.466,0,0,1-1.566.189" transform="translate(-7.608 -40.724)" fill="#adce32"/>
        <path id="Trazado_725980" data-name="Trazado 725980" d="M56,76.593c-.17,1.1-.17,2.876-1.622,3.115-1.237.2-1.928-1.376-2.52-2.5a1.087,1.087,0,0,1-.088-.255,5.438,5.438,0,0,1,.7-4.656.84.84,0,0,1,1.159-.264c1.13.469,2.362,2.662,2.376,4.558" transform="translate(-23.565 -32.873)" fill="#f1f1f1"/>
        <path id="Trazado_725981" data-name="Trazado 725981" d="M27.028,78.734c-.385.65.43,2.127-1.232,2.11-1.775-.018-3.868-2.763-3.811-5,.023-.9-.2-2.157,1.225-2.187,1.8-.038,3.813,2.688,3.818,5.081" transform="translate(-10.049 -33.666)" fill="#f1f1f1"/>
        <path id="Trazado_725982" data-name="Trazado 725982" d="M85.782,77.1c-.3.668.46,2.087-1.253,2-1.837-.091-3.852-2.649-3.787-4.933.024-.848-.385-2.178,1.243-2.12,1.814.064,3.773,2.652,3.8,5.05" transform="translate(-36.894 -32.931)" fill="#f3f3f3"/>
        <path id="Trazado_725983" data-name="Trazado 725983" d="M93.081,81.127c0-1.087.026-1.97-.007-2.852A1.224,1.224,0,0,1,94.389,76.9c1.238-.056.826.937.783,1.547a3.06,3.06,0,0,1-2.091,2.679" transform="translate(-42.543 -35.15)" fill="#d9d9d9"/>
        <path id="Trazado_725984" data-name="Trazado 725984" d="M33.833,83.128c.2-1.766-.883-3.336,1.109-4.129.42-.167,1.046-.27,1.141.271.271,1.546-.268,2.773-2.25,3.858" transform="translate(-15.411 -36.049)" fill="#f1f1f1"/>
        <path id="Trazado_725985" data-name="Trazado 725985" d="M60.436,84.438c1.365-1.4.469-3.331,2.52-3.6.444-.059,1.018.006.916.631-.25,1.518-1.086,2.514-3.436,2.971" transform="translate(-27.625 -36.942)" fill="#f1f1f1"/>
        <path id="Trazado_725986" data-name="Trazado 725986" d="M39.659,6.477q-10.831,0-21.662,0c-1.109,0-2.3.395-2.293-1.6.012-1.934,1.13-1.655,2.291-1.654q21.663,0,43.325,0c1.162,0,2.277-.279,2.293,1.654.016,2-1.192,1.6-2.292,1.6q-10.832.015-21.662,0" transform="translate(-7.178 -1.465)" fill="#e8e8e8"/>
      </g>
    </g>
  </g>
</svg>
