<svg xmlns="http://www.w3.org/2000/svg" xmlns:xlink="http://www.w3.org/1999/xlink" width="71" height="74" viewBox="0 0 71 74"><defs><filter id="a" x="0" y="0" width="71" height="74" filterUnits="userSpaceOnUse"><feOffset dy="3" input="SourceAlpha"/><feGaussianBlur stdDeviation="3" result="b"/><feFlood flood-opacity="0.161"/><feComposite operator="in" in2="b"/><feComposite in="SourceGraphic"/></filter></defs><g transform="translate(-233 -3035)"><g transform="matrix(1, 0, 0, 1, 233, 3035)" filter="url(#a)"><rect width="53" height="56" rx="8" transform="translate(9 6)" fill="#adce32"/></g><path d="M10.01-5.585A6.843,6.843,0,0,1,8.851-1.3,4.048,4.048,0,0,1,5.455.186,4.076,4.076,0,0,1,2.078-1.271a6.643,6.643,0,0,1-1.2-4.175V-7.932a6.753,6.753,0,0,1,1.174-4.3,4.078,4.078,0,0,1,3.382-1.466,4.082,4.082,0,0,1,3.377,1.452,6.622,6.622,0,0,1,1.2,4.17ZM7.329-8.312a4.937,4.937,0,0,0-.459-2.445,1.552,1.552,0,0,0-1.433-.765,1.525,1.525,0,0,0-1.4.728,4.621,4.621,0,0,0-.478,2.278v3.284a5.183,5.183,0,0,0,.45,2.454,1.532,1.532,0,0,0,1.443.8,1.506,1.506,0,0,0,1.419-.77A5.059,5.059,0,0,0,7.329-5.1ZM18.332,0H15.651V-10.335l-3.2.993v-2.18l5.594-2h.288Z" transform="translate(257 3077)" fill="#12263f"/></g></svg>