<svg xmlns="http://www.w3.org/2000/svg" xmlns:xlink="http://www.w3.org/1999/xlink" width="136" height="136" viewBox="0 0 136 136">
  <defs>
    <linearGradient id="linear-gradient" x1="0.5" x2="0.5" y2="1" gradientUnits="objectBoundingBox">
      <stop offset="0" stop-color="#fff"/>
      <stop offset="1" stop-color="#e9e9e9"/>
    </linearGradient>
  </defs>
  <circle id="Elipse_5221" data-name="Elipse 5221" cx="68" cy="68" r="68" fill="url(#linear-gradient)"/>
  <g id="vaca" transform="translate(10.418 -0.499)">
    <path id="Trazado_632197" data-name="Trazado 632197" d="M89.793,11A57.44,57.44,0,0,0,42.2,36.23L110.114,122.3A57.508,57.508,0,0,0,89.793,11Z" transform="translate(-32.293 0)" fill="#cee284"/>
    <path id="Trazado_632198" data-name="Trazado 632198" d="M70.38,218.8c-3.691,0-8.173-.294-10.083-2.587-1.526-1.831-.79-4.314-.782-4.565l-.2-.127c-2.949-1.864-4.747-4.45-4.934-7.095a5.344,5.344,0,0,1,1.89-4.648l0-.168A22.3,22.3,0,0,0,52.7,187.191c-7.2-13.193-5.167-22.227-5.2-22.533l-.13-.124a3.785,3.785,0,0,1-.43-5.012l.1-.134-.041-.163a71.45,71.45,0,0,1-1.543-14.343c-.246.056-6.7,8.473-13.795,7.111-1.728,5.82-5.142,9.883-10.193,12.109a12.77,12.77,0,0,1-10.758.283c-4.015-1.81-6.914-5.664-8.675-8.663a57.531,57.531,0,0,0,75.778,69.042c.406-2.353.726-4.777.932-7.246-2.084,1.063-5.161,1.279-8.372,1.279Z" transform="translate(0 -102.463)" fill="#543e5b"/>
    <path id="Trazado_632199" data-name="Trazado 632199" d="M38.255,131.867c-3.636-.543-7.463-3.594-10.727-11.618a54.146,54.146,0,0,1-10.592-1.537l-.785-.2a57.232,57.232,0,0,0-7.987,17.505c3.481,5.8,9.9,12.545,19.7,8.227,5.865-2.585,8.9-7.369,10.389-12.373Z" transform="translate(-6.248 -82.278)" fill="#bec8f7"/>
    <path id="Trazado_632200" data-name="Trazado 632200" d="M455.9,97a11.274,11.274,0,0,0-9.049,3.406,22.979,22.979,0,0,1-4.919,3.854,9.209,9.209,0,0,0,1.35.345,6.9,6.9,0,0,0,.791,5.326c1.283,1.931,3.715,3.061,7.223,3.368,3.287-2.978,5.482-7.323,6.737-10.421A4.663,4.663,0,0,0,455.9,97Z" transform="translate(-338.21 -65.792)" fill="#f9a0b1"/>
    <path id="Trazado_632201" data-name="Trazado 632201" d="M405.638,127.315a9.662,9.662,0,0,1-1.386-.3,11.05,11.05,0,0,1-5.207,1.764,7.7,7.7,0,0,0-5.088,2.062,9.61,9.61,0,0,0-1.794,2.371c9.75,9,16.721,7.227,21.39,2.757C402.96,135.213,405.638,127.315,405.638,127.315Z" transform="translate(-300.125 -88.79)" fill="#ff7186"/>
    <path id="Trazado_632202" data-name="Trazado 632202" d="M443.6,91.064c-7.573-3.755-12.355-.384-17.282-.358a7.441,7.441,0,0,0,.31,5.194,5.846,5.846,0,0,0,4.458,2.828,24.574,24.574,0,0,0,4.016-3.308,11.369,11.369,0,0,1,9.864-3.326A4.622,4.622,0,0,0,443.6,91.064Z" transform="translate(-326.021 -59.918)" fill="#6c5475"/>
    <path id="Trazado_632203" data-name="Trazado 632203" d="M365.869,81.288c2.287,4.837,4.646,6.923,5.656,13.244a9.6,9.6,0,0,1,1.292-1.545,7.7,7.7,0,0,1,5.087-2.062,11.831,11.831,0,0,0,6.134-2.36c-5.68-.822-5.509-5.108-4.83-7.743a9.045,9.045,0,0,1-4.8-1.085,27.306,27.306,0,0,0-10.454-3.351,35.462,35.462,0,0,0,1.911,4.9Z" transform="translate(-278.539 -50.043)" fill="#45304c"/>
    <path id="Trazado_632204" data-name="Trazado 632204" d="M80.96,113.3c3.517-.3,5.953-1.436,7.238-3.369a6.9,6.9,0,0,0,.791-5.326,9.191,9.191,0,0,0,1.339-.342A22.976,22.976,0,0,1,85.4,100.4,11.276,11.276,0,0,0,76.353,97a4.663,4.663,0,0,0-2.133,5.879C75.477,105.975,77.672,110.321,80.96,113.3Z" transform="translate(-56.538 -65.793)" fill="#f9a0b1"/>
    <path id="Trazado_632205" data-name="Trazado 632205" d="M122.175,130.854a7.7,7.7,0,0,0-5.087-2.062,11.043,11.043,0,0,1-5.2-1.761,9.71,9.71,0,0,1-1.374.295s2.681,7.905-7.932,8.658c4.67,4.469,11.64,6.238,21.389-2.758A9.616,9.616,0,0,0,122.175,130.854Z" transform="translate(-78.505 -88.801)" fill="#ff7186"/>
    <path id="Trazado_632206" data-name="Trazado 632206" d="M92.962,98.739l0-.011A5.846,5.846,0,0,0,97.419,95.9a7.44,7.44,0,0,0,.31-5.194c-4.934-.018-9.717-3.4-17.3.358a4.618,4.618,0,0,0-1.365,1.03,11.369,11.369,0,0,1,9.864,3.326A24.528,24.528,0,0,0,92.962,98.739Z" transform="translate(-60.508 -59.917)" fill="#6c5475"/>
    <path id="Trazado_632207" data-name="Trazado 632207" d="M146,79.737a9.042,9.042,0,0,1-4.779,1.085c.68,2.637.851,6.927-4.844,7.745a11.826,11.826,0,0,0,6.13,2.358,7.7,7.7,0,0,1,5.087,2.062,9.605,9.605,0,0,1,1.292,1.545c1.009-6.318,3.378-8.428,5.656-13.244h0a35.468,35.468,0,0,0,1.911-4.9A27.312,27.312,0,0,0,146,79.737Z" transform="translate(-104.369 -50.042)" fill="#45304c"/>
    <path id="Trazado_632208" data-name="Trazado 632208" d="M306.1,53.347c-5.8,1.806-15.161,6.6-15.161,17.29v37.921a13.9,13.9,0,0,0,7.492,12.3,30.2,30.2,0,0,1,8.2,6.1,19.766,19.766,0,0,1,2.256-7.127c.426-.738.873-1.54,1.324-2.4-10.4-7.055-9.337-25.849-4.622-34.93,3.085-5.943,4.578-13.571,5.287-18.854a34.681,34.681,0,0,1-2.072-5.452,11.878,11.878,0,0,0-2.707-4.856Z" transform="translate(-222.657 -32.41)" fill="#deeeff"/>
    <path id="Trazado_632209" data-name="Trazado 632209" d="M244.735,112.821a30.688,30.688,0,0,0-7.794-5.67,13.9,13.9,0,0,1-7.492-12.3V56.927c0-10.471,8.979-15.283,14.795-17.174a11.791,11.791,0,0,0-7.221-3.818,57.274,57.274,0,0,0-15.149,0,11.833,11.833,0,0,0-9.824,8.557,34.67,34.67,0,0,1-2.072,5.452c.709,5.283,2.2,12.911,5.287,18.854,4.715,9.081,5.782,27.874-4.623,34.93.451.858.9,1.66,1.324,2.4,2.109,3.648,2.551,8.322,2.555,11.577,2.845-2.406,8.461-2.956,14.927-2.956s12.083.549,14.927,2.956a32.556,32.556,0,0,1,.36-4.883Z" transform="translate(-160.697 -18.7)" fill="#bec8f7"/>
    <path id="Trazado_632210" data-name="Trazado 632210" d="M191.332,146.433c11.115-6.692,10.1-26.094,5.282-35.365-3.4-6.55-4.87-15.157-5.483-20.4a46.118,46.118,0,0,1-3.191,6.141c-4.955,8.091-3.536,16.945-2.388,21.188a12.464,12.464,0,0,1,.368,4.976C184.676,131.887,188.189,140.568,191.332,146.433Z" transform="translate(-141.155 -60.97)" fill="#6c5475"/>
    <path id="Trazado_632211" data-name="Trazado 632211" d="M343.635,146.433c-11.115-6.692-10.1-26.094-5.282-35.365,3.4-6.55,4.87-15.157,5.483-20.4a46.119,46.119,0,0,0,3.191,6.141c4.955,8.091,3.537,16.945,2.388,21.188a12.463,12.463,0,0,0-.368,4.976C350.291,131.887,346.778,140.568,343.635,146.433Z" transform="translate(-256.309 -60.97)" fill="#876d93"/>
    <path id="Trazado_632212" data-name="Trazado 632212" d="M254.613,435.575a22.089,22.089,0,0,1-11.444-2.979,7.749,7.749,0,0,0-.309,2.156c0,5.234,5.262,6.194,11.754,6.194s11.753-.96,11.753-6.194a7.748,7.748,0,0,0-.309-2.156A22.088,22.088,0,0,1,254.613,435.575Z" transform="translate(-185.861 -322.651)" fill="#ff4155"/>
    <path id="Trazado_632213" data-name="Trazado 632213" d="M246.821,384.288a3.022,3.022,0,0,1-.245-2.561l.1-.261-2.745-1.883-.069-.014c-2.753-.568-4.586-1.767-5.446-3.562-1.079-2.252-.394-4.957.134-6.42-.249,0-.5,0-.751,0-9.339,0-16.909,1.143-16.909,7.375s7.57,11.284,16.909,11.284a22.373,22.373,0,0,0,10.948-2.688,3.459,3.459,0,0,1-1.929-1.267Z" transform="translate(-169.051 -274.428)" fill="#ff7186"/>
    <path id="Trazado_632214" data-name="Trazado 632214" d="M292.3,369.592c-.928,2.632-2.15,8.725,5.617,10.328l2.455,1.684a3.144,3.144,0,0,0,2.084,4.186c3.885-2.067,6.377-5.251,6.377-8.825C308.838,370.817,301.469,369.623,292.3,369.592Z" transform="translate(-223.178 -274.434)" fill="#f9a0b1"/>
    <path id="Trazado_632215" data-name="Trazado 632215" d="M318.522,398.954a1.25,1.25,0,0,1-1.216-2.081,7.289,7.289,0,0,0,1.525-2.195c.118-.3.222-.591.314-.882a2.875,2.875,0,0,1,5.462-.145c.01.029.02.059.029.089C325.285,395.807,321.873,398.041,318.522,398.954Z" transform="translate(-242.564 -291.387)" fill="#6c5475"/>
    <path id="Trazado_632216" data-name="Trazado 632216" d="M242.032,398.954a1.25,1.25,0,0,0,1.216-2.081,7.287,7.287,0,0,1-1.525-2.195c-.118-.3-.223-.591-.314-.882a2.875,2.875,0,0,0-5.462-.145c-.01.029-.02.059-.029.089C235.269,395.807,238.681,398.041,242.032,398.954Z" transform="translate(-180.488 -291.387)" fill="#6c5475"/>
    <g id="Grupo_1004717" data-name="Grupo 1004717" transform="translate(7.175 53.012)">
      <circle id="Elipse_7676" data-name="Elipse 7676" cx="4.277" cy="4.277" r="4.277" transform="translate(76.579 6.048) rotate(-45)" fill="#45304c"/>
      <circle id="Elipse_7677" data-name="Elipse 7677" cx="4.277" cy="4.277" r="4.277" transform="translate(35.364 9.247) rotate(-76.7)" fill="#45304c"/>
      <path id="Trazado_632217" data-name="Trazado 632217" d="M30.57,372.436A57.78,57.78,0,0,0,50.9,393.671a46.548,46.548,0,0,1-1.673-15.528,6.042,6.042,0,0,0-7.427-6.2A35.042,35.042,0,0,1,30.57,372.436Z" transform="translate(-30.57 -329.121)" fill="#45304c"/>
    </g>
    <path id="Trazado_632218" data-name="Trazado 632218" d="M138.511,11.368A57.175,57.175,0,0,0,109.973,20.8C117.8,24.506,130.984,27.518,138.511,11.368Z" transform="translate(-84.163 -0.283)" fill="#adce32"/>
    <path id="Trazado_632219" data-name="Trazado 632219" d="M402.169,223.5c0,10.883-2.865,17.152-4.4,19.73a15.224,15.224,0,0,0-2.081,5.985c-.445,3.767.125,9,5.467,12.313a57.558,57.558,0,0,0,15.58-51.077C410.626,211.222,402.169,214,402.169,223.5Z" transform="translate(-302.73 -152.643)" fill="#adce32"/>
  </g>
</svg>
