<svg id="Grupo_1084258" data-name="Grupo 1084258" xmlns="http://www.w3.org/2000/svg" xmlns:xlink="http://www.w3.org/1999/xlink" width="65" height="64.956" viewBox="0 0 65 64.956">
  <defs>
    <clipPath id="clip-path">
      <rect id="Rectángulo_361758" data-name="Rectángulo 361758" width="65" height="64.956" fill="none"/>
    </clipPath>
  </defs>
  <g id="Grupo_1084178" data-name="Grupo 1084178" clip-path="url(#clip-path)">
    <path id="Trazado_716958" data-name="Trazado 716958" d="M48.782,11.167a15.407,15.407,0,0,1,3.536,4.322.468.468,0,0,0,.475.326,6.312,6.312,0,0,1,6.293,4.968.741.741,0,0,0,.36.4c.582.3,1.181.565,1.831.87-.442.6-.831,1.167-1.264,1.7a.591.591,0,0,0-.091.7c.2.5.2,1.13.522,1.494s.96.429,1.421.692a5.933,5.933,0,0,1,2.985,4.3,9.613,9.613,0,0,1,.144,1.684q.014,10.292.006,20.584v.578H23.388V51.822H16.881L16.7,53.781H5.7L5.513,51.8H.066V49.761h5.29L4.094,34.369c-.3.022-.555.052-.81.057A3.048,3.048,0,0,1,.03,31.271c-.011-3.155,0-6.31,0-9.465,0-1.3.061-2.607-.012-3.9A5.811,5.811,0,0,1,3.8,11.887c1.028-.475,2.077-.9,3.116-1.353.194-.084.389-.166.637-.271a5.636,5.636,0,0,1-.9-4.132H4.136V4.077c.573,0,1.15-.029,1.723.01.392.026.529-.126.611-.485C6.715,2.528,7,1.463,7.254.39A.421.421,0,0,1,7.748,0q3.469.018,6.938,0c.3,0,.393.123.455.379.266,1.1.559,2.2.811,3.3a.436.436,0,0,0,.531.4c.592-.024,1.186-.007,1.8-.007V6.1H15.751a5.708,5.708,0,0,1-.756,3.916c.4.146.741.3,1.092.388a10.391,10.391,0,0,1,3.925,2.216c.684.558,1.425,1.048,2.144,1.562a.45.45,0,0,0,.252.068A3.623,3.623,0,0,1,26.32,17.3a1.725,1.725,0,0,1,.085.588c-.124.855.509,1.228,1.037,1.724A3.848,3.848,0,0,1,29.6,17.953a1.785,1.785,0,0,0,1.374-1.3,6.518,6.518,0,0,1,8.7-3.4.829.829,0,0,0,.873-.079,7.759,7.759,0,0,1,6.877-.723c.3.1.462.084.626-.2.2-.357.46-.682.731-1.075m14.15,22.37c-.156-.009-.261-.021-.366-.021q-17.5,0-35.008-.006c-.268,0-.407.065-.487.342A8.209,8.209,0,0,1,25.63,36.6a1.091,1.091,0,0,0-.207.62c-.012,3.339-.007,6.677,0,10.015,0,.147.015.294.024.457h37.49Zm-30.5-13.7c-.438-.045-.815-.1-1.194-.121a2.246,2.246,0,0,0-2.123,1.113.44.44,0,0,0,.069.638c.738.756,1.459,1.528,2.182,2.3A3.035,3.035,0,0,1,27.845,28.6c-.115-.053-.232-.1-.374-.159v3h5.212a.56.56,0,0,0,.014-.132c-.609-2.635,2.139-4.567,4.284-4.049a15.333,15.333,0,0,1,5,2.438c.019.013.018.055.036.115l-1.5,1.643h5.381a16.783,16.783,0,0,1-1.478-5.336,15.918,15.918,0,0,1,5.412.591,3.724,3.724,0,0,1,2.527,3.845c-.024.3-.1.594-.154.9H62.855c-.022-.156-.03-.277-.057-.392a4.077,4.077,0,0,0-3.783-3.209c-.615-.072-.6-.073-.623-.7-.015-.463-.072-.924-.119-1.494-1.707,1.422-3.416,1.638-5.141.385a2.727,2.727,0,0,1-1.083-3.181c.724-2.247,2.433-2.932,4.67-2.586a4.189,4.189,0,0,0-3.906-2.4c-.113.005-.266.21-.315.351a3.436,3.436,0,0,1-1.95,2.195.448.448,0,0,0-.333.533,3.048,3.048,0,0,1-1.461,2.97,3.575,3.575,0,0,1-5.093-1.931,14.9,14.9,0,0,1-.649-2.9c-.125-.839-.111-1.7-.164-2.633l3.063.509.813-2.6a4.37,4.37,0,0,0-.413-.144,5.8,5.8,0,0,0-5.347,1.163c-.692.568-.69.569-1.444.086A4.505,4.505,0,0,0,32.5,19.046c0,.243-.039.486-.066.791M12.2,51.781c.838,0,1.6.014,2.362-.016.1,0,.274-.217.285-.345.35-4.042.682-8.085,1.027-12.127a.571.571,0,0,0-.347-.644,7.771,7.771,0,0,1-4.246-6.173c-.164-1.468-.062-2.966-.1-4.45a2.213,2.213,0,0,0-.144-.754Q8.671,21.3,6.28,15.334c-.26-.65-.525-1.3-.807-1.995-.5.258-.97.484-1.423.731a3.555,3.555,0,0,0-1.992,3.441c.048,3.491.015,6.982.015,10.474,0,1.1,0,2.2,0,3.307a.994.994,0,0,0,.639,1.017c.815.331,1.38-.068,1.381-.979q0-5.65,0-11.3V19.5H6.132v.634q0,6.983,0,13.965c0,.291.007.582.031.872q.588,7.095,1.183,14.189c.072.865.15,1.729.226,2.6h2.62V38.6H12.2Zm7.1-30.434c-1.639,0-3.277,0-4.916,0a1.029,1.029,0,0,0-1.155,1.163c0,3-.035,6,.022,9a6.591,6.591,0,0,0,.5,2.358,6.039,6.039,0,0,0,6.791,3.57A6.108,6.108,0,0,0,25.4,31.486c.016-2.971,0-5.942,0-8.913,0-.863-.364-1.226-1.231-1.226H19.3m6.134,30.4h37.52V49.8H25.437ZM17.9,39.482l-.85,10.241h6.292V38.542a8.252,8.252,0,0,1-5.443.939m.23-25.853a16.268,16.268,0,0,0-1.649-.9c-.906-.37-1.839-.675-2.772-.972a1.053,1.053,0,0,0-.681.042,4.362,4.362,0,0,1-3.44.089.644.644,0,0,0-.388-.074c-.609.229-1.208.488-1.831.745l3.76,9.39a4,4,0,0,1,1.237-2.02c.066-.057.034-.245.023-.371a10.818,10.818,0,0,1-.151-1.636,3.616,3.616,0,0,1,4.724-3.472.472.472,0,0,0,.354-.088c.251-.2.479-.424.816-.731m3.369,3.19c-.206-.331-.371-.624-.563-.9a1.248,1.248,0,0,0-2.123-.134,2,2,0,0,1-2.512.61,1.266,1.266,0,0,0-1.658.561,2.453,2.453,0,0,0-.334,1.849c.069.358.209.51.6.5,1.271-.026,2.542-.009,3.813-.01q2.527,0,5.054,0c.217,0,.405.019.5-.267a2.353,2.353,0,0,0-.569-2.375,1.175,1.175,0,0,0-1.434-.222c-.247.117-.49.243-.777.386M11.219,6.114c-.674,0-1.349.025-2.021-.01-.384-.02-.51.14-.551.48a3.428,3.428,0,0,0,.5,2.374,2.369,2.369,0,0,0,2.6,1.126A3.07,3.07,0,0,0,13.67,6.317c-.026-.1-.25-.19-.384-.194-.689-.019-1.378-.009-2.067-.009m2.72-2.066c-.156-.629-.292-1.22-.46-1.8a.387.387,0,0,0-.3-.182q-1.972-.018-3.945,0c-.1,0-.279.062-.3.13-.174.606-.319,1.22-.479,1.855ZM46.9,28.225a7.08,7.08,0,0,0,.991,2.5,1.577,1.577,0,0,0,2.09.369,1.616,1.616,0,0,0-.535-2.345,7.454,7.454,0,0,0-2.547-.52m11.215-5.256-.047-.217a23.407,23.407,0,0,0-2.524-.529,1.541,1.541,0,0,0-1.57,1.422c.018.7.744,1.214,1.65,1.132a1.234,1.234,0,0,0,.642-.2c.633-.515,1.235-1.068,1.848-1.607m-8.9-8.561-.2.031c-.3.727-.635,1.442-.888,2.185a1.586,1.586,0,0,0,.532,1.7,1.007,1.007,0,0,0,1.413.029,1.655,1.655,0,0,0,.484-1.792c-.389-.746-.886-1.436-1.337-2.15M44.967,18.95c.2.821.352,1.6.6,2.346a1.563,1.563,0,0,0,1.356,1.024,1.011,1.011,0,0,0,1.141-.564,1.466,1.466,0,0,0-.174-1.47,4.659,4.659,0,0,0-2.922-1.336m-6.148,11.3-.011-.188c-.755-.274-1.5-.587-2.27-.809a1.644,1.644,0,0,0-1.727.77.994.994,0,0,0-.019,1.043.777.777,0,0,0,.834.421c.318-.027.641.006.961-.009a1.618,1.618,0,0,0,.75-.1c.52-.336.992-.745,1.483-1.125M27.563,22.707l-.113.036c0,.926,0,1.851.006,2.777a.434.434,0,0,0,.144.266c.311.294.625.585.953.858a.978.978,0,0,0,1.331-.073.945.945,0,0,0,.058-1.326c-.781-.857-1.585-1.693-2.38-2.538" transform="translate(0 0)"/>
    <rect id="Rectángulo_361752" data-name="Rectángulo 361752" width="8.079" height="1.949" transform="translate(7.157 63.001)"/>
    <rect id="Rectángulo_361753" data-name="Rectángulo 361753" width="8.065" height="1.975" transform="translate(27.473 58.913)"/>
    <path id="Trazado_716959" data-name="Trazado 716959" d="M519.43,642.646c0-.59,0-1.167,0-1.743,0-.327.242-.253.426-.253q2.89,0,5.78,0h1.894v2Z" transform="translate(-471.693 -581.766)"/>
    <path id="Trazado_716960" data-name="Trazado 716960" d="M192.49,607.962c0,.612.01,1.189-.011,1.766a.344.344,0,0,1-.245.229c-1.25.015-2.5.01-3.786.01v-2.005Z" transform="translate(-171.128 -552.089)"/>
    <rect id="Rectángulo_361754" data-name="Rectángulo 361754" width="4.018" height="1.981" transform="translate(0.057 59.918)"/>
    <path id="Trazado_716961" data-name="Trazado 716961" d="M210.147,675.868c0-.608-.013-1.172.013-1.735a.38.38,0,0,1,.277-.246q1.745-.025,3.491,0a.381.381,0,0,1,.275.249c.026.563.013,1.127.013,1.73Z" transform="translate(-190.831 -611.944)"/>
    <rect id="Rectángulo_361755" data-name="Rectángulo 361755" width="4.018" height="1.974" transform="translate(38.63 55.873)"/>
    <path id="Trazado_716962" data-name="Trazado 716962" d="M662.92,629.958h4.043v2.015c-1.109,0-2.191,0-3.274,0-.9,0-.756.106-.768-.786-.005-.394,0-.789,0-1.228" transform="translate(-601.995 -572.064)"/>
    <path id="Trazado_716963" data-name="Trazado 716963" d="M630.072,686.8v-1.984c.178-.011.34-.029.5-.029,1.025,0,2.051.016,3.075-.01.394-.01.5.126.479.5-.028.5-.007,1-.007,1.525Z" transform="translate(-572.167 -621.842)"/>
    <rect id="Rectángulo_361756" data-name="Rectángulo 361756" width="4.004" height="1.971" transform="translate(11.22 57.907)"/>
    <path id="Trazado_716964" data-name="Trazado 716964" d="M435,673.871v1.98a2.555,2.555,0,0,1-.346.048c-1.1,0-2.205-.005-3.307.008-.292,0-.415-.077-.4-.388.023-.443-.011-.889.02-1.331.008-.111.17-.3.264-.3,1.237-.02,2.475-.014,3.768-.014" transform="translate(-391.346 -611.94)"/>
    <path id="Trazado_716965" data-name="Trazado 716965" d="M314.06,364.65v14.157H276.57c-.009-.163-.024-.31-.024-.457,0-3.339-.007-6.677,0-10.015a1.09,1.09,0,0,1,.207-.62,8.21,8.21,0,0,0,1.441-2.749c.08-.277.218-.342.487-.342q17.5.009,35.008.006c.105,0,.21.012.366.021M280.6,373.727v-4.008h-2.011v7.058h1.993l.041-.94h8.067c.015.332.028.631.041.933h2l.047-.942h8.081v.949h2.025c.015-.33.029-.628.043-.939h9.077l.042.946h1.979V366.679h-1.97l-.063.955h-9.059l-.064-.95h-1.988c-.015.33-.028.631-.042.946h-8.064c-.019-.331-.037-.63-.055-.941h-1.992c-.015.335-.029.633-.045.989h-5.017v2.03h5.013v4.02Z" transform="translate(-251.129 -331.113)" fill="#afafaf"/>
    <path id="Trazado_716966" data-name="Trazado 716966" d="M303.881,158.272c.026-.305.063-.548.066-.791a4.505,4.505,0,0,1,7.023-3.577c.753.483.752.481,1.444-.086a5.8,5.8,0,0,1,5.347-1.163c.145.036.283.1.413.144l-.813,2.6-3.063-.509c.052.935.038,1.794.164,2.633a14.9,14.9,0,0,0,.649,2.9,3.575,3.575,0,0,0,5.093,1.931,3.048,3.048,0,0,0,1.461-2.97.448.448,0,0,1,.333-.533,3.436,3.436,0,0,0,1.95-2.195c.048-.141.2-.346.315-.351a4.189,4.189,0,0,1,3.906,2.4c-2.236-.345-3.945.339-4.67,2.586a2.727,2.727,0,0,0,1.083,3.181c1.724,1.254,3.434,1.037,5.141-.385.047.57.1,1.031.119,1.494.021.63.008.631.623.7a4.077,4.077,0,0,1,3.783,3.209c.027.116.035.236.057.392H323.66c.053-.3.13-.6.154-.9a3.724,3.724,0,0,0-2.527-3.845,15.918,15.918,0,0,0-5.412-.591,16.784,16.784,0,0,0,1.478,5.336h-5.381l1.5-1.643c-.018-.059-.017-.1-.036-.115a15.331,15.331,0,0,0-5-2.438c-2.145-.518-4.893,1.414-4.284,4.049a.56.56,0,0,1-.014.132h-5.212v-3c.141.06.259.106.374.159a3.035,3.035,0,0,0,3.521-4.833c-.723-.771-1.444-1.543-2.182-2.3a.44.44,0,0,1-.069-.638,2.246,2.246,0,0,1,2.123-1.113c.379.021.756.075,1.194.121m5.185-3.594a17.059,17.059,0,0,0-2.578,4.7,3.677,3.677,0,0,0,.045,2.43,3.415,3.415,0,0,0,3.177,2.362,3.3,3.3,0,0,0,3.033-2.338,3.718,3.718,0,0,0-.286-3.144,17.1,17.1,0,0,0-3.391-4.012" transform="translate(-271.448 -138.434)" fill="#adce32"/>
    <path id="Trazado_716967" data-name="Trazado 716967" d="M32.527,183.59V170.413H30.516v13.147H27.9c-.075-.867-.153-1.732-.226-2.6q-.593-7.094-1.183-14.189c-.024-.289-.031-.581-.031-.871q0-6.983,0-13.965V151.3H24.418v.535q0,5.65,0,11.3c0,.91-.566,1.309-1.381.979A.994.994,0,0,1,22.4,163.1c0-1.1,0-2.205,0-3.308,0-3.491.033-6.983-.015-10.474a3.556,3.556,0,0,1,1.992-3.441c.454-.247.919-.473,1.423-.731.283.7.548,1.345.807,1.995q2.386,5.968,4.763,11.939a2.218,2.218,0,0,1,.144.754c.034,1.484-.068,2.981.1,4.45a7.771,7.771,0,0,0,4.246,6.173.571.571,0,0,1,.347.644c-.345,4.042-.677,8.086-1.027,12.127-.011.127-.182.341-.285.345-.761.029-1.524.016-2.362.016" transform="translate(-20.324 -131.809)" fill="#727997"/>
    <path id="Trazado_716968" data-name="Trazado 716968" d="M149.938,232.27h4.87c.867,0,1.231.363,1.231,1.226,0,2.971.012,5.942,0,8.913a6.107,6.107,0,0,1-4.857,5.959,6.039,6.039,0,0,1-6.791-3.57,6.594,6.594,0,0,1-.5-2.358c-.057-3-.025-6-.022-9a1.029,1.029,0,0,1,1.155-1.163c1.638-.005,3.277,0,4.916,0" transform="translate(-130.635 -210.923)" fill="#b0c0d2"/>
    <path id="Trazado_716969" data-name="Trazado 716969" d="M276.784,543.863v-1.945H314.3v1.945Z" transform="translate(-251.347 -492.114)" fill="#ffd947"/>
    <path id="Trazado_716970" data-name="Trazado 716970" d="M186.343,420.327a8.252,8.252,0,0,0,5.442-.939v11.181h-6.292l.85-10.241" transform="translate(-168.446 -380.845)" fill="#fff"/>
    <path id="Trazado_716971" data-name="Trazado 716971" d="M90.9,129.4c-.337.307-.565.534-.816.731a.473.473,0,0,1-.354.089,3.616,3.616,0,0,0-4.724,3.471,10.817,10.817,0,0,0,.151,1.636c.011.125.043.314-.023.371a4,4,0,0,0-1.237,2.02l-3.76-9.389c.623-.257,1.221-.516,1.831-.745a.645.645,0,0,1,.388.074,4.362,4.362,0,0,0,3.44-.089,1.053,1.053,0,0,1,.681-.042c.933.3,1.866.6,2.772.972a16.282,16.282,0,0,1,1.649.9" transform="translate(-72.775 -115.776)" fill="#727997"/>
    <path id="Trazado_716972" data-name="Trazado 716972" d="M162.323,167.571c.287-.143.53-.269.777-.386a1.175,1.175,0,0,1,1.434.222,2.353,2.353,0,0,1,.569,2.375c-.1.286-.284.267-.5.267q-2.527,0-5.054,0c-1.271,0-2.543-.016-3.813.01-.395.008-.534-.144-.6-.5a2.454,2.454,0,0,1,.334-1.85,1.266,1.266,0,0,1,1.658-.561,2,2,0,0,0,2.512-.61,1.248,1.248,0,0,1,2.123.134c.193.274.357.568.563.9" transform="translate(-140.827 -150.753)" fill="#ffd947"/>
    <path id="Trazado_716973" data-name="Trazado 716973" d="M96.335,66.421c.689,0,1.378-.01,2.067.009.134,0,.358.1.384.194a3.07,3.07,0,0,1-1.928,3.768,2.369,2.369,0,0,1-2.6-1.126,3.428,3.428,0,0,1-.5-2.374c.042-.34.167-.5.551-.48.672.035,1.347.01,2.021.01" transform="translate(-85.116 -60.306)" fill="#fff"/>
    <path id="Trazado_716974" data-name="Trazado 716974" d="M97.463,24.365H91.977c.16-.635.306-1.249.479-1.855.02-.068.2-.13.3-.13q1.972-.014,3.944,0a.387.387,0,0,1,.3.182c.168.582.3,1.173.46,1.8" transform="translate(-83.524 -20.316)" fill="#ffa686"/>
    <path id="Trazado_716975" data-name="Trazado 716975" d="M510.308,307.127a7.455,7.455,0,0,1,2.547.52,1.616,1.616,0,0,1,.535,2.345,1.577,1.577,0,0,1-2.09-.369,7.079,7.079,0,0,1-.991-2.5" transform="translate(-463.41 -278.901)" fill="#0b481e"/>
    <path id="Trazado_716976" data-name="Trazado 716976" d="M591.431,242.507c-.614.539-1.215,1.092-1.848,1.607a1.234,1.234,0,0,1-.642.2c-.906.082-1.633-.428-1.65-1.132a1.541,1.541,0,0,1,1.57-1.422,23.4,23.4,0,0,1,2.524.529l.047.217" transform="translate(-533.317 -219.538)" fill="#0b481e"/>
    <path id="Trazado_716977" data-name="Trazado 716977" d="M523.965,156.773c.451.714.948,1.4,1.337,2.15a1.655,1.655,0,0,1-.484,1.792,1.007,1.007,0,0,1-1.413-.029,1.586,1.586,0,0,1-.532-1.7c.253-.743.588-1.458.888-2.185l.2-.031" transform="translate(-474.749 -142.365)" fill="#0b481e"/>
    <path id="Trazado_716978" data-name="Trazado 716978" d="M489.3,206.2a4.659,4.659,0,0,1,2.922,1.336,1.466,1.466,0,0,1,.174,1.47,1.011,1.011,0,0,1-1.141.564,1.563,1.563,0,0,1-1.356-1.024c-.247-.746-.395-1.525-.6-2.346" transform="translate(-444.33 -187.251)" fill="#0b481e"/>
    <path id="Trazado_716979" data-name="Trazado 716979" d="M381.24,318.858c-.491.38-.963.789-1.483,1.125a1.617,1.617,0,0,1-.75.1c-.32.015-.643-.018-.961.009a.777.777,0,0,1-.834-.421.994.994,0,0,1,.019-1.043,1.644,1.644,0,0,1,1.727-.77c.77.222,1.514.535,2.27.809l.011.188" transform="translate(-342.42 -288.609)" fill="#0b481e"/>
    <path id="Trazado_716980" data-name="Trazado 716980" d="M298.789,247.083c.795.845,1.6,1.681,2.38,2.538a.945.945,0,0,1-.058,1.326.978.978,0,0,1-1.331.073c-.328-.274-.642-.565-.953-.858a.434.434,0,0,1-.144-.266c-.011-.925-.006-1.851-.006-2.777l.113-.036" transform="translate(-271.227 -224.376)" fill="#727997"/>
    <path id="Trazado_716981" data-name="Trazado 716981" d="M300.83,394.039h8.082v-4.02H303.9v-2.03h5.017c.016-.356.03-.654.045-.989h1.992l.055.941h8.064l.042-.946H321.1l.063.951h9.059l.063-.955h1.97V397.1h-1.979c-.014-.317-.027-.615-.042-.946h-9.077c-.014.311-.028.609-.043.939h-2.025v-.949h-8.081c-.015.307-.03.6-.047.942h-2l-.041-.933h-8.067c-.014.309-.027.608-.041.94h-1.993v-7.058h2.011Zm29.407-3.993h-9.077v3.976h9.077Zm-11.173.022a.608.608,0,0,0-.152-.05c-2.538,0-5.076,0-7.613-.012-.333,0-.319.192-.318.417,0,1.085,0,2.171,0,3.256a3.093,3.093,0,0,0,.039.347h8.042Z" transform="translate(-271.357 -351.425)"/>
    <path id="Trazado_716982" data-name="Trazado 716982" d="M382.041,176.75a17.1,17.1,0,0,1,3.391,4.012,3.718,3.718,0,0,1,.286,3.144,3.3,3.3,0,0,1-3.033,2.338,3.415,3.415,0,0,1-3.177-2.362,3.677,3.677,0,0,1-.045-2.43,17.059,17.059,0,0,1,2.578-4.7m.434,3.263-.238.023a23.6,23.6,0,0,0-.883,2.331,1.56,1.56,0,0,0,1.147,1.823c.711.1,1.346-.567,1.39-1.489a1.322,1.322,0,0,0-.132-.706c-.4-.676-.853-1.324-1.285-1.982" transform="translate(-344.423 -160.506)"/>
    <rect id="Rectángulo_361757" data-name="Rectángulo 361757" width="9.077" height="3.976" transform="translate(49.804 38.621)" fill="#afafaf"/>
    <path id="Trazado_716983" data-name="Trazado 716983" d="M439.23,419.87v3.959h-8.042a3.107,3.107,0,0,1-.039-.347c0-1.085,0-2.171,0-3.256,0-.225-.015-.419.318-.417,2.538.011,5.076.008,7.613.012a.609.609,0,0,1,.152.05" transform="translate(-391.523 -381.228)" fill="#afafaf"/>
    <path id="Trazado_716984" data-name="Trazado 716984" d="M402.577,212.252c.432.658.882,1.306,1.284,1.982a1.322,1.322,0,0,1,.132.706c-.044.922-.679,1.586-1.39,1.489a1.56,1.56,0,0,1-1.147-1.823,23.609,23.609,0,0,1,.883-2.331Z" transform="translate(-364.524 -192.746)" fill="#0b481e"/>
  </g>
</svg>
