<svg xmlns="http://www.w3.org/2000/svg" xmlns:xlink="http://www.w3.org/1999/xlink" width="157" height="153" viewBox="0 0 157 153">
  <defs>
    <radialGradient id="radial-gradient" cx="0.5" cy="0.5" r="0.5" gradientUnits="objectBoundingBox">
      <stop offset="0" stop-color="#2e7544"/>
      <stop offset="1" stop-color="#0b481e"/>
    </radialGradient>
    <filter id="Elipse_7770" x="0" y="0" width="157" height="153" filterUnits="userSpaceOnUse">
      <feOffset dy="3" input="SourceAlpha"/>
      <feGaussianBlur stdDeviation="3" result="blur"/>
      <feFlood flood-opacity="0.161"/>
      <feComposite operator="in" in2="blur"/>
      <feComposite in="SourceGraphic"/>
    </filter>
    <linearGradient id="linear-gradient" x1="0.5" x2="0.5" y2="1" gradientUnits="objectBoundingBox">
      <stop offset="0" stop-color="#fff"/>
      <stop offset="1" stop-color="#e9e9e9"/>
    </linearGradient>
    <filter id="Elipse_7771" x="13" y="12" width="130" height="129" filterUnits="userSpaceOnUse">
      <feOffset dy="3" input="SourceAlpha"/>
      <feGaussianBlur stdDeviation="3" result="blur-2"/>
      <feFlood flood-opacity="0.161"/>
      <feComposite operator="in" in2="blur-2"/>
      <feComposite in="SourceGraphic"/>
    </filter>
    <clipPath id="clip-path">
      <rect id="Rectángulo_380796" data-name="Rectángulo 380796" width="100.289" height="96.482" transform="translate(0 0)" fill="#0b481e"/>
    </clipPath>
  </defs>
  <g id="Grupo_1084650" data-name="Grupo 1084650" transform="translate(-333.151 -1080.653)">
    <g transform="matrix(1, 0, 0, 1, 333.15, 1080.65)" filter="url(#Elipse_7770)">
      <ellipse id="Elipse_7770-2" data-name="Elipse 7770" cx="69.5" cy="67.5" rx="69.5" ry="67.5" transform="translate(9 6)" fill="url(#radial-gradient)"/>
    </g>
    <g transform="matrix(1, 0, 0, 1, 333.15, 1080.65)" filter="url(#Elipse_7771)">
      <ellipse id="Elipse_7771-2" data-name="Elipse 7771" cx="56" cy="55.5" rx="56" ry="55.5" transform="translate(22 18)" fill="url(#linear-gradient)"/>
    </g>
    <g id="Grupo_1084652" data-name="Grupo 1084652" transform="translate(361.006 1106.508)">
      <g id="Grupo_1084651" data-name="Grupo 1084651" transform="translate(0 -0.003)" clip-path="url(#clip-path)">
        <path id="Trazado_794212" data-name="Trazado 794212" d="M100.105,55.969a4.021,4.021,0,0,1-2.47,2.862,4.367,4.367,0,0,1-1.835.328c-1,0-2.006.011-3.008-.007a.474.474,0,0,0-.535.382A44.735,44.735,0,0,1,58.771,88.448a42.855,42.855,0,0,1-12.947.626,44.175,44.175,0,0,1-30.5-16.514A42.865,42.865,0,0,1,8.077,59.592a.557.557,0,0,0-.636-.441c-1.159.014-2.323.058-3.476-.026A4.213,4.213,0,0,1,.013,54.879q-.026-10.246,0-20.492A4.264,4.264,0,0,1,4.286,30.1c1.08-.029,2.162-.019,3.243,0a.478.478,0,0,0,.531-.384A44.352,44.352,0,0,1,31.235,4.183,41.719,41.719,0,0,1,45.257.255,43.918,43.918,0,0,1,77.836,9.611a43.638,43.638,0,0,1,14.38,20.023.591.591,0,0,0,.664.472,34.93,34.93,0,0,1,3.71.046,4.243,4.243,0,0,1,3.675,3.863c-.127.15-.072.33-.072.5q0,10.122,0,20.243c0,.167-.054.347.072.5l-.032.2c-.234.126-.1.341-.128.518M96.436,31.675c-.16-.2-.381-.1-.571-.1q-21.431-.007-42.861,0-24.251,0-48.5,0c-.191,0-.41-.093-.574.095a2.866,2.866,0,0,0-2.3,2.162c-.237.11-.142.327-.143.5q-.007,10.221,0,20.442c0,.164-.065.349.094.486.59,1.784,1.371,2.34,3.291,2.34H95.752a2.724,2.724,0,0,0,2.962-2.945c0-6.657-.01-13.314.01-19.971A2.844,2.844,0,0,0,96.892,31.8c-.06-.174-.2-.13-.332-.126-.041.051-.082.036-.124,0M13.789,30.068c.137.013.214.026.291.026q6.016,0,12.033.008a.549.549,0,0,0,.52-.307A26.008,26.008,0,0,1,31.77,23.78c7.415-6.3,15.9-8.374,25.334-6.051A26.936,26.936,0,0,1,73.613,29.7a.742.742,0,0,0,.706.405c3.886-.013,7.771-.008,11.657-.009.558,0,.564-.006.345-.528a39.229,39.229,0,0,0-29.884-23.6,37.749,37.749,0,0,0-14.421.346A38.813,38.813,0,0,0,16.767,24.155a35.952,35.952,0,0,0-2.978,5.913m6.356,29.087v-.01c-1.958,0-3.917.011-5.875-.008-.423,0-.495.067-.323.475A38.22,38.22,0,0,0,26.021,75.46c9.875,7.565,21,10.119,33.082,7.257C71.979,79.666,81,71.752,86.341,59.643c.217-.493.207-.5-.338-.5-3.885,0-7.771,0-11.656-.008a.727.727,0,0,0-.713.388,24.8,24.8,0,0,1-5.181,6.039c-8.27,6.859-17.556,8.661-27.73,5.2A26.694,26.694,0,0,1,26.685,59.54a.732.732,0,0,0-.713-.4c-1.942.022-3.885.011-5.827.011m9.6-.011c.115.178.175.284.248.381a23.784,23.784,0,0,0,3.94,4.209,24.56,24.56,0,0,0,20.835,5.514,24.432,24.432,0,0,0,15.54-9.717c.071-.093.218-.185.147-.315s-.227-.061-.348-.07c-.062,0-.125,0-.188,0H29.745Zm40.83-29.093a25.054,25.054,0,0,0-40.743-.014c.364.071,39.938.1,40.743.014m-20.4,58.061a43.092,43.092,0,0,0,9.138-.978A43.541,43.541,0,0,0,90.792,60.121c.373-.977.372-.951-.665-.989a.759.759,0,0,0-.873.591A41.921,41.921,0,0,1,54.591,86.3a39.376,39.376,0,0,1-14.217-.922C26.523,81.785,16.818,73.34,11.225,60.172c-.435-1.024-.417-1.031-1.552-1.029-.519,0-.52,0-.334.5A43.6,43.6,0,0,0,50.176,88.113M9.173,30.1c.457,0,.862-.019,1.265.006a.475.475,0,0,0,.541-.377,41.987,41.987,0,0,1,36.214-26.9,40.433,40.433,0,0,1,13.36,1.206A41.568,41.568,0,0,1,83.309,18.994a40.612,40.612,0,0,1,6.024,10.722c.07.184.1.4.39.384.375-.019.752-.011,1.128,0,.241.005.257-.115.191-.3-.037-.1-.077-.2-.116-.307A43.578,43.578,0,0,0,52.772,1.231a40.15,40.15,0,0,0-11.806.909c-13.9,3.245-23.947,11.339-30.23,24.13A32.065,32.065,0,0,0,9.173,30.1" transform="translate(0 0.004)" fill="#0b481e"/>
        <path id="Trazado_794213" data-name="Trazado 794213" d="M49.85,708.818c-.054.031-.136.077-.217.124l-1.216.709c-.42.244-.744.085-.838-.393-.033-.165.084-.187.168-.236,1.376-.808,2.759-1.6,4.128-2.423.335-.2.368.073.463.239s.341.365-.032.553c-.446.225-.862.508-1.3.748-.194.106-.236.2-.109.4.247.38.388.959.728,1.112.365.165.761-.357,1.161-.545.071-.033.136-.076.2-.116.421-.25.725-.1.836.386.037.162-.071.191-.156.242-1.377.806-2.759,1.6-4.13,2.418-.325.193-.374-.058-.472-.235s-.324-.347.011-.531c.493-.271.965-.581,1.464-.842.269-.141.282-.274.128-.507-.2-.3-.366-.619-.554-.926-.052-.085-.079-.219-.263-.173" transform="translate(-43.1 -640.102)" fill="#0b481e"/>
        <path id="Trazado_794214" data-name="Trazado 794214" d="M198.006,873.8c-.027.09-.052.18-.08.269-.486,1.547-.979,3.093-1.452,4.644-.09.3-.147.313-.424.155-.43-.245-.513-.526-.283-.935a.618.618,0,0,0-.318-.994.917.917,0,0,1-.152-.109c-.732-.53-.732-.53-1.459.013a.773.773,0,0,1-.959-.277c-.043-.122.059-.167.127-.219q2.025-1.517,4.056-3.027c.212-.157.928.215.945.48m-1.235.806-1.486,1.1c.278.2.519.374.757.55.144.106.243.119.3-.089.15-.507.312-1.011.47-1.516.017-.02.053-.051.049-.057-.037-.058-.067-.022-.095.014" transform="translate(-174.734 -791.179)" fill="#0b481e"/>
        <path id="Trazado_794215" data-name="Trazado 794215" d="M870.088,821.833a2.053,2.053,0,0,1,1.483,1.276,1.349,1.349,0,0,1-.39,1.609c-.209.223-.621.39-.582.674.036.257.374.472.58.7a2.331,2.331,0,0,0,.32.341c.372.276.338.491-.014.782-.243.2-.344.135-.519-.053q-1.566-1.68-3.153-3.34c-.2-.206-.212-.327.01-.518.414-.356.8-.745,1.208-1.109a1.315,1.315,0,0,1,1.054-.367m-.208,1c-.335.035-.538.336-.805.542-.216.166-.219.309-.015.48a2.853,2.853,0,0,1,.258.271c.609.666.672.659,1.236-.089a.643.643,0,0,0,.072-.742.8.8,0,0,0-.747-.463" transform="translate(-786.086 -744.563)" fill="#0b481e"/>
        <path id="Trazado_794216" data-name="Trazado 794216" d="M679.912,946.678a1.921,1.921,0,0,1-1.575-.881,4.109,4.109,0,0,1-.828-2.817,1.83,1.83,0,0,1,1.369-1.659,1.7,1.7,0,0,1,1.859.679c.111.151.228.31-.022.4-.219.077-.346.551-.681.179a.891.891,0,0,0-1.095-.281.964.964,0,0,0-.566,1.04,3.836,3.836,0,0,0,.682,1.921.972.972,0,0,0,1.136.451.94.94,0,0,0,.593-1.016c0-.207-.068-.436.272-.372.25.047.614-.162.65.353a1.771,1.771,0,0,1-1.793,2" transform="translate(-613.798 -852.762)" fill="#0b481e"/>
        <path id="Trazado_794217" data-name="Trazado 794217" d="M456.837,968.67c.01.172.006.314.028.452a1.033,1.033,0,0,0,.8.982c.456.078.751-.112,1.04-.687.078-.156.13-.362.347-.175.189.163.665.094.482.578a1.791,1.791,0,0,1-1.612,1.235,1.7,1.7,0,0,1-1.751-1.163,3.8,3.8,0,0,1,.436-3.539,1.708,1.708,0,0,1,1.889-.746,1.618,1.618,0,0,1,1.319,1.308c.039.165.2.433-.166.457-.251.016-.588.321-.717-.178a.829.829,0,0,0-.786-.687.955.955,0,0,0-.977.594,4.229,4.229,0,0,0-.33,1.568" transform="translate(-413.052 -874.78)" fill="#0b481e"/>
        <path id="Trazado_794218" data-name="Trazado 794218" d="M158.862,850.719c-1.342.008-1.836-.81-1.264-1.951a3.757,3.757,0,0,1,.873-1.094c.966-.871,1.906-.642,2.334.59a5.4,5.4,0,0,0,.932-1.037c.291-.379.423-.053.625.069.285.172.181.318.016.51-.972,1.125-1.929,2.262-2.907,3.381-.117.133-.194.517-.518.22-.209-.191-.571-.345-.089-.688m1.362-2.1a.566.566,0,0,0-.892-.492,2.153,2.153,0,0,0-1.053,1.257.565.565,0,0,0,.7.738,2.032,2.032,0,0,0,1.243-1.5" transform="translate(-142.568 -767.409)" fill="#0b481e"/>
        <path id="Trazado_794219" data-name="Trazado 794219" d="M311.921,945.174l1.179-1.559c.46-.609.46-.609,1.171-.151-1,1.242-1.982,2.493-3,3.715a1.072,1.072,0,0,1-1.471.273c-.41-.2-.158-.475-.107-.718.068-.325.247-.092.382-.053.476.137.866-.2.912-.786q.143-1.82.287-3.635c.062-.008.093-.022.117-.013.707.246.712.247.64.987-.062.636-.138,1.271-.208,1.906l.1.033" transform="translate(-280.465 -853.655)" fill="#0b481e"/>
        <path id="Trazado_794220" data-name="Trazado 794220" d="M116.529,806.393a1.644,1.644,0,0,1,1.243,1.064c.248.488.01.863-.337,1.206a12.174,12.174,0,0,0-1.917,1.844c-.056.086-.129.1-.185.028-.136-.181-.456-.325-.371-.549.128-.338-.064-.313-.259-.362a1.068,1.068,0,0,1-.856-.89,1.084,1.084,0,0,1,.514-1.082,1.006,1.006,0,0,1,1.18-.11c.3.17.578.369.868.553.134.085.266.173.412.008a.4.4,0,0,0,.116-.465c-.138-.286-.317-.5-.689-.411-.168.039-.574-.425-.512-.578.024-.059.112-.1.179-.134a1.391,1.391,0,0,1,.615-.123m-1.185,2.789a.968.968,0,0,0,.734-.476c.064-.1-.663-.541-.881-.524a.474.474,0,0,0-.477.485c-.006.373.263.5.624.514" transform="translate(-103.128 -730.576)" fill="#0b481e"/>
        <path id="Trazado_794221" data-name="Trazado 794221" d="M271.143,928.8c-.29-.222-.838-.121-.65-.738-.146.027-.25.047-.354.065a1.072,1.072,0,0,1-1.088-1.7,1.031,1.031,0,0,1,1.107-.536c.324.05.645.12.967.186.144.029.272.059.349-.122s.115-.338-.029-.478c-.223-.217-.478-.383-.788-.162-.371.265-.509-.122-.667-.275s.1-.282.215-.375a1.375,1.375,0,0,1,1.764.165.981.981,0,0,1,.305,1.366,13.363,13.363,0,0,0-1.131,2.6m-.757-2.207c-.393-.044-.625.082-.646.459-.018.324.154.486.475.5.351.011.846-.355.8-.7-.044-.318-.435-.187-.628-.257" transform="translate(-243.547 -837.498)" fill="#0b481e"/>
        <path id="Trazado_794222" data-name="Trazado 794222" d="M74.032,758.9c-.082-.318-.595-.458-.266-.9.055-.073-.116-.108-.2-.132a1.087,1.087,0,0,1-.879-.976,1.1,1.1,0,0,1,.668-1.092,1.072,1.072,0,0,1,1.3.157,4.939,4.939,0,0,0,.474.384c.163.1.28.384.547.186a.382.382,0,0,0,.192-.44c-.088-.261-.232-.536-.546-.485-.4.065-.413-.238-.529-.454-.087-.163-.029-.242.147-.307.6-.222,1.158.029,1.591.739a1,1,0,0,1-.22,1.488c-.513.409-1.064.771-1.584,1.172-.233.18-.432.4-.7.658m.111-1.429a1.505,1.505,0,0,0,.782-.418c.019-.135-.679-.629-.884-.609a.485.485,0,0,0-.492.516c.012.37.315.458.594.511" transform="translate(-65.85 -683.805)" fill="#0b481e"/>
        <path id="Trazado_794223" data-name="Trazado 794223" d="M615.137,974.884a.988.988,0,0,1,1.111.821c.149.639.256,1.287.386,1.93a4.514,4.514,0,0,1,.111.454c.015.165.329.355.074.464-.205.088-.521.314-.746-.034-.138-.213-.206-.019-.272.054a1.09,1.09,0,0,1-1.963-.707,1.083,1.083,0,0,1,.709-1.108c.211-.1.426-.2.635-.3.176-.09.4-.153.3-.44a.446.446,0,0,0-.561-.3.475.475,0,0,0-.454.345c-.034.129-.083.24-.248.225-.184-.017-.418.079-.541-.061s0-.363.063-.53c.257-.675.865-.74,1.4-.81m.528,2.036c-.256.126-.468.221-.67.333a.491.491,0,0,0-.315.566.477.477,0,0,0,.448.414.593.593,0,0,0,.571-.412c.123-.28,0-.552-.033-.9" transform="translate(-555.93 -883.226)" fill="#0b481e"/>
        <path id="Trazado_794224" data-name="Trazado 794224" d="M828.551,882.65a2.352,2.352,0,0,1,2.035,2.893,1.505,1.505,0,0,1-2.141.778,2.531,2.531,0,0,1-1.369-2.064,1.5,1.5,0,0,1,1.475-1.607m1.3,2.321a1.8,1.8,0,0,0-1.044-1.435.637.637,0,0,0-.866.621,1.767,1.767,0,0,0,1.011,1.455.659.659,0,0,0,.9-.641" transform="translate(-749.31 -799.664)" fill="#0b481e"/>
        <path id="Trazado_794225" data-name="Trazado 794225" d="M725.837,944.245a1.547,1.547,0,0,1-2.813,1.061,2.585,2.585,0,0,1-.618-1.914,1.493,1.493,0,0,1,2.346-1.107,2.454,2.454,0,0,1,1.086,1.959m-1.97-1.393a.642.642,0,0,0-.6.555,1.712,1.712,0,0,0,.6,1.541.677.677,0,0,0,.746.117.66.66,0,0,0,.386-.69,1.858,1.858,0,0,0-.616-1.316.931.931,0,0,0-.519-.207" transform="translate(-654.473 -853.447)" fill="#0b481e"/>
        <path id="Trazado_794226" data-name="Trazado 794226" d="M913.719,813.518a2.536,2.536,0,0,1-2.256-1.875,1.5,1.5,0,0,1,1.853-1.752,2.388,2.388,0,0,1,1.836,1.7,1.47,1.47,0,0,1-1.433,1.93m-.032-.857a.646.646,0,0,0,.629-.959,1.742,1.742,0,0,0-1.17-1,.656.656,0,0,0-.839.793,1.726,1.726,0,0,0,1.38,1.163" transform="translate(-825.744 -733.704)" fill="#0b481e"/>
        <path id="Trazado_794227" data-name="Trazado 794227" d="M753.815,925.61a4.661,4.661,0,0,1,.315-.615.983.983,0,0,1,1.607-.067,15.44,15.44,0,0,1,1.389,2.65c.151.316-.274.29-.432.421s-.268.052-.354-.125c-.308-.632-.626-1.258-.944-1.885-.162-.319-.345-.629-.783-.482-.327.109-.454.521-.262.966.271.63.563,1.254.892,1.856.171.313.027.386-.208.505s-.415.213-.577-.136c-.427-.921-.9-1.82-1.339-2.735-.074-.155-.348-.351.022-.521.269-.124.53-.36.675.166" transform="translate(-682.159 -837.618)" fill="#0b481e"/>
        <path id="Trazado_794228" data-name="Trazado 794228" d="M942.858,767.253a1.409,1.409,0,0,1,.062-1.023.953.953,0,0,1,1.3-.481,15.624,15.624,0,0,1,2.469,1.69c.293.22-.132.364-.194.556s-.195.193-.361.071c-.541-.4-1.085-.793-1.643-1.166-.313-.21-.654-.529-1.022-.089-.243.29-.128.672.333,1.034.516.4,1.046.794,1.595,1.152.339.221.118.376,0,.555s-.2.373-.494.155c-.824-.619-1.678-1.2-2.511-1.805-.157-.115-.483-.187-.21-.514.186-.222.31-.549.678-.133" transform="translate(-853.501 -693.66)" fill="#0b481e"/>
        <path id="Trazado_794229" data-name="Trazado 794229" d="M237.525,903.936c.182-.008.321-.02.46-.02a1,1,0,0,1,.987,1.435,17.882,17.882,0,0,1-1.533,2.463c-.2.308-.357-.065-.529-.125s-.292-.165-.14-.386c.327-.476.633-.967.947-1.452.085-.131.17-.263.244-.4.161-.3.319-.624-.051-.868a.626.626,0,0,0-.9.228c-.405.554-.788,1.126-1.151,1.709-.163.262-.28.345-.566.141-.256-.183-.372-.3-.157-.614.558-.81,1.072-1.651,1.625-2.465.09-.132.093-.473.4-.325.257.126.617.232.369.679" transform="translate(-212.926 -818.3)" fill="#0b481e"/>
        <path id="Trazado_794230" data-name="Trazado 794230" d="M403.2,971.351a1.462,1.462,0,0,1,1.48.858c.052.16.207.425-.027.472s-.577.22-.729-.159a.677.677,0,0,0-.717-.412c-.126,0-.26.016-.316.154a.278.278,0,0,0,.132.362c.265.166.537.32.8.487a1.107,1.107,0,0,1,.571,1.539,1.273,1.273,0,0,1-1.51.731,1.445,1.445,0,0,1-1.257-1.046c-.041-.159-.188-.435.073-.459.233-.021.621-.22.732.232a.7.7,0,0,0,.763.555.4.4,0,0,0,.4-.265c.08-.208-.059-.318-.214-.413-.293-.179-.6-.34-.878-.54a1.049,1.049,0,0,1-.408-1.319,1.063,1.063,0,0,1,1.1-.777" transform="translate(-363.801 -880.025)" fill="#0b481e"/>
        <path id="Trazado_794231" data-name="Trazado 794231" d="M352.161,961.666a1.567,1.567,0,0,1-1.6-1.245c-.022-.145-.164-.452.15-.425.225.019.608-.141.677.281a.7.7,0,0,0,.743.632.36.36,0,0,0,.4-.254c.064-.187-.042-.295-.173-.393-.276-.206-.565-.4-.826-.618a1.041,1.041,0,0,1-.3-1.349,1.082,1.082,0,0,1,1.166-.679,1.442,1.442,0,0,1,1.408,1.029c.02.152.158.43-.122.455-.228.021-.561.107-.668-.249a.683.683,0,0,0-.716-.485.3.3,0,0,0-.313.16.256.256,0,0,0,.108.328c.281.224.581.424.86.651a1.037,1.037,0,0,1,.422,1.316,1.2,1.2,0,0,1-1.218.845" transform="translate(-317.555 -867.577)" fill="#0b481e"/>
        <path id="Trazado_794232" data-name="Trazado 794232" d="M91.585,780.457c.3.38.572.739.858,1.088.274.334-.1.381-.234.515s-.268.335-.481.052c-.46-.612-.936-1.212-1.417-1.807-.13-.161-.117-.245.04-.375a1.416,1.416,0,0,1,.882-.364,18.081,18.081,0,0,0,2.242-.124c-.263-.331-.488-.626-.726-.91-.285-.34.117-.368.236-.509s.258-.277.442-.026c.35.479.735.934,1.09,1.409.111.149.388.29.243.494a.825.825,0,0,1-.651.4c-.687.016-1.374.055-2.061.09a.86.86,0,0,0-.464.066" transform="translate(-81.741 -704.722)" fill="#0b481e"/>
        <path id="Trazado_794233" data-name="Trazado 794233" d="M581.3,983.842a1.179,1.179,0,0,1-1.07-.561,2.9,2.9,0,0,1-.393-2.42,1.409,1.409,0,0,1,1.339-1.059,1.288,1.288,0,0,1,1.285.763c.061.127.216.306-.043.368-.214.051-.455.364-.658.059-.192-.288-.4-.443-.733-.33a.715.715,0,0,0-.436.76,2.509,2.509,0,0,0,.249,1.225.579.579,0,0,0,.611.342.484.484,0,0,0,.458-.455c.078-.53.477-.3.726-.27.338.047.127.333.093.491a1.311,1.311,0,0,1-1.427,1.084" transform="translate(-525.221 -887.68)" fill="#0b481e"/>
        <path id="Trazado_794234" data-name="Trazado 794234" d="M540.966,969.694c0,.339,0,.586,0,.832-.006.291-.042.55.419.518.3-.021.158.308.192.483.029.151.042.35-.2.323-.371-.041-.353.18-.342.433.021.484.02.97.041,1.454.008.186.025.42.3.376.418-.067.3.243.344.443.057.265-.093.357-.323.407-.664.145-1.043-.081-1.12-.759-.07-.62-.062-1.248-.091-1.872-.009-.2.029-.4-.273-.452-.257-.049-.125-.312-.152-.48-.021-.13-.049-.3.172-.308.135,0,.221-.072.191-.2-.15-.649.34-.857.845-1.2" transform="translate(-488.998 -878.524)" fill="#0b481e"/>
        <path id="Trazado_794235" data-name="Trazado 794235" d="M782.911,900.977c.221.37.391.648.556.929.076.129.157.262.32.126.276-.23.388-.057.522.169s.224.417-.109.546c-.2.079-.12.212-.045.339q.418.706.833,1.413c.093.158.228.331.4.173.366-.336.387.085.527.217.2.192.092.35-.081.5a.811.811,0,0,1-1.378-.156c-.36-.548-.675-1.124-1.015-1.685-.052-.086-.1-.271-.2-.215-.472.246-.426-.237-.6-.4a.241.241,0,0,1-.056-.121c.459-.315-.012-.566-.042-.848-.035-.335.22-.595.372-.984" transform="translate(-708.962 -816.268)" fill="#0b481e"/>
        <path id="Trazado_794236" data-name="Trazado 794236" d="M956.52,740.2c.263.168.474.295.676.435.234.163.42.345.645-.059.155-.278.329.05.488.115s.329.174.142.376c-.225.244-.081.355.132.484.44.268.865.558,1.3.833.163.1.349.208.456-.064.076-.191.173-.245.346-.118s.472.129.394.479a.836.836,0,0,1-1.311.612c-.569-.324-1.109-.7-1.664-1.046-.135-.085-.242-.218-.427-.007s-.345-.075-.51-.149c-.143-.064-.286-.157-.133-.351.069-.087.074-.17-.048-.218-.608-.239-.554-.74-.487-1.324" transform="translate(-866.553 -670.611)" fill="#0b481e"/>
        <path id="Trazado_794237" data-name="Trazado 794237" d="M645.565,960.221c-.013.274-.349.119-.523.215-.222.122-.3-.044-.341-.231q-.345-1.508-.693-3.016c-.116-.5-.219-1.008-.357-1.505-.094-.342.063-.421.354-.49s.412-.063.484.267c.323,1.481.676,2.956,1.016,4.433.018.076.028.153.06.328" transform="translate(-583.111 -865.356)" fill="#0b481e"/>
        <path id="Trazado_794238" data-name="Trazado 794238" d="M303.492,923.538c-.047.11-.083.2-.121.282-.618,1.381-1.247,2.758-1.846,4.147-.135.313-.268.343-.551.2-.244-.123-.414-.175-.248-.528.657-1.4,1.271-2.815,1.9-4.224.056-.125.066-.35.3-.219.192.105.45.116.559.344" transform="translate(-272.392 -836.361)" fill="#0b481e"/>
        <path id="Trazado_794239" data-name="Trazado 794239" d="M847.123,859.545a1.618,1.618,0,0,1-.536.455c-.182.109-.23-.109-.3-.2-.973-1.22-1.933-2.451-2.909-3.668-.165-.206-.129-.327.075-.428.184-.091.317-.467.6-.109q1.469,1.882,2.948,3.757c.048.061.086.129.129.2" transform="translate(-763.987 -775.013)" fill="#0b481e"/>
        <path id="Trazado_794240" data-name="Trazado 794240" d="M502.162,983.989c.243-.339.494-.562.89-.462.211.053.438.162.283.406-.119.187.1.689-.46.529-.44-.127-.58.193-.645.541a11.423,11.423,0,0,0-.114,2.01c0,.312-.074.448-.423.424-.314-.022-.474-.059-.449-.444.066-1.013.079-2.029.121-3.043.007-.18-.083-.442.269-.413.264.022.607-.078.528.453" transform="translate(-454.116 -891.034)" fill="#0b481e"/>
        <path id="Trazado_794241" data-name="Trazado 794241" d="M139.639,829.343c.228.044.444,0,.616.129.192.148.408.364.3.577-.124.24-.453.306-.714.4-.073.026-.077-.074-.1-.127-.2-.446-.516-.4-.843-.184a10.159,10.159,0,0,0-1.611,1.433c-.318.329-.4,0-.572-.132-.2-.16-.263-.283-.022-.5.756-.681,1.48-1.4,2.229-2.085.117-.107.218-.4.438-.218.2.165.542.322.283.705" transform="translate(-123.696 -750.678)" fill="#0b481e"/>
        <path id="Trazado_794242" data-name="Trazado 794242" d="M803.811,898.223c-.028-.587.125-.907.611-.978.4-.058.295.282.36.469.049.142.236.34-.11.424-.441.106-.44.423-.294.771a10.811,10.811,0,0,0,1.1,1.847c.213.313.029.393-.177.524s-.349.283-.547-.048c-.537-.9-1.12-1.764-1.67-2.653-.076-.123-.342-.285-.041-.447.223-.12.446-.482.771.09" transform="translate(-727.412 -812.881)" fill="#0b481e"/>
        <path id="Trazado_794243" data-name="Trazado 794243" d="M526.865,986.683c0-.546.015-1.092,0-1.637-.015-.421.264-.317.5-.33.274-.015.381.064.365.37q-.083,1.588-.107,3.18c-.005.313-.134.366-.4.324-.227-.037-.508.069-.469-.365.045-.51.011-1.027.011-1.542h.1" transform="translate(-477.224 -892.131)" fill="#0b481e"/>
        <path id="Trazado_794244" data-name="Trazado 794244" d="M563.532,984.216c-.045-.267-.077-.549.418-.557.338-.005.416.1.433.415.051.984.139,1.966.212,2.948.017.23.159.478-.281.522-.4.04-.554-.034-.574-.457-.044-.937-.133-1.872-.208-2.871" transform="translate(-510.528 -891.176)" fill="#0b481e"/>
        <path id="Trazado_794245" data-name="Trazado 794245" d="M387,966.513c-.144.508-.277.974-.408,1.44-.156.557-.31,1.114-.465,1.671-.138.493-.388.582-.821.309-.107-.067-.1-.123-.075-.226q.469-1.67.929-3.342c.069-.252.254-.148.374-.1.158.069.424,0,.466.244" transform="translate(-348.999 -875.362)" fill="#0b481e"/>
        <path id="Trazado_794246" data-name="Trazado 794246" d="M932.207,791.945l.2.158c.849.668,1.689,1.348,2.552,2,.274.206.172.345.006.511-.142.142-.2.447-.528.178-.845-.7-1.716-1.364-2.574-2.045-.091-.072-.246-.137-.118-.292a1.8,1.8,0,0,1,.457-.507" transform="translate(-844.103 -717.487)" fill="#0b481e"/>
        <path id="Trazado_794247" data-name="Trazado 794247" d="M1065.622,383.07c-.127-.15-.072-.331-.072-.5q0-10.122,0-20.243c0-.167-.055-.347.072-.5.008.156.023.312.023.468q0,10.15,0,20.3c0,.156-.016.312-.024.468" transform="translate(-965.358 -327.814)" fill="#0b481e"/>
        <path id="Trazado_794248" data-name="Trazado 794248" d="M399.013,951.78c-.169.25-.02.684-.383.729-.187.023-.619.039-.61-.31.006-.235-.028-.649.329-.7a.633.633,0,0,1,.663.282" transform="translate(-360.599 -862.031)" fill="#0b481e"/>
        <path id="Trazado_794249" data-name="Trazado 794249" d="M562.293,968.519c-.153-.489.252-.328.483-.387.385-.1.342.174.364.4.03.309.056.543-.4.579-.531.041-.431-.282-.445-.595" transform="translate(-509.396 -877.09)" fill="#0b481e"/>
        <path id="Trazado_794250" data-name="Trazado 794250" d="M528.388,969.583c.023-.3-.094-.618.366-.558.276.036.579-.026.493.43-.05.266.093.6-.418.561-.365-.027-.517-.123-.441-.434" transform="translate(-478.692 -877.912)" fill="#0b481e"/>
        <path id="Trazado_794251" data-name="Trazado 794251" d="M920.8,783.231c-.152.185-.24.454-.5.558-.1.038-.678-.473-.643-.555a1.121,1.121,0,0,1,.462-.56c.076-.042.673.441.683.556" transform="translate(-833.191 -709.086)" fill="#0b481e"/>
        <path id="Trazado_794252" data-name="Trazado 794252" d="M1064.6,590.341c.027-.177-.106-.393.128-.518-.032.175.006.368-.128.518" transform="translate(-964.495 -534.368)" fill="#0b481e"/>
        <path id="Trazado_794255" data-name="Trazado 794255" d="M134.295,335.724c-.579,0-1.159-.007-1.738-.007H41.787c.165-.188.383-.095.574-.095q24.251-.008,48.5,0,21.431,0,42.861,0c.19,0,.411-.093.571.1" transform="translate(-37.858 -304.045)" fill="#0b481e"/>
        <path id="Trazado_794256" data-name="Trazado 794256" d="M15.773,359.852c-.016.281-.046.562-.046.843q0,10.291,0,20.583c-.159-.137-.094-.322-.094-.486q0-10.221,0-20.442c0-.17-.095-.387.143-.5" transform="translate(-14.144 -326.019)" fill="#0b481e"/>
        <path id="Trazado_794257" data-name="Trazado 794257" d="M1027.359,336.989c-.111-.041-.248-.013-.332-.126.128,0,.271-.048.332.126" transform="translate(-930.467 -305.184)" fill="#0b481e"/>
        <path id="Trazado_794258" data-name="Trazado 794258" d="M70.324,382.587c0,3.18-.009,6.36.011,9.54,0,.426-.117.52-.523.51-1.221-.028-2.444-.024-3.666,0-.352.006-.446-.09-.443-.443.016-2.459,0-4.919.02-7.378,0-.428-.123-.514-.525-.509-1.723.023-3.447.01-5.17.01-.6,0-.6,0-.6.618,0,2.413-.008,4.825.008,7.238,0,.376-.106.473-.474.466-1.253-.023-2.507-.018-3.76,0-.309,0-.4-.09-.4-.4q.013-9.658,0-19.316c0-.337.106-.418.426-.414,1.253.017,2.507.02,3.76,0,.353-.006.446.093.444.444-.016,2.3,0,4.606-.017,6.909,0,.395.108.494.494.489q2.655-.031,5.311,0c.382,0,.5-.081.5-.482-.021-2.287,0-4.574-.019-6.862,0-.383.085-.507.484-.5q1.856.039,3.713,0c.365-.007.434.111.432.45-.013,3.211-.008,6.423-.008,9.634" transform="translate(-49.657 -337.479)" fill="#0b481e"/>
        <path id="Trazado_794259" data-name="Trazado 794259" d="M241.554,392.641c.33-1.04.642-2.035.96-3.027q2.668-8.326,5.327-16.654a.527.527,0,0,1,.617-.443c1.551.019,3.1.016,4.652,0a.428.428,0,0,1,.49.359q3,9.672,6.018,19.338c.116.37.04.439-.33.434-1.394-.02-2.789-.025-4.182,0-.364.007-.479-.141-.566-.446-.313-1.1-.656-2.185-.962-3.284a.524.524,0,0,0-.6-.469c-1.864.021-3.728.016-5.592,0a.478.478,0,0,0-.557.408c-.324,1.127-.691,2.24-1.015,3.367a.5.5,0,0,1-.583.424c-1.2-.023-2.408-.009-3.673-.009m8.714-14.769-.1,0-2.093,6.885c1.028,0,2,0,2.967,0,.405,0,1.037.127,1.164-.067.2-.3-.158-.773-.255-1.178-.015-.061-.03-.121-.048-.181l-1.638-5.461" transform="translate(-218.843 -337.493)" fill="#0b481e"/>
        <path id="Trazado_794260" data-name="Trazado 794260" d="M445.832,379.857a13.088,13.088,0,0,0,.286,3.545,3.438,3.438,0,0,0,4.32,2.773,3.19,3.19,0,0,0,2.231-2.038,5.415,5.415,0,0,0,.4-1.346c.036-.234.143-.311.377-.3,1.3.085,2.594.165,3.892.23.332.017.372.173.33.452a7.57,7.57,0,0,1-6.98,6.858,8.549,8.549,0,0,1-7.556-2.6,9.213,9.213,0,0,1-2.326-4.888,13.918,13.918,0,0,1,.592-7.579,8.238,8.238,0,0,1,8.2-5.572,10.221,10.221,0,0,1,2.514.278c2.974.749,4.548,2.808,5.273,5.651.123.484.189.982.289,1.472.06.294-.023.416-.349.433-1.407.073-2.813.167-4.219.265-.237.016-.326-.039-.341-.3a7.064,7.064,0,0,0-.335-1.888,2.827,2.827,0,0,0-2.616-2.083,3,3,0,0,0-3,1.445,7.661,7.661,0,0,0-.968,3.493c-.048.559-.008,1.126-.008,1.69" transform="translate(-399.123 -334.667)" fill="#0b481e"/>
        <path id="Trazado_794261" data-name="Trazado 794261" d="M646.857,379.62a11.965,11.965,0,0,0,.482,4.034,3.423,3.423,0,0,0,5.79,1.212,4.855,4.855,0,0,0,.952-2.169c.07-.353.171-.527.594-.49,1.185.1,2.373.172,3.562.214.472.017.538.179.467.618a7.562,7.562,0,0,1-6.592,6.67,8.571,8.571,0,0,1-10.126-6.849,13.494,13.494,0,0,1,.557-8.387,7.968,7.968,0,0,1,6.095-5.173,9,9,0,0,1,6.785,1.077A7.553,7.553,0,0,1,658.5,375.3c.1.41.129.835.228,1.244.074.305-.033.38-.318.4q-2.133.119-4.265.269c-.293.021-.338-.1-.34-.347a5.869,5.869,0,0,0-.294-1.752,2.853,2.853,0,0,0-2.648-2.171,3.006,3.006,0,0,0-3.07,1.568,8.655,8.655,0,0,0-.932,3.84c-.028.421,0,.845,0,1.268" transform="translate(-581.254 -334.383)" fill="#0b481e"/>
        <path id="Trazado_794262" data-name="Trazado 794262" d="M853.515,382.568c0-3.2.006-6.392-.008-9.588,0-.365.087-.473.462-.47,2.663.019,5.327.013,7.99.015a11.346,11.346,0,0,1,2.563.267,5.929,5.929,0,0,1,4.556,6.485,7.858,7.858,0,0,1-.609,2.4,5.53,5.53,0,0,1-4.769,3.375c-1.641.172-3.287.072-4.931.081-.366,0-.47.092-.467.464.018,2.193,0,4.387.018,6.58,0,.37-.095.477-.467.47-1.284-.022-2.569-.025-3.854,0-.389.008-.5-.1-.494-.489.016-3.2.009-6.392.009-9.588m4.63-3.755c0,.782.007,1.564,0,2.346,0,.237.064.335.316.331,1.141-.017,2.283-.012,3.425-.033a2.584,2.584,0,0,0,2.436-3.249,2.509,2.509,0,0,0-2.4-2c-1.14-.088-2.282-.048-3.423-.044-.266,0-.354.087-.349.353.014.766,0,1.533.005,2.3" transform="translate(-773.26 -337.487)" fill="#0b481e"/>
        <path id="Trazado_794263" data-name="Trazado 794263" d="M406.386,101.939a1.737,1.737,0,0,1-2.536-.386,6.64,6.64,0,0,0-1-.848,1.42,1.42,0,0,0-.619-.323,1.241,1.241,0,0,0-.863.144c-.345.206-.026.491.025.726.119.549.273,1.092.446,1.627.1.3.02.405-.278.491-.942.27-.932.282-1.195-.665-.468-1.687-.927-3.376-1.426-5.054-.128-.43-.023-.567.387-.662,1.05-.243,2.064-.626,3.129-.812a1.723,1.723,0,0,1,2.107,1.114,1.767,1.767,0,0,1-.811,2.295l-.25.155a9.887,9.887,0,0,1,2.885,2.2M402.46,97.33c-.207.051-.48.114-.75.186-1.36.366-1.36.367-.907,1.707.015.044.03.089.041.134a.15.15,0,0,0,.212.119,11.82,11.82,0,0,0,1.909-.62.735.735,0,0,0,.317-.938.768.768,0,0,0-.821-.588" transform="translate(-361.384 -87.098)" fill="#0b481e"/>
        <path id="Trazado_794264" data-name="Trazado 794264" d="M725.169,168.87a2.4,2.4,0,0,1-1.592-.532c-.743-.6-1.453-1.24-2.185-1.853-.175-.146-.169-.24-.021-.408q2.027-2.315,4.034-4.647c.142-.165.236-.19.41-.032.683.622,1.39,1.217,2.071,1.842a2.332,2.332,0,0,1,.633,2.779,4.614,4.614,0,0,1-2.595,2.7,1.919,1.919,0,0,1-.754.156m2.233-3.83a1.219,1.219,0,0,0-.171-.737,6.167,6.167,0,0,0-1.225-1.218c-.142-.129-.223,0-.3.095-.863.99-1.723,1.984-2.59,2.971-.12.136-.124.23.019.345.378.3.737.632,1.13.914a1.075,1.075,0,0,0,1.276.039,4.714,4.714,0,0,0,1.726-1.932,2.2,2.2,0,0,0,.137-.475" transform="translate(-653.448 -146.127)" fill="#0b481e"/>
        <path id="Trazado_794265" data-name="Trazado 794265" d="M327.893,126.951c.1-.054.208-.112.316-.175.839-.486,1.685-.96,2.51-1.469.277-.17.388-.113.534.147.368.653.38.648-.285,1.036-1.135.662-2.275,1.314-3.4,1.989-.265.159-.4.173-.569-.129q-1.466-2.568-2.976-5.109c-.175-.3-.154-.427.154-.6q1.8-1.01,3.569-2.077c.292-.176.464-.2.59.153a1.108,1.108,0,0,0,.188.323c.2.24.1.352-.139.488-.833.464-1.648.961-2.479,1.431-.239.135-.334.23-.162.521.576.975.561.983,1.551.4.54-.316,1.089-.617,1.619-.95.25-.157.365-.1.506.139.391.672.4.666-.253,1.046s-1.291.769-1.952,1.124c-.281.151-.294.287-.131.533.207.312.38.647.574.969.052.087.077.214.237.208" transform="translate(-293.457 -109.115)" fill="#0b481e"/>
        <path id="Trazado_794266" data-name="Trazado 794266" d="M666.181,120.623a.146.146,0,0,0-.154.094c-.176.349-.358.695-.528,1.046-.1.209.1.227.211.284.765.392,1.527.792,2.3,1.16.314.149.425.273.224.618-.423.725-.23.652-.94.305s-1.4-.7-2.09-1.064c-.239-.128-.348-.088-.454.156a9.418,9.418,0,0,1-.51,1c-.15.255-.08.375.171.5.885.432,1.753.9,2.642,1.32.31.147.407.286.191.579a1.7,1.7,0,0,0-.191.375c-.084.209-.2.232-.4.132q-2.026-1.033-4.062-2.047c-.219-.109-.2-.216-.11-.4q1.385-2.716,2.753-5.44c.122-.245.232-.269.465-.149q1.9.976,3.809,1.924c.245.122.313.226.176.494-.354.7-.34.706-1.046.349l-2.219-1.12c-.084-.042-.169-.081-.244-.117" transform="translate(-600.141 -107.831)" fill="#0b481e"/>
        <path id="Trazado_794267" data-name="Trazado 794267" d="M270.137,169.657a1.736,1.736,0,0,1,.3.02c.37.074.893.161.965.463.086.359-.385.66-.607.991-.1.145-.22.033-.331-.016a1.379,1.379,0,0,0-1.638.288,1.459,1.459,0,0,0-.385,1.673A3.978,3.978,0,0,0,270,174.959a1.48,1.48,0,0,0,1.829-.051,1.353,1.353,0,0,0,.419-1.723c-.148-.35-.062-.475.252-.557a.323.323,0,0,0,.042-.02c.933-.406.933-.406,1.133.6a3,3,0,0,1-3.022,3.294,4.008,4.008,0,0,1-3.524-4.431,3.226,3.226,0,0,1,3.009-2.415" transform="translate(-241.96 -153.706)" fill="#0b481e"/>
        <path id="Trazado_794268" data-name="Trazado 794268" d="M579.668,90.977c-.037.206.1.222.25.255.686.154,1.367.326,2.055.47.3.062.437.182.319.494a1.01,1.01,0,0,0-.073.271c-.027.353-.149.479-.537.362-.626-.19-1.276-.3-1.911-.464-.308-.079-.441-.011-.5.326-.121.66-.311,1.306-.445,1.964-.06.3-.14.41-.481.33-.951-.224-.959-.206-.738-1.162.4-1.749.818-3.5,1.218-5.247.062-.27.119-.388.457-.3,1.24.316,2.491.593,3.742.868.3.065.455.163.317.485a.246.246,0,0,0-.007.046c-.144.681-.144.679-.82.524-.746-.171-1.495-.33-2.237-.515-.215-.054-.3-.036-.346.2-.065.368-.171.729-.259,1.094" transform="translate(-523.191 -79.949)" fill="#0b481e"/>
        <path id="Trazado_794269" data-name="Trazado 794269" d="M477.343,83.865c-.123-.4.11-.475.518-.5q2.156-.13,4.308-.338c.378-.036.521.079.5.429-.013.292.243.717-.362.731-.406.01-.812.068-1.218.083-.281.01-.361.107-.336.4.139,1.622.246,3.247.38,4.87.02.237-.014.318-.269.353-1.055.145-1.062.157-1.145-.887-.112-1.4-.218-2.81-.3-4.216-.019-.312-.115-.413-.419-.372-.341.046-.686.07-1.029.087-.6.031-.6.026-.63-.642" transform="translate(-432.434 -75.216)" fill="#0b481e"/>
        <path id="Trazado_794270" data-name="Trazado 794270" d="M550.361,85.686c-.135,1.822-.28,3.644-.4,5.467-.029.45-.158.6-.637.536-.863-.109-.8.124-.732-.853.129-1.854.3-3.7.428-5.558.022-.318.121-.417.417-.351a2.576,2.576,0,0,0,.279.036c.67.072.67.072.642.724" transform="translate(-496.984 -76.923)" fill="#0b481e"/>
        <path id="Trazado_794271" data-name="Trazado 794271" d="M639.324,106.156c-.034.108-.079.257-.128.405-.595,1.777-1.2,3.551-1.777,5.334-.122.375-.266.438-.633.3-.815-.306-.824-.285-.555-1.089q.832-2.488,1.666-4.976c.236-.706.115-.612.824-.4.149.045.295.1.444.149.12.036.2.093.158.275" transform="translate(-576.271 -95.651)" fill="#0b481e"/>
        <path id="Trazado_794272" data-name="Trazado 794272" d="M723.2,661.955c.38,1.263.763,2.432,1.074,3.62a2.415,2.415,0,0,0,.894,1.371c.42.325.8.706,1.214,1.036.235.186.208.314.032.526-.644.776-.687.83-1.363.109a4.7,4.7,0,0,0-3.378-1.531,16.655,16.655,0,0,1-1.732-.262c.182.238.136.381-.081.527-.336.226-.625.525-.965.744-.315.2-.266.352-.06.607.982,1.218,1.937,2.457,2.921,3.673.221.273.261.423-.058.655-.749.546-.734.561-1.294-.152-.88-1.119-1.771-2.23-2.641-3.356-.2-.254-.335-.295-.584-.067-.311.284-.666.519-.989.791-.18.152-.284.161-.448-.04-.523-.643-.536-.638.1-1.146q1.692-1.341,3.388-2.676a1.082,1.082,0,0,0,.285-.239,1.166,1.166,0,0,1,1.548-.491,16.643,16.643,0,0,0,1.656.314c.305.058.441.028.3-.343-.266-.7-.471-1.423-.736-2.124a.562.562,0,0,1,.154-.7c.254-.242.471-.521.759-.845" transform="translate(-648.098 -599.718)" fill="#0b481e"/>
        <path id="Trazado_794273" data-name="Trazado 794273" d="M344.206,765.812a3.442,3.442,0,0,1-3.372-2.766,4.1,4.1,0,0,1,2.834-4.229,3.315,3.315,0,0,1,3.858,3.886,4.646,4.646,0,0,1-1.251,2.269,2.819,2.819,0,0,1-2.069.84m2.058-3.909a1.707,1.707,0,0,0-1.059-1.7,1.658,1.658,0,0,0-1.924.255,3.385,3.385,0,0,0-1.066,2.04,1.7,1.7,0,0,0,.878,1.821,1.678,1.678,0,0,0,1.937-.094,3.516,3.516,0,0,0,1.233-2.319" transform="translate(-308.758 -687.408)" fill="#0b481e"/>
        <path id="Trazado_794274" data-name="Trazado 794274" d="M286.622,725.245a3.982,3.982,0,0,1-3.652,3.764,3.28,3.28,0,0,1-2.827-4.827,3.936,3.936,0,0,1,2.446-2.117,3.389,3.389,0,0,1,4.033,3.179m-3.756,2.464a1.422,1.422,0,0,0,.64-.118,3.271,3.271,0,0,0,1.761-2.2,1.614,1.614,0,0,0-.791-1.811,1.635,1.635,0,0,0-1.936-.029,3.359,3.359,0,0,0-1.4,1.878,1.77,1.77,0,0,0,1.727,2.278" transform="translate(-253.442 -654.099)" fill="#0b481e"/>
        <path id="Trazado_794275" data-name="Trazado 794275" d="M410.1,782.136a5.615,5.615,0,0,1-.7,2.447,2.519,2.519,0,0,1-2.938,1.305c-.867-.2-1.716-.47-2.579-.687-.248-.063-.293-.176-.232-.4q.809-2.935,1.608-5.872c.072-.267.211-.294.445-.225.839.246,1.687.461,2.52.724a2.548,2.548,0,0,1,1.876,2.7m-1.383-.031c.014-.952-.269-1.373-1.024-1.637-.339-.118-.694-.187-1.032-.307-.21-.075-.31-.042-.369.178q-.507,1.876-1.028,3.748c-.046.166-.066.3.162.349.471.106.934.26,1.409.34a1.107,1.107,0,0,0,1.195-.56,5.215,5.215,0,0,0,.687-2.112" transform="translate(-365.674 -705.465)" fill="#0b481e"/>
        <path id="Trazado_794276" data-name="Trazado 794276" d="M669.469,746.948c.177.015.172.19.229.3.341.671.34.675-.313.994-.772.377-1.543.756-2.322,1.12-.21.1-.267.182-.164.415.486,1.1.478,1.1,1.568.57.534-.26,1.08-.5,1.6-.784.321-.176.486-.11.584.222a.707.707,0,0,0,.043.083c.292.652.341.494-.268.8q-1.09.546-2.2,1.056c-.24.111-.289.227-.159.464a10.878,10.878,0,0,1,.506,1.057c.1.232.2.253.42.146.923-.46,1.86-.895,2.781-1.36.26-.131.359-.085.479.175.327.707.341.7-.364,1.04-1.2.579-2.4,1.151-3.584,1.744-.263.131-.369.081-.49-.173q-1.3-2.73-2.63-5.447c-.1-.206-.112-.319.127-.432,1.328-.629,2.648-1.273,3.971-1.911.056-.027.115-.05.184-.079" transform="translate(-602.585 -676.72)" fill="#0b481e"/>
        <path id="Trazado_794277" data-name="Trazado 794277" d="M501.588,802.513a3.36,3.36,0,0,1-1.846-.422,2.3,2.3,0,0,1-1.033-1.709c-.012-.073-.012-.2.025-.221a3.092,3.092,0,0,1,1.1-.112c.214-.024.193.166.236.285a1.521,1.521,0,0,0,2.073.94.838.838,0,0,0,.615-.8c0-.406-.274-.576-.6-.69-.617-.22-1.249-.4-1.859-.642a1.762,1.762,0,0,1-1.24-1.562,1.831,1.831,0,0,1,1.787-2.007,3.963,3.963,0,0,1,1.854.173,1.951,1.951,0,0,1,1.334,1.613c.047.261-.022.384-.308.354a3.079,3.079,0,0,0-.563,0,.484.484,0,0,1-.6-.4,1.432,1.432,0,0,0-2.094-.338.543.543,0,0,0,.2.832,5.587,5.587,0,0,0,1.275.462,6.169,6.169,0,0,1,1.139.428,1.832,1.832,0,0,1,1.044,1.891,1.924,1.924,0,0,1-1.3,1.741,3.013,3.013,0,0,1-1.248.188" transform="translate(-451.814 -720.736)" fill="#0b481e"/>
        <path id="Trazado_794278" data-name="Trazado 794278" d="M567.7,797.945a.767.767,0,0,1-.089.048c-1.273.355-1.28.359-1.956-.758-.157-.26-.3-.373-.626-.29-.635.161-1.282.278-1.93.376a.381.381,0,0,0-.383.377c-.014.124-.025.249-.047.372-.175,1-.257,1.072-1.29,1.152-.205.016-.271-.013-.228-.248q.6-3.272,1.173-6.549a.335.335,0,0,1,.29-.314c.337-.065.676-.123,1.012-.2.158-.034.225.055.3.166,1.251,1.944,2.5,3.888,3.778,5.864m-4.315-4.361c-.14.844-.263,1.592-.39,2.339-.031.182.005.259.214.215.5-.106,1.007-.195,1.561-.3l-1.385-2.254" transform="translate(-508.385 -717.453)" fill="#0b481e"/>
        <path id="Trazado_794279" data-name="Trazado 794279" d="M230,681.4c-.168-.043-.236-.175-.33-.272-.648-.667-.648-.67,0-1.3,1.294-1.252,2.6-2.5,3.878-3.759.252-.248.39-.234.626.018q1.3,1.389,2.643,2.736c.222.223.208.342-.011.549-.554.524-.542.534-1.075-.021-.5-.519-1.017-1.021-1.5-1.556-.206-.228-.339-.21-.5.01a1.278,1.278,0,0,1-.133.132c-.755.737-.754.736,0,1.506.318.324.619.666.954.971.239.217.192.347-.021.548-.549.518-.538.527-1.076-.03-.413-.428-.835-.847-1.24-1.283-.152-.163-.243-.165-.4,0-.516.524-1.05,1.03-1.579,1.542-.077.075-.161.144-.237.212" transform="translate(-207.635 -612.341)" fill="#0b481e"/>
        <path id="Trazado_794280" data-name="Trazado 794280" d="M618.259,779.4c.017.174-.1.2-.2.242-.979.479-.983.481-1.362-.538-.62-1.669-1.225-3.343-1.858-5.007-.117-.309-.073-.433.24-.544q1.81-.642,3.6-1.333c.3-.115.4-.047.5.236.251.714.264.708-.466.979-.658.244-1.311.508-1.977.727-.288.094-.385.2-.239.483a4.794,4.794,0,0,1,.2.525c.234.63.234.628.887.384.555-.208,1.116-.4,1.667-.622.241-.1.345-.064.444.2.287.759.3.753-.477,1.037-.528.193-1.053.4-1.585.576-.244.083-.3.195-.2.441.264.668.5,1.345.751,2.019.027.073.054.146.073.2" transform="translate(-556.98 -699.574)" fill="#0b481e"/>
      </g>
    </g>
  </g>
</svg>
