<svg id="Grupo_1084267" data-name="Grupo 1084267" xmlns="http://www.w3.org/2000/svg" xmlns:xlink="http://www.w3.org/1999/xlink" width="88.787" height="97.666" viewBox="0 0 88.787 97.666">
  <defs>
    <clipPath id="clip-path">
      <rect id="Rectángulo_361763" data-name="Rectángulo 361763" width="88.787" height="97.666" fill="none"/>
    </clipPath>
  </defs>
  <g id="Grupo_1084184" data-name="Grupo 1084184" clip-path="url(#clip-path)">
    <path id="Trazado_717048" data-name="Trazado 717048" d="M77.2,146.019c2.791,7.351,3.182,14.214-2.6,20.7,1.651,0,3.079-.012,4.508,0A10.979,10.979,0,0,1,80,188.645c-.471.036-.945.041-1.418.041q-32.563,0-65.125,0c-5.656,0-10.135-3.43-11.223-8.512a10.94,10.94,0,0,1,10.813-13.445c12.457-.034,24.915-.009,37.372-.009h2.6c-4.491-3.5-5.6-7.974-5.317-12.965.39-6.765,5.042-12.489,11.075-13.683.206-.041.433-.16.615-.11,2.385.646,3.369-.9,4.593-2.559,2.94-3.987,7.311-4.789,11.864-4.325a63.407,63.407,0,0,1,9.374,1.954c2.015.522,2.251,1.5,1.041,3.251a22.838,22.838,0,0,1-7.9,7.1l-1.16.636M45.977,185.636h4.255q14.262,0,28.524,0a7.938,7.938,0,1,0,.219-15.863q-32.935-.029-65.871-.007c-.263,0-.526,0-.788.018A7.979,7.979,0,0,0,5,177.511a7.89,7.89,0,0,0,8.194,8.111c10.926.039,21.852.012,32.779.014m10.892-20.723c1.462-1.766,1.821-1.678,3.547-.218a8.489,8.489,0,0,0,3.536,1.887c5.184,1.078,10.741-2.425,11.648-7.655a28.011,28.011,0,0,0-.157-8.712c-.414-2.811-3.218-4.708-6.086-4.765a9.147,9.147,0,0,0-9.173,7.093c-.243.96-.762,1.554-1.753,1.385a1.435,1.435,0,0,1-1.207-2.005,24.279,24.279,0,0,1,2.169-4.645,31.965,31.965,0,0,1,3.173-3.655,10.187,10.187,0,0,0-2.933-.568,7.84,7.84,0,0,0-3.069,1.114c-5.629,3.247-7.733,11.769-4.323,17.316a7.229,7.229,0,0,0,4.629,3.429m8.207-22.6a16.592,16.592,0,0,1,1.521-.86c2.4-1.028,4.786-2.078,7.219-3.014a1.443,1.443,0,0,1,2.061,1.111c.23.995-.357,1.555-1.293,1.822-1.041.3-2.071.632-3.106.95,1.077.677,2.3,1.54,3.191,1.273a16.965,16.965,0,0,0,8.378-6.171c-1.6-.377-2.9-.745-4.23-.982a18,18,0,0,0-8.72.165c-2.522.8-4.93,3.408-5.021,5.707" transform="translate(-1.346 -91.023)"/>
    <path id="Trazado_717049" data-name="Trazado 717049" d="M19.34,15.737c-2.789-.167-2.965-.353-2.967-2.908,0-1.091,0-2.181,0-3.473-2.042,0-3.918-.033-5.792.011-1.471.035-2.12-.63-2.094-2.085.032-1.787.021-3.574.005-5.361C8.48.6,9.138,0,10.428,0q10.644,0,21.289,0a1.676,1.676,0,0,1,1.9,1.95c-.022,1.84-.013,3.68,0,5.519.007,1.325-.671,1.9-1.959,1.892-1.886-.015-3.771,0-5.918,0,0,1.085,0,2.059,0,3.032,0,3.039,0,3.039-3.032,3.407a11.543,11.543,0,0,0-.118,1.187c-.008,5.519.01,11.038-.022,16.557a1.6,1.6,0,0,0,1.11,1.773A5.515,5.515,0,0,1,27.131,39.7a2.674,2.674,0,0,0,1.584,2.1c3.93,2.226,7.838,4.492,11.751,6.751,1.929,1.113,2.059,1.579.96,3.486q-3.5,6.076-7.019,12.143c-.907,1.562-1.5,1.72-3.057.85-1.009-.563-1.987-1.184-3.01-1.719a1.891,1.891,0,0,1-.95-2.745c.8-2,1.474-4.048,2.282-6.043.329-.812.312-1.318-.5-1.821-2.454-1.524-4.844-3.153-7.315-4.649a1.889,1.889,0,0,0-1.632.016c-2.471,1.5-4.866,3.117-7.316,4.649A1.153,1.153,0,0,0,12.37,54.4c.838,2.1,1.561,4.237,2.379,6.342a1.765,1.765,0,0,1-.883,2.5c-1.152.629-2.28,1.3-3.416,1.961a1.646,1.646,0,0,1-2.541-.624Q4.114,58.03.343,51.473c-.716-1.24-.259-2.034.9-2.694,4.109-2.337,8.213-4.684,12.265-7.118A3.338,3.338,0,0,0,14.859,39.8a6.8,6.8,0,0,1,3.705-4.632,1.891,1.891,0,0,0,.921-1.347c.062-5.729.042-11.458.031-17.188a4.756,4.756,0,0,0-.177-.9M17.4,46.206,15.49,44.093,3.581,50.977,9.971,62l1.589-1.059c-.866-2.346-1.605-4.587-2.523-6.752-.667-1.573-.264-2.515,1.162-3.366,2.421-1.446,4.756-3.037,7.2-4.614m21.114,4.755L26.6,44.092,24.719,46.21c2.511,1.626,4.9,3.25,7.363,4.739a2.179,2.179,0,0,1,1,3.149c-.926,2.262-1.705,4.585-2.564,6.93l1.658.9,6.333-10.965M30.5,3.17H11.67V6.193H30.5ZM21.017,37.747a3.193,3.193,0,0,0,.062,6.385,3.193,3.193,0,0,0-.062-6.385M22.562,9.484H19.545v3.068h3.017Z" transform="translate(0 0)"/>
    <path id="Trazado_717050" data-name="Trazado 717050" d="M52.57,265.52c-10.926,0-21.853.026-32.779-.013A7.89,7.89,0,0,1,11.6,257.4a7.979,7.979,0,0,1,7.311-7.73c.262-.02.525-.018.788-.018q32.936,0,65.871.007a7.938,7.938,0,1,1-.22,15.862q-14.262.021-28.524,0H52.57m-17.346-12.6a4.668,4.668,0,1,0,4.737,4.633,4.652,4.652,0,0,0-4.737-4.633M24.2,257.529a4.675,4.675,0,1,0-4.657,4.734,4.674,4.674,0,0,0,4.657-4.734m31.535.11a4.67,4.67,0,1,0-4.764,4.619,4.663,4.663,0,0,0,4.764-4.619m11.056,4.622a4.672,4.672,0,1,0-4.626-4.759,4.674,4.674,0,0,0,4.626,4.759m15.842,0a4.668,4.668,0,1,0-4.7-4.683,4.662,4.662,0,0,0,4.7,4.683" transform="translate(-7.939 -170.909)" fill="#727997"/>
    <path id="Trazado_717051" data-name="Trazado 717051" d="M162.424,186.807a7.228,7.228,0,0,1-4.629-3.429c-3.41-5.547-1.305-14.069,4.324-17.316a7.838,7.838,0,0,1,3.069-1.114,10.185,10.185,0,0,1,2.932.568,31.962,31.962,0,0,0-3.173,3.655,24.263,24.263,0,0,0-2.169,4.645,1.435,1.435,0,0,0,1.207,2.005c.991.169,1.51-.425,1.753-1.385a9.147,9.147,0,0,1,9.173-7.093c2.868.057,5.672,1.953,6.086,4.765a27.992,27.992,0,0,1,.157,8.712c-.907,5.23-6.464,8.733-11.648,7.655a8.49,8.49,0,0,1-3.536-1.887c-1.725-1.459-2.085-1.548-3.546.218" transform="translate(-106.901 -112.918)" fill="#ffa686"/>
    <path id="Trazado_717052" data-name="Trazado 717052" d="M202.066,148.9c.091-2.3,2.5-4.912,5.021-5.707a18,18,0,0,1,8.72-.165c1.325.237,2.627.6,4.23.982a16.965,16.965,0,0,1-8.378,6.171c-.886.267-2.113-.6-3.191-1.273,1.035-.318,2.065-.653,3.106-.95.936-.267,1.523-.827,1.293-1.822a1.443,1.443,0,0,0-2.061-1.111c-2.433.936-4.822,1.986-7.219,3.014a16.6,16.6,0,0,0-1.521.86" transform="translate(-138.336 -97.609)" fill="#adce32"/>
    <path id="Trazado_717053" data-name="Trazado 717053" d="M25.171,141.918c-2.443,1.577-4.778,3.167-7.2,4.614-1.425.852-1.828,1.793-1.161,3.366.917,2.165,1.656,4.406,2.522,6.752l-1.588,1.059-6.39-11.02L23.263,139.8l1.907,2.113" transform="translate(-7.773 -95.712)" fill="#ffd947"/>
    <path id="Trazado_717054" data-name="Trazado 717054" d="M92.169,146.671l-6.333,10.965-1.658-.9c.859-2.345,1.638-4.668,2.564-6.93a2.178,2.178,0,0,0-1-3.149c-2.467-1.489-4.853-3.113-7.363-4.739l1.879-2.118,11.912,6.869" transform="translate(-53.658 -95.71)" fill="#ffd947"/>
    <rect id="Rectángulo_361761" data-name="Rectángulo 361761" width="18.833" height="3.023" transform="translate(11.67 3.17)" fill="#b0c0d2"/>
    <path id="Trazado_717055" data-name="Trazado 717055" d="M59.78,119.683a3.193,3.193,0,1,1-3.159,3.23,3.2,3.2,0,0,1,3.159-3.23" transform="translate(-38.763 -81.936)" fill="#fff"/>
    <rect id="Rectángulo_361762" data-name="Rectángulo 361762" width="3.017" height="3.068" transform="translate(19.544 9.484)" fill="#b0c0d2"/>
    <path id="Trazado_717056" data-name="Trazado 717056" d="M76.538,260.025a4.668,4.668,0,1,1-4.594,4.777,4.65,4.65,0,0,1,4.594-4.777m.477,2.825-.712-.023c-.434.605-1.249,1.246-1.2,1.806a2.155,2.155,0,0,0,1.462,1.54,2.138,2.138,0,0,0,1.539-1.448c.081-.561-.694-1.246-1.093-1.876" transform="translate(-49.253 -178.015)"/>
    <path id="Trazado_717057" data-name="Trazado 717057" d="M31.26,264.639a4.675,4.675,0,1,1-4.772-4.607,4.689,4.689,0,0,1,4.772,4.607m-5.1,1.891.733.021c.43-.6,1.241-1.24,1.187-1.794-.059-.6-.927-1.117-1.442-1.67-.551.52-1.452.982-1.552,1.579-.092.546.682,1.237,1.074,1.864" transform="translate(-15 -178.019)"/>
    <path id="Trazado_717058" data-name="Trazado 717058" d="M131.272,264.745a4.67,4.67,0,1,1-4.654-4.72,4.681,4.681,0,0,1,4.654,4.72m-2.843.385q.015-.36.03-.72c-.6-.443-1.228-1.272-1.784-1.225-.6.051-1.123.925-1.68,1.44.512.554.965,1.461,1.554,1.56.552.093,1.248-.67,1.88-1.055" transform="translate(-83.476 -178.015)"/>
    <path id="Trazado_717059" data-name="Trazado 717059" d="M176.557,269.365a4.672,4.672,0,1,1,4.711-4.67,4.683,4.683,0,0,1-4.711,4.67m.4-6.529-.716,0c-.419.618-1.217,1.28-1.152,1.841a1.5,1.5,0,0,0,3.008.006c.069-.559-.725-1.225-1.14-1.843" transform="translate(-117.705 -178.013)"/>
    <path id="Trazado_717060" data-name="Trazado 717060" d="M226.636,269.374a4.668,4.668,0,1,1,4.636-4.741,4.668,4.668,0,0,1-4.636,4.741m.265-6.535-.713.023c-.395.63-1.168,1.32-1.081,1.875a2.154,2.154,0,0,0,1.554,1.445c.518-.005,1.387-.953,1.435-1.54.046-.565-.762-1.2-1.195-1.8" transform="translate(-151.941 -178.024)"/>
    <path id="Trazado_717061" data-name="Trazado 717061" d="M83.875,268.935c.4.63,1.173,1.315,1.093,1.876a2.138,2.138,0,0,1-1.539,1.448,2.155,2.155,0,0,1-1.462-1.54c-.052-.56.763-1.2,1.2-1.806l.712.023" transform="translate(-56.113 -184.099)" fill="#fff"/>
    <path id="Trazado_717062" data-name="Trazado 717062" d="M33.029,273.164c-.392-.627-1.165-1.318-1.074-1.864.1-.6,1-1.059,1.552-1.579.515.553,1.383,1.072,1.442,1.67.054.554-.758,1.193-1.187,1.794l-.733-.021" transform="translate(-21.872 -184.653)" fill="#fff"/>
    <path id="Trazado_717063" data-name="Trazado 717063" d="M135.075,271.988c-.632.386-1.328,1.148-1.88,1.055-.589-.1-1.042-1.006-1.554-1.56.557-.515,1.084-1.389,1.68-1.44.556-.047,1.187.781,1.784,1.225q-.015.36-.03.72" transform="translate(-90.123 -184.872)" fill="#fff"/>
    <path id="Trazado_717064" data-name="Trazado 717064" d="M183.817,268.941c.415.619,1.21,1.285,1.14,1.843a1.5,1.5,0,0,1-3.008-.006c-.065-.561.733-1.223,1.152-1.841l.716,0" transform="translate(-124.561 -184.117)" fill="#fff"/>
    <path id="Trazado_717065" data-name="Trazado 717065" d="M233.761,268.918c.433.6,1.241,1.239,1.2,1.8-.048.587-.917,1.534-1.435,1.54a2.155,2.155,0,0,1-1.554-1.445c-.087-.555.686-1.245,1.081-1.875l.713-.023" transform="translate(-158.801 -184.104)" fill="#fff"/>
  </g>
</svg>
