<svg id="Grupo_1084490" data-name="Grupo 1084490" xmlns="http://www.w3.org/2000/svg" xmlns:xlink="http://www.w3.org/1999/xlink" width="610" height="90.124" viewBox="0 0 610 90.124">
  <defs>
    <clipPath id="clip-path">
      <rect id="Rectángulo_347777" data-name="Rectángulo 347777" width="610" height="90.124" fill="none"/>
    </clipPath>
  </defs>
  <g id="Grupo_1005196" data-name="Grupo 1005196" transform="translate(0 0)" clip-path="url(#clip-path)">
    <path id="Trazado_643581" data-name="Trazado 643581" d="M155.584,26.262h-7.021s-10.755,15.6-10.97,30.619c-.165,11.629,3.731,15.8,6.144,17.114,1.833,1,8.354.987,11.379.923,3.025.064,9.545.077,11.379-.923,2.413-1.316,6.309-5.485,6.144-17.114-.216-15.02-10.97-30.619-10.97-30.619Z" transform="translate(71.237 13.597)" fill="#fbcb43"/>
    <rect id="Rectángulo_347756" data-name="Rectángulo 347756" width="13.129" height="3.981" transform="translate(219.802 35.878)" fill="#f5b400"/>
    <path id="Trazado_643582" data-name="Trazado 643582" d="M157.615,20.013H145.872a1.867,1.867,0,0,0-1.862,1.862v2.818a1.867,1.867,0,0,0,1.862,1.862h11.743a1.867,1.867,0,0,0,1.862-1.862V21.875a1.867,1.867,0,0,0-1.862-1.862" transform="translate(74.562 10.362)" fill="#fbcb43"/>
    <path id="Trazado_643583" data-name="Trazado 643583" d="M140.343,49.769a44.673,44.673,0,0,0-.1,12.643c.329,2.8,2.468,2.386,2.468.082A106.933,106.933,0,0,1,143.745,44.8c.821-4.858,4-14.083,4.394-15.222h-1.454c-.56,1.169-5.2,11.042-6.343,20.186" transform="translate(72.407 15.317)" fill="#f5b400"/>
    <path id="Trazado_643584" data-name="Trazado 643584" d="M145.38,48.883c-.285,5.465-.065,11.8.455,14.023.413,1.762,1.976,2.4,2.55.165.715-2.779,1.2-31.465,1.232-33.488h-1.744c-.206,1.307-2.223,14.115-2.494,19.3" transform="translate(75.206 15.317)" fill="#f5b400"/>
    <path id="Trazado_643585" data-name="Trazado 643585" d="M154.758,29.583h-1.452c.395,1.138,3.571,10.363,4.392,15.222a106.935,106.935,0,0,1,1.035,17.689c0,2.3,2.14,2.715,2.468-.082a44.675,44.675,0,0,0-.1-12.643c-1.141-9.144-5.783-19.017-6.343-20.186" transform="translate(79.375 15.317)" fill="#f5b400"/>
    <path id="Trazado_643586" data-name="Trazado 643586" d="M152.23,29.583h-1.744c.033,2.023.518,30.709,1.232,33.486.574,2.231,2.137,1.6,2.55-.164.521-2.222.741-8.557.455-14.023-.27-5.186-2.287-17.995-2.494-19.3" transform="translate(77.915 15.317)" fill="#f5b400"/>
    <rect id="Rectángulo_347757" data-name="Rectángulo 347757" width="13.059" height="2.067" transform="translate(219.87 28.308)" fill="#b2b2b2"/>
    <path id="Trazado_643587" data-name="Trazado 643587" d="M146.231,22.393h8.639V11.423h-8.639Z" transform="translate(75.712 5.914)" fill="#999"/>
    <path id="Trazado_643588" data-name="Trazado 643588" d="M134.934,8.834l6.563,4.031,2.248-5.909-7.426-1.815Z" transform="translate(69.863 2.662)" fill="#fbcb43"/>
    <path id="Trazado_643589" data-name="Trazado 643589" d="M142.2,8.114l.495-1.043L136.962,6Z" transform="translate(70.913 3.108)" fill="#f5b400"/>
    <path id="Trazado_643590" data-name="Trazado 643590" d="M141.029,10.835l.423-1.009-5.2-2.14Z" transform="translate(70.548 3.979)" fill="#f5b400"/>
    <path id="Trazado_643591" data-name="Trazado 643591" d="M141.563,9.494l.387-1.078-5.241-1.583Z" transform="translate(70.782 3.538)" fill="#f5b400"/>
    <rect id="Rectángulo_347758" data-name="Rectángulo 347758" width="9.031" height="3.401" transform="matrix(0.84, -0.543, 0.543, 0.84, 211.685, 23.847)" fill="#999"/>
    <path id="Trazado_643592" data-name="Trazado 643592" d="M140.876,12.853a2.181,2.181,0,0,0,1.469,2.263s-1.626,6.129-9.956,13.452c-1.158,1.018.165,1.07,2.881.247s6.777-3.542,7.909-5.682c.65-1.228,1.612-1.322,2.1-1.73s.762-.739.762-2.3V16.967c0-1.064,0-2.019,1.317-2.019.539,0,3.377.044,3.377.044l-7.322-4.423s-2.345.472-2.539,2.283" transform="translate(68.327 5.473)" fill="#fbcb43"/>
    <path id="Trazado_643593" data-name="Trazado 643593" d="M157.94,12.769c-3.4-2.963-16.345-6.912-16.345-6.912s-1.354,3.758-2.031,5.4c-.879,2.137-.49,3.121.678,3.785,2.459,1.4,5.918,3.36,9.689,5.116,0-1.578,1.334-5.361,4.456-5.361,3.524,0,4.183,3.825,4.183,5.361.593-.3,1.891-1.826,3.62-1.826h8.351V16.691h-7.98s-3.453-2.9-4.622-3.922" transform="translate(72.012 3.032)" fill="#b2b2b2"/>
    <path id="Trazado_643594" data-name="Trazado 643594" d="M141.237,10.231a.933.933,0,1,0,.932.932.932.932,0,0,0-.932-.932" transform="translate(72.644 5.297)" fill="#d8d8d8"/>
    <path id="Trazado_643595" data-name="Trazado 643595" d="M151.339,10.556c-1.956-.917-8.779-3.392-8.779-3.392l-1.319,3.722s1.412.379,1.541,1.446a2.278,2.278,0,0,1-.77,2.054s3.316,1.245,4.731,1.779,3.116-2.207,4.952-2.482,2.234-.281,2.387-.932c.22-.933-1.679-1.7-2.744-2.195" transform="translate(73.128 3.709)" fill="#d8d8d8"/>
    <path id="Trazado_643596" data-name="Trazado 643596" d="M107.444,3.9C106.47-.069,102.99-.862,101.285.859S95.308,3.375,93.615,2.58s-4.532-.4-5.657,1.589c-1.581,2.79-.994,4.239,1.654,6.757a21.2,21.2,0,0,1,4.473,6.355c.513,1.058.3,2.782.012,5.689s4.124,7.423,4.55,10.143.7,13.57.7,13.57.729-2.914,1.12-4.887-.832-7.827-.193-10.964c.477-2.343,3.245-4.28,4.79-5.025s2.427-3.492,2.38-6.438,2.961-3.544,5.458-4.6,2.139-4.37,0-6.746-4.483-.14-5.458-4.113" transform="translate(45.09 0)" fill="#87c133"/>
    <path id="Trazado_643597" data-name="Trazado 643597" d="M102.936,13.206c-.75.8-3.046,3.808-3.046,3.808a32.548,32.548,0,0,0,.132-4.537,14.44,14.44,0,0,1,.917-6.531c.736-1.812,1.733-4.726,1.733-4.726A12.147,12.147,0,0,0,99.89,5.26c-.53,1.853-1.258,5.893-1.258,5.893a20.7,20.7,0,0,0-2.979-4.371A11.583,11.583,0,0,0,89.621,3.67s2.058,1.788,4.707,3.717a12.292,12.292,0,0,1,4,5.289,13.334,13.334,0,0,1,.308,6.888c-.331,1.456-.753,3.641-.753,3.641s-.864-5.563-2.691-8.343A42.683,42.683,0,0,1,92.3,8.57a10.952,10.952,0,0,0,2.29,6.356c1.364,1.92,2.4,6.573,2.979,9.205.307,1.39-.132,3.444-.067,4.635s.373,4.039.373,4.039a71.5,71.5,0,0,1,.445-7.851,27.094,27.094,0,0,1,2.56-7.941c1.776-3.178,6.687-7.645,6.687-7.645a27.913,27.913,0,0,0-4.635,3.837" transform="translate(46.402 0.632)" fill="#6fa511"/>
    <path id="Trazado_643598" data-name="Trazado 643598" d="M103.218,38.4c-.29-3.624-1.214-7.557-.624-10.571.754-3.851,1.367-8.307,0-11.4-1.163-2.633-4.058-2.04-5.713-3.514S96.723,7.6,93.743,5.783a7.984,7.984,0,0,0-8.8.376c-1.809,1.531-1.843,3.5-4.077,5.455-2.738,2.4-4.228,4.21-3.1,8.213,1.146,4.048,5.361,4.3,6.721,6.117s.678,5.21,3.21,7.414,10.381.062,12.54,3.231a19.912,19.912,0,0,1,3.107,6.5,29.852,29.852,0,0,1,.613,7.135l.691,1.472a64.256,64.256,0,0,0-.584-9.709c-.349-1.943-.751-2.348-.85-3.58" transform="translate(40.069 2.406)" fill="#608e07"/>
    <path id="Trazado_643599" data-name="Trazado 643599" d="M98.793,28.772c-.511-3.283-.247-11.06-.247-11.06a13.4,13.4,0,0,0-.792,4c-.046,1.3,0,5.362,0,5.362s-3.888-6.645-6.872-9.665C87.865,14.355,87.25,7.2,87.25,7.2a17.167,17.167,0,0,0,.272,5.491,12.179,12.179,0,0,0,1.736,4.3A30.147,30.147,0,0,0,83.8,14.9a41.822,41.822,0,0,0-5.223-.739s5.663,1.738,6.494,2.114S88.578,17.3,90.654,19a29.793,29.793,0,0,1,2.04,2.228s-4.567-.688-8.56-.943a23.241,23.241,0,0,1-5.182-.651,11.249,11.249,0,0,0,4.87,1.416c.98.094,7.171.555,8.077.858s2.286,1.755,3.474,3.246a49.392,49.392,0,0,1,2.794,5.135c.326.637,1.207,2,2.248,4.071.519,1.029,2.319,5.015,2.319,5.015s-.806-2.737-1.865-5.411c-.788-1.984-1.861-3.788-2.078-5.186" transform="translate(40.682 3.727)" fill="#6fa511"/>
    <path id="Trazado_643600" data-name="Trazado 643600" d="M121.465,12.25c-2.406-1.741-2.269-3.923-4.078-5.453a7.981,7.981,0,0,0-8.8-.378c-2.981,1.812-2.169,3.98-3.823,5.453s-4.952,1.445-6.117,4.078c-1.367,3.1-1.66,7.627-1.231,11.553.334,3.054-1.389,10.1-2.31,14.648a49.287,49.287,0,0,0-.607,8.757l1.826-.6a22.952,22.952,0,0,1,.329-6.721,24.076,24.076,0,0,1,3.114-7.326c2.158-3.171,10.008-1.028,12.54-3.231s3.026-5,4.386-6.81,6.027-1.918,7.173-5.965c1.134-4,.832-5.664-2.4-8" transform="translate(48.925 2.735)" fill="#6fa511"/>
    <path id="Trazado_643601" data-name="Trazado 643601" d="M108.218,17.387c2.076-1.7,4.757-2.34,5.588-2.718s6.493-2.114,6.493-2.114a28.106,28.106,0,0,0-5.173.537,26.405,26.405,0,0,0-5.512,2.295,12.2,12.2,0,0,0,1.738-4.3,11.12,11.12,0,0,0,.264-4.493s-.609,6.158-3.624,9.211c-2.982,3.02-6.872,9.665-6.872,9.665s.046-4.058,0-5.361a13.35,13.35,0,0,0-.792-4s.264,7.779-.247,11.061-3.943,10.6-3.943,10.6,2.123-3.6,2.642-4.629c1.041-2.067,1.6-3.817,1.926-4.455a48.672,48.672,0,0,1,2.794-5.135c1.187-1.492,2.567-2.946,3.473-3.248a63.151,63.151,0,0,1,6.381-.566,49.307,49.307,0,0,1,6.947.076,33.135,33.135,0,0,0-4.908-.83,36.65,36.65,0,0,0-9.211.642,29.4,29.4,0,0,1,2.038-2.228" transform="translate(49.776 3.412)" fill="#608e07"/>
    <path id="Trazado_643602" data-name="Trazado 643602" d="M97.877,33.328c-4.212.146-9.038,1.712-8.149,8.384.938,7.042,2.677,19.435,2.677,19.435h10.942s1.741-12.392,2.679-19.435c.889-6.672-3.937-8.238-8.149-8.384" transform="translate(46.402 17.256)" fill="#e88416"/>
    <path id="Trazado_643603" data-name="Trazado 643603" d="M93.139,39.717a25.319,25.319,0,0,0,5.318.8,8.608,8.608,0,0,0,4.71-1,6.6,6.6,0,0,0-3.969-1.3,40.654,40.654,0,0,0-6.059,1.495" transform="translate(48.223 19.781)" fill="#d8720e"/>
    <path id="Trazado_643604" data-name="Trazado 643604" d="M91.589,49.3a8.614,8.614,0,0,0,4.71,1,14.29,14.29,0,0,0,4.749-.909s-3.46-.709-5.479-.9a8.3,8.3,0,0,0-3.98.81" transform="translate(47.421 25.091)" fill="#d8720e"/>
    <path id="Trazado_643605" data-name="Trazado 643605" d="M90.736,42.708a8.614,8.614,0,0,0,4.71,1,25.318,25.318,0,0,0,5.318-.8s-3.969-.882-5.989-1.07a8.349,8.349,0,0,0-4.039.871" transform="translate(46.979 21.65)" fill="#d8720e"/>
    <path id="Trazado_643606" data-name="Trazado 643606" d="M98.611,44.175c-2.02.188-5.989,1.07-5.989,1.07a25.437,25.437,0,0,0,5.318.8,8.622,8.622,0,0,0,4.71-1,8.337,8.337,0,0,0-4.039-.87" transform="translate(47.956 22.86)" fill="#d8720e"/>
    <path id="Trazado_643607" data-name="Trazado 643607" d="M104.142,47.167c-23.521,0-26.621,17.2-26.621,17.2h8.222c1.585-3.161,6.494-10.353,18.4-10.38,11.905.027,16.815,7.218,18.4,10.38h8.222s-3.1-17.2-26.621-17.2" transform="translate(40.137 24.421)" fill="#6fa511"/>
    <path id="Trazado_643608" data-name="Trazado 643608" d="M101.338,51.658c-11.905.027-16.815,7.218-18.4,10.38h36.8c-1.585-3.161-6.494-10.353-18.4-10.38" transform="translate(42.942 26.746)" fill="#87c133"/>
    <path id="Trazado_643609" data-name="Trazado 643609" d="M98.218,32.808h-2.34c-2.34,0-4.49,2.252-4.49,2.252h11.151a5.834,5.834,0,0,0-4.321-2.252" transform="translate(47.317 16.986)" fill="#a85204"/>
    <path id="Trazado_643610" data-name="Trazado 643610" d="M82.812,3.9C81.838-.069,78.358-.862,76.653.859S70.676,3.375,68.983,2.58s-4.532-.4-5.657,1.589c-1.582,2.79-.994,4.239,1.654,6.757a21.2,21.2,0,0,1,4.473,6.355c.513,1.058.3,2.782.012,5.689s4.124,7.423,4.55,10.143.7,13.57.7,13.57.729-2.914,1.12-4.887S75,33.969,75.642,30.832c.477-2.343,3.245-4.28,4.79-5.025s2.427-3.492,2.38-6.438,2.961-3.544,5.458-4.6,2.139-4.37,0-6.746-4.483-.14-5.458-4.113" transform="translate(32.337 0)" fill="#87c133"/>
    <path id="Trazado_643611" data-name="Trazado 643611" d="M78.3,13.206c-.751.8-3.046,3.808-3.046,3.808a32.55,32.55,0,0,0,.132-4.537,14.44,14.44,0,0,1,.917-6.531C77.043,4.134,78.04,1.22,78.04,1.22a12.147,12.147,0,0,0-2.782,4.04C74.728,7.113,74,11.154,74,11.154a20.7,20.7,0,0,0-2.979-4.371A11.583,11.583,0,0,0,64.989,3.67S67.047,5.458,69.7,7.387a12.292,12.292,0,0,1,4,5.289A13.334,13.334,0,0,1,74,19.564c-.331,1.456-.753,3.641-.753,3.641s-.862-5.563-2.691-8.343A42.684,42.684,0,0,1,67.671,8.57a10.966,10.966,0,0,0,2.29,6.356c1.364,1.92,2.4,6.573,2.979,9.205.307,1.39-.132,3.444-.067,4.635s.373,4.039.373,4.039a71.509,71.509,0,0,1,.445-7.851,27.047,27.047,0,0,1,2.56-7.941c1.776-3.178,6.687-7.645,6.687-7.645A27.911,27.911,0,0,0,78.3,13.206" transform="translate(33.648 0.632)" fill="#6fa511"/>
    <path id="Trazado_643612" data-name="Trazado 643612" d="M78.586,38.4c-.29-3.624-1.214-7.557-.624-10.571.754-3.851,1.369-8.307,0-11.4C76.8,13.8,73.9,14.391,72.249,12.917S72.091,7.6,69.111,5.783a7.984,7.984,0,0,0-8.8.376c-1.809,1.531-1.843,3.5-4.077,5.455-2.738,2.4-4.228,4.21-3.1,8.213,1.146,4.048,5.361,4.3,6.721,6.117s.678,5.21,3.21,7.414,10.381.062,12.54,3.231a19.882,19.882,0,0,1,3.107,6.5,29.9,29.9,0,0,1,.615,7.135l.689,1.472a64.256,64.256,0,0,0-.584-9.709c-.349-1.943-.751-2.348-.85-3.58" transform="translate(27.316 2.406)" fill="#608e07"/>
    <path id="Trazado_643613" data-name="Trazado 643613" d="M74.161,28.772c-.511-3.283-.247-11.06-.247-11.06a13.4,13.4,0,0,0-.792,4c-.046,1.3,0,5.362,0,5.362s-3.888-6.645-6.871-9.665C63.233,14.355,62.618,7.2,62.618,7.2a17.167,17.167,0,0,0,.272,5.491,12.179,12.179,0,0,0,1.736,4.3A30.148,30.148,0,0,0,59.164,14.9a41.822,41.822,0,0,0-5.223-.739S59.6,15.9,60.435,16.277,63.946,17.3,66.022,19a29.8,29.8,0,0,1,2.04,2.228s-4.567-.688-8.559-.943a23.249,23.249,0,0,1-5.183-.651,11.249,11.249,0,0,0,4.87,1.416c.98.094,7.171.555,8.077.858s2.286,1.755,3.474,3.246a49.128,49.128,0,0,1,2.793,5.135c.328.637,1.208,2,2.249,4.071.519,1.029,2.321,5.015,2.321,5.015s-.807-2.737-1.867-5.411c-.786-1.984-1.859-3.788-2.078-5.186" transform="translate(27.928 3.727)" fill="#6fa511"/>
    <path id="Trazado_643614" data-name="Trazado 643614" d="M96.833,12.25c-2.406-1.741-2.269-3.923-4.078-5.453a7.981,7.981,0,0,0-8.8-.378c-2.981,1.812-2.169,3.98-3.823,5.453s-4.952,1.445-6.117,4.078c-1.368,3.1-1.66,7.627-1.231,11.553.334,3.054-1.389,10.1-2.31,14.648a49.288,49.288,0,0,0-.607,8.757l1.826-.6a22.952,22.952,0,0,1,.329-6.721,24.076,24.076,0,0,1,3.114-7.326c2.158-3.171,10.008-1.028,12.54-3.231s3.026-5,4.386-6.81,6.029-1.918,7.173-5.965c1.134-4,.832-5.664-2.4-8" transform="translate(36.171 2.735)" fill="#6fa511"/>
    <path id="Trazado_643615" data-name="Trazado 643615" d="M83.586,17.387c2.076-1.7,4.757-2.34,5.588-2.718s6.493-2.114,6.493-2.114a28.106,28.106,0,0,0-5.173.537,26.405,26.405,0,0,0-5.512,2.295,12.2,12.2,0,0,0,1.738-4.3,11.121,11.121,0,0,0,.264-4.493s-.609,6.158-3.624,9.211c-2.982,3.02-6.872,9.665-6.872,9.665s.046-4.058,0-5.361a13.35,13.35,0,0,0-.792-4s.264,7.779-.247,11.061S71.5,37.76,71.5,37.76s2.123-3.6,2.642-4.629c1.041-2.067,1.6-3.817,1.926-4.455a48.67,48.67,0,0,1,2.794-5.135c1.187-1.492,2.567-2.946,3.473-3.248a63.151,63.151,0,0,1,6.381-.566,49.307,49.307,0,0,1,6.947.076,33.135,33.135,0,0,0-4.908-.83,36.659,36.659,0,0,0-9.211.642,29.4,29.4,0,0,1,2.038-2.228" transform="translate(37.022 3.412)" fill="#608e07"/>
    <path id="Trazado_643616" data-name="Trazado 643616" d="M73.245,33.328c-4.212.146-9.038,1.712-8.149,8.384.938,7.042,2.679,19.435,2.679,19.435h10.94s1.741-12.392,2.679-19.435c.889-6.672-3.937-8.238-8.149-8.384" transform="translate(33.649 17.256)" fill="#e88416"/>
    <path id="Trazado_643617" data-name="Trazado 643617" d="M68.507,39.717a25.318,25.318,0,0,0,5.318.8,8.614,8.614,0,0,0,4.71-1,6.6,6.6,0,0,0-3.97-1.3,40.671,40.671,0,0,0-6.057,1.495" transform="translate(35.47 19.781)" fill="#d8720e"/>
    <path id="Trazado_643618" data-name="Trazado 643618" d="M66.957,49.3a8.614,8.614,0,0,0,4.71,1,14.29,14.29,0,0,0,4.749-.909s-3.46-.709-5.479-.9a8.3,8.3,0,0,0-3.98.81" transform="translate(34.667 25.091)" fill="#d8720e"/>
    <path id="Trazado_643619" data-name="Trazado 643619" d="M66.1,42.708a8.614,8.614,0,0,0,4.71,1,25.318,25.318,0,0,0,5.318-.8s-3.97-.882-5.989-1.07a8.349,8.349,0,0,0-4.039.871" transform="translate(34.226 21.65)" fill="#d8720e"/>
    <path id="Trazado_643620" data-name="Trazado 643620" d="M73.979,44.175c-2.02.188-5.989,1.07-5.989,1.07a25.437,25.437,0,0,0,5.318.8,8.622,8.622,0,0,0,4.71-1,8.337,8.337,0,0,0-4.039-.87" transform="translate(35.202 22.86)" fill="#d8720e"/>
    <path id="Trazado_643621" data-name="Trazado 643621" d="M73.586,32.808h-2.34c-2.34,0-4.49,2.252-4.49,2.252H77.907a5.834,5.834,0,0,0-4.321-2.252" transform="translate(34.563 16.986)" fill="#a85204"/>
    <path id="Trazado_643622" data-name="Trazado 643622" d="M79.51,47.167c-23.521,0-26.621,17.2-26.621,17.2h8.222c1.585-3.161,6.494-10.353,18.4-10.38,11.905.027,16.815,7.218,18.4,10.38h8.222s-3.1-17.2-26.621-17.2" transform="translate(27.384 24.421)" fill="#6fa511"/>
    <path id="Trazado_643623" data-name="Trazado 643623" d="M76.706,51.658c-11.905.027-16.815,7.218-18.4,10.38h36.8c-1.585-3.161-6.494-10.353-18.4-10.38" transform="translate(30.188 26.746)" fill="#87c133"/>
    <path id="Trazado_643624" data-name="Trazado 643624" d="M266.978,13.661c-5.749-3.3-6.66,2.082-3.175,5.133a52.276,52.276,0,0,0,8.865,5.807s.7-7.272-5.69-10.94" transform="translate(135.527 6.537)" fill="#608e07"/>
    <path id="Trazado_643625" data-name="Trazado 643625" d="M273.407,14.387c-5.376,3.55-4.373,9.861-4.373,9.861a45.676,45.676,0,0,0,7.425-5.552c2.876-2.853,1.788-7.505-3.052-4.309" transform="translate(139.256 6.89)" fill="#608e07"/>
    <path id="Trazado_643626" data-name="Trazado 643626" d="M272.9,20.059c-2.38,0-6.212,2.457-6.724,8.909-.672,8.478-5.179,6.367-5.168,15.19,0,4.981,7.048,7.357,11.892,7.357s11.887-2.375,11.892-7.357c.011-8.823-4.5-6.712-5.168-15.19-.511-6.452-4.344-8.909-6.724-8.909" transform="translate(135.141 10.386)" fill="#fbcb43"/>
    <path id="Trazado_643627" data-name="Trazado 643627" d="M271.163,22.481a1.84,1.84,0,1,0,1.84,1.84,1.841,1.841,0,0,0-1.84-1.84" transform="translate(139.443 11.64)" fill="#ffe197"/>
    <path id="Trazado_643628" data-name="Trazado 643628" d="M283.648,13.661c-5.749-3.3-6.66,2.082-3.175,5.133a52.277,52.277,0,0,0,8.865,5.807s.7-7.272-5.69-10.94" transform="translate(144.158 6.537)" fill="#608e07"/>
    <path id="Trazado_643629" data-name="Trazado 643629" d="M290.077,14.387c-5.376,3.55-4.373,9.861-4.373,9.861a45.676,45.676,0,0,0,7.425-5.552c2.876-2.853,1.788-7.505-3.052-4.309" transform="translate(147.887 6.89)" fill="#608e07"/>
    <path id="Trazado_643630" data-name="Trazado 643630" d="M289.574,20.059c-2.38,0-6.212,2.457-6.724,8.909-.672,8.478-5.179,6.367-5.168,15.19,0,4.981,7.048,7.357,11.892,7.357s11.887-2.375,11.892-7.357c.011-8.823-4.5-6.712-5.168-15.19-.511-6.452-4.344-8.909-6.724-8.909" transform="translate(143.772 10.386)" fill="#fbcb43"/>
    <path id="Trazado_643631" data-name="Trazado 643631" d="M287.833,22.481a1.84,1.84,0,1,0,1.841,1.84,1.839,1.839,0,0,0-1.841-1.84" transform="translate(148.075 11.64)" fill="#ffe197"/>
    <path id="Trazado_643632" data-name="Trazado 643632" d="M300.264,13.661c-5.749-3.3-6.66,2.082-3.175,5.133a52.229,52.229,0,0,0,8.864,5.807s.7-7.272-5.689-10.94" transform="translate(152.761 6.537)" fill="#608e07"/>
    <path id="Trazado_643633" data-name="Trazado 643633" d="M306.693,14.387c-5.376,3.55-4.373,9.861-4.373,9.861a45.675,45.675,0,0,0,7.425-5.552c2.876-2.853,1.788-7.505-3.052-4.309" transform="translate(156.49 6.89)" fill="#608e07"/>
    <path id="Trazado_643634" data-name="Trazado 643634" d="M306.191,20.059c-2.38,0-6.212,2.457-6.724,8.909-.672,8.478-5.179,6.367-5.168,15.19,0,4.981,7.048,7.357,11.892,7.357s11.887-2.375,11.892-7.357c.011-8.823-4.5-6.712-5.168-15.19-.512-6.452-4.344-8.909-6.724-8.909" transform="translate(152.375 10.386)" fill="#fbcb43"/>
    <path id="Trazado_643635" data-name="Trazado 643635" d="M304.45,22.481a1.84,1.84,0,1,0,1.841,1.84,1.841,1.841,0,0,0-1.841-1.84" transform="translate(156.678 11.64)" fill="#ffe197"/>
    <path id="Trazado_643636" data-name="Trazado 643636" d="M263.947,51.528h68.071a19.248,19.248,0,0,0,2.586-6H261.361a19.25,19.25,0,0,0,2.586,6" transform="translate(135.321 23.571)" fill="#d8720e"/>
    <path id="Trazado_643637" data-name="Trazado 643637" d="M261.012,45.369c0,.311.033.615.049.921h74.208c.015-.307.049-.61.049-.921V37.357h-74.3Z" transform="translate(135.141 19.342)" fill="#d8720e"/>
    <path id="Trazado_643638" data-name="Trazado 643638" d="M279.644,57.718h32.99a21.028,21.028,0,0,0,14.721-5.957H264.923a21.029,21.029,0,0,0,14.721,5.957" transform="translate(137.166 26.799)" fill="#d8720e"/>
    <path id="Trazado_643639" data-name="Trazado 643639" d="M261.527,46.707h73.242a18.9,18.9,0,0,0,.483-3.464H261.044a19.036,19.036,0,0,0,.483,3.464" transform="translate(135.157 22.389)" fill="#e88416"/>
    <path id="Trazado_643640" data-name="Trazado 643640" d="M265.885,52.944h62.431a20.1,20.1,0,0,0,2.82-3.464H263.065a20.107,20.107,0,0,0,2.82,3.464" transform="translate(136.204 25.618)" fill="#e88416"/>
    <path id="Trazado_643641" data-name="Trazado 643641" d="M340.543,34.992h-80.4a3.739,3.739,0,0,0,0,7.478h80.4a3.739,3.739,0,0,0,0-7.478" transform="translate(132.754 18.117)" fill="#e88416"/>
    <path id="Trazado_643642" data-name="Trazado 643642" d="M334.789,1.972H265.8a9.322,9.322,0,0,0-9.311,9.311V55.948h4.339V11.283A4.978,4.978,0,0,1,265.8,6.311h68.987a4.976,4.976,0,0,1,4.971,4.972V55.948H344.1V11.283a9.322,9.322,0,0,0-9.311-9.311" transform="translate(132.8 1.021)" fill="#e88416"/>
    <path id="Trazado_643643" data-name="Trazado 643643" d="M240.952,4.678c-1.091-4.449-4.989-5.338-6.9-3.41s-6.693,2.817-8.589,1.928-5.074-.445-6.334,1.779c-1.77,3.124-1.113,4.746,1.853,7.566a23.749,23.749,0,0,1,5.007,7.115c.575,1.185.331,3.114.015,6.37s4.617,8.311,5.1,11.357.782,15.194.782,15.194.817-3.263,1.255-5.472-.932-8.765-.217-12.277c.534-2.624,3.634-4.792,5.364-5.626s2.718-3.911,2.665-7.209,3.316-3.969,6.112-5.154,2.394-4.893,0-7.555-5.021-.156-6.112-4.6" transform="translate(112.953 0.159)" fill="#87c133"/>
    <path id="Trazado_643644" data-name="Trazado 643644" d="M235.9,15.093c-.841.894-3.41,4.263-3.41,4.263a36.511,36.511,0,0,0,.147-5.078,16.2,16.2,0,0,1,1.026-7.314c.824-2.029,1.941-5.291,1.941-5.291S233.087,4.12,232.494,6.2s-1.408,6.6-1.408,6.6A23.242,23.242,0,0,0,227.748,7.9a12.973,12.973,0,0,0-6.753-3.485s2.3,2,5.27,4.16a13.752,13.752,0,0,1,4.474,5.924,14.938,14.938,0,0,1,.346,7.712c-.372,1.632-.844,4.078-.844,4.078s-.967-6.229-3.013-9.343A47.765,47.765,0,0,1,224,9.9a12.274,12.274,0,0,0,2.565,7.118c1.528,2.149,2.688,7.36,3.336,10.307.343,1.557-.149,3.855-.074,5.189s.417,4.523.417,4.523a79.978,79.978,0,0,1,.5-8.791,30.345,30.345,0,0,1,2.867-8.893c1.988-3.559,7.489-8.559,7.489-8.559a31.179,31.179,0,0,0-5.191,4.3" transform="translate(114.422 0.866)" fill="#6fa511"/>
    <path id="Trazado_643645" data-name="Trazado 643645" d="M236.22,43.307c-.325-4.058-1.36-8.461-.7-11.837.845-4.312,1.531-9.3,0-12.767-1.3-2.947-4.544-2.283-6.4-3.933s-.178-5.959-3.515-7.988a8.939,8.939,0,0,0-9.852.422c-2.026,1.715-2.064,3.917-4.565,6.107-3.066,2.683-4.735,4.716-3.467,9.2,1.283,4.532,6,4.819,7.525,6.848s.76,5.834,3.594,8.3,11.625.068,14.041,3.618a22.319,22.319,0,0,1,3.48,7.273,33.476,33.476,0,0,1,.686,7.991l.773,1.647a71.814,71.814,0,0,0-.654-10.872c-.39-2.175-.841-2.629-.952-4.008" transform="translate(107.33 2.853)" fill="#608e07"/>
    <path id="Trazado_643646" data-name="Trazado 643646" d="M231.264,32.524c-.572-3.676-.276-12.385-.276-12.385a15,15,0,0,0-.888,4.482c-.05,1.459,0,6,0,6s-4.354-7.442-7.7-10.823c-3.377-3.42-4.066-11.433-4.066-11.433a19.228,19.228,0,0,0,.305,6.15,13.642,13.642,0,0,0,1.944,4.819,33.744,33.744,0,0,0-6.117-2.345,47.181,47.181,0,0,0-5.848-.826s6.341,1.944,7.272,2.366,3.933,1.143,6.256,3.045a32.892,32.892,0,0,1,2.283,2.494s-5.112-.768-9.582-1.055c-4.637-.294-5.8-.729-5.8-.729a12.6,12.6,0,0,0,5.453,1.586c1.1.1,8.029.621,9.043.959s2.56,1.964,3.89,3.635a54.587,54.587,0,0,1,3.128,5.749c.366.713,1.352,2.243,2.518,4.558.581,1.152,2.6,5.614,2.6,5.614s-.9-3.063-2.09-6.059c-.882-2.22-2.082-4.241-2.327-5.805" transform="translate(108.016 4.332)" fill="#6fa511"/>
    <path id="Trazado_643647" data-name="Trazado 643647" d="M256.65,14.023c-2.694-1.949-2.541-4.392-4.565-6.106a8.937,8.937,0,0,0-9.852-.423C238.9,9.523,239.8,11.95,237.951,13.6s-5.546,1.618-6.848,4.567c-1.531,3.467-1.861,8.539-1.38,12.936.373,3.42-1.556,11.309-2.586,16.4a55.165,55.165,0,0,0-.68,9.8l2.044-.674a25.658,25.658,0,0,1,.37-7.525,26.928,26.928,0,0,1,3.486-8.2c2.416-3.55,11.206-1.15,14.041-3.618s3.389-5.6,4.911-7.625,6.749-2.148,8.032-6.68c1.269-4.482.93-6.341-2.692-8.962" transform="translate(117.246 3.221)" fill="#6fa511"/>
    <path id="Trazado_643648" data-name="Trazado 643648" d="M241.819,19.775c2.325-1.9,5.326-2.621,6.256-3.043s7.272-2.368,7.272-2.368a31.4,31.4,0,0,0-5.792.6,29.558,29.558,0,0,0-6.171,2.57,13.677,13.677,0,0,0,1.944-4.82,12.476,12.476,0,0,0,.3-5.03s-.682,6.9-4.058,10.315c-3.341,3.382-7.693,10.823-7.693,10.823s.05-4.546,0-6a15,15,0,0,0-.888-4.48s.3,8.709-.278,12.385-4.415,11.864-4.415,11.864,2.378-4.031,2.96-5.183c1.166-2.315,1.789-4.276,2.155-4.989a54.867,54.867,0,0,1,3.128-5.749c1.331-1.671,2.875-3.3,3.89-3.635a70.105,70.105,0,0,1,7.144-.634,55.17,55.17,0,0,1,7.779.085,37.069,37.069,0,0,0-5.5-.93c-4.143-.507-10.315.718-10.315.718a33.227,33.227,0,0,1,2.283-2.494" transform="translate(118.199 3.979)" fill="#608e07"/>
    <path id="Trazado_643649" data-name="Trazado 643649" d="M238.4,38.952l-6.642-.727-5.845.727a12.9,12.9,0,0,0-8.251,9.245c-1.967,7.5,4.8,13.648,4.8,13.648H238.4s8.087-4.858,7.6-13.083a10.364,10.364,0,0,0-7.6-9.809" transform="translate(112.509 19.791)" fill="#dc4437"/>
    <path id="Trazado_643650" data-name="Trazado 643650" d="M237.255,44.338c-26.336,0-29.809,19.254-29.809,19.254h9.207c1.773-3.539,7.272-11.591,20.6-11.621,13.33.03,18.829,8.082,20.6,11.621h9.207s-3.473-19.254-29.809-19.254" transform="translate(107.407 22.956)" fill="#6fa511"/>
    <path id="Trazado_643651" data-name="Trazado 643651" d="M234.114,49.367c-13.33.03-18.829,8.082-20.6,11.621h41.2c-1.773-3.539-7.272-11.591-20.6-11.621" transform="translate(110.547 25.56)" fill="#87c133"/>
    <path id="Trazado_643652" data-name="Trazado 643652" d="M220.474,42.423a42.4,42.4,0,0,0,11.468-1.062,29.131,29.131,0,0,0-5.878-1.131,6.615,6.615,0,0,0-5.59,2.193" transform="translate(114.152 20.812)" fill="#ce352e"/>
    <path id="Trazado_643653" data-name="Trazado 643653" d="M233.224,41.693a18.819,18.819,0,0,0-7.035,1.585s2.891.578,6.595.962a18.612,18.612,0,0,0,6.6-.481,8.1,8.1,0,0,0-6.156-2.066" transform="translate(117.111 21.583)" fill="#ce352e"/>
    <path id="Trazado_643654" data-name="Trazado 643654" d="M230.621,36.993H228c-2.621,0-5.028,2.523-5.028,2.523H235.46a6.535,6.535,0,0,0-4.839-2.523" transform="translate(115.446 19.153)" fill="#c12d25"/>
    <path id="Trazado_643655" data-name="Trazado 643655" d="M212.063,4.678c-1.091-4.449-4.989-5.338-6.9-3.41s-6.695,2.817-8.59,1.928-5.074-.445-6.334,1.779c-1.77,3.124-1.113,4.746,1.853,7.566a23.75,23.75,0,0,1,5.007,7.115c.575,1.185.332,3.114.015,6.37s4.617,8.311,5.1,11.357S203,52.577,203,52.577s.817-3.263,1.255-5.472-.932-8.765-.217-12.277c.536-2.624,3.634-4.792,5.364-5.626s2.718-3.911,2.665-7.209,3.316-3.969,6.112-5.154,2.4-4.893,0-7.555-5.021-.156-6.112-4.6" transform="translate(97.996 0.159)" fill="#87c133"/>
    <path id="Trazado_643656" data-name="Trazado 643656" d="M207.016,15.093c-.841.894-3.412,4.263-3.412,4.263a36.509,36.509,0,0,0,.147-5.078,16.2,16.2,0,0,1,1.026-7.314c.824-2.029,1.941-5.291,1.941-5.291S204.2,4.12,203.6,6.2s-1.407,6.6-1.407,6.6A23.28,23.28,0,0,0,198.859,7.9a12.973,12.973,0,0,0-6.753-3.485s2.3,2,5.27,4.16a13.755,13.755,0,0,1,4.476,5.924,14.97,14.97,0,0,1,.346,7.712c-.373,1.632-.844,4.078-.844,4.078s-.968-6.229-3.013-9.343A47.6,47.6,0,0,1,195.11,9.9a12.265,12.265,0,0,0,2.564,7.118c1.528,2.149,2.689,7.36,3.338,10.307.343,1.557-.15,3.855-.076,5.189s.419,4.523.419,4.523a79.978,79.978,0,0,1,.5-8.791,30.315,30.315,0,0,1,2.866-8.893c1.988-3.559,7.49-8.559,7.49-8.559a31.109,31.109,0,0,0-5.191,4.3" transform="translate(99.464 0.866)" fill="#6fa511"/>
    <path id="Trazado_643657" data-name="Trazado 643657" d="M207.331,43.307c-.325-4.058-1.358-8.461-.7-11.837.844-4.312,1.531-9.3,0-12.767-1.3-2.947-4.544-2.283-6.4-3.933s-.178-5.959-3.515-7.988a8.94,8.94,0,0,0-9.852.422c-2.026,1.715-2.064,3.917-4.565,6.107-3.066,2.683-4.735,4.716-3.467,9.2,1.283,4.532,6,4.819,7.525,6.848s.76,5.834,3.594,8.3,11.624.068,14.041,3.618a22.289,22.289,0,0,1,3.479,7.273,33.432,33.432,0,0,1,.688,7.991l.772,1.647a71.818,71.818,0,0,0-.654-10.872c-.39-2.175-.841-2.629-.952-4.008" transform="translate(92.373 2.853)" fill="#608e07"/>
    <path id="Trazado_643658" data-name="Trazado 643658" d="M202.375,32.524c-.572-3.676-.276-12.385-.276-12.385a15,15,0,0,0-.888,4.482c-.05,1.459,0,6,0,6s-4.354-7.442-7.695-10.823c-3.377-3.42-4.066-11.433-4.066-11.433a19.228,19.228,0,0,0,.305,6.15,13.642,13.642,0,0,0,1.944,4.819,33.743,33.743,0,0,0-6.117-2.345,47.181,47.181,0,0,0-5.848-.826s6.341,1.944,7.272,2.366,3.931,1.143,6.256,3.045a32.891,32.891,0,0,1,2.283,2.494s-5.112-.768-9.583-1.055c-4.635-.294-5.8-.729-5.8-.729a12.6,12.6,0,0,0,5.453,1.586c1.1.1,8.029.621,9.044.959s2.559,1.964,3.888,3.635a54.588,54.588,0,0,1,3.128,5.749c.366.713,1.352,2.243,2.518,4.558.581,1.152,2.6,5.614,2.6,5.614s-.9-3.063-2.09-6.059c-.88-2.22-2.081-4.241-2.325-5.805" transform="translate(93.059 4.332)" fill="#6fa511"/>
    <path id="Trazado_643659" data-name="Trazado 643659" d="M227.762,14.023c-2.694-1.949-2.539-4.392-4.565-6.106a8.936,8.936,0,0,0-9.852-.423c-3.338,2.029-2.428,4.456-4.282,6.106s-5.546,1.618-6.848,4.567c-1.531,3.467-1.861,8.539-1.38,12.936.373,3.42-1.556,11.309-2.586,16.4a55.163,55.163,0,0,0-.68,9.8l2.044-.674a25.657,25.657,0,0,1,.37-7.525,26.928,26.928,0,0,1,3.486-8.2c2.416-3.55,11.206-1.15,14.041-3.618s3.389-5.6,4.911-7.625,6.749-2.148,8.032-6.68c1.269-4.482.93-6.341-2.692-8.962" transform="translate(102.289 3.221)" fill="#6fa511"/>
    <path id="Trazado_643660" data-name="Trazado 643660" d="M212.93,19.775c2.325-1.9,5.326-2.621,6.256-3.043s7.272-2.368,7.272-2.368a31.4,31.4,0,0,0-5.792.6,29.557,29.557,0,0,0-6.171,2.57,13.677,13.677,0,0,0,1.944-4.82,12.475,12.475,0,0,0,.3-5.03s-.681,6.9-4.059,10.315c-3.341,3.382-7.7,10.823-7.7,10.823s.052-4.546,0-6a14.969,14.969,0,0,0-.886-4.48s.294,8.709-.278,12.385S199.4,42.587,199.4,42.587s2.378-4.031,2.96-5.183c1.166-2.315,1.789-4.276,2.155-4.989a54.876,54.876,0,0,1,3.128-5.749c1.331-1.671,2.875-3.3,3.89-3.635a70.105,70.105,0,0,1,7.144-.634,55.17,55.17,0,0,1,7.778.085,37.068,37.068,0,0,0-5.5-.93c-4.143-.507-10.315.718-10.315.718a32.9,32.9,0,0,1,2.283-2.494" transform="translate(103.242 3.979)" fill="#608e07"/>
    <path id="Trazado_643661" data-name="Trazado 643661" d="M209.507,38.952l-6.642-.727-5.843.727A12.9,12.9,0,0,0,188.77,48.2c-1.967,7.5,4.8,13.648,4.8,13.648h15.939s8.087-4.858,7.6-13.083a10.364,10.364,0,0,0-7.6-9.809" transform="translate(97.551 19.791)" fill="#dc4437"/>
    <path id="Trazado_643662" data-name="Trazado 643662" d="M208.366,44.338c-26.336,0-29.809,19.254-29.809,19.254h9.207c1.773-3.539,7.272-11.591,20.6-11.621,13.33.03,18.829,8.082,20.6,11.621h9.207S234.7,44.338,208.366,44.338" transform="translate(92.449 22.956)" fill="#6fa511"/>
    <path id="Trazado_643663" data-name="Trazado 643663" d="M205.225,49.367c-13.33.03-18.829,8.082-20.6,11.621h41.2c-1.773-3.539-7.272-11.591-20.6-11.621" transform="translate(95.59 25.56)" fill="#87c133"/>
    <path id="Trazado_643664" data-name="Trazado 643664" d="M191.585,42.423a42.4,42.4,0,0,0,11.468-1.062,29.131,29.131,0,0,0-5.878-1.131,6.615,6.615,0,0,0-5.59,2.193" transform="translate(99.194 20.812)" fill="#ce352e"/>
    <path id="Trazado_643665" data-name="Trazado 643665" d="M204.335,41.693a18.819,18.819,0,0,0-7.035,1.585s2.891.578,6.595.962a18.612,18.612,0,0,0,6.6-.481,8.1,8.1,0,0,0-6.156-2.066" transform="translate(102.153 21.583)" fill="#ce352e"/>
    <path id="Trazado_643666" data-name="Trazado 643666" d="M201.733,36.993h-2.621c-2.62,0-5.027,2.523-5.027,2.523H206.57a6.526,6.526,0,0,0-4.837-2.523" transform="translate(100.489 19.153)" fill="#c12d25"/>
    <path id="Trazado_643667" data-name="Trazado 643667" d="M356.6,33.828h4.453l4.784-18.518-7.191,2.275Z" transform="translate(184.633 7.926)" fill="#515151"/>
    <path id="Trazado_643668" data-name="Trazado 643668" d="M355.36,19.937a15.013,15.013,0,0,1-1.727,2.89l.322.082s.128,2.345-3.224,4.77-8.77,2.852-14.142.721a13.8,13.8,0,0,1-4.233-2.952c.832,5.054,4.277,9.207,10.239,12.015a24.3,24.3,0,0,0,16.006,1.2l6.753-5.84,2.161-13.85s-9.723-4.348-12.154.961" transform="translate(172.079 8.957)" fill="gray"/>
    <path id="Trazado_643669" data-name="Trazado 643669" d="M343.546,25.878c-5.132,0-11.313-5.279-11.313-5.279a15.392,15.392,0,0,0,.193,3.14,13.784,13.784,0,0,0,4.231,2.951c5.374,2.131,10.794,1.7,14.144-.721s3.224-4.769,3.224-4.769l-.323-.082a12.215,12.215,0,0,1-10.155,4.76" transform="translate(172.009 10.665)" fill="#b2b2b2"/>
    <path id="Trazado_643670" data-name="Trazado 643670" d="M347.506,20.294c7.775,1.043,9.873,1.5,9.873,1.5l-2.7,6.493c.889-.018,1.4-.059,1.4-.059l3.895-18.146-23.122,4.559a17.647,17.647,0,0,0,10.661,5.655" transform="translate(174.404 5.218)" fill="gray"/>
    <path id="Trazado_643671" data-name="Trazado 643671" d="M339.8,13.082l-8.657,1.707s2.207,6.425,11.606,9.7a44.537,44.537,0,0,0,14.88,2.237l2.7-6.491s-2.1-.457-9.872-1.5A17.639,17.639,0,0,1,339.8,13.082" transform="translate(171.451 6.773)" fill="#b2b2b2"/>
    <path id="Trazado_643672" data-name="Trazado 643672" d="M428.562,16.068c-.059-.047-.128-.094-.19-.141-.885,1.841-2.105,2.556-4.157,2.037-2.686-.681-14.381-1.849-18.886-2.164a83.115,83.115,0,0,0-15.091.789,105.1,105.1,0,0,0-14.065,2.941c-2.371.73-4.629,1.507-5.493,0s-3.674-7.709-4.263-9.217c-1.126-2.89-2-5.57,0-6.3,1.459-.534,4.543-1.527,6.982-2.3-.335-.656-.545-1.082-.545-1.082s-9.957,2.287-15.8,7.426A30.726,30.726,0,0,0,346.637,25.4c-1.8,7.718,3.24,9.568,3.24,9.568,5.042,1.8,10.984-4.142,14.765-6.4s13.684-10.5,44.114-10.441c5.6.011,11.524,1.351,17.645,2.615s4.682-2.7,2.161-4.675" transform="translate(179.272 0.325)" fill="#6b6b6b"/>
    <path id="Trazado_643673" data-name="Trazado 643673" d="M387.158,10.162c-5.761.956-12.424.663-14.584-.466-1.679-.877-4.479-6.074-5.648-8.355-2.439.773-5.523,1.765-6.982,2.3-2,.733-1.126,3.413,0,6.3.589,1.509,3.4,7.712,4.263,9.217s3.122.73,5.493,0a105.1,105.1,0,0,1,14.065-2.941,82.979,82.979,0,0,1,15.091-.789c4.5.316,16.2,1.483,18.885,2.163,2.052.521,3.272-.2,4.157-2.035a34.887,34.887,0,0,0-12.775-5.4c-5.581-1.2-16.205-.956-21.966,0" transform="translate(185.745 0.694)" fill="#fbcb43"/>
    <path id="Rectángulo_347759" data-name="Rectángulo 347759" d="M1.419,0H9.7a1.418,1.418,0,0,1,1.418,1.418v5.3A1.418,1.418,0,0,1,9.7,8.139H1.418A1.418,1.418,0,0,1,0,6.721v-5.3A1.419,1.419,0,0,1,1.419,0Z" transform="translate(533.406 18.414) rotate(-28.33)" fill="#515151"/>
    <path id="Trazado_643674" data-name="Trazado 643674" d="M350.838,15.165a2.76,2.76,0,1,0,2.759,2.761,2.761,2.761,0,0,0-2.759-2.761" transform="translate(180.219 7.852)" fill="#b2b2b2"/>
    <path id="Trazado_643675" data-name="Trazado 643675" d="M406.907,48.539c-6.842-7.76-19.5-16.078-25.439-19.16s-12.051-4.826-22.1-4.5c-8.9.285-12.277,3.436-11.049,7.329,1.081,3.421,5.4,6.648,7.807,8.264,1.308.877,2.691,2.4,5.543-.66a9.885,9.885,0,0,1,7.062-3.338c3.545.047,6.59,1.6,10.982,5.582,9.544,8.659,16.92,9.134,22.507,13.865A80.1,80.1,0,0,1,411.559,66.3c1.2,1.6,2.976.29,2.976.29l2.642-2.119s1.862-1.2.51-2.765c-1.994-2.31-5.845-7.572-10.781-13.171" transform="translate(180.22 12.86)" fill="#6b6b6b"/>
    <path id="Trazado_643676" data-name="Trazado 643676" d="M355.49,30.924a1.418,1.418,0,1,0,1.418,1.418,1.417,1.417,0,0,0-1.418-1.418" transform="translate(183.323 16.011)" fill="#b2b2b2"/>
    <path id="Trazado_643677" data-name="Trazado 643677" d="M351.63,27.7a1.418,1.418,0,1,0,1.418,1.418A1.417,1.417,0,0,0,351.63,27.7" transform="translate(181.325 14.342)" fill="#b2b2b2"/>
    <path id="Trazado_643678" data-name="Trazado 643678" d="M12.4,2.235a1.2,1.2,0,0,0-1.484,0C5.293,6.73,2.26,12.305,1.5,17.276.9,21.148.158,38.547,0,42.338a1.186,1.186,0,0,0,.613,1.094,22.863,22.863,0,0,0,11.043,2.494A22.863,22.863,0,0,0,22.7,43.433a1.182,1.182,0,0,0,.612-1.094c-.156-3.791-.9-21.191-1.495-25.063-.763-4.971-3.8-10.545-9.418-15.041" transform="translate(0 1.024)" fill="gray"/>
    <path id="Trazado_643679" data-name="Trazado 643679" d="M9.064,18.156c-2.79,0-3.287,5.678-3.287,8.765V38.464h6.575V26.921c0-3.087-.5-8.765-3.287-8.765" transform="translate(2.991 9.4)" fill="#6b6b6b"/>
    <path id="Trazado_643680" data-name="Trazado 643680" d="M11.719,31.282H6.938a1.2,1.2,0,0,0-1.194,1.2V70.341a3.586,3.586,0,1,0,7.171,0V32.478a1.2,1.2,0,0,0-1.2-1.2m-.253,38.584a2.38,2.38,0,0,1-2.137,2.554,2.38,2.38,0,0,1-2.135-2.554v-.334h4.272Z" transform="translate(2.974 16.196)" fill="#87c133"/>
    <path id="Trazado_643681" data-name="Trazado 643681" d="M16.669,30.938H4.336a.859.859,0,0,0-.856.856v.1a.858.858,0,0,0,.856.856H16.669a.858.858,0,0,0,.856-.856v-.1a.859.859,0,0,0-.856-.856" transform="translate(1.802 16.018)" fill="#6fa511"/>
    <rect id="Rectángulo_347760" data-name="Rectángulo 347760" width="7.171" height="0.93" transform="translate(8.718 57.306)" fill="#6fa511"/>
    <rect id="Rectángulo_347761" data-name="Rectángulo 347761" width="7.171" height="0.93" transform="translate(8.718 60.229)" fill="#6fa511"/>
    <rect id="Rectángulo_347762" data-name="Rectángulo 347762" width="7.171" height="0.93" transform="translate(8.718 63.017)" fill="#6fa511"/>
    <rect id="Rectángulo_347763" data-name="Rectángulo 347763" width="7.171" height="0.93" transform="translate(8.718 65.939)" fill="#6fa511"/>
    <rect id="Rectángulo_347764" data-name="Rectángulo 347764" width="7.171" height="0.93" transform="translate(8.718 68.801)" fill="#6fa511"/>
    <rect id="Rectángulo_347765" data-name="Rectángulo 347765" width="7.171" height="0.93" transform="translate(8.718 71.723)" fill="#6fa511"/>
    <rect id="Rectángulo_347766" data-name="Rectángulo 347766" width="7.171" height="0.93" transform="translate(8.718 74.511)" fill="#6fa511"/>
    <rect id="Rectángulo_347767" data-name="Rectángulo 347767" width="7.171" height="0.93" transform="translate(8.718 77.434)" fill="#6fa511"/>
    <rect id="Rectángulo_347768" data-name="Rectángulo 347768" width="7.171" height="0.93" transform="translate(8.718 80.488)" fill="#6fa511"/>
    <rect id="Rectángulo_347769" data-name="Rectángulo 347769" width="7.171" height="0.93" transform="translate(8.718 83.543)" fill="#6fa511"/>
    <path id="Trazado_643682" data-name="Trazado 643682" d="M45.071,5.7A2.6,2.6,0,0,0,42.31,7.72c-.08.537-.39,2.468-.674,4.178-.524,3.163-1.456,8.578-2.541,13.84-.774,3.755-2.723,8.082-5.485,9.193-.1-9.421-.191-19.749-.191-25.041,0-.76.228-.993.918-1.849.7-.873.6-2.343-1.985-2.345h-.006c-2.588,0-2.573,1.466-1.846,2.312a2.578,2.578,0,0,1,.782,1.9c0,5.35-.073,15.672-.149,25.073-2.818-1.043-4.8-5.438-5.588-9.24C24.46,20.477,23.528,15.062,23,11.9c-.282-1.711-.592-3.641-.672-4.178A2.6,2.6,0,0,0,19.569,5.7c-1.106,0-2.325.2-2.472,1.052-.172.98.776,1.014,1.735,1.518s1.569,1.214,1.856,3.08c.445,2.882,1.463,8.9,2.688,14.841.024.117,1.846,11.023,7.727,12.4-.076,8.935-.146,16.231-.146,16.231h2.879s-.091-7.317-.187-16.264c5.79-1.492,7.59-12.256,7.615-12.371,1.225-5.939,2.242-11.958,2.688-14.841.288-1.865.909-2.58,1.856-3.08s1.906-.537,1.736-1.518C47.4,5.9,46.179,5.7,45.071,5.7" transform="translate(8.842 2.95)" fill="#6b6b6b"/>
    <path id="Trazado_643683" data-name="Trazado 643683" d="M24.778,66.853a3.586,3.586,0,1,0,7.171,0V38.02H24.778Zm1.449-.809H30.5v.334a2.38,2.38,0,0,1-2.135,2.554,2.38,2.38,0,0,1-2.137-2.554Z" transform="translate(12.829 19.685)" fill="#87c133"/>
    <path id="Trazado_643684" data-name="Trazado 643684" d="M35.7,37.465H23.368a.858.858,0,0,0-.854.856v.1a.857.857,0,0,0,.854.856H35.7a.857.857,0,0,0,.854-.856v-.1a.858.858,0,0,0-.854-.856" transform="translate(11.657 19.398)" fill="#6fa511"/>
    <rect id="Rectángulo_347770" data-name="Rectángulo 347770" width="7.171" height="0.93" transform="translate(37.607 68.801)" fill="#6fa511"/>
    <rect id="Rectángulo_347771" data-name="Rectángulo 347771" width="7.171" height="0.93" transform="translate(37.607 65.939)" fill="#6fa511"/>
    <rect id="Rectángulo_347772" data-name="Rectángulo 347772" width="7.171" height="0.93" transform="translate(37.607 71.723)" fill="#6fa511"/>
    <rect id="Rectángulo_347773" data-name="Rectángulo 347773" width="7.171" height="0.93" transform="translate(37.607 74.511)" fill="#6fa511"/>
    <rect id="Rectángulo_347774" data-name="Rectángulo 347774" width="7.171" height="0.93" transform="translate(37.607 77.434)" fill="#6fa511"/>
    <rect id="Rectángulo_347775" data-name="Rectángulo 347775" width="7.171" height="0.93" transform="translate(37.607 80.488)" fill="#6fa511"/>
    <rect id="Rectángulo_347776" data-name="Rectángulo 347776" width="7.171" height="0.93" transform="translate(37.607 83.543)" fill="#6fa511"/>
  </g>
</svg>
