<svg xmlns="http://www.w3.org/2000/svg" xmlns:xlink="http://www.w3.org/1999/xlink" width="71" height="74" viewBox="0 0 71 74"><defs><filter id="a" x="0" y="0" width="71" height="74" filterUnits="userSpaceOnUse"><feOffset dy="3" input="SourceAlpha"/><feGaussianBlur stdDeviation="3" result="b"/><feFlood flood-opacity="0.161"/><feComposite operator="in" in2="b"/><feComposite in="SourceGraphic"/></filter></defs><g transform="translate(-443 -3035)"><g transform="matrix(1, 0, 0, 1, 443, 3035)" filter="url(#a)"><rect width="53" height="56" rx="8" transform="translate(9 6)" fill="#adce32"/></g><path d="M10.01-5.585A6.843,6.843,0,0,1,8.851-1.3,4.048,4.048,0,0,1,5.455.186,4.076,4.076,0,0,1,2.078-1.271a6.643,6.643,0,0,1-1.2-4.175V-7.932a6.753,6.753,0,0,1,1.174-4.3,4.078,4.078,0,0,1,3.382-1.466,4.082,4.082,0,0,1,3.377,1.452,6.622,6.622,0,0,1,1.2,4.17ZM7.329-8.312a4.937,4.937,0,0,0-.459-2.445,1.552,1.552,0,0,0-1.433-.765,1.525,1.525,0,0,0-1.4.728,4.621,4.621,0,0,0-.478,2.278v3.284a5.183,5.183,0,0,0,.45,2.454,1.532,1.532,0,0,0,1.443.8,1.506,1.506,0,0,0,1.419-.77A5.059,5.059,0,0,0,7.329-5.1ZM21.078,0H11.819V-1.837l4.37-4.657A10.78,10.78,0,0,0,17.52-8.21,2.757,2.757,0,0,0,17.952-9.6a2.063,2.063,0,0,0-.455-1.415,1.641,1.641,0,0,0-1.3-.515,1.77,1.77,0,0,0-1.433.626,2.481,2.481,0,0,0-.524,1.647H11.55a4.428,4.428,0,0,1,.589-2.254,4.152,4.152,0,0,1,1.665-1.6,5.062,5.062,0,0,1,2.44-.58,4.793,4.793,0,0,1,3.242,1,3.545,3.545,0,0,1,1.155,2.83,4.542,4.542,0,0,1-.52,2.041A11.342,11.342,0,0,1,18.341-5.4L15.271-2.162h5.808Z" transform="translate(468 3077)" fill="#12263f"/></g></svg>