<svg xmlns="http://www.w3.org/2000/svg" width="1373.333" height="696.565" viewBox="0 0 1373.333 696.565"><g transform="translate(-300 -674)"><rect width="193" height="50" rx="25" transform="translate(300 828.472)" fill="#cee284"/><rect width="193" height="50" rx="25" transform="translate(571 828.472)" fill="#cee284"/><text transform="translate(397 847.472)" fill="#12263f" font-size="16" font-family="Roboto-Regular, Roboto"><tspan x="-37.188" y="0">Etapas de </tspan><tspan x="-68.129" y="20">acondicionamiento</tspan></text><text transform="translate(670 849.472)" fill="#12263f" font-size="16" font-family="Roboto-Regular, Roboto"><tspan x="-41.516" y="0">Actividades</tspan><tspan x="-37.875" y="20">especiales</tspan></text><g transform="translate(706.821 -188.141)"><path d="M1.5,161.838h-3V0h3Z" transform="translate(510.166 1069)" fill="#0b481e"/></g><g transform="translate(979.001 -87.253)"><path d="M1.5,161.838h-3V0h3Z" transform="translate(510.166 1069)" fill="#0b481e"/></g><rect width="156" height="50" rx="25" transform="translate(765.667 976.838)" fill="#cee284"/><rect width="242.053" height="50" rx="25" transform="translate(953.947 976.838)" fill="#cee284"/><rect width="156" height="50" rx="25" transform="translate(1245.153 909.697)" fill="#ffe9e1"/><rect width="156" height="50" rx="25" transform="translate(1517.333 1010.585)" fill="#ffe9e1"/><rect width="156" height="50" rx="25" transform="translate(1245.153 1017.697)" fill="#ffe9e1"/><rect width="156" height="50" rx="25" transform="translate(1517.333 1118.585)" fill="#ffe9e1"/><rect width="156" height="50" rx="25" transform="translate(1245.153 963.697)" fill="#ffe9e1"/><rect width="156" height="50" rx="25" transform="translate(1517.333 1064.585)" fill="#ffe9e1"/><rect width="156" height="50" rx="25" transform="translate(592 926.359)" fill="#e8e8e8"/><rect width="156" height="50" rx="25" transform="translate(1437.144 926.359)" fill="#e8e8e8"/><rect width="156" height="50" rx="25" transform="translate(592 1025.247)" fill="#e8e8e8"/><text transform="translate(843.667 997.838)" fill="#12263f" font-size="16" font-family="Roboto-Regular, Roboto"><tspan x="-41.023" y="0">Identifica el</tspan><tspan x="-31.887" y="20">producto</tspan></text><text transform="translate(1074.974 995.838)" fill="#12263f" font-size="16" font-family="Roboto-Regular, Roboto"><tspan x="-43.379" y="0">Proporciona</tspan><tspan x="-95.559" y="20">información al consumidor</tspan></text><text transform="translate(1323.153 940.697)" fill="#12263f" font-size="16" font-family="Roboto-Regular, Roboto"><tspan x="-52.531" y="0">Alarga vida útil</tspan></text><text transform="translate(1595.333 1041.585)" fill="#12263f" font-size="16" font-family="Roboto-Regular, Roboto"><tspan x="-40.453" y="0">Producción</tspan></text><text transform="translate(1323.153 1037.697)" fill="#12263f" font-size="16" font-family="Roboto-Regular, Roboto"><tspan x="-24.355" y="0">Regula</tspan><tspan x="-60.418" y="20">comercialización</tspan></text><text transform="translate(1323.153 994.697)" fill="#12263f" font-size="16" font-family="Roboto-Regular, Roboto"><tspan x="-61.27" y="0">Conserva calidad</tspan></text><text transform="translate(1595.333 1094.585)" fill="#12263f" font-size="16" font-family="Roboto-Regular, Roboto"><tspan x="-56.438" y="0">Trasnformación</tspan></text><text transform="translate(1595.333 1148.563)" fill="#12263f" font-size="16" font-family="Roboto-Regular, Roboto"><tspan x="-42.578" y="0">Distribución</tspan></text><text transform="translate(670 958.359)" fill="#12263f" font-size="16" font-family="Roboto-Regular, Roboto"><tspan x="-55.727" y="0">Recubrimientos</tspan></text><text transform="translate(1515.144 958.359)" fill="#12263f" font-size="16" font-family="Roboto-Regular, Roboto"><tspan x="-50.797" y="0">Sigue el rastro</tspan></text><text transform="translate(670 1056.247)" fill="#12263f" font-size="16" font-family="Roboto-Regular, Roboto"><tspan x="-51.715" y="0">Barrera o capa</tspan></text><g transform="translate(146.82 1499.029) rotate(-90)"><path d="M1.5,21.586h-3V0h3Z" transform="translate(510.166 1069)" fill="#0b481e"/><path d="M-11959.333-9282.918l-10.771-6.463a1.5,1.5,0,0,1-.515-2.058,1.5,1.5,0,0,1,2.058-.515l9.229,5.537,9.229-5.537a1.5,1.5,0,0,1,2.058.515,1.5,1.5,0,0,1-.515,2.058Z" transform="translate(12469.666 10375.586)" fill="#0b481e"/></g><g transform="translate(419 1599.918) rotate(-90)"><path d="M1.5,21.586h-3V0h3Z" transform="translate(510.166 1069)" fill="#0b481e"/><path d="M-11959.333-9282.918l-10.771-6.463a1.5,1.5,0,0,1-.515-2.058,1.5,1.5,0,0,1,2.058-.515l9.229,5.537,9.229-5.537a1.5,1.5,0,0,1,2.058.515,1.5,1.5,0,0,1-.515,2.058Z" transform="translate(12469.666 10375.586)" fill="#0b481e"/></g><g transform="translate(146.82 1552.031) rotate(-90)"><path d="M1.5,21.586h-3V0h3Z" transform="translate(510.166 1069)" fill="#0b481e"/><path d="M-11959.333-9282.918l-10.771-6.463a1.5,1.5,0,0,1-.515-2.058,1.5,1.5,0,0,1,2.058-.515l9.229,5.537,9.229-5.537a1.5,1.5,0,0,1,2.058.515,1.5,1.5,0,0,1-.515,2.058Z" transform="translate(12469.666 10375.586)" fill="#0b481e"/></g><g transform="translate(419 1652.918) rotate(-90)"><path d="M1.5,21.586h-3V0h3Z" transform="translate(510.166 1069)" fill="#0b481e"/><path d="M-11959.333-9282.918l-10.771-6.463a1.5,1.5,0,0,1-.515-2.058,1.5,1.5,0,0,1,2.058-.515l9.229,5.537,9.229-5.537a1.5,1.5,0,0,1,2.058.515,1.5,1.5,0,0,1-.515,2.058Z" transform="translate(12469.666 10375.586)" fill="#0b481e"/></g><g transform="translate(146.82 1443.07) rotate(-90)"><path d="M1.5,21.586h-3V0h3Z" transform="translate(510.166 1069)" fill="#0b481e"/><path d="M-11959.333-9282.918l-10.771-6.463a1.5,1.5,0,0,1-.515-2.058,1.5,1.5,0,0,1,2.058-.515l9.229,5.537,9.229-5.537a1.5,1.5,0,0,1,2.058.515,1.5,1.5,0,0,1-.515,2.058Z" transform="translate(12469.666 10375.586)" fill="#0b481e"/></g><g transform="translate(419 1543.959) rotate(-90)"><path d="M1.5,21.586h-3V0h3Z" transform="translate(510.166 1069)" fill="#0b481e"/><path d="M-11959.333-9282.918l-10.771-6.463a1.5,1.5,0,0,1-.515-2.058,1.5,1.5,0,0,1,2.058-.515l9.229,5.537,9.229-5.537a1.5,1.5,0,0,1,2.058.515,1.5,1.5,0,0,1-.515,2.058Z" transform="translate(12469.666 10375.586)" fill="#0b481e"/></g><g transform="translate(381.121 766.054)"><path d="M1.5,52.729h-3V0h3Z" transform="translate(8.939 0)" fill="#0b481e"/><path d="M-11960.243-9283.466l-9.861-5.916a1.5,1.5,0,0,1-.515-2.058,1.5,1.5,0,0,1,2.058-.515l8.318,4.99,8.318-4.99a1.5,1.5,0,0,1,2.058.515,1.5,1.5,0,0,1-.515,2.058Z" transform="translate(11969.333 9338.245)" fill="#0b481e"/></g><g transform="translate(930.615 712.728)"><path d="M1.5,106.056h-3V0h3Z" transform="translate(8.939 0)" fill="#0b481e"/><path d="M-11960.243-9283.466l-9.861-5.916a1.5,1.5,0,0,1-.515-2.058,1.5,1.5,0,0,1,2.058-.515l8.318,4.99,8.318-4.99a1.5,1.5,0,0,1,2.058.515,1.5,1.5,0,0,1-.515,2.058Z" transform="translate(11969.333 9391.571)" fill="#0b481e"/></g><g transform="translate(658.898 766.054)"><path d="M1.5,52.729h-3V0h3Z" transform="translate(8.938 0)" fill="#0b481e"/><path d="M-11960.243-9283.466l-9.861-5.916a1.5,1.5,0,0,1-.515-2.058,1.5,1.5,0,0,1,2.058-.515l8.318,4.99,8.318-4.99a1.5,1.5,0,0,1,2.058.515,1.5,1.5,0,0,1-.515,2.058Z" transform="translate(11969.333 9338.245)" fill="#0b481e"/></g><g transform="translate(830.586 919.279)"><path d="M1.5,52.729h-3V0h3Z" transform="translate(8.938 0)" fill="#0b481e"/><path d="M-11960.243-9283.466l-9.861-5.916a1.5,1.5,0,0,1-.515-2.058,1.5,1.5,0,0,1,2.058-.515l8.318,4.99,8.318-4.99a1.5,1.5,0,0,1,2.058.515,1.5,1.5,0,0,1-.515,2.058Z" transform="translate(11969.333 9338.245)" fill="#0b481e"/></g><g transform="translate(1223.487 766.054)"><path d="M1.5,52.729h-3V0h3Z" transform="translate(8.939 0)" fill="#0b481e"/><path d="M-11960.243-9283.466l-9.861-5.916a1.5,1.5,0,0,1-.515-2.058,1.5,1.5,0,0,1,2.058-.515l8.318,4.99,8.318-4.99a1.5,1.5,0,0,1,2.058.515,1.5,1.5,0,0,1-.515,2.058Z" transform="translate(11969.333 9338.245)" fill="#0b481e"/></g><path d="M0,57.472a1.5,1.5,0,0,1-1.487-1.322A1.5,1.5,0,0,1-.178,54.482L468.666-1.489a1.5,1.5,0,0,1,1.667,1.312,1.5,1.5,0,0,1-1.312,1.667L.178,57.461A1.515,1.515,0,0,1,0,57.472Z" transform="translate(390.5 710)" fill="#0b481e"/><path d="M0,58.77a1.5,1.5,0,0,1-1.443-1.093A1.5,1.5,0,0,1-.408,55.827L202.31-1.443a1.5,1.5,0,0,1,1.851,1.036,1.5,1.5,0,0,1-1.036,1.851L.408,58.714A1.5,1.5,0,0,1,0,58.77Z" transform="translate(667.534 710)" fill="#0b481e"/><path d="M0,58.77a1.5,1.5,0,0,1-1.328-.8A1.5,1.5,0,0,1-.7,55.944L107.745-1.326a1.5,1.5,0,0,1,2.027.626,1.5,1.5,0,0,1-.626,2.027L.7,58.6A1.494,1.494,0,0,1,0,58.77Z" transform="translate(839.222 863.226)" fill="#0b481e"/><path d="M258.618,58.77a1.5,1.5,0,0,1-.326-.036L-.324,1.465A1.5,1.5,0,0,1-1.465-.324,1.5,1.5,0,0,1,.324-1.465l258.617,57.27a1.5,1.5,0,0,1-.323,2.965Z" transform="translate(972.974 710)" fill="#0b481e"/><path d="M520.426,58.77a1.516,1.516,0,0,1-.166-.009L-.164,1.491A1.5,1.5,0,0,1-1.491-.164,1.5,1.5,0,0,1,.164-1.491l520.424,57.27a1.5,1.5,0,0,1-.162,2.991Z" transform="translate(995.246 710)" fill="#0b481e"/><g transform="translate(1507.487 766.053)"><path d="M1.5,52.729h-3V0h3Z" transform="translate(8.939 0)" fill="#0b481e"/><path d="M-11960.243-9283.466l-9.861-5.916a1.5,1.5,0,0,1-.515-2.058,1.5,1.5,0,0,1,2.058-.515l8.318,4.99,8.318-4.99a1.5,1.5,0,0,1,2.058.515,1.5,1.5,0,0,1-.515,2.058Z" transform="translate(11969.333 9338.246)" fill="#0b481e"/></g><g transform="translate(1066.487 919.279)"><path d="M1.5,52.729h-3V0h3Z" transform="translate(9.241)" fill="#0b481e"/><path d="M-11960.243-9283.466l-9.861-5.916a1.5,1.5,0,0,1-.515-2.058,1.5,1.5,0,0,1,2.058-.515l8.318,4.99,8.318-4.99a1.5,1.5,0,0,1,2.058.515,1.5,1.5,0,0,1-.515,2.058Z" transform="translate(11969.333 9338.245)" fill="#0b481e"/></g><g transform="translate(659.91 867.328)"><path d="M-1.182,37.211-1.5.013l3-.026.318,37.2Z" transform="translate(8.923 15.531)" fill="#0b481e"/><path d="M-11960.243-9283.466l-9.861-5.916a1.5,1.5,0,0,1-.515-2.058,1.5,1.5,0,0,1,2.058-.515l8.318,4.99,8.318-4.99a1.5,1.5,0,0,1,2.058.515,1.5,1.5,0,0,1-.515,2.058Z" transform="translate(11969.333 9338.245)" fill="#0b481e"/></g><g transform="translate(1505.054 867.328)"><path d="M-1.182,37.211-1.5.013l3-.026.318,37.2Z" transform="translate(8.923 15.531)" fill="#0b481e"/><path d="M-11960.243-9283.466l-9.861-5.916a1.5,1.5,0,0,1-.515-2.058,1.5,1.5,0,0,1,2.058-.515l8.318,4.99,8.318-4.99a1.5,1.5,0,0,1,2.058.515,1.5,1.5,0,0,1-.515,2.058Z" transform="translate(11969.333 9338.245)" fill="#0b481e"/></g><g transform="translate(659.91 966.216)"><path d="M-1.182,37.211-1.5.013l3-.026.318,37.2Z" transform="translate(8.923 15.531)" fill="#0b481e"/><path d="M-11960.243-9283.466l-9.861-5.916a1.5,1.5,0,0,1-.515-2.058,1.5,1.5,0,0,1,2.058-.515l8.318,4.99,8.318-4.99a1.5,1.5,0,0,1,2.058.515,1.5,1.5,0,0,1-.515,2.058Z" transform="translate(11969.333 9338.245)" fill="#0b481e"/></g><path d="M128.363,58.77a1.5,1.5,0,0,1-.61-.131L-.611,1.37A1.5,1.5,0,0,1-1.37-.611,1.5,1.5,0,0,1,.611-1.37L128.975,55.9a1.5,1.5,0,0,1-.612,2.87Z" transform="translate(947.667 863.226)" fill="#0b481e"/><rect width="193" height="50" rx="25" transform="translate(848 828.472)" fill="#cee284"/><text transform="translate(945 859.472)" fill="#12263f" font-size="16" font-family="Roboto-Regular, Roboto"><tspan x="-38.336" y="0">Etiquetado</tspan></text><rect width="193" height="50" rx="25" transform="translate(1132 828.472)" fill="#cee284"/><text transform="translate(1229 859.472)" fill="#12263f" font-size="16" font-family="Roboto-Regular, Roboto"><tspan x="-60.418" y="0">Almacenamiento</tspan></text><rect width="193" height="50" rx="25" transform="translate(1419 828.472)" fill="#cee284"/><text transform="translate(1516 859.472)" fill="#12263f" font-size="16" font-family="Roboto-Regular, Roboto"><tspan x="-43.387" y="0">Trazabilidad</tspan></text><rect width="190.006" height="72" rx="36" transform="translate(835.01 674)" fill="#0b481e"/><text transform="translate(930.013 717)" fill="#fff" font-size="20" font-family="Roboto-Black, Roboto" font-weight="800"><tspan x="-54.707" y="0">Poscosecha</tspan></text><g transform="translate(-152.323 -188.141)"><path d="M1.5,216.839h-3V0h3Z" transform="translate(510.166 1069)" fill="#0b481e"/></g><rect width="156" height="50" rx="25" transform="translate(386.01 909.697)" fill="#ffe9e1"/><rect width="156" height="50" rx="25" transform="translate(386.01 1017.697)" fill="#ffe9e1"/><rect width="156" height="50" rx="25" transform="translate(386.01 1072.698)" fill="#ffe9e1"/><rect width="156" height="50" rx="25" transform="translate(386.01 963.697)" fill="#ffe9e1"/><text transform="translate(464.01 940.697)" fill="#12263f" font-size="16" font-family="Roboto-Regular, Roboto"><tspan x="-37.184" y="0">Recepción</tspan></text><text transform="translate(464.01 1048.697)" fill="#12263f" font-size="16" font-family="Roboto-Regular, Roboto"><tspan x="-34.457" y="0">Selección</tspan></text><text transform="translate(464.01 1103.698)" fill="#12263f" font-size="16" font-family="Roboto-Regular, Roboto"><tspan x="-45.641" y="0">Clasificación</tspan></text><text transform="translate(464.01 994.697)" fill="#12263f" font-size="16" font-family="Roboto-Regular, Roboto"><tspan x="-39.832" y="0">Separación</tspan></text><g transform="translate(-712.323 1499.029) rotate(-90)"><path d="M1.5,21.586h-3V0h3Z" transform="translate(510.166 1069)" fill="#0b481e"/><path d="M-11959.333-9282.918l-10.771-6.463a1.5,1.5,0,0,1-.515-2.058,1.5,1.5,0,0,1,2.058-.515l9.229,5.537,9.229-5.537a1.5,1.5,0,0,1,2.058.515,1.5,1.5,0,0,1-.515,2.058Z" transform="translate(12469.666 10375.586)" fill="#0b481e"/></g><g transform="translate(-712.323 1552.031) rotate(-90)"><path d="M1.5,21.586h-3V0h3Z" transform="translate(510.166 1069)" fill="#0b481e"/><path d="M-11959.333-9282.918l-10.771-6.463a1.5,1.5,0,0,1-.515-2.058,1.5,1.5,0,0,1,2.058-.515l9.229,5.537,9.229-5.537a1.5,1.5,0,0,1,2.058.515,1.5,1.5,0,0,1-.515,2.058Z" transform="translate(12469.666 10375.586)" fill="#0b481e"/></g><g transform="translate(-712.323 1607.031) rotate(-90)"><path d="M1.5,21.586h-3V0h3Z" transform="translate(510.166 1069)" fill="#0b481e"/><path d="M-11959.333-9282.918l-10.771-6.463a1.5,1.5,0,0,1-.515-2.058,1.5,1.5,0,0,1,2.058-.515l9.229,5.537,9.229-5.537a1.5,1.5,0,0,1,2.058.515,1.5,1.5,0,0,1-.515,2.058Z" transform="translate(12469.666 10375.586)" fill="#0b481e"/></g><g transform="translate(-712.323 1443.07) rotate(-90)"><path d="M1.5,21.586h-3V0h3Z" transform="translate(510.166 1069)" fill="#0b481e"/><path d="M-11959.333-9282.918l-10.771-6.463a1.5,1.5,0,0,1-.515-2.058,1.5,1.5,0,0,1,2.058-.515l9.229,5.537,9.229-5.537a1.5,1.5,0,0,1,2.058.515,1.5,1.5,0,0,1-.515,2.058Z" transform="translate(12469.666 10375.586)" fill="#0b481e"/></g><g transform="translate(103 4.726)"><path d="M1.5,272.839h-3V0h3Z" transform="translate(510.166 1069)" fill="#0b481e"/></g><rect width="156" height="50" rx="25" transform="translate(641.333 1102.563)" fill="#fffae3"/><rect width="189.253" height="50" rx="25" transform="translate(641.333 1210.563)" fill="#fffae3"/><rect width="156" height="50" rx="25" transform="translate(641.333 1265.564)" fill="#fffae3"/><rect width="156" height="50" rx="25" transform="translate(641.333 1156.563)" fill="#fffae3"/><text transform="translate(719.333 1121.563)" fill="#12263f" font-size="16" font-family="Roboto-Regular, Roboto"><tspan x="-32.551" y="0">Minimiza</tspan><tspan x="-52.707" y="20">deshidratación</tspan></text><text transform="translate(729.333 1231.563)" fill="#12263f" font-size="16" font-family="Roboto-Regular, Roboto"><tspan x="-79.777" y="0">Incorpora ingredientes</tspan><tspan x="-41.363" y="20">funcionales</tspan></text><text transform="translate(719.333 1286.564)" fill="#12263f" font-size="16" font-family="Roboto-Regular, Roboto"><tspan x="-27.625" y="0">Retarda</tspan><tspan x="-53.695" y="20">envejecimiento</tspan></text><text transform="translate(719.333 1187.563)" fill="#12263f" font-size="16" font-family="Roboto-Regular, Roboto"><tspan x="-69.68" y="0">Mejora apariciencia</tspan></text><g transform="translate(-457.001 1691.896) rotate(-90)"><path d="M1.5,21.586h-3V0h3Z" transform="translate(510.166 1069)" fill="#0b481e"/><path d="M-11959.333-9282.918l-10.771-6.463a1.5,1.5,0,0,1-.515-2.058,1.5,1.5,0,0,1,2.058-.515l9.229,5.537,9.229-5.537a1.5,1.5,0,0,1,2.058.515,1.5,1.5,0,0,1-.515,2.058Z" transform="translate(12469.666 10375.586)" fill="#0b481e"/></g><g transform="translate(-457.001 1744.896) rotate(-90)"><path d="M1.5,21.586h-3V0h3Z" transform="translate(510.166 1069)" fill="#0b481e"/><path d="M-11959.333-9282.918l-10.771-6.463a1.5,1.5,0,0,1-.515-2.058,1.5,1.5,0,0,1,2.058-.515l9.229,5.537,9.229-5.537a1.5,1.5,0,0,1,2.058.515,1.5,1.5,0,0,1-.515,2.058Z" transform="translate(12469.666 10375.586)" fill="#0b481e"/></g><g transform="translate(-457.001 1799.898) rotate(-90)"><path d="M1.5,21.586h-3V0h3Z" transform="translate(510.166 1069)" fill="#0b481e"/><path d="M-11959.333-9282.918l-10.771-6.463a1.5,1.5,0,0,1-.515-2.058,1.5,1.5,0,0,1,2.058-.515l9.229,5.537,9.229-5.537a1.5,1.5,0,0,1,2.058.515,1.5,1.5,0,0,1-.515,2.058Z" transform="translate(12469.666 10375.586)" fill="#0b481e"/></g><g transform="translate(-457.001 1855.898) rotate(-90)"><path d="M1.5,21.586h-3V0h3Z" transform="translate(510.166 1069)" fill="#0b481e"/><path d="M-11959.333-9282.918l-10.771-6.463a1.5,1.5,0,0,1-.515-2.058,1.5,1.5,0,0,1,2.058-.515l9.229,5.537,9.229-5.537a1.5,1.5,0,0,1,2.058.515,1.5,1.5,0,0,1-.515,2.058Z" transform="translate(12469.666 10375.586)" fill="#0b481e"/></g><g transform="translate(-457.001 1635.938) rotate(-90)"><path d="M1.5,21.586h-3V0h3Z" transform="translate(510.166 1069)" fill="#0b481e"/><path d="M-11959.333-9282.918l-10.771-6.463a1.5,1.5,0,0,1-.515-2.058,1.5,1.5,0,0,1,2.058-.515l9.229,5.537,9.229-5.537a1.5,1.5,0,0,1,2.058.515,1.5,1.5,0,0,1-.515,2.058Z" transform="translate(12469.666 10375.586)" fill="#0b481e"/></g><rect width="189.253" height="50" rx="25" transform="translate(641.333 1320.565)" fill="#fffae3"/><text transform="translate(729.333 1341.565)" fill="#12263f" font-size="16" font-family="Roboto-Regular, Roboto"><tspan x="-78.129" y="0">Protección patógenos</tspan><tspan x="-63.309" y="20">y medio ambiente</tspan></text></g></svg>